<mxfile host="app.diagrams.net" modified="2023-12-16T19:55:24.119Z" agent="Mozilla/5.0 (Windows NT 10.0; Win64; x64) AppleWebKit/537.36 (KHTML, like Gecko) Chrome/120.0.0.0 Safari/537.36" etag="m73pnHNAZiOMX82yEBPO" version="22.1.11" type="device">
  <diagram name="PÃ¡gina-1" id="5cFd0TC7WkIMot7TkSYX">
    <mxGraphModel dx="1452" dy="705" grid="1" gridSize="10" guides="1" tooltips="1" connect="1" arrows="1" fold="1" page="1" pageScale="1" pageWidth="1169" pageHeight="827" math="0" shadow="0">
      <root>
        <mxCell id="0" />
        <mxCell id="1" parent="0" />
        <mxCell id="2Kfv_4t5I5vCwGOsFX-G-1" value="" style="whiteSpace=wrap;html=1;" parent="1" vertex="1">
          <mxGeometry x="50" y="40" width="1000" height="660" as="geometry" />
        </mxCell>
        <mxCell id="2Kfv_4t5I5vCwGOsFX-G-2" value="" style="shape=image;verticalLabelPosition=bottom;labelBackgroundColor=default;verticalAlign=top;aspect=fixed;imageAspect=0;image=data:image/png,iVBORw0KGgoAAAANSUhEUgAAAgAAAAIACAYAAAD0eNT6AAAABHNCSVQICAgIfAhkiAAAAAlwSFlzAAAOxAAADsQBlSsOGwAAABl0RVh0U29mdHdhcmUAd3d3Lmlua3NjYXBlLm9yZ5vuPBoAAB9cSURBVHic7d1pmJxlne/x/1PdnZUkQEAdcECYccVlhDmyJCgK4jLjdhSPZ9RxmdFRvFCByOLgIeDCImFVEFDZVYioQICwBiQLICCC7GCEsIcQ0lk6vVTd5wXDDCJLkq7uu6rvz+dlXjzX76qrUs+3n6eWKhi5pkctlm2/ZVQdr4taelWk9KqI6m8j4mUR1eSINDkixkZER0RMzLoV1sIbXvaqe59Ytnzq4987/7HcW6BdVbkH0ETT3r5FNAamRBXbR1TbRMRWEbFe7lnQbFO3eHNUUd39hyfu2757+iVP5t4D7UgAtLN9t5kUA6PfHal6b1Tx3ojYNPckGA5Tt3hzbDB2Qjy5qvuPdyy5f8qT0y/uzr0J2o0AaDf7bjMp+sd+KKrGbhHVrhExKvckGG7PBEBExJOruv9w95IlUxdPn7ki8yxoK525B7BGqthryk4R8e8xEP87qjRGu8HTNhw38S1/HzF78R7v2zmOu7g39x5oF84irWzaruOjseqzUTW+FlG9OvccaBXPvgLwjCWruq+cf+vv3hsn3difaRa0lY7cA3ge+79tcmy3xX9G6vtZVPHRp9+xDzxjsw1eHmO7Rv/Fv43rGr3FxpNfts2i8a86O26/PWWaBm3DLYBWss+UCdGodo++2D8iTco9B9rNhmPXe//bpvbPvH6r+FhMj0buPdDKarkHEBFf3KYrpu3w1ajHnyOlQ538Yd29fL0NPrLdhl84PdzihBclAHLbe8q7Y+LYP0SqjomIDXPPgZFg4/EbfHKHY790Uu4d0Mq8ByCXr++0fkzZ5JiI6qiI2Dj3HGgnz/cegOcaN2r01hvsstX6D1184yXDNAvaigDIYdrUj0RVvySienu4TAlrbU0CICJi/Kgx222065tGLbrohiuHYRa0FQEwnPbcfmzs8KoZEenIiBifew60qzUNgIiIsV2jdpz0rtfXHp79+6uGdhW0FwEwXPacslXUqiujin/KPQXa3doEQBVVjB8z9u0b7/rm7kUX3XDtEE+DtuFNgMNh2g4filrMj4jX5p4CJapSVa0/esKM7Y794pdzb4FWIQCGVhV7TzkkUvWb8HO7kFWtqqqNxq9/7JQffPkzubdAK3ALYKjs8b7RMfXlp0UV/uKAJlubWwDPVkXURneM+ucNd9nqnodm3/THIZgGbcMVgKGw7zaToqv7sqjiX3JPAf5SrVZ1brze+qdNPXb3D+TeAjkJgGbbb+oGMTDmkqhix9xTgOdXRTVq4rhx52x33Bfel3sL5CIAmmmPHTeO/rg6IrbNPQV4cR1VbczkcZNmvuP4L4t1iiQAmmXfbSbFqMbFEelNuacAa6YWtfHrjRo/a8djv/S23FtguAmAZth9p/ViYMzsiNgm9xRg7dSq2sSJ49a7+J0/2ustubfAcBIAg7Xbbh0xtv+siNgu9xRg3dSq2objOjou3/HYPd6QewsMFwEwWJs9fExEfDD3DGBwarVqo0njx1y2y0/33DL3FhgOAmAwpk35ekR8JfcMoDmqqDYZ3eic876T93ll7i0w1ATAutpr+x0ixeG5ZwDNVauqzWpVuvo9J379b3JvgaEkANbFPlM2iar2q4joyj0FaL5aVW3Z2dF1xUdO239y7i0wVATA2poetain0yPi5bmnAEOnVlWv7+sfuOqfjt9vg9xbYCgIgLW1YsreEdXOuWcAQ69WVW+MUfVLdztn+nq5t0CzCYC1MW3HN0eK7+SeAQyfWlX94+rlPRd/9pTpY3JvgWYSAGtqetQiNX4UEaNyTwGGW5q6uL7i4t3Ome7/PyOGAFhTy6fuGRHb554B5FGrajutXrHq19PnTO/MvQWaQQCsiT233zQiHZR7BpBZivf/fmHPz6dPn+61k7bnSbwmOmqHRsT43DOA/Bopfez3m/eclVKqcm+BwRAAL2Xa1G0jxSdzzwBaR6ORPvGRU/b/kQignQmAl5LSIRHhPznwF+qp8cWPnXbA0bl3wLoSAC9m2g7vioh35p4BtKa+ev9XP3Lq/t/PvQPWhQB4MY3q4NwTgNY20Kjv/Ymzph+QewesLQHwQr4xZceoYkruGUCLS1Gt7F118MdOP2Dv3FNgbQiAF1IP/5mBNZOi6hvoO/zjp37rq7mnwJoSAM/nG29/dVTxgdwzgPaRUtRW1/tmfOpn3/5c7i2wJgTA82kM/Ed4bIC1lCJ1Ll+98kefOuOg/5t7C7wUJ7nnmr7VqIjq07lnAO2pkRqjlvf3nPLpXxy0W+4t8GIEwHOtWP/DEfGy3DOA9tVIjdHdPT2nfPacQ96bewu8EAHwXL71D2iCRqMx/qmV3Wfvfu4M3yVCSxIAz7bHthMjYtfcM4CRod6oT3y4+4lf/dvZ3/ORYlqOAHi2rq4PR8SY3DOAkaPeqK+/dNWKX3/9gqO2zr0Fnk0APFstfTD3BGDk6W8MbPzAksWzps064Y25t8AzBMAzpu/UGSl2zj0DGJn66wN/s3DJotn7zDr59bm3QIQA+B/L6lMiYv3cM4CRq29gYNM/LfnzhQecf/IWubeAAHhGrfGu3BOAka93oH+LO5b++bLpl52+We4tlE0A/LfkXbrAsOgb6P+72x655+LD55zzitxbKJcAiIjYbbeOiOptuWcA5Vjd3/uGGxfdetGJN1ywUe4tlEkARES88sE3RMSE3DOAsqzq733rnDtuuOCcGy6blHsL5REAERG1jn/IPQEo08q+nu1+fcfcWRfdc+3E3FsoiwCIiIj0ptwLgHKt6OuZetb1s2fe8PAN43JvoRwC4Gm+nAPIqnv1ql2Pu/qSny9cuNC3kTIsBMDTtsw9AODJVcs+eOC1Z56RUhqVewsjnwCIqCJi89wjACIilq5a/rEv/PLwk1JKXbm3MLIJgK/v+IrwA0BAC3mse8lnvvjLw49NKXXm3sLIJQC64m9yTwB4rke7l3zpP8494igRwFARAFH3JRxAS3qke/FXvvKrI7+bUurIvYWRRwA0apNzTwB4XimqRcse+8ae5x97QErJ6zVN5QkVyTdwAa0rRfWnJQ996xuzfri3CKCZPJmiGp17AcCLSSk67n580ff2vfCEr6aUqtx7GBkEQOXztkDrS5E673r8gcMOuPCkL4gAmkEApPBZW6AtNFJj1B8XLzzm25ef9mkRwGAJgKg8BkDbaDQaY25adNcJB196ysdzb6G9OfkBtJl6qo+7+ZF7Tzpszhkfzr2F9iUAANrQQH1g4nV/vuPU7116+vtzb6E9CQCANtXfGJh00yN3n3bM3HPfmXsL7UcAALSx3oG+ja6576azfzDv3Lfn3kJ7EQAAba53oH/j3953889Oufai7XJvoX0IAIARoKe/d9NL7rn2F2f9/tJ/yL2F9iAAAEaIlX2rN5912/xzz7nl6jfl3kLrEwAAI8iK3lVb/uaWOedcePN1r8m9hdYmAABGmOW9q173izsuOee6R+/cIvcWWpcAABiBnlq14i0/mDPzl9c/dO/f5t5CaxIAACPUU6uWb33CNWf/4s7FD2ySewutRwAAjGBPrFy2wxFzzjrjkeWPbJx7C61FAACMcI8tX/quA2efcWZ3d/fk3FtoHQIAoACPdD+x6z6XnviTlNL6ubfQGgQAQCEeWrb4Q18/79gfppQm5d5CfgIAoCB/WvLQv0yb9YOjUkoTcm8hLwEAUJi7H1/0uW/MOn5GSmm93FvIRwAAFOiuxff/+/4XnfidlNK43FvIQwAAlChFddtjf/rqQZf+9FsppbG55zD8BABAqVJUNz101z4HX3bq/imlMbnnMLwEAEDBUorajYvu3P+wK87cK6U0Ovceho8AAChcitS54IHbDjz6mrO/nFIalXsPw6Mz9wAA8mukxqir7r350Fp01FNKP6qqqj/3JoaWAAAgIiIaqTF6zn03HTqmq6snpXRqVVUDuTcxdAQAAP+t3qiPu/jOa4+uVVFPKZ1eVVU99yaGhgAA4C/UG43xF99x/VGjO0b3pJTOqaqqkXsTzScAAPgr/Y2BSeffPu+48WPG9qaUzhMBI48AAOB59Q70bfTzmy47MRpVPaV0QVVVKfcmmkcAAPCCegf6Nz775stPmDhuvd6U0qUiYOQQAAC8qJ6B3k1+cu15J47urD6TUvqtCBgZBAAAL2ll3+rNT5h3/k9rHR2fjYhrMs+hCXwTIABrZEXvqi1PuOY3J9286K635d7C4AkAANZY9+qVrzty7jkn3bP44a1zb2FwBAAAa2XpquVv+e4Vp5x875OPvjH3FtadAABgrS1ZuWzrQy475aQnertfl3sL60YAALBOHl+xdPv/vOBHxy9bvezVubew9gQAAOvs4WVPvHO/C086vqenZ4vcW1g7AgCAQXnwqcW77Dv7pGNSSpvn3sKaEwAADNrCJx/6wLQLfnBYSmnT3FtYMwIAgKa4e/Gi/7P/RT86JKW0Se4tvDQBAEDT3Pbowk//58UnfTul9PLcW3hxAgCAprr10fs+d/Blp34rpfSy3Ft4YQIAgOZKUd3w4B27H3blmd9IKW2Uew7PTwAA0Hwpqvn337rXEVf9bFpKaXLuOfw1vwYIwJBIKWrXLPzDtDGdY3pSSsdUVfVU7k38DwEAwJBJKTouu/v6A6qIekrpuKqqluXexNMEAABDKkXqvOye3x0wpqtrdUrpxKqqlufehAAAYBg0UmP0rDsWHDS2a+zqlNKpVVWtyL2pdAIAgGFRb9THzbzlikM7qqinlE6rqmpV7k0lEwAADJt6ozH+nD/MOWRs15jelNIvREA+AgCAYdXfGJh0+k2zDx/TNbo3pXRuVVWrc28qkQAAYNj1DfRPPvm6847qrFWNlNKvqqrqzb2pNAIAgCx6B/o3PnHB+UeM7hjTm1KaVVVVX+5NJREAAGTTM9C7yQ/mzzxywvgx/Sml2VVV9efeVApfBQxAViv7Vm9+6OVnHX3ro/ftklLyh+kwEQAAZLeid9WWh1151pF/WvLwTiJgeAgAAFpC9+qVrzvo0lNmPLriqSkppY7ce0Y6AQBAy1ja0/3m/Wb98KjFy5fvkFJyjhpCHlwAWsqTq7rfuv/FPzysu7/nbSJg6HhgAWg5j69Yuv0+5//wkJ7+nn9MKVW594xEAgCAlvTwssU77X3B8d/t7+9/qwhoPgEAQMt68KnHd5l24fEHRcRbREBzCQAAWtrCJx/+5z0vOO7AiNgq95aRRAAA0PLuW/zgh7950Un7pJREQJMIAADawh8fve/TB8w+eVpK6bW5t4wEAgCAtnHLI/d+5juXn/a1lNKrc29pdwIAgPaRorp+0e1fOuTKM/ZIKf197jntTAAA0F5SVNfe/8evHHX12V9MKb0q95x25QcXAGg7KUXtqj/dtNeYrtG9KaUfV1V1f+5N7UYAANCWUoqO2Xdeu19H1AZSSj+pqurB3JvaiQAAoG2lSJ0X3bVg/7GjR/WmlM6oquqh3JvahQAAoK01UmP0r2797bfGjRrdm1I6u6qqh3NvagcCAIC2V2/Ux51546XfrlW1+n9FwGO5N7U6AQDAiFBvNMafeeOlB4/pGN2fUjq3qqrHc29qZQIAgBGjvz4w6Se/m/Xt8aPH9qaUzquqaknuTa1KAAAwovQN9E8+bu7MQztrtUZK6fyqqp7MvakVCQAARpzegf6Nj/ntzO+O7uzqSyldVFXVU7k3tRrfBAjAiNQz0LvJEVf9/Hu3P7pw15TSpNx7Wo0AAGDEWtm3evPvXHH6Ifc8+eAuKaUJufe0EgEAwIi2onfVlgfN/ul3Fj312LtSSuvl3tMqBAAAI1736pWvO+DiHx/8aPcT70gpjcu9pxUIAACKsLSn+837XXTit5eu6n5HSmls7j25+RQA0HbmLrwl9wTa11tPu+GiL8aEUZflHpKbKwAAFKb6cKzo2z33itwEAADlSbWJuSfkJgAAoEACAAAKJAAAoEACAAAKJAAAoEACAAAKJAAAoEACAAAKJAAAoEACAAAKJAAAoEACAAAKJAAAoEACAAAKJAAAoEACAAAKJAAAoEACAAAKJAAAoEACAAAKJAAAoEACAAAKJAAAoEACAAAKJAAAoEACAAAKJAAAoEACAAAKJAAAoEACAAAKJAAAoEACAAAKJAAAoEACAAAKJAAAoEACAAAKJAAAoEACAAAKJAAAoEACAAAKJAAAoEACAAAKJAAAoEACAAAKJAAAoEACAAAKJAAAoEACAAAKJAAAoEACAAAKJAAAoEACAAAKJAAAoEACAAAKJAAAoEACAAAKJAAAoEACAAAKJAAAoEACAAAKJAAAoEACAAAKJAAAoEACAAAKJAAAoEACAAAKJAAAoEACAAAKJAAAoEACAAAKJAAAoEACAAAKJAAAoEACAAAKJAAAoEACAAAKJAAAoEACAAAKJAAAoEACAAAKJAAAoEACAAAKJAAAoEACAAAKJAAAoEACAAAKJAAAoEACAAAKJAAAoEACAAAK1Jl7AAxWrapFrapyz2gZ9dSIlFJTj+kx/kuNlKKRGrlnwKAIANrebz53SHzgDVNyz2gZ7//xtLj4zmubesz/9+7PxoG7fr6px2xnF9w+Lz74031zz4BBcQsAAAokAACgQAIAAAokAACgQAIAAAokAACgQAIAAAokAACgQAIAAAokAACgQAIAAAokAACgQAIAAAokAACgQAIAAAokAACgQAIAAAokAACgQAIAAAokAACgQAIAAAokAACgQAIAAAokAACgQJ25B8Bg/fKWOXH7Y3/OPaNl3LfkoaYfc+7CW+KwOWc1/bjt6vbHFuaeAIMmAGh7p98wO/eEEe/ye26Iy++5IfcMoIncAgCAAgkAACiQAACAAgkAACiQAACAAgkAACiQAACAAgkAACiQAACAAgkAACiQAACAAgkAACiQAACAAgkAACiQAACAAgkAAChQZ+4BMFgH7vr52H7zrXLPaBkHzD45blh0Z1OP+alt3hOf2nrXph6znS24/7Y46NKf5p4BgyIAaHvbvPK18Z7Xbpt7Rss45pqZTT/m30/e1GP8LH31gdwTYNDcAgCAAgkAACiQAACAAgkAACiQAACAAgkAACiQAACAAgkAACiQAACAAgkAACiQAACAAgkAACiQAACAAgkAACiQAACAAgkAACiQAACAAgkAACiQAACAAgkAACiQAACAAgkAACiQAACAAgkAAChQZ+4BMFgfP/1b0dnRkXtGy+jp7236Mb93xRlxxNU/b/px29VAvZ57AgyaAKDtrR7oixjIvWJk66v3R1+9P/cMoIncAgCAAgkAACiQAACAAgkAACiQAACAAgkAACiQAACAAgkAACiQAACAAgkAACiQAACAAgkAACiQAACAAgkAACiQAACAAgkAACiQAACAAnXmHgCD9c2d/zXettnrc89oGQdfekrc9NDdTT3mJ/5hl/jEW3du6jHb2fUP3BHfu+L03DNgUAQAbW+7zbeKD7xhSu4ZLePEBec1/Zive9lm8aGtdmz6cdtVrXLxlPbnWQwABRIAAFAgAQAABRIAAFAgAQAABRIAAFAgAQAABRIAAFAgAQAABRIAAFAgAQAABRIAAFAgAQAABRIAAFAgAQAABRIAAFAgAQAABRIAAFAgAQAABRIAAFAgAQAABRIAAFAgAQAABRIAAFCgztwDYLA+edZBMaqjK/eMltHdu7Lpxzxszllx3Nxzm37cdtVX7889AQZNAND2lveuyj1hxOvp742e/t7cM4AmcgsAAAokAACgQAIAAAokAACgQAIAAAokAACgQAIAAAokAACgQAIAAAokAACgQAIAAAokAACgQAIAAAokAACgQAIAAArUmXsADNa7X/O/YvMNXpF7RsuYfed18eCyx5t6zK03fU1s/crXNvWY7ez+pY/GZXf/LvcMGBQBQNvbY+rH4gNvmJJ7Rst4/4+nNT0APrjV1Dhw18839Zjt7ILb5wkA2p5bAABQIAEAAAUSAABQIAEAAAUSAABQIAEAAAUSAABQIAEAAAUSAABQIAEAAAUSAABQIAEAAAUSAABQIAEAAAUSAABQIAEAAAUSAABQIAEAAAUSAABQIAEAAAUSAABQIAEAAAUSAABQIAEAAAXqzD0ABuvo354Tv7r16twzWsYtj9zX9GP+5o/XxJ+XPtr047arB5Y+lnsCDJoAoO1dee+NuSeMeDc/fE/c/PA9uWcATeQWAAAUSAAAQIEEAAAUSAAAQIEEAAAUSAAAQIEEAAAUSAAAQIEEAAAUSAAAQIEEAAAUSAAAQIEEAAAUSAAAQIEEAAAUSAAAQIEEAAAUSAAAQIEEAAAUSAAAQIEEAAAUSAAAQIEEAAAUSAAAQIEEAAAUSAAAQIEEAAAUSAAAQIEEAAAUSAAAQIEEAAAUSAAAQIEEAAAUSAAAQIEEAAAUSAAAQIEEAAAUSAAAQIEEAAAUSAAAQIEEAAAUSAAAQIEEQKRG7gUADDev/QKgiv7cEwAYblVv7gW5CYBU9eWeAMAwq5IAyD0gP08CgOL4408ARJWeyj0BgGGWYmnuCbkJgKg9kXsBAMMtFf/aLwAa9SW5JwAwzGq14l/7BUCj89HcEwAYZv19j+WekFuVe0ALqGLvKasiYkzuIQAMi5UxY96EiEi5h+TkCsDTT4D7c48AYNj8OQo/+UcIgKdVcV/uCQAMmz/lHtAKBEBERCPdmnsCAMPGa34IgKdVlScDQCkqf/RFCICnNRq35J4AwDCp+6MvQgA87cFX3h5RLcs9A4ChVi2LBze5M/eKViAAIiJmzqxHpOtzzwBgqKX5T7/mIwCekdK83BMAGGJe6/+bAHhGR3Vl7gkADLFaeK3/LwLgGeO7FkSEXwYEGLmWxv2but37XwTAM6ZfNRBRXZ57BgBDpbrE/f//IQCeLTXOyz0BgCFSxQW5J7QSAfBsndV5EdGTewYATbc6evtn5R7RSgTAsx0+b3lEuiT3DACarIoL47jrunPPaCUC4K+dlXsAAE2W4me5J7QaAfBcE5adHxGP554BQNM8FstXu///HALguabf1hdVnJ57BgBNktKpcdKN/blntBoB8HzqjRMjopF7BgCDVo+OODn3iFYkAJ7PUQvujRQ+EgjQ9qpfx/fn35d7RSsSAC+kozYj9wQABqlqHJl7QqsSAC/k+9fMixTX5J4BwDq7Ko6YvyD3iFYlAF5MVX0z9wQA1lGjNj33hFYmAF7MjLlzI/xyFEDbSXFpHHXN1blntDIB8JLSfuETAQDtpBEdtf1zj2h1AuClzJj/u4g4I/cMANbYT+P719yUe0SrEwBroiO+GRErcs8A4CV1x8DAAblHtIOO3APawrxFy2PKZj0R8d7cUwB4EanaO45eMCf3jHbgCsCaWm/esRHV/NwzAHhB18XEuSfkHtEuBMCamh6NqBr/ERG9uacA8FdWR9Q+H9O9aXtNuQWwNuYvejx22LwnInbNPQWAZ6nS3jFj3qzcM9pJlXtAG6pi7ykXRsT7cg8BIJ7+zP+R894bESn3lHbiFsDaS1Gv/VtEPJJ7CADxUNQH/jWc/NeaAFgXR1/zSFTpoxHRl3sKQMH6I6pPxDHXPZZ7SDvyHoB1NX/Rg7HD3y6LqNwKAMii+mrMmHtu7hXtSgAMxoJF18cOm02OiG1zTwEoShUnxox5B+ae0c7cAhisBzbZM1Kcl3sGQDmqC+P+Tb6Se0W7EwCDNXNmPWrjP+lLggCGxdyY0PPxmDmznntIu/MxwGbZd5tJUR9zeaT4x9xTAEaom6OrelccOndp7iEjgSsAzXLYjcsidb0vIm7JPQVgBPpDRNe7nfybRwA004yrnoh61zsiYkHuKQAjRhU3xKj+nWPGVU/knjKSuAUwFPbYdmKM6jwvInbKPQWgzV0ZPV0fiuOv8pPsTeYKwFA47rrumPDUe6KKM3NPAWhj58SErn9y8h8argAMrSqmTf12pPTN8FgDrKkUVXVwHDH3oPAVv0PGSWk47DXlg1FVp0ekSbmnALS45RHp8zFj/i9zDxnpBMBw+fp2r4/OznMjpdfnngLQom6LjvhoHD7vrtxDSuA9AMPl6GvviPU6t45UHRsuaQE8RzojqvHbOvkPH1cActhrygejihMj4hW5pwBk9kik6otx5NxZuYeUxo8B5bBg0V2x7d/9JGr1DSOqrUOIAeVJEenMGDXwofj+gj/kHlMiJ57c9pryzqji2Ih4Y+4pAMPkloi0R8yY/9vcQ0rmPQC5HTlvTkzoemtE9ZWIWJJ7DsCQqWJxpPhSPLDJ1k7++bkC0Ep232m9GDfwlUhpv4hYP/ccgCZZHikdH129h8RhNy7LPYanCYBWtOf2G0at9rWI2D0iNso9B2AdPRFV9cPojGP8iE/rEQCtbPo242L52M9GpK9FxGtyzwFYQ3dFSsdESqfGUQt6co/h+QmA9lDFnju+PWqNL0TERyNiTO5BAM/RE5F+GRE/jhnzrwnfd9LyBEC7mb7NuFgxdueI9OlI8aGIGJV7ElCs3oh0WaTazOjv/00cd1137kGsOQHQzvbYdmKM7to5UuO9EdV7ImLz3JOAEW9hVHFppNrs6GhcEYfPW557EOtGAIwke739b6PW2DFS2iGiemtEelNETMg9C2hb3RHVHyOlm6KW5kWtPjcOv+7B3KNoDgEwslWx59QtopZeG1FtEZFeFZFeGVG9PCImR1STI9L4ePp54GOHUI6nIiJFVCsj0pKIWBKRHouoHoyUFkaqLYyO2l1xxG8X5h7K0Pn/BIDSQo2/4RMAAAAASUVORK5CYII=;" parent="1" vertex="1">
          <mxGeometry x="760" y="234" width="72" height="72" as="geometry" />
        </mxCell>
        <mxCell id="2Kfv_4t5I5vCwGOsFX-G-3" value="" style="shape=image;verticalLabelPosition=bottom;labelBackgroundColor=default;verticalAlign=top;aspect=fixed;imageAspect=0;image=data:image/png,iVBORw0KGgoAAAANSUhEUgAAAgAAAAIACAYAAAD0eNT6AAAABHNCSVQICAgIfAhkiAAAAAlwSFlzAAAN1wAADdcBQiibeAAAABl0RVh0U29mdHdhcmUAd3d3Lmlua3NjYXBlLm9yZ5vuPBoAACJ0SURBVHja7d3bk2VXXcBxeTA+5Dkl/4Q+8G4V5RsPqZIQCYFAgSNiDGCIiRogBFAxRkSjJgGCGmMEAUNCIiGEZCZzy9x6rj3TM9Nz7bn29ExP3++X5f6dTDSEzEx3771Pn3PWZ1d9qiytMj3dZ+313fvsvdavpJR+hc516uz5Gws3F+4uPFx4urC2cKgwWkjA6lj/+o7XnKdYLX4JnTnp31RYU3ihMOVEC63puZ++KgIQAJSe9G8o3FnYWFhwcoX2CAARgABgpRP/uwq3F445oUJ7BoAIQACw3Mn/twtdTqTQ/gEgAhAALGXif3fhRSdQ6KwAEAEIAK41+b+ncNrJEzozAEQAAoB3mvx/tzDhxAmdHQAiAAHAWx/0+3Jh0UkT8ggAEYAAMPnH5P+UkyXkFwAiAAGQdwA86EQJ+QaACEAA5Dn53+q2PwgAEYAAyO9pfw/8gQAQAQiAzN7z96ofCAARgADILABecHIEASACEAB5Tf7vdWIEASACEAD5vfK33YkRBIAIQADkFQC3OSmCABABCIC8Jv8bbOkLAkAEIADyC4A7nRBBAIgABEB+AbDRCREEgAhAAOQ1+d9UWHBCBAEgAhAAeQXAGidDEAAiAAFg4R9AAIgABECHT/43FqacDEEAiAAEQF4BcLMTIQgAEYAAyC8A7nYiBAEgAhAA+QXAw06EIABEAAIgvwB42okQBIAIQADkFwBrnQhBAIgABEB+AXDIiRAEgAhAAOQXAKNOhCAARAACIL8AcCIEASACEAACABAAIgABIAAAASACEAACABAAIgABIAAAASACEAACABAAIgABIAAAASACEAACABAAIgABIAAAASACBAACABAAIkAAIAAAASACBAACAMg3AESAAEAAAJkGgAgQAAgAINMAEAECAAEAZBoAIkAAIACATANABAgABACQaQCIAAGAAAAyDQARIAAQAECmASACBAACAMg0AESAAEAAAJkGgAgQAAgAINMAEAECAAEAZBoAIkAAIACATANABAgABACQaQCIAAGAAAAyDQARIAAQAECmASACBAACAMg0AESAAEAAAJkGgAgQAAgAINMAEAECAAEAZBoAIkAAIABAAGQaACJAACAAQACIAHOBABAAgAAQAQgAAQAIABGAABAAgAAQAQgAAQAIABGAABAAgAAQAQgAAQAIABGAABAAgAAQAQgAAQAIABEgAPwSBAAgAESAAEAAAAJABAgABAAgAESAAEAAAAJABAgABAAgAESAAEAAAAJABAgABAAgAESAAEAAAAJABAgABAAIAJO4CBAAAgAQAIgAASAAAAGACBAAAgAQAIgAASAAAAGACBAAAgAQAIgAASAAAAEgAkSAABAAgAAQAQgAAQAIABGAABAAgAAQAQIAAQAIABEgABAAgAAQAQIAAQAIABEgABAAgAAQAQIAAQAIABEgABAAwHW88LN1JmMRIAAEAJCbl9ZuNBGLAAEgAIDcvLpxq0lYBAgAAQDkZsOWLhOwCBAAAgDIzZauPSZfESAABACQm669B0y8IkAACAAgN90He026IkAACAAgNydPn03Pv7TWpCsCBIAAAHKzbvN2E64IEAACAMjN7u6DJlsRIAAEAJCb431nTLQiQAAIACBHr2zYYqIVAQJAAAC52bmvxyQrAgSAAABy03fmXPrpq/YFEAECQAAA2dl74LAJVgQIAAEA5Ojn6183wYoAASAAgNz09B4zuYoAASAAgBy9ZmEgESAABACQ57oAL766weQqAgSAAAByc/jYifT8z9aZXEWAABAAQG729XgrQAQIAAEAZGnbrn0mVhEgAAQAkKMNW7tMrCJAAAgAwJ0ARIAAEABAVs8EeDBQBAgAAQBk6NDRE+knr3hFUAQIAAEAZOdY3+m0zmJBIkAACAAgTwcOH00v2ztABAgAAQDku4ugrYRFgAAQAECG+s6cSzv39aRXNmwx0YoAASAAgFz3EtjdfbDxnMDzL6016YoAASAAgNycPH02dR/sTV17D6QtXXvShi1d6dWNW9NLazemF7xSmH0EmIQFAJCpniMn0va9h1glAkAAOBEBIkAACAABACACBIAAEAAAIkAACAABACACBIAAEAAAIkAACAABACACBIAAEAAAIkAACAABACACBIAAEAAAIkAAIAAARIAAQAAAiAABgAAAEAECAAEAiAAEAAIAEAEIAAQAIAIQAAgAQAQgABAAgAhAAOAEAogAASAABACACBAAAkAAAIgAASAABACACBAAAkAAAIgAASAABACACBAAAkAAAIgAASAABACACBAAAkAAAIgAAYAAABABAgABACACBAACAEAECAAEAIAIEAAIAAARIAAQAAAiQAAgAABEgABAAACIAAGAAADINgIEgAAw+AEyjAABIAAMfIAMI0AACACDHiDDCBAAAsCAB8gwAgSAADDYATKMAAEgAAx0gAwjQAAIAIMcIMMIEAACwAAHyDACBIAAMLgBMowAASAADGyADCNAAAgAgxogwwgQAALAgAbIMAIEgAAwmAEyjAABIAAMZIAMI0AACACDGCDDCBAAAsAABsgwAgSAADB4ATKMAAEgAAxcgAwjQAAIAIMWIMMIEAACwIAFyDACBIAAMFgBMowAASAADFSADCNAAAgAgxQgwwgQAALAAAXIMAIEgAAwOAEyjAABIAAMTIAMI0AACACDEiDDCBAAAsCABMgwAgSAADAYATKMAAEgAAxEgAwjQAAIAIMQIMMIEAACwAAEyDACBIAAMPgAMowAASAADDyADCNAAAgAgw4gwwgQAALAgAPIMAIEgAAw2AAyjAABIAAMNIAMI0AACACDDCDDCBAAAsAAA8gwAgSAADC4ADKMAAEgAAwsgAwjQAAIAIMKIMMIEAACwIACyDACBIAAMJgAMowAASAADCSADCNAAAgAgwggwwgQAALAAALIMAIEgAAweAAyjAABIAAMHIAMI0AACACDBiDDCBAAAsCAAcgwAgSAADBYADKMAAEgAAwUgAwjQAAIAIMEIMMIEAACwAAByDACBIAAMDgAMowAASAADAyADCNAAAgAgwIgwwgQAALAgADIMAIEgAAwGAAyJAAEgIEAIAAEgAAAQAAIAAEAgAAQAAIAAAEgAAQAAAJAAAgAAASAABAAAAgAASAAABAAAkAAACAAEAAACAAEAAACAAEAgABAAAAgABAAAAgABAAAAqAqv7O2/9cK7yt8s7C+0FsYKyQAmu+21/rTJzf1pz/Z0p/+dld/eqn3fDp+xsQuAKqb+H+98Fhh1IADaP0o+HoRAwf6TPACYOUT/w2FB1zlA7RnCHx73/l0wh0BAbCCq/5NBhFAe7tni7sBAmDpk/9vFE4ZOACd4RMb+tPW4yZ8AXD9K3+TP0AHRoA7AQLgWt/5u+0P0MFfB3gmQAC8UwA8YIAAdLZ4MNDkLwDefuvf0/4AGbwd4KsAAfDWAHjMwADIQ6wTIAAEwJsr/FnkByCjuwBWDBQAEQDvMyAA8hLLBgsAAfBNgwEgL3/rawAB8DtvbOxjQABkJDYQEgACoNdgAMhL7CIoAASA1/8AMnwQUAAIAIMBIEMCQAAYCAACQAAIAAAEgAAQAAAIAAEgAAAQAAJAAAAgAASAAABAAAgAAQCAABAAAgAAASAABAAAAkAACAAABIAAEAAACAABIAAAEAACQAAAIAAEgAAAQAAIAAEAgAAQAAIAAAEgAAQAAAJAABgEAAJAAAgAAASAABAAAAgAASAAABAAAkAAACAABIAAAEAACAABAIAAEAACAAABIAAEAAACQAAIAAAEgAAQAAAIAAEgAAAQAAJAAAAgAASAAABAAAgAAQCAABAAAgAAASAABAAAAkAACAAAASAABAAAAkAACACAa7pjw0D6zLZL6YHdl9M3Dgynfzsymp47NZHW90+lfZdn0uGR2bTj0nT6+bnJ9MOT4+mJ3tH09f3D6Yu7LqdPb72UPrDO71AACAABQMf7wy0XG5PE/5yeSFsvTqdtTbZlYDq9fGUi+k4xEf1d8bN8qZi4PltMYLeYiK7rtvUX0l/uHUovnZlM5ybn0+zCYip7TM0vpp1FIPxrEQ53b7+U3u/3LAAEgABgeT5UnJy/dXg0/ezsZDowNJP6ixP0nuIKLCbbR3qGV/VK6/6dg2lgaj618jExt9iIkvgd3lmEis/UG/7g9YuN30lM0lVM+Nc7RmYX0sYLU+nRgyPpk6/7OwgAASAAuKq4cn388Egamlm45on1zMRc+tq+oab+bHE19+TRsTS/mNruiGCJK927tl7K7jP1p12D6dm+8XRqfG5V/wbxsXl9YDrds2PQWBcAAkAA8PYJNr5fXc4Rt7+b9fP94MR4avdjsZiFNhdXpJ/b3vkhcF8x8e8ZnGnJv8Ou4uf6/K7Lxr0AEAACgPBUcXW9kquqr+yp/0QaD3i145X/tY6uIrb+bGfnXY3+8bZLjWck2uGIr7ea8fkVAAJAANCy4rboSifY+J71jo0Dtf58+4dmUqceL56ZSL/72oW2/wzFsw7xfXs7dtrR0dks7soIAAEgAPgl3z0+VuoEWufzAPG9eacfMQF9qk0fUouH6145N5kW2vwOTTyU+I89I84HAkAACIC8lL1lW+ezAPGedw7H+Nxi+usmP1hZ1l/sHWq88dBJR7z50gl3ZASAABAALMng9EKpk+beyzO1/WzP9I2nnI7497bDA6NPHxtrPNTYiceR0VmvDQoAASAAOl9c7ZQ9LkzN1/bzxffKuR3xumMrrxERr9N1+jE6u5C+7AFBASAABIAAuP577gKg2nfW/6a79b4OiNUX+1b5ff5mv7b52CHPBQgAASAABIAAaOIxs7DYeJe+VT4ncTU8NreQ3d8hHg789FZvCAgAASAABIAAaOIRKzK2wnfRcRW8sJjtn6HxTICNhgSAABAAAkAANPU4NDy7qp+PWCgn58n/zSP2MHC+EAACQAAIAAHQ1GO1ngeIrXlX+zW/2OEvdguMVft2D86k0xNzjf9ds4/4HDpfCAABIAAEgABo6hETYLNvQX9s40BjF8hmHmcn5tNzpyYazxv80daL6fb1F67588UKlo8eGkn7Ls/U/kpihIfzhQAQAAJAALRZAMRyu/9yZLRSsef8j/rG0/r+qdQzPJvmar5P3sxb0LcWn4kDTVh+OSbt7uK/E7/Lstsmr9k8kP6t+P9zbHS2lp81/r7vd74QAAJAAAiA9gqALzZh57cPb7iQvnFgOG2vaSOc4ZmFxjv4zfhMvHp+svaJP/6udW2PHHcQqt5++PiYOwACQAAIAAEgAK4jtpo9MVb9+/KxZ0PdP/uTR8fqm/gLsYjQZ7fV/1pdfGXyRO9oZa8u/uT0hPOFABAAAkAACIDru6WYgP7rRLXLGMezAHX+zH/aNVjbd+nxNcndq7Dj3kc3DqS158t/hr66d8j5QgAIAAEgAATA0sUOc1U+tF72u/LV2Hb5x6cmVv09+nhuY6WPaWwe8AaAABAAAkAACIAVeKh7qLLJNG5r17WzXx2v8MVujq3yWY81DZb7WmM8exFvHDhXCAABIAAEgABYkR9VtKthvAtf+e5+xdV51Wv8xyt9zfiuf7liWd8zE0v7t8aDhJYBFgACQAAIAAFQ+pmAg8PlX1GLtemrfhvgkZ6RSif/iImPbLjQsp/5+DoiXj282t2A+KrglXOT6bb1F5wjBIAAEAACQABU85BdFcdf7Ruq9O9/cbq6BX8ut8j+BUtd7OipY2ONdSLi7YQthX86OOKWvwAQAAJAAAiA6nVdKr9OwLN91b2S9uTR0Uq/879nu1vmAkAACAAEgAD4JX++s/xdgFh9sIqfJW7Tj81W85583Db3qpwAEAACAAEgAK7xwN1IyUl3z+VqHgT8dm91V/91vZ2AABAAAgAB0BEBEF7rL/dviofsqvg54o2CKo6jo7PWyUcACACDQAAIgLqfuo87CGV/hthpr6oNjO7fOWgsIQAEgEEgAATA9cTPU+aI5XpvKbmy3sPdw5VM/psuWCUPASAABIAAEABLErvglT0+sancq2pVrI8faxK0yyt/CAABIAAQAKsunr4ve5TZWOeWCh5EjOO/T44bQwgAASAABIAAWKrf2zxQ+t90V4klau/fWc2CRJ/a4uofASAABIAAEABLdm8FKwJ+uMRSu1XsS3BsbM74QQAIAAEgAATAcpTdHXB6frHcibqCjX+ePjZm/CAABIAAEAACYDl+cnqi1L+nf3Llv+94X3++grf/7rJLHgJAAAgAASAAlqfs5juxq2CZDXDKHqfG3f5HAAgAASAABMCyVLEjYOxct9L/frw90C5P/8d2vH+2czB96/Boeqb4bz7TV68fFv+N2A3wnh2DjXHh/CAABIAAEAACoDK7Klh+N75CWOl//yt7Lpf+78ckWfdbEvF7WqxmocIVHfE1SYSWNx0EgAAQAAJAAJT2wO7LlUxOj/QMr/hniMm77BERUdfv6K/3DaXRinYorOKIxY7i7sCt7ggIAAEgAASAAFiJD62/UMnT97F8f3yPv9KfI57eL3v88bZ6HgC8d8dgWlhMLXm8en7S+UIACAABIAAEwPJtHpiqZCLqKfEAYHjxzETpn+GjGwcq//18YF1/Oj42l1r5ePKoLY8FgAAQAAJAACzDD06MVzgJlXv/fuvF6dK3xOv4Hf1zBV9N1H3EMwkf3zTgvCEABIAAEAAC4PpXtS+fnax0Eir7/v3hkdlS//0LNf2tq9icqBnH3x0Ydt4QAAJAAAgAAXB1sUvensszlU4+5ybL/57L3mY/M1HPGgCnJ+baIgB+fs6zAAJAAAgAASAArvLu+vdPjKeZGp5mq2L53T0lX0Mcm1uo5fc2Nb/YFgHQPTTjvCEABIAAEAAC4A3xithf7B1Ka89PpvG5eiayS9Pz6YMVvIq2vr/c7zP+dfHVRtW/w77x9rgDsF8ACAABIAAEQPsEQCydu+3idKW2F3pHZtPg9EJTFqz5h55qvnt+4XT5twDqeBBuy8C0ABAAAkAAIACqDYB2P46MzjY28ani91nFOgCxnHDVf+dHekYEgAAQAAIAASAA3np8ocKvMB4/VH6i/dLu6r9SicCJ0BEAAkAACAAEgAAojk3Fv7/K3+dD3UMt+ypcbJQ02eIPA3oIUAAIAAEgAARA7cex4oo4lhCu8vf5+V3l9yP48amJ2v7en3r9YmO1Q3cABIAAEAAIgCwn/1hwp46H7WIhobJH7GlQ52fy/eve2LQo3rmPrwVmW2iDAHcABIAAEAACQADUdozNLpRe8e9qYh3/Ko41m5u3Te4tRRBEDFVlX4kFmtwBEAACQAAIAAFQyxFXu/fvHKzv6rpQxdfscYXerp/5XYMCQAAIAAGAAGih4/LMQqVP/Ne1H0AdDycKAAEgAAQAAiDLAIhJ6WMbm7PT3Pcr2J0wvqa4ZZ0AQAAIAAEgAATAio64Hf/UsbHKFvpZiviKoYrj79t0ZzwBIAAEgACgogC4IABWdMTOen9e4/f919qmuIr37c9OzLflXQABIAAEgABg7RtPV5c9Ttb4WlgnBsCxsbn0cPdw43W31fq7x34GVRyP9AwLAASAABAA7ejTFbwXXudJsZMCIDYlil0DW+Hv/u3e0Ur+Tecm2+8ugAAQAAJAAFDR98FxNSkA3vn7/VjV7nvHx9J9XYMt9Xf/o60XK/t3xkY+AgABIAAMhDbztX3l14Zfe34y+wCYmFtsXA3HVX4slfvV4kq/6mV8qxYPb1ZxDM0spN/bPCAABIAAEAC0k38/Wn572OdrXBu+igCIf+NX9lyu1JcLf7JjMP3+5ouNBynb8W//8rnJygIo1ha4tU1+DwJAAAgAAdA0H9lwIT3RO5rW90+l88VVYthQ/M/fKf53t6/yVWLXpfIPg333+FhLB8AXm7C4Tjv6QgUbA731iKAQAAJAAAgArvib7qHGCm9XO2JjlT/ccnFVfrZ4Cn18rvzrYBE3AqA97SkxGb7T8fjhEQEgAASAAODnS7zFGquqfWl38yep2H+9iqPOn10A1Ou+ij4Dbx5zC4vpL1vkTQcBIAAEgABYFU8eHV32iTMeyGvmzxhfSZQ9FhdT+vCGCwKgjW2vaE2At34mYnVDASAABIAAyM4DxRXxSrYwb2YEfPL1i5XsCtdX897wAqB+d2+/lBZT9Uf87W5rwTchuocEgAAQAAKgJrtLXGE0KwKqer3ulZof/BIAzbG5ptctj4/NNWKzFf6Nd265WOrqXwAIAAEgAK5pzeaBxi3Qst+j1hkB36loFbg4Hj00IgA6ZEXIxcVaGiBNzy+mH/WNN223w7eLuxA/PDmeZhfK/wMFgAAQAALgqp6oaHKNk/FPz0ymOyo+aX59/3Alt/7fPOL2sQDoDOvO17vo0lTxwYuJ+I4NA02L8XhF9dL0QmX/BgEgAASAAKh1YZ23vyEQr1aV3TgmFqt58cxEpT9brCRX94Y2AqB54gq9v6LVAa+3amLcEYhlqD9Q8ecn9iWI/RZieeqFGu5obK1x2WsBIAAEQJv7doW319/+Xerjh0bSHyzz+9S42oonsgcrvAp683jqaP1PeguA5vrMtkuNCbpZR/y3tgxMN75KWsmzAnF7Px66/c/iSj++36/7Z//3o2M+JwJAAAiAd/YPPcO1nzRjH/n/OT3R+G891D2UHtxzubGvfLzXH9uzPlNcXcWrXbHiYF3f684Ul1cfbcJ3ugKg+WKp44XmNcAv3fGKz3fcao8HE39SfM7jNn7E5rPF5zrW1ohgiP97LKI13+SfM8aZz4gAEAAC4B3FBjBDMwup049mLfsqAFbHtw6PJscvHpNFbbTrvg8CQAAIACfPtnn4TwCsvrjL5Pj/458PjvhcCAABIACuLR5siq1hO/XYd7l5T0ILgNUTD9TtqnivgHY9dlzy8J8AEAACYBkPU43PLXbciTBe5bqziZsXCYDVFcs87x/KOwJGZhfSxzcN+DwIAAEgAJa3JPB8hzVAPGTYzN+hAGiNOwE/ODFe2wOlrXzEA4n37vDgnwAQAAJgBR5pwlsBzTpi86Bm//5iMaSyxz1Nel6h0z1YBO1wBg+4xhGt8/ypifRBD/0JAAEgAMr41yOjqd0vnvon52vd9e9q/ungSKmfO15n8+R2deJWeDwD0snHhan59AV3jQSAABAAVa4P0K5fB8RrjZ9bpavoz267VPoWrs9ftWL1x//q0K8EXj47mW5fLxgFgAAQABWLJUqn26wCTozNpd/ffHFVv3+eKvE72zww5bNXk3i24vDIbEdM/LFS5lf3Dvm7CgABIADqE1fSsYJZOxyxnvqHWuBqKJYyXunhVm79Pl/8jmPlyXa8IXB2Yr6xfPeHXPULAAEgAJohvpOORVZa+YQZywnXvdHPcm45r+R757XnJ33emryl8CvnJhvbWbf6A36xvkFc8b/f300ACAABsCpPVe+5nE622N2AODG24nrnsbXrpemlL64UW8Cu1v7zufvEpoH0zMnxllsHI75Kih0x79rqrRABIAAEQItc3X7jwPCqrxzYdWk63dfV2u87x8NZPz41cd2HKeMq9CMb3NJthTtd8ZzA946PNe7gzKzCnYHYsjpeX33s0MiqvMUiAASAAGBJywd/bd9Q+tnZycbVazOO2Do1dly7p80WOok3A35YXGFGtMTvKlZq21tMMM8VceA7/9Z1axEEcXfpP469sXXvVMUPxMZbCfHQalzlf33/cFqzig+vCgABIAAo9bBg7HEeT1lX9bpVTPgxaT55dLSxutkt6/yeWd3ojU2lYoGhmLBjE63Y+veF0xPpteKqfWfxWe0tPv+xrXVcyR8bnU17inCI1SFjkv/+ifH0RO9o4w5arLrpCl8ACAAB0HHiu+yHuofS44dHGlEQDxDGbc04GR4rrnjiu/F4V//0xFzqGZ5tPL0ft8Gf7ZtoXG09emgk3dtlwgcEgAAQAAAIAAEgAAAQAAJAAAAgAASAAABAAAgAAQCAABAAAgAAASAADAQAASAABAAAAkAACAAABIAAEAAACAABIAAAEAACQAAAIAAEgAAAQAAIAAEAgAAQAAIAAAEgAAQAAAJAAAgAAASAABAAAAgAASAAABAAAkAAACAABIAAAEAACAABAIAAEAACAAABIAAMAgABIAAEAAACQAAIAAAEgAAQAAAIAAEgAAAQAAJAAAAgAASAAABAAAiAVg6AMQMBIC93rD8vAARAf6/BAJCXe18/JwAEQP96gwEgLw9tOyMABED/Nw0GgLw8vfuUABAA/e8zGADysnn/UQEgAPp/rTBqQADk4aPrz6cd+w4JgNwD4EoEPGZQAOThu7v70va9AkAAvBEAv+51QIA8Xv/bse+wABAAvxABDxgcAJ3t+b0nGpO/ABAAbw2AGwqbDBCAzvS1bWf+b/IXAALgnb4KOGWgAHSWz2w693+3/gWAALhaBPyGCADorMl/e/eRX5j8BYAAuNadAF8HAHTAbf+3X/kLAAGwlGcCHvB2AEB7Pu3/1gf+BIAAWOndgMcsFgTQHov8xHv+V7vqFwACYKUrBsaywbF3QGwg1OvuAMDqXuXHrn6xsU+s7R/L+8YKf9eb+AWAAKCw1IEC0EniDoEAEAACACAzO/f3CgABIAAAcrOnx26AAkAAOBkA2dl/+LgAEAACACA3R06cFgACQAAA5PYAYN+Z8wJAAAgAALf/BYAAEAAAHX31f/L0OQEgAHBCAHLSc+SkyV8AIACAvF79O5L6TPwCAAEAZLTwT3evW/8CAAEA5Db5H+87Y9IXAAgAIKfb/q78BQACAMjoaf944M93/gIAAQBkMvHHe/6u+gUAAgDo4Mk+dvWLjX1i0o/lfa3wJwBYIoMAQAAIAAEAgAAQAAIAAAEgAAQAAAJAAAgAAASAABAAAAgAASAAABAAAkAAACAABIAAAEAAIAAAEAAIAAAEAAIAAAGAAABAACAAABAACAAABAACAAABgAAAQAAgAAAEgAAQAAAIAAEgAAAQAAJAAAAgAASAAABAAAgAAQCAABAAAgAAASAABAAAAkAACAAABIBJWAAAIAAQAAAIAAQAAAIAAQCAAEAAACAAEAAACACWGACjBgJAdkYFgAA4ZCAAZOeQABAAaw0EgOysFQAC4GkDASA7TwsAAfCwgQCQnYcFgAC420AAyM7dAkAA3GwgAGTnZgEgAG4sTBkMANmIc/6NAoCIgBcMCIBsvNAKc48JuDUCYI0BAZCNNQKANwPgpsKCQQHQ8eJcf5MA4K0RsNHAAOh4G1tl3jH5tk4A3GlgAHS8OwUAbw+AGwrHDA6AjhXn+BsEAO8UAbcZIAAd67ZWmnNMvK0VAO8qbDdIADpOnNvfJQC4VgS810AB6DjvbbX5xqRrYSAAMlj4RwC0RwC8u3DaoAFoe3Euf7cAYDkR8J7ChMED0LbiHP6eVp1nTLatHQG3FhYNIoC2E+fuW1t5jjHRtn4EPGggAbSdB1t9fjHJtsergU8ZTABt46lWe+VPALR3BHzJ1wEALX/b/8F2mPwFQPuFwC2FcYMMoCUf+Lu1neYUE2v7RcBvFk4abAAt9arfe9ptPjGptmcE3FR41qADWP1Fflr1PX8B0Nkh8FuFrQYgQNNtb8XlfQVAfiHwwcJRAxKgdrGl723t8qCfAMgjAn61cGdhY2HBIAWoTJxTN1w5x97QKfOGybNznxFYc+W7qSmDF2DZpq6cQ+NcelMnzhUmzM6PgRsLNxfuLjxceLqwtnCoMGqQAxkbvXIuXHvl3PjwlXNlnDNv7PT54X8BUUAh6z8zmS4AAAAASUVORK5CYII=;" parent="1" vertex="1">
          <mxGeometry x="215" y="224" width="72" height="72" as="geometry" />
        </mxCell>
        <mxCell id="2Kfv_4t5I5vCwGOsFX-G-5" value="" style="shape=image;verticalLabelPosition=bottom;labelBackgroundColor=default;verticalAlign=top;aspect=fixed;imageAspect=0;image=data:image/png,iVBORw0KGgoAAAANSUhEUgAAAgAAAAIACAYAAAD0eNT6AAAABHNCSVQICAgIfAhkiAAAAAlwSFlzAAAN1wAADdcBQiibeAAAABl0RVh0U29mdHdhcmUAd3d3Lmlua3NjYXBlLm9yZ5vuPBoAACJ0SURBVHja7d3bk2VXXcBxeTA+5Dkl/4Q+8G4V5RsPqZIQCYFAgSNiDGCIiRogBFAxRkSjJgGCGmMEAUNCIiGEZCZzy9x6rj3TM9Nz7bn29ExP3++X5f6dTDSEzEx3771Pn3PWZ1d9qiytMj3dZ+313fvsvdavpJR+hc516uz5Gws3F+4uPFx4urC2cKgwWkjA6lj/+o7XnKdYLX4JnTnp31RYU3ihMOVEC63puZ++KgIQAJSe9G8o3FnYWFhwcoX2CAARgABgpRP/uwq3F445oUJ7BoAIQACw3Mn/twtdTqTQ/gEgAhAALGXif3fhRSdQ6KwAEAEIAK41+b+ncNrJEzozAEQAAoB3mvx/tzDhxAmdHQAiAAHAWx/0+3Jh0UkT8ggAEYAAMPnH5P+UkyXkFwAiAAGQdwA86EQJ+QaACEAA5Dn53+q2PwgAEYAAyO9pfw/8gQAQAQiAzN7z96ofCAARgADILABecHIEASACEAB5Tf7vdWIEASACEAD5vfK33YkRBIAIQADkFQC3OSmCABABCIC8Jv8bbOkLAkAEIADyC4A7nRBBAIgABEB+AbDRCREEgAhAAOQ1+d9UWHBCBAEgAhAAeQXAGidDEAAiAAFg4R9AAIgABECHT/43FqacDEEAiAAEQF4BcLMTIQgAEYAAyC8A7nYiBAEgAhAA+QXAw06EIABEAAIgvwB42okQBIAIQADkFwBrnQhBAIgABEB+AXDIiRAEgAhAAOQXAKNOhCAARAACIL8AcCIEASACEAACABAAIgABIAAAASACEAACABAAIgABIAAAASACEAACABAAIgABIAAAASACEAACABAAIgABIAAAASACBAACABAAIkAAIAAAASACBAACAMg3AESAAEAAAJkGgAgQAAgAINMAEAECAAEAZBoAIkAAIACATANABAgABACQaQCIAAGAAAAyDQARIAAQAECmASACBAACAMg0AESAAEAAAJkGgAgQAAgAINMAEAECAAEAZBoAIkAAIACATANABAgABACQaQCIAAGAAAAyDQARIAAQAECmASACBAACAMg0AESAAEAAAJkGgAgQAAgAINMAEAECAAEAZBoAIkAAIABAAGQaACJAACAAQACIAHOBABAAgAAQAQgAAQAIABGAABAAgAAQAQgAAQAIABGAABAAgAAQAQgAAQAIABGAABAAgAAQAQgAAQAIABEgAPwSBAAgAESAAEAAAAJABAgABAAgAESAAEAAAAJABAgABAAgAESAAEAAAAJABAgABAAgAESAAEAAAAJABAgABAAIAJO4CBAAAgAQAIgAASAAAAGACBAAAgAQAIgAASAAAAGACBAAAgAQAIgAASAAAAEgAkSAABAAgAAQAQgAAQAIABGAABAAgAAQAQIAAQAIABEgABAAgAAQAQIAAQAIABEgABAAgAAQAQIAAQAIABEgABAAwHW88LN1JmMRIAAEAJCbl9ZuNBGLAAEgAIDcvLpxq0lYBAgAAQDkZsOWLhOwCBAAAgDIzZauPSZfESAABACQm669B0y8IkAACAAgN90He026IkAACAAgNydPn03Pv7TWpCsCBIAAAHKzbvN2E64IEAACAMjN7u6DJlsRIAAEAJCb431nTLQiQAAIACBHr2zYYqIVAQJAAAC52bmvxyQrAgSAAABy03fmXPrpq/YFEAECQAAA2dl74LAJVgQIAAEA5Ojn6183wYoAASAAgNz09B4zuYoAASAAgBy9ZmEgESAABACQ57oAL766weQqAgSAAAByc/jYifT8z9aZXEWAABAAQG729XgrQAQIAAEAZGnbrn0mVhEgAAQAkKMNW7tMrCJAAAgAwJ0ARIAAEABAVs8EeDBQBAgAAQBk6NDRE+knr3hFUAQIAAEAZOdY3+m0zmJBIkAACAAgTwcOH00v2ztABAgAAQDku4ugrYRFgAAQAECG+s6cSzv39aRXNmwx0YoAASAAgFz3EtjdfbDxnMDzL6016YoAASAAgNycPH02dR/sTV17D6QtXXvShi1d6dWNW9NLazemF7xSmH0EmIQFAJCpniMn0va9h1glAkAAOBEBIkAACAABACACBIAAEAAAIkAACAABACACBIAAEAAAIkAACAABACACBIAAEAAAIkAACAABACACBIAAEAAAIkAAIAAARIAAQAAAiAABgAAAEAECAAEAiAAEAAIAEAEIAAQAIAIQAAgAQAQgABAAgAhAAOAEAogAASAABACACBAAAkAAAIgAASAABACACBAAAkAAAIgAASAABACACBAAAkAAAIgAASAABACACBAAAkAAAIgAAYAAABABAgABACACBAACAEAECAAEAIAIEAAIAAARIAAQAAAiQAAgAABEgABAAACIAAGAAADINgIEgAAw+AEyjAABIAAMfIAMI0AACACDHiDDCBAAAsCAB8gwAgSAADDYATKMAAEgAAx0gAwjQAAIAIMcIMMIEAACwAAHyDACBIAAMLgBMowAASAADGyADCNAAAgAgxogwwgQAALAgAbIMAIEgAAwmAEyjAABIAAMZIAMI0AACACDGCDDCBAAAsAABsgwAgSAADB4ATKMAAEgAAxcgAwjQAAIAIMWIMMIEAACwIAFyDACBIAAMFgBMowAASAADFSADCNAAAgAgxQgwwgQAALAAAXIMAIEgAAwOAEyjAABIAAMTIAMI0AACACDEiDDCBAAAsCABMgwAgSAADAYATKMAAEgAAxEgAwjQAAIAIMQIMMIEAACwAAEyDACBIAAMPgAMowAASAADDyADCNAAAgAgw4gwwgQAALAgAPIMAIEgAAw2AAyjAABIAAMNIAMI0AACACDDCDDCBAAAsAAA8gwAgSAADC4ADKMAAEgAAwsgAwjQAAIAIMKIMMIEAACwIACyDACBIAAMJgAMowAASAADCSADCNAAAgAgwggwwgQAALAAALIMAIEgAAweAAyjAABIAAMHIAMI0AACACDBiDDCBAAAsCAAcgwAgSAADBYADKMAAEgAAwUgAwjQAAIAIMEIMMIEAACwAAByDACBIAAMDgAMowAASAADAyADCNAAAgAgwIgwwgQAALAgADIMAIEgAAwGAAyJAAEgIEAIAAEgAAAQAAIAAEAgAAQAAIAAAEgAAQAAAJAAAgAAASAABAAAAgAASAAABAAAkAAACAAEAAACAAEAAACAAEAgABAAAAgABAAAAgABAAAAqAqv7O2/9cK7yt8s7C+0FsYKyQAmu+21/rTJzf1pz/Z0p/+dld/eqn3fDp+xsQuAKqb+H+98Fhh1IADaP0o+HoRAwf6TPACYOUT/w2FB1zlA7RnCHx73/l0wh0BAbCCq/5NBhFAe7tni7sBAmDpk/9vFE4ZOACd4RMb+tPW4yZ8AXD9K3+TP0AHRoA7AQLgWt/5u+0P0MFfB3gmQAC8UwA8YIAAdLZ4MNDkLwDefuvf0/4AGbwd4KsAAfDWAHjMwADIQ6wTIAAEwJsr/FnkByCjuwBWDBQAEQDvMyAA8hLLBgsAAfBNgwEgL3/rawAB8DtvbOxjQABkJDYQEgACoNdgAMhL7CIoAASA1/8AMnwQUAAIAIMBIEMCQAAYCAACQAAIAAAEgAAQAAAIAAEgAAAQAAJAAAAgAASAAABAAAgAAQCAABAAAgAAASAABAAAAkAACAAABIAAEAAACAABIAAAEAACQAAAIAAEgAAAQAAIAAEAgAAQAAIAAAEgAAQAAAJAABgEAAJAAAgAAASAABAAAAgAASAAABAAAkAAACAABIAAAEAACAABAIAAEAACAAABIAAEAAACQAAIAAAEgAAQAAAIAAEgAAAQAAJAAAAgAASAAABAAAgAAQCAABAAAgAAASAABAAAAkAACAAAASAABAAAAkAACACAa7pjw0D6zLZL6YHdl9M3Dgynfzsymp47NZHW90+lfZdn0uGR2bTj0nT6+bnJ9MOT4+mJ3tH09f3D6Yu7LqdPb72UPrDO71AACAABQMf7wy0XG5PE/5yeSFsvTqdtTbZlYDq9fGUi+k4xEf1d8bN8qZi4PltMYLeYiK7rtvUX0l/uHUovnZlM5ybn0+zCYip7TM0vpp1FIPxrEQ53b7+U3u/3LAAEgABgeT5UnJy/dXg0/ezsZDowNJP6ixP0nuIKLCbbR3qGV/VK6/6dg2lgaj618jExt9iIkvgd3lmEis/UG/7g9YuN30lM0lVM+Nc7RmYX0sYLU+nRgyPpk6/7OwgAASAAuKq4cn388Egamlm45on1zMRc+tq+oab+bHE19+TRsTS/mNruiGCJK927tl7K7jP1p12D6dm+8XRqfG5V/wbxsXl9YDrds2PQWBcAAkAA8PYJNr5fXc4Rt7+b9fP94MR4avdjsZiFNhdXpJ/b3vkhcF8x8e8ZnGnJv8Ou4uf6/K7Lxr0AEAACgPBUcXW9kquqr+yp/0QaD3i145X/tY6uIrb+bGfnXY3+8bZLjWck2uGIr7ea8fkVAAJAANCy4rboSifY+J71jo0Dtf58+4dmUqceL56ZSL/72oW2/wzFsw7xfXs7dtrR0dks7soIAAEgAPgl3z0+VuoEWufzAPG9eacfMQF9qk0fUouH6145N5kW2vwOTTyU+I89I84HAkAACIC8lL1lW+ezAPGedw7H+Nxi+usmP1hZ1l/sHWq88dBJR7z50gl3ZASAABAALMng9EKpk+beyzO1/WzP9I2nnI7497bDA6NPHxtrPNTYiceR0VmvDQoAASAAOl9c7ZQ9LkzN1/bzxffKuR3xumMrrxERr9N1+jE6u5C+7AFBASAABIAAuP577gKg2nfW/6a79b4OiNUX+1b5ff5mv7b52CHPBQgAASAABIAAaOIxs7DYeJe+VT4ncTU8NreQ3d8hHg789FZvCAgAASAABIAAaOIRKzK2wnfRcRW8sJjtn6HxTICNhgSAABAAAkAANPU4NDy7qp+PWCgn58n/zSP2MHC+EAACQAAIAAHQ1GO1ngeIrXlX+zW/2OEvdguMVft2D86k0xNzjf9ds4/4HDpfCAABIAAEgABo6hETYLNvQX9s40BjF8hmHmcn5tNzpyYazxv80daL6fb1F67588UKlo8eGkn7Ls/U/kpihIfzhQAQAAJAALRZAMRyu/9yZLRSsef8j/rG0/r+qdQzPJvmar5P3sxb0LcWn4kDTVh+OSbt7uK/E7/Lstsmr9k8kP6t+P9zbHS2lp81/r7vd74QAAJAAAiA9gqALzZh57cPb7iQvnFgOG2vaSOc4ZmFxjv4zfhMvHp+svaJP/6udW2PHHcQqt5++PiYOwACQAAIAAEgAK4jtpo9MVb9+/KxZ0PdP/uTR8fqm/gLsYjQZ7fV/1pdfGXyRO9oZa8u/uT0hPOFABAAAkAACIDru6WYgP7rRLXLGMezAHX+zH/aNVjbd+nxNcndq7Dj3kc3DqS158t/hr66d8j5QgAIAAEgAATA0sUOc1U+tF72u/LV2Hb5x6cmVv09+nhuY6WPaWwe8AaAABAAAkAACIAVeKh7qLLJNG5r17WzXx2v8MVujq3yWY81DZb7WmM8exFvHDhXCAABIAAEgABYkR9VtKthvAtf+e5+xdV51Wv8xyt9zfiuf7liWd8zE0v7t8aDhJYBFgACQAAIAAFQ+pmAg8PlX1GLtemrfhvgkZ6RSif/iImPbLjQsp/5+DoiXj282t2A+KrglXOT6bb1F5wjBIAAEAACQABU85BdFcdf7Ruq9O9/cbq6BX8ut8j+BUtd7OipY2ONdSLi7YQthX86OOKWvwAQAAJAAAiA6nVdKr9OwLN91b2S9uTR0Uq/879nu1vmAkAACAAEgAD4JX++s/xdgFh9sIqfJW7Tj81W85583Db3qpwAEAACAAEgAK7xwN1IyUl3z+VqHgT8dm91V/91vZ2AABAAAgAB0BEBEF7rL/dviofsqvg54o2CKo6jo7PWyUcACACDQAAIgLqfuo87CGV/hthpr6oNjO7fOWgsIQAEgEEgAATA9cTPU+aI5XpvKbmy3sPdw5VM/psuWCUPASAABIAAEABLErvglT0+sancq2pVrI8faxK0yyt/CAABIAAQAKsunr4ve5TZWOeWCh5EjOO/T44bQwgAASAABIAAWKrf2zxQ+t90V4klau/fWc2CRJ/a4uofASAABIAAEABLdm8FKwJ+uMRSu1XsS3BsbM74QQAIAAEgAATAcpTdHXB6frHcibqCjX+ePjZm/CAABIAAEAACYDl+cnqi1L+nf3Llv+94X3++grf/7rJLHgJAAAgAASAAlqfs5juxq2CZDXDKHqfG3f5HAAgAASAABMCyVLEjYOxct9L/frw90C5P/8d2vH+2czB96/Boeqb4bz7TV68fFv+N2A3wnh2DjXHh/CAABIAAEAACoDK7Klh+N75CWOl//yt7Lpf+78ckWfdbEvF7WqxmocIVHfE1SYSWNx0EgAAQAAJAAJT2wO7LlUxOj/QMr/hniMm77BERUdfv6K/3DaXRinYorOKIxY7i7sCt7ggIAAEgAASAAFiJD62/UMnT97F8f3yPv9KfI57eL3v88bZ6HgC8d8dgWlhMLXm8en7S+UIACAABIAAEwPJtHpiqZCLqKfEAYHjxzETpn+GjGwcq//18YF1/Oj42l1r5ePKoLY8FgAAQAAJAACzDD06MVzgJlXv/fuvF6dK3xOv4Hf1zBV9N1H3EMwkf3zTgvCEABIAAEAAC4PpXtS+fnax0Eir7/v3hkdlS//0LNf2tq9icqBnH3x0Ydt4QAAJAAAgAAXB1sUvensszlU4+5ybL/57L3mY/M1HPGgCnJ+baIgB+fs6zAAJAAAgAASAArvLu+vdPjKeZGp5mq2L53T0lX0Mcm1uo5fc2Nb/YFgHQPTTjvCEABIAAEAAC4A3xithf7B1Ka89PpvG5eiayS9Pz6YMVvIq2vr/c7zP+dfHVRtW/w77x9rgDsF8ACAABIAAEQPsEQCydu+3idKW2F3pHZtPg9EJTFqz5h55qvnt+4XT5twDqeBBuy8C0ABAAAkAAIACqDYB2P46MzjY28ani91nFOgCxnHDVf+dHekYEgAAQAAIAASAA3np8ocKvMB4/VH6i/dLu6r9SicCJ0BEAAkAACAAEgAAojk3Fv7/K3+dD3UMt+ypcbJQ02eIPA3oIUAAIAAEgAARA7cex4oo4lhCu8vf5+V3l9yP48amJ2v7en3r9YmO1Q3cABIAAEAAIgCwn/1hwp46H7WIhobJH7GlQ52fy/eve2LQo3rmPrwVmW2iDAHcABIAAEAACQADUdozNLpRe8e9qYh3/Ko41m5u3Te4tRRBEDFVlX4kFmtwBEAACQAAIAAFQyxFXu/fvHKzv6rpQxdfscYXerp/5XYMCQAAIAAGAAGih4/LMQqVP/Ne1H0AdDycKAAEgAAQAAiDLAIhJ6WMbm7PT3Pcr2J0wvqa4ZZ0AQAAIAAEgAATAio64Hf/UsbHKFvpZiviKoYrj79t0ZzwBIAAEgACgogC4IABWdMTOen9e4/f919qmuIr37c9OzLflXQABIAAEgABg7RtPV5c9Ttb4WlgnBsCxsbn0cPdw43W31fq7x34GVRyP9AwLAASAABAA7ejTFbwXXudJsZMCIDYlil0DW+Hv/u3e0Ur+Tecm2+8ugAAQAAJAAFDR98FxNSkA3vn7/VjV7nvHx9J9XYMt9Xf/o60XK/t3xkY+AgABIAAMhDbztX3l14Zfe34y+wCYmFtsXA3HVX4slfvV4kq/6mV8qxYPb1ZxDM0spN/bPCAABIAAEAC0k38/Wn572OdrXBu+igCIf+NX9lyu1JcLf7JjMP3+5ouNBynb8W//8rnJygIo1ha4tU1+DwJAAAgAAdA0H9lwIT3RO5rW90+l88VVYthQ/M/fKf53t6/yVWLXpfIPg333+FhLB8AXm7C4Tjv6QgUbA731iKAQAAJAAAgArvib7qHGCm9XO2JjlT/ccnFVfrZ4Cn18rvzrYBE3AqA97SkxGb7T8fjhEQEgAASAAODnS7zFGquqfWl38yep2H+9iqPOn10A1Ou+ij4Dbx5zC4vpL1vkTQcBIAAEgABYFU8eHV32iTMeyGvmzxhfSZQ9FhdT+vCGCwKgjW2vaE2At34mYnVDASAABIAAyM4DxRXxSrYwb2YEfPL1i5XsCtdX897wAqB+d2+/lBZT9Uf87W5rwTchuocEgAAQAAKgJrtLXGE0KwKqer3ulZof/BIAzbG5ptctj4/NNWKzFf6Nd265WOrqXwAIAAEgAK5pzeaBxi3Qst+j1hkB36loFbg4Hj00IgA6ZEXIxcVaGiBNzy+mH/WNN223w7eLuxA/PDmeZhfK/wMFgAAQAALgqp6oaHKNk/FPz0ymOyo+aX59/3Alt/7fPOL2sQDoDOvO17vo0lTxwYuJ+I4NA02L8XhF9dL0QmX/BgEgAASAAKh1YZ23vyEQr1aV3TgmFqt58cxEpT9brCRX94Y2AqB54gq9v6LVAa+3amLcEYhlqD9Q8ecn9iWI/RZieeqFGu5obK1x2WsBIAAEQJv7doW319/+Xerjh0bSHyzz+9S42oonsgcrvAp683jqaP1PeguA5vrMtkuNCbpZR/y3tgxMN75KWsmzAnF7Px66/c/iSj++36/7Z//3o2M+JwJAAAiAd/YPPcO1nzRjH/n/OT3R+G891D2UHtxzubGvfLzXH9uzPlNcXcWrXbHiYF3f684Ul1cfbcJ3ugKg+WKp44XmNcAv3fGKz3fcao8HE39SfM7jNn7E5rPF5zrW1ohgiP97LKI13+SfM8aZz4gAEAAC4B3FBjBDMwup049mLfsqAFbHtw6PJscvHpNFbbTrvg8CQAAIACfPtnn4TwCsvrjL5Pj/458PjvhcCAABIACuLR5siq1hO/XYd7l5T0ILgNUTD9TtqnivgHY9dlzy8J8AEAACYBkPU43PLXbciTBe5bqziZsXCYDVFcs87x/KOwJGZhfSxzcN+DwIAAEgAJa3JPB8hzVAPGTYzN+hAGiNOwE/ODFe2wOlrXzEA4n37vDgnwAQAAJgBR5pwlsBzTpi86Bm//5iMaSyxz1Nel6h0z1YBO1wBg+4xhGt8/ypifRBD/0JAAEgAMr41yOjqd0vnvon52vd9e9q/ungSKmfO15n8+R2deJWeDwD0snHhan59AV3jQSAABAAVa4P0K5fB8RrjZ9bpavoz267VPoWrs9ftWL1x//q0K8EXj47mW5fLxgFgAAQABWLJUqn26wCTozNpd/ffHFVv3+eKvE72zww5bNXk3i24vDIbEdM/LFS5lf3Dvm7CgABIADqE1fSsYJZOxyxnvqHWuBqKJYyXunhVm79Pl/8jmPlyXa8IXB2Yr6xfPeHXPULAAEgAJohvpOORVZa+YQZywnXvdHPcm45r+R757XnJ33emryl8CvnJhvbWbf6A36xvkFc8b/f300ACAABsCpPVe+5nE622N2AODG24nrnsbXrpemlL64UW8Cu1v7zufvEpoH0zMnxllsHI75Kih0x79rqrRABIAAEQItc3X7jwPCqrxzYdWk63dfV2u87x8NZPz41cd2HKeMq9CMb3NJthTtd8ZzA946PNe7gzKzCnYHYsjpeX33s0MiqvMUiAASAAGBJywd/bd9Q+tnZycbVazOO2Do1dly7p80WOok3A35YXGFGtMTvKlZq21tMMM8VceA7/9Z1axEEcXfpP469sXXvVMUPxMZbCfHQalzlf33/cFqzig+vCgABIAAo9bBg7HEeT1lX9bpVTPgxaT55dLSxutkt6/yeWd3ojU2lYoGhmLBjE63Y+veF0xPpteKqfWfxWe0tPv+xrXVcyR8bnU17inCI1SFjkv/+ifH0RO9o4w5arLrpCl8ACAAB0HHiu+yHuofS44dHGlEQDxDGbc04GR4rrnjiu/F4V//0xFzqGZ5tPL0ft8Gf7ZtoXG09emgk3dtlwgcEgAAQAAAIAAEgAAAQAAJAAAAgAASAAABAAAgAAQCAABAAAgAAASAADAQAASAABAAAAkAACAAABIAAEAAACAABIAAAEAACQAAAIAAEgAAAQAAIAAEAgAAQAAIAAAEgAAQAAAJAAAgAAASAABAAAAgAASAAABAAAkAAACAABIAAAEAACAABAIAAEAACAAABIAAMAgABIAAEAAACQAAIAAAEgAAQAAAIAAEgAAAQAAJAAAAgAASAAABAAAiAVg6AMQMBIC93rD8vAARAf6/BAJCXe18/JwAEQP96gwEgLw9tOyMABED/Nw0GgLw8vfuUABAA/e8zGADysnn/UQEgAPp/rTBqQADk4aPrz6cd+w4JgNwD4EoEPGZQAOThu7v70va9AkAAvBEAv+51QIA8Xv/bse+wABAAvxABDxgcAJ3t+b0nGpO/ABAAbw2AGwqbDBCAzvS1bWf+b/IXAALgnb4KOGWgAHSWz2w693+3/gWAALhaBPyGCADorMl/e/eRX5j8BYAAuNadAF8HAHTAbf+3X/kLAAGwlGcCHvB2AEB7Pu3/1gf+BIAAWOndgMcsFgTQHov8xHv+V7vqFwACYKUrBsaywbF3QGwg1OvuAMDqXuXHrn6xsU+s7R/L+8YKf9eb+AWAAKCw1IEC0EniDoEAEAACACAzO/f3CgABIAAAcrOnx26AAkAAOBkA2dl/+LgAEAACACA3R06cFgACQAAA5PYAYN+Z8wJAAAgAALf/BYAAEAAAHX31f/L0OQEgAHBCAHLSc+SkyV8AIACAvF79O5L6TPwCAAEAZLTwT3evW/8CAAEA5Db5H+87Y9IXAAgAIKfb/q78BQACAMjoaf944M93/gIAAQBkMvHHe/6u+gUAAgDo4Mk+dvWLjX1i0o/lfa3wJwBYIoMAQAAIAAEAgAAQAAIAAAEgAAQAAAJAAAgAAASAABAAAAgAASAAABAAAkAAACAABIAAAEAAIAAAEAAIAAAEAAIAAAGAAABAACAAABAACAAABAACAAABgAAAQAAgAAAEgAAQAAAIAAEgAAAQAAJAAAAgAASAAABAAAgAAQCAABAAAgAAASAABAAAAkAACAAABIBJWAAAIAAQAAAIAAQAAAIAAQCAAEAAACAAEAAACACWGACjBgJAdkYFgAA4ZCAAZOeQABAAaw0EgOysFQAC4GkDASA7TwsAAfCwgQCQnYcFgAC420AAyM7dAkAA3GwgAGTnZgEgAG4sTBkMANmIc/6NAoCIgBcMCIBsvNAKc48JuDUCYI0BAZCNNQKANwPgpsKCQQHQ8eJcf5MA4K0RsNHAAOh4G1tl3jH5tk4A3GlgAHS8OwUAbw+AGwrHDA6AjhXn+BsEAO8UAbcZIAAd67ZWmnNMvK0VAO8qbDdIADpOnNvfJQC4VgS810AB6DjvbbX5xqRrYSAAMlj4RwC0RwC8u3DaoAFoe3Euf7cAYDkR8J7ChMED0LbiHP6eVp1nTLatHQG3FhYNIoC2E+fuW1t5jjHRtn4EPGggAbSdB1t9fjHJtsergU8ZTABt46lWe+VPALR3BHzJ1wEALX/b/8F2mPwFQPuFwC2FcYMMoCUf+Lu1neYUE2v7RcBvFk4abAAt9arfe9ptPjGptmcE3FR41qADWP1Fflr1PX8B0Nkh8FuFrQYgQNNtb8XlfQVAfiHwwcJRAxKgdrGl723t8qCfAMgjAn61cGdhY2HBIAWoTJxTN1w5x97QKfOGybNznxFYc+W7qSmDF2DZpq6cQ+NcelMnzhUmzM6PgRsLNxfuLjxceLqwtnCoMGqQAxkbvXIuXHvl3PjwlXNlnDNv7PT54X8BUUAh6z8zmS4AAAAASUVORK5CYII=;fontStyle=1" parent="1" vertex="1">
          <mxGeometry x="225" y="234" width="70" height="70" as="geometry" />
        </mxCell>
        <mxCell id="2Kfv_4t5I5vCwGOsFX-G-24" value="" style="shape=image;verticalLabelPosition=bottom;labelBackgroundColor=default;verticalAlign=top;aspect=fixed;imageAspect=0;image=data:image/png,iVBORw0KGgoAAAANSUhEUgAAAgIAAAIACAMAAADHU/T1AAAABGdBTUEAALGPC/xhBQAAAAFzUkdCAK7OHOkAAAMAUExURUdwTDd0qTd4rv3NPDdsmf/TP//MOzNypv+/QP/aS7LJXDZunf3RQDZtnDdypDVtmzl1p//PPvzZSTZzpv/UQv/QQTd3rP7MO//LOjZ1qTd2qEFrqDZ1qjd4rzd3rTVrmDVunf/QPzd4rjd3qv/UPDVwoDZ1qv/RQDZunjZ4sDdvoP/QPzZ3rDZ3rjd3rf/QQf7LOf/QP//QP//PPvzURPzIODZ3rPzMPDZwpP/KOf/QPv/PQP/URjZ1qvzKOP/TQvzURjZvoP3LOv/RPfzKOPzLOvzTQzZ1qTd4r//MOjd4rzd4sP3NO/zJODZxozZvn//QPzd4rv/NPDZ2rDZ2rPzMOzVwoDZxofzSQjZ2qjZ3rf/NOzVxovzTQ/zKODd5rzd5sP7LOTZ1qzZwof3TQ/7RQf3UQv/KN//MOjZ1qjd5sDV4rvzJOPzMOzZxpDVqlv/aSv/VRf/cTf3VRP3KOf/XSP/LO/zVRDZunv/RQPzeTjd6sf/VRf3SQv3JOP3WRjVqlP/OPDZ0qf7JNzVwoTZvnzVplf/WRf7ZSv3LOf/NOzVwnzVqmDZunf3YSP3KODZxpDZsmjZwofzeTzd4sTNpk/3eT/3eUDVnlf3URf3VRf3eT/zeUDVwofzeTP/SQv/RQTdzpTdyo//TQzdxojd0p//QQDd2qv/URDdwoDd1qTdypP/PPzd1qDd3rP/XSP/YSTdvnv/VRf/WR//ZSv/LOjd4rjdxof/VRv/MO//OPv/NPDd2q//KOf/URTdzpjd0pv/OPTdvn//aS//WRv/PPjZtmzd4rTZunP/NPTh5sP/TRP/bTDZsmTdwoTh6sf/XR//JOP/QPzdwnzd3qzh5rzdunTZunf/MPDd3rf/cTTZrlzdzpDZrmDd0qDd5rzZtmv/dT//cTjZsmjZqlv/bTf/eUP/SQ//dTv/RQP/YSP/aTP/LOzZtnDh6sP/eTzdxozh6sjd2qf/fUDZqlTZsmP/ZSzdvnf/KODd4r//JNzh7sv/ZSf/KOjZql//IN0hhmJUAAACfdFJOUwBgYLRYDMAUAzABYLQ3YJAOLtgswcAzgnMnCQRKgiKQkBq1HQaQGDl/71haq3ZrEYgmNMD9/UP93HnACTCJ3yrZc5AU7dLsmJ9tkjqY+fmlRd19xbza8lL4pFoh1eLGzeag1b3OqrQ/U+ZU9/Pm7ZBSY26irh5gyGlK+NZA87+Q3E72qOU6t3WIumj7QcWZzM2bssz76Oyt97C7udrd4iZtHFwAACAASURBVHja7N1vaFvXGQZw26x4eE0Qc+diWzJUbp1okbS1C2pZJ5JQFht7JFUsEttzZs9pxmSD264f0uGWtiHboG1CGB60hWJFVhQrdpLGG3Y+GCcEM5eERSG2V4KzZDBBSaAmDhkhpIzJdhLff+fec6V7jnSk5/kQ8uka9P507rnnvOeqqKgQYqut8Nm7S7weh7++1e10BoPNzc0dXV1dgUBXV0fq/8Gg0+lurfc7PN42u6+isq66CBE+1bVN3R5/gzvYFeoZk2T6Ya4uZWL2pDSzqUysxBVodtc7vG2+yip8lqJ94yu6PY3OjtD03I2l3B+TRybg5EmVgEcEJo4fe5TQYbffawcFAb725d2ehubQhbmHyUzAMXnuHD9+PBR8rrjJhg86J1Pq8zT09V9YDjMBDxMK+ovLy/CZ59C473M4OxcurIaxgOMnlrJzj39XHT787KemrbGjP7GwwFPACoFjd1L/hNzechQhi2N/d0NnYinZELCc60evXz8aai3GaJCNiV+TI/XtT2RDgJRASsBy2p/zYRmBa/3tDa7E4+SAgKX01tuhgE+qZPXPGQHLCrbvwsoB81Q0yuqfUwKOnjh3rre+AkVi+fTn7VhczFTANDMB51ZyeEspSsUm5Q09ixwETGQo4OzZs9u2YyhgEHtwcVEQAakc2WPH6qGlKWvrWxRKQCrtazE1tC7dDwGIJCCVz9fiKdGa+DoeCCngyLlz7btwO8g8Nc4HggpI5eyRwz6UMMN1IEePtQKu8hSwlGtubCBkdA8IPBBdwLVrO7dgSpD2ENC4IJyAsyoBw8PDh7FMkOZacN+D/BAwPLxtPaaFacTbn4aAG4wFnEhLQCp7alFRszeBhgfpCLifowKGh3t3oaimUteRZwKGIxE/bgZmFgMC+ScgEvmzDZWlngh25qOASKS9BrWlFODKUQHXMxMQiRxAuzFVyvNWQCTSixUCmnlAZ/4KiER2/gEVNootkM8CIrd3YhwwSLUzvwVEo72VqLJu/PkuIBr9HFuHevEt5L2AaPQwOsp0JgKdBSAgGt2OShPTUBACotG3UWpCmhYKQ0B0Gx4LtFPWUSACotF2TAc0021GQE+Hu9HhcTQ6AwIKiI77UW6tQaCPWkDI71v5Gi3tv9Z1u3tEEzD+0RoUXHMQoBMQVB3WsnlCYgkYHz+I7gF1gnQC+jQ786s8+4USMD7+Q1RcmUoqAfcdpI7s2mahBIwfwIxQGQeNAJfO4Zxqv0gCxsexOKAMxdnhsU79lgvvrEACLmEYUKSGYgzoNNpk8wok4NIlDAOK6hkL2G+8puYQSMCldlRdvj1g/CxQQrG2EBRHwKU4OohUUwF9AW6ay9S5xBEQx46hbDrfbyTARddp4RVHQHwnJoTy2aDBmqCD0lKXMALicRwyk6TJSIDLRnmlYnEE4E4gncbZjXaGGqlvKSFhBMQPYKNAskdktDtM32TRKIyAeByniwgE1AIWAvSX8okjII7VIUndDDpEGugvVdUjjABMBqTTQYMusRIT12oWRkAcC4RaBLT7BJtMXKteGAHxj/AyMjUBQqeomRM4HmEExGdwukxFgNQrbGYdrVgcATMfo/QKAsRucTPXahNHwMz3UHo5AaKAaTNrKMXiCJjZgtLLCOicGLGZuJZXHAEz61F6KQG9M0NmXtTkEEfAeRB4nAqDU2N2E9dyiyMABKQE9M8Nekxcq0scASAgIaApYPXV0k76S9UJJOA8NgmkBPQEjPXQLwy0CSTgPM4USQjoChgba6O+lFMgASAgIWAgYCxIe6VakQSAgCaBOe2fmKDtGWkUSQAIaBEgCKCdENbtF0kACGgQmCP+zAzd0oBbKAGnQUBFgCxgLECzSGwXSwAIrKbcUMDYNMVxotpesQSAgJKAroDpacPTJLbDggkAAQUBAwHT0179i1QFRRMAAnIChgIMxoHSZuEEgICMAIWA6elW8pywIiCeABCQEqAScPVqF+FtQ9We/QIKAAEJAUoBqbRqdN2W2bsmRBQAAmoCNO8VnnDb5e33Nm/XhJgCQEBFgPbN0qHWkoqVWUGdzxPcPyGqABBYTaUpAStxhQKh/QL1CWoIAAEFAZNvl58V6LwAQQAIyAkI/PsC6Qo4/R2UXkKgEAXcAwEJgYIU8E8QWCVgpYBjwggAAQWBwhMAAqupsVDAHcYCItYJAAEZAWEE3LZOAAhICRSkABCQEChMASAgIVCYAr4CAQIBPQEn80kACBAIFI4AEFhNbWEKAAFNAtkVcISrABDQIlBQAkBAg0BhCfgSBFQECkwACJAJ5KmA0woBIKAiYCRglrGAa4wF3FMIAAElgYITAAKrqeMi4GiuCQABOYECFAACMgKFKAAEpATyQEDctAAQkBAoTAEgoCZQYAJAQEWg0AR8AwKPU5q5gOMCCgABBYHCEwACqykrzWJeypqAv4NAbuQlrjtDUgEgkGME+K0IPRIAArlFIAsCQCCnCGRDAAjkEoGsCACBHCKQHQEgkDsEuD8NgkCOEciWABDIFQJZEwACOUmApwAQyEUCXAWAQA4S4CsABHKPAGcBIJBzBAivk2Mm4N9KAi9/3zCbHyX1v32/ObRjw6ZnUULLCHAXoCLwxN/k+UKeW7dunVrNrVOXl/LXln3vvfEjlNEKAiYFzGQuwIiAroBTDwUsZ+O+Pz2f/U/SVu5r83ocqXhK0kyxJVlrMr3GLxWNmz48/JWSgEqAMQF6Act57XevZK/4Pk9Dh0v14+M3CvPV0iYE6BMwKWBqamrj3heyUP66toa+uYWFhQsQYF6ALgHzAqamLk/t+4Bv/SscHXOJRAIC0hSgRyAdAVNTZ86c2fd7bvUv9wcSy4GAdAXoEPhCRYBSQCpP/YxH/atKmhMJCKAT8CVJwH+IBDIRcObMxkPMHxLrHK4EBGQugEggMwFnRke3bmAKoKa+JwEBVgggEfg2UwGp7GU3EJQ29icgwBoBBAJWCBgd3f0qozmA5BYAAXQCviEK0CZAI+CyoYDRoY07yhgIsAcSEGCdAE0CBgJOUQoYnZyc/PQJy2eB7sQDCLBQgBYBCwVMTm7+pbUCSmT3AAjIXMA/1AQsFTA5udvKJQJb6yIEWCxATeBbc4uCRgKGht59xzIBTQEIsFyAmkBaAqbIAoaGWqzaNPD2Q4D1AowIWCAgZcCSPYPqxkUIYCDAgMAtcwsC2gJSBixYILA5IYCJAH0CFgkYmmzJeD5Q2wcBbAToErBKwNDQxa0ZNpXVBiCAkQA9AhYKuDi0OaOWshoIYCZAh0C6AkY1BKTyVAad5pWdEMBMAJmAxQIGB99KfwyAAIYCiARupbc5SBYwOPhhujvDmAmyFKBDwGoBgy3pLRVXNUMASwEkAgwEDA5uTmfbsBrrAWwFEAhYJmBIIiC96QDWBBkL+K8mAUYCBgd/a1pAGwQwFqBJIM0mIWMBg1vNthOWuyCA8kdH0xWgRSAzAZM6AkzfCmx9EMBawL/UBDJsEdEV8PXX5jaM3BDAXICaAFsBA7vNPBWUQAB7AYYELBYwMPC0ib0h9AlyEKBBgK2AgZZnqAk4IYCDADWBzJuEdAUMDFDPCEsoBMxBQKYC9Alksj2sJPBIwEDshbRuAxDASIAuASYCBgZ+QPk0AAFcBOgRYCRgYICqm7QJAvgI0CHATMDgTykElHVAAB8BZAIZt4iQBKTyjsm5IAQwFEAkYK0ABYHPjJsEOiGAk4B5AgFrGgQIg8BAeJ0RAQcE8BJAIMBYQPhJo16xHgjgJUCbAGsB4fAm6kEAAhgL0CTAXkD4Pf09YhcEcBOgRcC6JiGigPC7L+sR8EAAPwEaBNgKeEgg/CbV4wAEsBegJnDZ+s1BDQHh1/TeIwABHAUQCDAXEA6TN4vKAhDAUYA2AQ4Cwr8mv1QOAngKmN+lQYCHgBh5QuiEAJ4C5u1qAjwEpEI6U1DbDwE8Bcx/rCLASUB4r/6yEARwEjC/Rkkg7Taxi+YEhFu0e4mrOyGAq4D/lRsSYCTg5k3tt9V3QwBfAclKIgHWAmJPkieDzAUcg4BHApKlJALMBcRatA4Y2noggK+AT4oIBNgLiMU2ELqFZA8DTATcYSwgIo6A5PsEAla2iZEExN7Svg/kgYDb4ghIHtQmYGmbGElAbOt31feBfgjgKyD5R00CDBoENATEYus07gMQwFdA8nVlDV7hKCCmPmLqhADOApJvK2vwDEcBsX3q+4AVAk5CAL2ApHJ9uGgTRwGxF5Vvpe2GAN4CkjYlgXUs2sQIAtSPhY0QwFvAX1Q34w+YtIkRBMR+ofjrAREEHMknAeoHgqI3WW4OKgXc/LniZcMQwFtAcr2KwA6OAq5ceVG+RlwCAbwFqGeDRYd4CrhyRX7O3E0jYCzPBZzmKuCTKhWBz7gKGPmxrG/UBQGcBdw9qF6j38xVwMhPpH+7wgoBs4wFXGMs4B5jAfNJWdRTgWc3MhKgJLAiYKRF+lsl3lwQcDTPBcgGgeTdNSoCz7PdHlYKGBmRbhO0QgBvAe+rf1r+Dc4CRj5UrgpAAEcBd19XTwWe5ixgRLI4VAoBvAVo3AeKPuUsYORXklNEypeK5qGA+P/Zux+fKq8zDuDPwihIgyO5zYQL0qGoTKZoA1qDQEAEq/Jj/oCo4KrQoRkqYlFLtFIVpFG0SkRbdctsu4VpYqe9McBwpYWtpBvxzmR1zZZMU02nJl2Cc6bZst33Xri/3vPe+9573/Oc9748zz/AzTkf3l/ne56jLwEtjNBONZIAJ4H9rtjIVBKALOCx/H0AUjjGxJgXgcuXXceYTiMByALORgH7afAqx+VhmYDLrn1l3+cv4FcGF/DHgAQ8Psm4DxzgHBCQCxhyJoemkwBkAayHQahFFzAU4XwaJAHIAtoYAjIy0QUMVTsbDIW/gPfCSgDzItDAOSTEEDC0cLzPwDISgCuAdRGAXbgC7ASGxlsQrvYr4PecBXzEWcAtzgL+FZCAxyZWk58ivjExpoChN8ZfCEgAqgDW6wDMwlge9hbQ+9LY5+GQBfzG4AJ+p6mA03EsAgdECOgtGDuCggRgCnj8bWazt2oRAnrH3grnkgBMAcxnQed9AFdA79qxLQR6F3DJSAJOz2QSOK6pgH+oFNBb4lgomkYC8AQ8PsYUELmfe0yMJaC3t8n+539EAvAEpLGbve3ECQi4BIwTcJxU9LIfAX8xuIDPEQW0JbIJ1AoS0GvfWGgmAWgCWuLYAvaJEtAbb99LRgKQBHx5erpC08+3RQkYsG8nWUECkK4Bp00KAuZnYsTEWAIG7D3J14sV8FuDC/jSvwDYhRMTYwgYeNO+VMy9qej73BsKchTwd/4C8jLRAgLeAgbsO8yXkwAMAS0JisdAvCJOwNA2+6ZiQwv4WCcCOqIUBczKFCZgYGCh9HlwNQngL6DMrCggeo9AAQMDKbafsJkE8BZwdq+PI8F2osXEWAIGpJOqXiYBnAW0fNeHgCVFiCEhuYDhcttv+ElYHzAgVsDf1Ag4GefrcNBXkJeHvQQMbwEwkwCuAlqO+TwhuEGwgOHdADNJAEcBZ9PMPgUwbgO4AoZfAkiYUMfMIAsom+77nPjod0QLGF4FsIIE8BLQFgsxvglMESCg10PA8DyAJBLAR0BbK/ir8kzskJBMwPBKxyoRCdCynZwk4OxJk18AkFckYnnYU0DfIYC5JEBzAS35Uf4BQEq1DgT0RUgLhRNVwKd8BJze0QpqKrJWDwL6ngGYSgI0FNCy41giqBPwnC4E9C11I0ACQhRwti3fBDExggX8Sb0AO4G1ADkkQAMBLWX5sSr//fkJ+EUQAiQCy0lASAJa2nbsPRYHgVVKrcDlYffbQF9f7jiBsBJQUdVRc6qs7OQMRn3PR31HdT3vo3bY6/kdafnPVsbOjIEganG1bgT0bQMoDh8BFR0n8ytbk80Q5tWwXz8C+goBloWFgIqatKTpYIhKPZCpIwESgXW6F1Bak9+aCEap+bVCQ0LeAvrqAX6gbwGlpybHgXEqZud+vF5SagT0ldgI6FlAx2wjzb/tOXDPVbExMZmA2wsBpulWQEWxyVDzD5EHMq/eEB4Q8BRw+3aMnYAeBWzPjzMYgCNFV3Uo4HaqRECHAgwHIFsCoEcBt7NtzwL6E1CaZjAATe1FVwUJ6PUjoMdGQH8CahIMNf8x5W9nCuokpEJAT7QXAR0IODzbUPM/60A11lFDKpeHPQVkAazTmYBTUQZ6Aix3zr9eBfSUACzTlYDSvUaZ/ozX2vdkYh43FpyAnnqAYj0JuGCELwHZi9Pbf1ydiXzgXJACegoBlutIQE2wN4GYjKa8SUi1mFWz9r3WkL6zsX3XO7VFmcrnj+tkachNQM82NwLiBZQFvBiUmtdw5Pi5zq6Hd5z1laPujtUXzrpnrz+41UNbfeJRTz70qg+86sGDK+51U6prrhocHLw5GCYCXARydCMgLbDL7b7GXeeb738t1R1eAv4TsIBBdQLELg25CejJdRIIKwHZ5e2dzfel+tqLgIEE/AxFQM9agKk6EZCv+ktb4znH9OtCwE3VAm7oUkDPUoA5YXUNaDrSed9VQgVcMYSAvhMAc3UhoFjVw1/6ubv3uQl4MhEF9PQ8A7BeDwJOqXgXaGrvGh0NQMBdEqBCQE8EQJIOBFT5XxicdKZ5VJWAr3gJeCBSgMZLQ261CWCFeAEVyf4BjI6GgYBBlQI+E7w46FaPCgBM4leGKv2Fbh0A9Cvgmg4EDAUn4NEUgGThAmb4WW5rb8YW8OHEEfAoHiBKtIAq37uDGrpGQxZwjwQoCbDsBkgULOBorM/9l2P3AE8B9ye2gIB3D/sQYJFOLT4oNiWWo+oSEJyAL0QKEHXIRGACLHW2Yd4qVMAFs6/dd6PcBXwiVoCI5WEPAZbFUidyoWlxH28DTZ3hJyAMAgIuApIAywbbSK8RKaBGWcALXToQ8IHRBViybUO9TqCAW8pBsYZmHgIekgBPAYXSWOcI3DVWprwD944qAcJDQuIiIsGFhLwEWOzHU80RJ2BEcc9IoxABEyAk5CXAEiGN9npxe4cVLwKNoz4EUEhIOwGWldJwLxDXP0DpSWCnbgUYYXnYXYBllTTeJmEClF4H9jXrUMAVQwqQvg8DRAnrIZKk0KC7C0PAExIgVbl9yA8KElClsBPrPPs2QCEhjQR4EMizj/kPBXWSUsgMnwlIAIWEAl8cdK9I+5ivEdRLLCqQl4FwDgm9q6OQkJeAQsegF4vpJ3iKHRFrNpwAnQUEPGqjY9TniOkoyVwgiu7Uv4BrxhFg2eQY9kohAirMvm8DFBNDENAf7xh2k5C+wswvg03NFBJCFPDf/jcc424W0lm60ufbAIWE+MTEvAT0zx8b+K0CBBxl7R6ZdIdCQpxDQp4CSqLHRn71L/G7yzM/Dp+jkBCqgP6l4yO/TMAJE6zvQvsoJMQ9IuIhoP/Q+NDncxZwkXHGSKzyRYBCQlgC+qeMD/0CfAEVjK3EecYJCX2m15CQp4DxFwKAKL4C/sk4Z4j1afA4xcS0WBoKQEB/inPwt2ILuM5oKhLZTCEhjOVhNwG5rtGfhi3g+gKFD4MUEkIQYBkT0P+qa/RzsAVcZ3wV6KSQELKA8c/D9gQptoALjG/DFBLCFtBf5xp+E7KAEcbT4BEKCSGEhDwEZEW6hj/xIK6AkTTmfUCkgAdhI6BXKwGub4P2T8RBC/h5MAJGnpU3EpiwMTHMkJCHgP6V7hOQgytgRP5tMJ1CQigBAfdKd5+AJFwBI/LY4HEKCWELyFriPgFxH6EKqJA/CpynkBCygP4TnjOwGVNAt3wHQQr1ksIICXnUPM8pKA5OwF+DEtAtDws0hFtI6EZYhoQ8qtxzCr6FKaBbnhtsp5gYj15SPgQ8LUn1nIJkpoD3+QjoljebPEMxMYSQkAeBN73n4EVEAd1pyk+DFBPjGRFxE/A03nsOihEFdMtSY9n3KCaGLMA633sSkhAFdMvOo5xEMTFUAf1PrSdkV2JzKZ6A7skKLwQUE+MaE3MXYF0k/zazBk9At2yJoJF6SSGEhNwFWDfICczFEyC/CrRTTAxZwAlGeDMBT4D8KrCLYmIYERGXANZ9wPZaiCZATuAcxcRwBbDuAwA5aALkBDopJoYrYCOzv4dJWwHvKQuQEzhPMTHuMTF3Adbd7D5Pm7EEyAn8lGJi/ENCbgIKs9kE0hhLQ1wE3JIR6KJeUjgCxggUKDT9TMYSICfQTDEx/hERlwBrnlLz57eQBDAJUEwMT8DriqdA5CMJkBGIppgYpgBruiKBqFIcAQwCFBPjHRNzE7AtVfk4oHVqBVwKScDHMgIUE+MeE3MJsMb7OBawFUeADwIUE+MVEnIJUHojdFQVigBlAuEbE3tX5zExlwD28oCz9qIIUCRAMTF+ISHXRSDSJ4G4CgwBSgQoJoYgwDrF90HxMANDgAIBionxi4m5qj7DD4HppQgCfBOgIwc5xMSsql4HxpLEIbaUVCOATYBiYhxDQs7KTfVLIPkifwG/ZhGgmBjXgMB4bQH/tS5UAdf9CmARoJgYioDXVQgA00XuAhgEKCaGIiBrsRoCUMZXAJMAxcRQBFhXqhJgeyngLUCJAMXEOMXEnM+CkeoIQA5vAf4I0JGDfARYy1UKgLjtnAUoEKCYGLeAQEC3AftKAWcBbAIUE+MsQPVtQOpEWcVXAJMAxcQ4C8iqgwAq9hJXASwCFBPjLOCbVRBQzQhSwIgqAQwCFBPjFhMbExARExgB8wWeAuQEKCbGLybmEJCbAQHWAp4CFAmEUy+pcImJOQSUvAABVzFHAUoEKCbGS0BWeuACwFzFT4ACAYqJ8QgJSQK+iYdgKqGCm4B/MwlQTIybgAIIriZzE/BnFgHqJcUjJmYXcCgmSAJQxksAiwDFxLjExCQBEanBCgBzBycBDAIUE+MSE5MEvBq8AICoF/kIkBPQVUjIQDEx6S4QDaFUwnYuAnwQoJiYxgI2hSYA4FgpDwHKBCgmprGAeTEQaiWVchDwuRIBCglpKsBakg4aVOVR7QUoEZhwvaT4xsSshbNAk5p9VHMBCgQoJqatgI0bQKOqLNVaAJsAxcQ0DQhkTYkGzap1u8YCmAQoJqalgP9tqwMty3RYWwEsAhQS0lJA1qYM0Lamd2gqgEGAQkJaClhaB5pXYrGWAj6VESABGgYE6helAo+afFQ7AUoEDNRLSlxMrKRgCXCqhLc0E6BAgI4cDF1A1qYNwK8S00o1EsAmQCGhkAXUFzQB3zLVaCOASYBCQqGGhHIXZQD/mn1YCwEsAtRLKjQB9YfqYgCl4tK2hy6AQYBiYqGEhOoPbfl/e3fXmsgVxgE8sJjakIWVblHKUhCEWfDC6GaQ1DDZ+hIQlBXBVpAI0li90EIaYxrYuIRQUrOwtpct7DfY21z0Yi/7Abzrl+h9CV3S3YuNY+bMzBnf5jye//MNDs8vOp7553kSK4urB4+/mVaAkcASx8TezFmAOthohFYWXA++fj2dAEsCmCXFLUDVOsWCZ8WVWnv07OUUAqwILDwktP/Qqj63q68Y9cRQqzOq3qCkaVpp0DtPBpoxl7p/myv86buXkwqwILD4kND2CmryL4Rvf3s9kYB/TAm4EBICgWk/DB49fvbrDw4FmBJwIyYGAjOpL7787P7P9/nrEzYBV0JCICBEeV2MiYGAOARcCgmBgDAE3JolBQKiEHAtIgICghBwLyQEAmIQcDEmBgLCEHArJgYCohBwLSYGAoIQcC8mBgJiEHAxJgYCIhJYaEgIBAQksNiYGAiIR2DBMTEQEI7AomNiD7/X1fokdW/iOkHrGQSkmiV1idYbCcg1SwoEjAQkmyUFAgYCsk0TA4G7BJZqmhjPBAEQuENAbAHzmCWVRevHCEg4SwoExgjIuHIQBPQEpJwkBAI6AnLOkgKBEQFJVw6CgI7AMq4ctJ8mBgIjApJOEwMBUwKyTBMDATMC0sySCqD1bALyTBMDATYBiaaJgQCTgEwrB0GARUCqaWIgwCAg18pBEDASkGzhHAgYCMi2chAE7hKQSAAIMAkse0zMuGIABMYJSLhycAut1xOQceUgCOgJ/CfjujEQ0BOQcuEcCOgIyLlyEARGBKSIiRnXjYGAGQFaMbF2vRguKEohXKy3HS6cAwETAvMUMOvXw5rfpz+Iz685WTkIAmwChGJimabXcJRmhn/pZBGtNyFAQ8CbdJe5GdB7kOZdPw4CTAJkPgP6QbPjBPuci2dBgEVA5JDQmIANr8V5knyrh0GAQYBMTMzmDU+Aa/k0CBgJkImJ2TavyLN+HAQMBMjExGr2Z6pxrB0FgbsEyEREMhxLghMZ+8WzfrR+nAAZAXGuiaXbcdvVwyAwToBOTCzJd6qk7fJpEBgj4HJMzEFIqJXiO1WqZbd+HAT0BAjFxJK8x0raLaAHAR0BSjGxKO+xoiwBV29BgEWAUkRkwH+uqrUAEBiVh1JIyMGP+S1rASCg+8SkFBNT+M+lGF8OggC7PiUUE4sn+M+VUC0FgMCoYoSmiZWcHKxkKeDtBlp/e5FGJCb2ISq66uRgPUsB/4LA6FmA0ByZjpODdSwFgIDuHo3QJKG6k4OdWwoYgsBtrW3SmSXVmZDAO6MAENDVnugxsdG/jDh6FuhbCgABXf1BZ5rYZL8ImAJAQFcv6EwTi4f4jxXKWwoAAV0dEJomFnNw32EtAATuXAxQmSTkYDpMwFrAMIfO35b3lM4sKQfPgz2mgLcfBQxr6PyofqczTSx+xHuooGotAAT09aOwMTHjBAHulzt+GwHDJBo/qgqhaWJpD9+ZPGkbAUP8c7m+jglNE/M7+BCwEjAMo++6uiA0SahV4Xr3lbcTMIyh7/o3RZt0Zkn9terl+JHTsxWQD6Hv+qpTmibGcaezYStgOEDXx+o5qWliXbvjdO0F4HLQ8EAo7tJJ40jBuM2TXFhlBgTG6rqBpo/XNJKkCAAAAspJREFUiYgxMdNlU3HLHYMBDgE3aS+afqf2aa0bq5leD3hqVxyfAde4GGI8DdBaOagVTD7ONC4B1z603PiigNrSyT7jh73St3w5OBJQRcMZt8Rl4WJidksnq93I2O3GZfWKU8B1Ew1nXRESXDoZrya7jWgwGG10k1X16sru1dBHAYM19Jt1o3ZMdemk9X8NMQTcnKHd7Hv1MtmFcw4F9NFskzqQREA+il6b1atlF/CBwM0N/qfYvELHJJdOOhQwwMWgRQX3xIqJzUNAC18D1o+EuwSXTlr876hRwA2uBGxKOSW5boxfAB4EbKtQXmoB57gU4nhhdLrEAvqIi/FUbJeggHdcAqoJtJerfHu0lk5yC+h50Fze34bHrsXE5ibgPYEOvgUc3BEdChgQmFZADldCjupiU1QBf04mQM2iqU4fCp8ulYA0EsPOy3NIUwDz5WAviIZOUs1dEQT8Pb2AfAAXQhNW5NWmSDGxSQUMEBee5pXBvtgBAQ4BrQB+CUxV3otd2iGhczwFTP9t8EuZroABfgjM5rIwV6YZE8sgGzCzqhyW6cXEtC4eAmb6SeDfnbmAucbEqk0AmHUlsiWxY2K6/qsdBQ2by6+Dk3qZQlBQ81fQrLlVKrAveEgo3znBN8CcK5ZrCytArWZT6NAivhCUF3sCClB7WVwDLbC2/U+FCgq2Opf4+194HR0ctoUICqpVv4Lvf7fKF1g/dTUomK8mmxH0weUnA99BLhN3IyiY7mw1kAoXpTzPt+ql+MJCQqrWKZ7hx7+A94ex7sb6XnyuAlStn8s28P8AYn8gxMLFXL+Un7GAvNbLBc528MFP6BEhqLynUH9SSk8jQE1n+jX/5VkshfQf4QoFtwvhgD+Zq99bHZTarbi5gHy6XRqs9ju1nD8bPolVImj8UtZawhNJBY8q0R1fTFGU2LZvJ1qpBIOpCH7co+Sr/wHFUOkOcIFVEwAAAABJRU5ErkJggg==;" parent="1" vertex="1">
          <mxGeometry x="522" y="208" width="49" height="48.81" as="geometry" />
        </mxCell>
        <mxCell id="2Kfv_4t5I5vCwGOsFX-G-9" style="edgeStyle=orthogonalEdgeStyle;rounded=0;orthogonalLoop=1;jettySize=auto;html=1;strokeWidth=2;strokeColor=#757575;" parent="1" edge="1">
          <mxGeometry relative="1" as="geometry">
            <mxPoint x="570" y="269.5" as="sourcePoint" />
            <mxPoint x="758" y="269.5" as="targetPoint" />
          </mxGeometry>
        </mxCell>
        <mxCell id="2Kfv_4t5I5vCwGOsFX-G-10" value="&lt;font style=&quot;font-size: 14px;&quot; color=&quot;#525252&quot;&gt;Extract&lt;/font&gt;" style="text;html=1;align=center;verticalAlign=middle;resizable=0;points=[];autosize=1;strokeColor=none;fillColor=none;" parent="1" vertex="1">
          <mxGeometry x="350" y="240" width="70" height="30" as="geometry" />
        </mxCell>
        <mxCell id="2Kfv_4t5I5vCwGOsFX-G-12" value="&lt;font style=&quot;font-size: 14px;&quot; color=&quot;#525252&quot;&gt;Load&lt;/font&gt;" style="text;html=1;align=center;verticalAlign=middle;resizable=0;points=[];autosize=1;strokeColor=none;fillColor=none;" parent="1" vertex="1">
          <mxGeometry x="640" y="240" width="50" height="30" as="geometry" />
        </mxCell>
        <mxCell id="2Kfv_4t5I5vCwGOsFX-G-15" style="edgeStyle=orthogonalEdgeStyle;rounded=0;orthogonalLoop=1;jettySize=auto;html=1;strokeWidth=2;strokeColor=#757575;" parent="1" edge="1">
          <mxGeometry relative="1" as="geometry">
            <mxPoint x="297" y="268.5" as="sourcePoint" />
            <mxPoint x="485" y="268.5" as="targetPoint" />
          </mxGeometry>
        </mxCell>
        <mxCell id="2Kfv_4t5I5vCwGOsFX-G-16" value="&lt;font style=&quot;font-size: 14px;&quot; color=&quot;#525252&quot;&gt;&lt;b&gt;Datasource&lt;/b&gt;&lt;/font&gt;" style="text;html=1;align=center;verticalAlign=middle;resizable=0;points=[];autosize=1;strokeColor=none;fillColor=none;" parent="1" vertex="1">
          <mxGeometry x="200" y="184" width="100" height="30" as="geometry" />
        </mxCell>
        <mxCell id="2Kfv_4t5I5vCwGOsFX-G-21" value="" style="whiteSpace=wrap;html=1;fillColor=none;strokeColor=#D1D1D1;rounded=1;" parent="1" vertex="1">
          <mxGeometry x="345" y="100" width="365" height="320" as="geometry" />
        </mxCell>
        <mxCell id="2Kfv_4t5I5vCwGOsFX-G-17" value="&lt;font style=&quot;font-size: 14px;&quot; color=&quot;#525252&quot;&gt;&lt;b&gt;Transform&lt;/b&gt;&lt;/font&gt;" style="text;html=1;align=center;verticalAlign=middle;resizable=0;points=[];autosize=1;strokeColor=none;fillColor=none;" parent="1" vertex="1">
          <mxGeometry x="485" y="324" width="90" height="30" as="geometry" />
        </mxCell>
        <mxCell id="2Kfv_4t5I5vCwGOsFX-G-18" value="&lt;font style=&quot;font-size: 14px;&quot; color=&quot;#525252&quot;&gt;&lt;b&gt;Destination&lt;/b&gt;&lt;/font&gt;" style="text;html=1;align=center;verticalAlign=middle;resizable=0;points=[];autosize=1;strokeColor=none;fillColor=none;" parent="1" vertex="1">
          <mxGeometry x="737" y="184" width="100" height="30" as="geometry" />
        </mxCell>
        <mxCell id="2Kfv_4t5I5vCwGOsFX-G-6" value="" style="shape=image;verticalLabelPosition=bottom;labelBackgroundColor=default;verticalAlign=top;aspect=fixed;imageAspect=0;image=data:image/png,iVBORw0KGgoAAAANSUhEUgAAAgAAAAIACAYAAAD0eNT6AAAABHNCSVQICAgIfAhkiAAAAAlwSFlzAAALEwAACxMBAJqcGAAAABl0RVh0U29mdHdhcmUAd3d3Lmlua3NjYXBlLm9yZ5vuPBoAACAASURBVHic7N13eFRV+sDx75RMekJIIRBCDb1LwFAEpUtTohRFV1AEFMTG4sLyY1kWXXVRFMGCu666Ul0XgUUUFF1EVEAEKYJSQ0LonfRkfn9co4gkmbnn3Dt3MufzPHl8Hs059yWGOe895T02FMUzscCNQCegCVAPiAcigCDfheWxYuACcA7YD+wFvgLWAUd9GJeiKIqiWE4YMAJtkCwG3JX0axPwEBAj5aemKIqiKH4qApgMHMf3g7OZXxeAp4E48R+hoiiKoviXdCAD3w/Gvvw6DYwB7II/S0VRFEWxvFDgdXw/+Frp6xMgUeSHqiiKoihWVgvYhe8HXCt+ZQKt9P9oFUVRFMWamgBH8P1Aa+Wvc0AXvT9gRVEURbGamsBhfD/A+sPXBaCtvh+zoiiKolhHFPA9vh9Y/enrGJCs54etKIqiKFbxDr4fUP3x6yv8o/CRoiiKovzGXfh+IPXnr//z/keuKIqiKL4VhVb61teDqD9/5aCVQlYURfFbqtBJ4PkDUN3XQfi5UOBJXwehKIoiwubrABRTRQOHgCo+jqMyKAaaoV0qpCiK4nfUDEBgGYka/GVxAON8HYSiKIpeagYgsGwF2oh2Ehsby6BBg+jatStJSUmEh4dLCM1YeXl5ZGdn88UXX7Bs2TIyMzNldHsSSAIKZXSmKIpiJpUABI4U4EeRDmw2G2PHjuXxxx8nIiJCUljmKygoYP78+TzzzDMUFgqP3T2BjyWEpSiKYiqHrwNQTHM7MEBvY5vNxgsvvMC4ceNwuVwSwzKfw+Ggffv2pKamsnz5coqLi0W6O4p2aZCiKIpfUXsAAscNIo0ffvhhhg4dKisWS+jSpQtPP/20cDcyYlEURTGbWgIIHN8A1+lpWL16dTZu3EhoaKjkkKxhwIABbN68WW/zs0BVieEoiqKYQs0ABI4GehsOHz680g7+AL/73e9EmscA8ZJCURRFMY1KAAKDC4jU27hbt24SQ7EeCX++WBlxKIqimEklAIFB9+APkJxcuS/Ai42NFT3KKPTzVRRF8QWVAASGYJHG/nzkz1ORkUJjeOVdH1EUpdJSCYCiKIqiBCCVACiKoihKAHL6OgA/1AhojbarPhntgh07UAKcA46gVdz7FsHKe4qiQy2gHVrlx9podz+U/j0/CxwHfgC+A3ai/d4qihKAVAJQMQdwEzAc6I13V+keBVYDC4D/oT5sFWNcD9wF9APqetHuDFoVwwVov6cF8kNTFMWq1BJA2cKA8cA+YC0wAu8Gf4AawH3AOrS3rrFAiLwQlQDmBO4EtgNfof2uejP4g1bAaDDwPtrM1RS0GS1FUQKASgCubQDwPfASUEdSn/WBV9ASCqHKM0rA64K2xLQAaCmpzwTgSeAg8DDqnhBFqfRUAvBrccB/gRVoa6lGSALeAv6DVkVOUTwVCrwKfAY0N+gZMcALaEtWRv0dUBTFAlQC8Iv2aG9V/Ux63qCfntfGpOcp/q0O2lT/GMy5w6MT2u9nLxOepSiKD6gEQNMLbTNUTZOfWxvtbe4mk5+ryPU7oIWB/TcHvkDedL+nqqLNiA03+bmKophAJQAwEFgJ+KrcXRTaDuybDeg7Am1wWmBA38ov7uOXY3V/RNvvIUtrtCSxhsQ+vREE/Au430fPVxTFIIGeAAwE3kW7LMeXgtH2BPSR0JcN6A68DRxD229wo4R+lYo1A2ai1X/4DLgbsTLBrYGP8f1lQzbgNVQSoCiVSiAnAFYZ/EuFAMvQnwTEAo8Be9AGjbsBoRtuFN1sQFe0JOwoMA/vp++tMviXUkmAolQygZoADMBag3+p0iSgtxdt2gBvApnAc0BD+WEpAqoAD6Kd1/8UbfNnRUfsrDb4lypNAkb7OhBFUcQFYgIwAPg31hv8S4WgFWYpb/e1HeiPtnFxK3APqsCQP7gRbalnH/A4175G2KqDfykb2lFElQQoip8LtATA6oN/qbKSACfaYL8LbeNiNzOCsdsr/69JWFiYmY+rA8wCDgN/AeJ/+vdWH/xLqSRAUSqByv/J/gt/GfxLhaIlAT3RYh4F7EWb7m9sWhChoQQHB5v1OJ+pXbu2Lx4bA0wFDqENqP4w+JdSSYCi+LlASQD8bfAvFQosR9tV/jpQz+wAWrQw8ni7dXTt2tWXjw9DK/DjL4N/KZUEKIofC4TbAA0Z/F0uF23btqVBgwZER0dz7tw5fvjhB7Zu3UphYaHMR4Xiw5KsAwcO9NWjTTVs2DBmz57N+fPnfR2KFA6Hg9TUVNq0aUNcXByXLl1i7969rF+/nsuXL8t8VGkSADBfZseKohjLjJKiviR98Hc6ndx5552MGDGCqKio3/z3c+fO8cYbb7B48WJKSvz79t+kpCQ+//xzs9fHfWbp0qVMmDDB12EIGzJkCE888QRJSUm/+W+5ubnMnz+fF198kZycHJmPdaPddqmSAEXxE5X5xi/pg39UVBTPP/886enpZa6Lh4SE0KFDB5o3b8769etlzwaYJjg4mDfffJO6db29YdZ/NWvWDJfLxYYNG3wdii5BQUHMnj2b3//+99dMTku/Jy0tje7du7N27VouXbok6/E2tJMpx4BvZHWqKIpxKmsCYMjgP2/ePFq1auXR9ycnJ5OamsrHH3/sd0lAbGwsb731Fh06dPB1KKa7/vrrSU1NZceOHZw+fdrX4XgsKCiI1157jUGDBnn0/QkJCdx8882sXr2aixcvygrDhnaZlkoCFMUPVMYlgP7Aexgw+Ddp0sTrtjt27GD8+PGy110NkZiYyLBhw3jggQeIjo72dTg+980337Bq1SpWr17NwYMHfR1OmUoH/759+3rd9vDhw6Snp5OVlSUzJDfwAFrRIEVRLKqyJQA3oxVakVYUJzIyknnz5tG0aVPdfXz33Xc89NBDlkwCqlatSvfu3RkwYADdunXD6QyEfaHeO3z4MGvWrGHlypVs3rwZt9vt65AAscG/VGZmJunp6WRkZEiMDDfwEFoZZEVRLKgyJQCWevO/mpWSgGrVqtGvXz8GDhxI+/btA6LQj0xHjx5l+fLlLF68mL179/osjqCgIF599VX69esn3JeaCVCUwFNZEgBLvvlfzZdJgN1up3Pnztx9993cfPPN6k1fkr179/Luu++ycOFCzpw5Y9pzZbz5Xy0rK4tBgwapmQBFCRCVIQHoj7bhT1q5Oplv/lfbvn07Dz30kOwjWGVKTk7mzjvv5I477iAxMdGUZwai/Px8PvzwQxYuXMj69esNXSKQ+eZ/tYyMDAYNGmTETMCD/FIvQFEUC/D3BMCvBv9SRicBNpuNG2+8kdGjR9O1a1c1xW+yvXv3Mn/+fP7973+Tn58vtW8jB/9SKglQlMDgzwlAH7Src6VO+8+dO5dmzZrJ6rJM3333HePHj5eaBNjtdrp3787jjz9O69atpfWr6HP69GkWLVrEP/7xD7Kzs4X7czgczJs3j1tvvVVCdOVTywGKUvn5awLgl2/+V9u2bRsTJkwQTgLCw8MZPnw4o0ePpmbNmpKiU2QpKCjgvffe44UXXuDw4cO6+jDjzf9qaiZAUSo3f0wA+qHt9vfrwb/Ut99+y8MPP6wrCQgNDeW+++5j/PjxVKlSxYDoFJkKCwtZsmQJs2fP9mpQ9cXgXyojI4P09HQyMzNldquSAEWxAH9LAAwZ/OfOnSt1t7+3vE0CnE4nt99+O3/4wx/Uxj4/VFBQwDvvvMOcOXM4duxYud8bERHBq6++So8ePUyK7rdUEqAolZM/JQCVcvAvtXv3biZOnMiJEyfK/B6bzUbPnj2ZOHEiLVu2NDE6xQh5eXm8/fbbzJ8//zeDa1BQEDfffDNTp06lVi2fXQb5M5UEKErl4y8JQKUe/Evl5OTwzjvvsGLFil+9GYaFhdGlSxd+97vf0aZNG2JiYnwYpSJbSUkJO3fuZO/eveTl5VG9enXatm1ruf/PBiYB44BXZHaqKErF/CEBCIjB/2onTpzg9OnThIWFkZSUhNPpJCQkhNjYWGw2f/jfplRGKglQlMrD6iOJ9KN+ERERzJs3z5SjfjIFBQWRkJCgBn/F5ww8IjgBmCuzU0VRymblCjFq8P+J0+kkLi5ODf6KJSQlJbFs2TLZexNswBxgvMxOFUUpm1UTADX4/8RutxMbG4vD4fB1KIryM5UEKIr/s2ICoAb/n9hsNuLi4ggKCvJ1KIryG6VJQO3atWV2q5IARTGJ1RKA7sD7SC7v+/LLL/vd4A9QpUoVXC5ptxsrinRJSUm8++67sitQliYBI2V2qijKr1lpUfk64FMgSlaHRlzpa5aIiAhV3U/xG0eOHGHQoEGyTwcUAbcCq2R2qiiKxioJQBXgW6COrA79ddofwOVykZCQ4OswFMUrWVlZpKen677voAyXgLbADzI7VRTFOksAbyBx8PfnaX+Hw0FsbKyvw1AUryUlJfHvf/9b9nJABPAOoDbCKIpkVkgA0oFBsjqLiIiwfJGfsthsNqpWrap2/Ct+Kzk5meXLl8veGNgOtSlQUaTz9RJACPA9kt7+/XnNHyA6OprIyEhfh6EowgzYE3AeaAiUfVmGoihe8fUMwEgkDf7+/OYPEBISogZ/pdIwYCYgGnhYVmeKovh2BsAO7AVSRDvy9zd/u91OtWrV1NS/UukcOXKE9PR0jhw5IqO7c0Ay2sZARVEE+XIG4CYkDP7+/uYPqHV/pdJKTk7m/ffflzUTUAVtz5CiKBL4MgEYJtqBP+/2LxUeHk5IiLS6R4piOaWnA5KTk2V0d4eMThRF8e0SQBZQQ29jf5/2B+2Sn2rVqqlLfpSAIGljYD4QA+TKiUpRApevZgBSEBj87XY7Tz75pF8P/qVH/tTgrwSK5ORkFi9eTFSUULHPYKC9pJAUJaD5KgFIFWl811130bFjR1mx+ERkZKSq868EnJSUFKZMmSLajdDnh6IoGl/OAOjicrkYMWKExFDMFxQUJPoWpCh+a/jw4SQmJop00UBWLIoSyHyVAOjeEtyuXTu/HzzVJT9KIAsKCqJ3794iXUgtM6gogcrpo+fqrnjTuHFjmXGYLjw8nODgYF+HYboLFy5w5MgRMjMzOXbsGGfPnv356/Lly1y8eBGA/Px8cnNzCQ0NJTg4mODgYEJCQggKCiImJob4+HgSExOJi4ujWrVq1KhRQ92d4IcET+5EyIpDUQKZrxKAUL0N/fnt32azER0d7eswDHX27Fl27tzJ7t27+f7779m9ezeHDx/m/Pnzhj2zSpUqNGzYkAYNGpCSkkKjRo1o06YNMTExhj1TEVO1alWR5mGy4lCUQOarBCBPb0MjBxKjValSBbvd19WX5frhhx/YvHkzX3/9NVu2bOHAgQOmx3Du3Dk2bdrEpk2bfvXv69evT9u2bWnXrh2pqak0btxYnbqwiDNnzog0V0cAFUUCXyUAF/Q2/OEH/7wW3OVyER4e7uswhOXk5LBlyxbWrFnD6tWrycrK8nVIZdq/fz/79+9n6dKlAMTGxtKxY0d69uxJ7969K/1sjJXt2rVLpPlFWXEoSiDz1evQ/wEz9DQMDg5m9erVfrUUYLPZSEhIICjIP680P3/+PB9++CHLly/n888/p7Cw0NchCXM6nbRv357+/ftzyy23qH0EJiosLKR9+/ZkZ2fr7WI+MEZiSIoSkHyVAAwDFultPHLkSMaNGycxHGOFh4f73Xp0UVERa9euZfHixXz66acUFBT4OiTDBAUFceONN3LbbbfRp08fVZrZYG+//TaTJk0S6eL3wCxJ4ShKwPJVAtAA0D2X73Q6mTt3Lqmp1q8HYrPZSExM9JvLfg4fPszChQtZvHgxx48f93U4pouMjOS2225j1KhRpKQI31WlXGX//v3cfPPNXLigexUQtIvEPpMTkaIELr+9CyA6OppXXnmFhg0bSgxJvsjISL9Ya/7uu+94/fXX+c9//kNxcbGvw7GE9u3bc//999O3b1+/SeCsLDs7m0GDBnHo0CGRbtRdAIoiiS8TgL8D94l0YPUkwG63U716dcvuPHe73axevZp58+bxzTff+Docy6pfvz4PP/wwt912m0oEdJI0+AN8BPQRj0hRFF+OTN2Bj0U7iYqKYu7cuZa8GCg6OprISN01jwy1fv16Zs6cyXfffefrUPxGrVq1eOihh7jzzjtVIuCF7Oxs0tPTOXjwoIzuRgJvyuhIUQKdLxMAB9o+gHqiHVWpUoWXX37ZUjMBDoeDxMREy739b9y4kZkzZ7J161Zfh+K3GjduzKRJk+jbt6+vQ7E8yYP/eaAWAseIFUX5hS+r0hQDz8vo6Ny5c4wdO5bdu3fL6E6K6OhoSw3+GRkZjBo1ivT0dDX4C9qzZw/33nsvo0aNIicnx9fhWJbkwR/gFdTgryjS+HqECgX2oGX1wqwyE+B0OqlWrZolEoC8vDxmz57Nq6++Sn5+vq/DqXRuuOEGFi5c6Lc1HoxiwOB/AWgIBN7RFEUxiK8XMovQTgMMltFZXl4ea9eupX379sTHx8voUpeoqChLXPizceNG7rzzTj788EO1s98gGRkZhISEkJaW5utQLMOAwR9gKrBWZoeKEuh8/4qqWQEMkNWZL2cCrLD2f+HCBWbMmMGCBQtwu90+iyNQREZGsn37dsLC1B01Bg3+3wJpQOWtRqUoPmCVBCAG2IakpQDQ3sLnzZtHkyZNZHXpEV/v/P/qq68YP348mZmZPouhPKGhoVSrVo2EhAQiIyOJiooiKiqKiAjthleHw0FoaCi5ubkUFxeTn59PYWEhly9f5uzZs5w7d47Tp09z5swZ0WIyUs2fP5+BAwf6OgyfMmjwvwykoi0VKooika8uA7raWbRlgHWAlBtzLly4wEMPPWTqTIDdbvfZhT+FhYU899xzvPTSS5aY7ne5XNSvX5+6detSt25d6tSpQ40aNaTe4XDx4kWOHDny89e+ffv48ccffVK2eOfOnQGdABg0+BcDd6MGf0UxhFUSAIBNaEnAckDKjqpz587x4IMPmpYEhIeH++S63+zsbEaNGuXTYj7BwcG0aNGCVq1a0bhxY1JSUnA6jf31ioyMpGnTpr+qAVFUVMSBAwfYs2cPO3bsYNu2beTl6b592mOBfBrg+PHjRgz+AA8By2R3qiiKxipLAFdKBxYjKQkAc/YE+Krm/5dffsno0aM5efKkqc8Fbbmjbdu2dOzYkTZt2uByuUyPoSKFhYXs2rWLLVu28PXXX3Ps2DFDnjNx4kQmTpxoSN9WVlhYyIABA9i2bZvsrh9H0jFhRVGuzYoJABiQBFStWpW33nqL6tWry+ryV3xx499rr73GX/7yF4qKikx7ZmhoKO3ataNdu3Y0bNiQ+Ph4vzkC53a72bt3L59++ikbNmyQuodg0aJF3HTTTdL68xd///vfmTp1quxu1eCvKCawagIABiQB7dq145VXXpHV3a9Uq1bNtIGwqKiIKVOm8Pbbb5vyPIB69epxww030LZtW4KDg3E6ncTGxvptSdyioiK2bNnCypUrhcsh16hRg02bNhm+5GFFHTt25MCBAzK7VIO/opjEyp9Y/wGGITEJ2Lx5M1u3buW6666T0d3PgoKCTBv8L126xOjRo1m3bp3hz7Lb7bRp04aePXtSt27dn/+9w+Hw68EftGJNaWlppKWlcejQIVauXMlnn32mawPh/fffb4miT2bLyspSg7+i+DGrf4J/D+xCmw2QEmtYWBidOnWS0dXPoqOjTVn/PnnyJIMHD+brr7829DkOh4NOnToxevRobrjhhl8tbTgcDuLi4vx68L9alSpVuP766+nTpw/FxcUcPHjQ45MU/fr1Y+DAgZw5c4awsDBLFIAyy+7du1m8eLGs7tTgrygm84dPcalJgMvlknpcy2azERMTY/gbYOkxq7179xr2DJvNRlpaGmPGjKFDhw6/KWzjdDor3eB/pZCQEK677jp69uxJYWEhBw8epKSk5Jrf63K5uOuuu7j77rux2WwUFxdz+vRpbDabZW+AlC0rK0tWAqAGf0XxAX+at5SyJ6BRo0YsWLBATkRAREQEVapUkdbftWRkZHD77beTkZFh2DMaNGjA0KFDSU5OvuZ/t9vtxMXFBdQ695kzZ1i9ejXbtm0jKysLgMTERNq0aUPv3r1JSEi4ZrsqVapQr169SpsolTpx4gStWrUSrTb5CdBDUkiKonjBnxIAgNuAdxGIu2PHjsyZM0daQEZv/jt8+DC33nor2dnZhvRfpUoVhgwZQtu2bcv8HpvNRmxsrCWP+VlVaGgoKSkphISE+DoUQ/Xs2ZMdO3aIdFGEdsmP9CICiqKUz5fXAetxGsGkpUWLFpJC0aaBjRz8s7OzGTJkiCGDf+l0/7Rp08od/EFLEtTg753c3Fx2797NxYsXfR2Koe6//37RLpxA4BVQUBQL8LcZgPeBW/Q2ttvtLFu2jKSkJCnBVKlS5eca9rKdPHmSW2+9lf3790vvOzY2lhEjRnhUGOnKOv2K92w2G3Xr1iU2NtbXoRiiqKiIrl27iv6e5gJ1UVf9Koqp/GmRMgV4CYGkpWfPngwaNEhaQDExMYaU/r106RK33367IRv+2rVrx7hx40hMTKzwe0NDQ4mOjpYeQ6A5e/YsTqezUiZSdrudmJgYVq1aJdJNENpNf8afbVUU5Wf+tATwMALx2u127r33XmnBuFwuQzZ5FRUVMXr0aHbt2iW136CgIO655x5GjRrl0bW1TqfT8M2NgSQjI8OwfRy+duutt/7qPgadHkDSRWCKonjGX7Z0RwG/E+mgR48epKSkSAoHw+5+nzx5svQiP3FxcYwdO7bMHf5Xs9lsVK1aNSCL2xgpMzMTt9tNjRo1ADh06BCLFi1i48aNZGZmEhwcTEpKCj169GDw4ME+u1nSW3a7nccee4xRo0aJdBMD3Am8LicqRVEq4i+f8BOBv+ltbLfbWbhwodQEoHr16tJnAF599VWmT58utc/GjRszevRorwaTmJgYQkNDpcah/CIpKYkFCxYwZ84cCgsLr/k98fHxPP/88/Ts2dPk6PRxu9307NmTnTt3inSzC2gBCJ0rVBTFM/6wB8AJvAPono/u0aMHQ4YMkRZQcHCw9PXcL774ggkTJpRZeEaPDh06cP/993t1FC00NDRgCtn4gtvtZtq0aSxevLjc/9c5OTksX76c2rVry5heN5zNZiMhIYH3339fpJsE4H/AISlBKYpSLn/YAzAIqK23sc1mE52a/A3Z0/9Hjx5lzJgxUm/169+/P/fcc49XhXvsdrva9Gew999/n/Xr13v0vSUlJTz66KNGXLVriF69elG/fn3Rbh6QEYuiKBXzhwTgPpHGaWlpMj6UfkVmcZfCwkJGjRrFqVOnpPRns9kYMmQIAwYM8HoNPzo62pBTDYrm8uXLLFq0yKs2hYWFPPjgg1y+fNmgqOSx2+0y6gLcAsRLCEdRlApY/dO+GtBdpINhw4ZJCkUTFBQkde3/2WefZevWrVL6stlsDB8+nO7dvf+RhYSEqHV/g33xxRfk5uZ63e7AgQNMmTLFgIjkGzp06K8uj9LBBdwlKRxFUcph9QTgLgROKtSqVYsOHTpIDEfu2/+XX37JvHnzpPRVOvjfcMMNutqqqX/j7dmzR3fbJUuWsHz5conRGCM0NJThw4eLdjNaRiyKopTP6gnA3SKNhw4dKn1KW1YCcP78ecaPHy9t09/gwYN1Df6gXWhU2S+usYILFy4ItZ80aRKZmZmSojHOfffdJ1oiuzFwvaRwFEUpg5UTgJZAK72Nw8PDGTBggMRwtDdlWfe9T58+/ecb5kQNGDBA17Q/YMkKdZcuXZJ6GsIqRH93zp8/z7hx4yguLpYUkTGqV69O//79Rbu5Q0YsiqKUzcqFgITe/vv37y99t76swf/zzz+XdY86HTt2pF+/frrbR0VFmVbwp6SkhKysLI4cOUJWVhZZWVlkZmZy/vx5cnNzycvLIz8//+fvd7lcBAcHEx4eTkREBDVq1CA5OZmkpCSSkpKoVauWX11PXLduXY9PAJTl66+/5l//+hcjRoyQE5RB7rrrLpYtWybSxRDgccDa2Y6i+DGrFgKyA4eBmno7WLhwoUeX3XgjOjpa+Ix8bm4uN954I4cPHxaOp3HjxkyYMEH39H1wcLDhl9QcO3aMbdu2sX37drZv3y71drzg4GCaNGlCkyZNaNq0Kc2bN7d0QpCdnc2YMWNwu8Xq3ERHR7Nx40ZLXzDkdrtJS0sT/T3vAXwiKSRFUa5i1qdlEODNPHMXBAb/Bg0aSB/8Qc76/3PPPSdl8I+Li2P06NFCa/dGTf1nZmayfv161q1bx/Hjxl3wlp+fz7Zt234+Jx8REUHnzp256aabaNKkieVKGVevXp1u3brxySdiY9r58+eZOXMms2fPlhSZfDabjcGDBzNr1iyRbu4GPDkikwvkiTxIUQKR7E/IRKAb0BloAjQE4tCO9pjm0UcflbET+VccDgfVq1cX6uPQoUN06dKFgoICoX6CgoJ44oknPK7tfy0ul4u4uDihOK6Un5/PJ598wieffMIPP/wgrV+9kpOT6datG3369LHUHoeLFy8yfvx4zpw5I9SPzWZj5cqVpKamSopMvoyMDK6//nrhGQ8vnAAOALuBjWi3Cx406+GK4m9kJABhaBt27kEb+H362uVwOFi9ejVVq1aV2m9YWJhwnyNHjmT16tXCsYwYMUL4eGNsbKyUPQ15eXmsWbOG9957T3hQM0JISAg9e/bk9ttvl/47ode2bduYNm2a8MDYokULPvzwQ0uf4EhPT2fjxo2+DOFb4F/AP4FzvgxEUaxG5JMjHO2SniVoCUBtLLCnoHPnzgwaNEh6v2FhYUID5oYNG3jqqaeE42jfvj0DBw4U6sPlchEVFSXUR15eHkuXLuXZZ5/lq6++0lXgxgxFRUX88MMPrF69mnPnztGwYUNpmzn1SkxMJDc3V6guAMCJEydIhKuVXgAAIABJREFUSEigdevWkiKTz2azSUl6BVQHegMPAdFoCYE1f1kVxWR6B+xbgBcRqNFvlKeeeopevXpJ7zc+Pl5o4Lj55pv59ttvhWKIiYlh2rRpwqcbqlatKrSfYdOmTbz22mucOHFCKA5fiIiI4I477tBVKlmmoqIinnjiCeHlkvj4eDZt2mTZKo6XLl2iWbNmvzrd4WNn0V5c/om6dVAJcN7OAIQCrwLPInA7n1FcLhdTp04VLUJyTVWqVNE9YHz44Ye8+uqrQs+32WyMGzeOxMREoX4cDgfR0dG6/iwnTpzgueeeY9GiRX5Rm/5aCgoK2Lp1K99++y0NGjQQLVurm91up3nz5nz88cdCl0Dl5ORQtWpVy+4FcLlcfPPNNxw4cMDXoZQKRXuBSQU+Qs0GKAHMm0JA1dE21ghdzmOkdu3aST/7D9qmO70VBUtKSnj22WeFY+jSpQsNGjQQ7icsLEzX4L9x40YmTJjA5s2bhWOwgj179vDoo4+ycOFCMzep/UpSUhJ33y1U7gKAl19+2Upv2L9x8803+zqEa+kHbEHbrKwoAcnTUa0esAGw7mIj0LVrV0P6dbn0H2JYtWoVu3fvFnp+TEwM6enpQn2ANovgbYJUUFDA/Pnz+etf/+q3b/1lKS4uZtGiRcycOVNqfQJv9OvXjzp16gj1cfz4cRYsWCAnIAP06tXLqrdM1kH7XGvn4zgUxSc8+VuZCKxBSwIsy263G5YAiCwpzJ07V/j5Q4cOlVKDIDg42Ksd48eOHWPixImsXLlS+NlWtmnTJh555BH27dtn+rMdDgdjx44V3o/w0ksvCR8vNUp8fLxllyiAqsBqoLmvA1EUs1WUAIQAq4D6JsQipHnz5oZVRtO7+W/jxo1s375d6NmNGjWiTZs2Qn2U8ubt//Dhw/zhD3/g4MHAOEZ94sQJJk+ezDfffGP6s5s1a8aNN94o1Ed2djaLFi2SE5AB+vTp4+sQyhML/BetZomiBIyKEoAXgOvMCESU6AdoefSWlxXd+Ge32xk8eLBQH6W8ucho586dPPHEE5w+fVrKs/1FXl4eM2fOFK7Xr8fIkSMJDw8X6uOVV17x2X6GivTt29dylRmvUhtYiAWOMiuKWcpLAPoCY8wKRITT6TTsDcPhcOj64Dpw4AAff/yx0LPT0tKEqv1dKSQkxKM/x6ZNm/jTn/5U6db7PVVUVMSsWbP44IMPTH1uTEwMt912m1Afhw4dYsOGDZIikqtOnTq0a2f5pfaewFhfB6EoZikrAQgFXjIzEBFDhgwhISHBkL71rv+/8847QlfaOhwOoVv+rubJOfEdO3bwzDPPWHYt2Sxut5tXX31VuGa/t/r16yd82dTChQslRSPf5MmTrT4LAPA0EO/rIBTFDGUlAA9g8U1/pVq0aMG4ceMM619PmdXCwkKWLl0q9NxOnTpJq9XvyfT/gQMHePLJJ80c/I8C/wae4pcy0q3R9pvE/fTPlkAHtEqT04HFaLXeDed2u5k7d66pewLCwsIYMGCAUB///e9/Lbt006FDBx5//HFfh1GRKGCar4NQFDNca3QLRivvK/YqYoIbb7yRWbNmGVoFLTw83OtjgB988AFLlizR/Uy73c7o0aOl1TQICQkpt6/s7GymTp3KhQsXpDyvDCXA/4C/oVVimwK8i3Zhy3bgCHAcrVJb7k//PAFkAjt/avseMAd4E/gO7fe3Ht7Vs/A84JISvvrqK1q1aiX14qTy1KtXj9WrV1NYWKirfUlJCYmJibRt21ZyZHJ07NiRyMhIvvzyS4qLi30dTllaAq8DgbkOpgSMayUAw9DeyCwpLCzs5zeJ++67z5Cqf1eKiIjwehPgn//8Z6Hd86mpqXTu3Fl3+6uVl8QUFBQwdepUjh07Ju15VzmOVjnyXrTy0ZuBU4J9nge2AYuA19BmExoC0sv6FRUVsWXLFm666SYpRzEr4nK5yM/PZ+fOnbr7OHr0KCNHjpQYlVypqakMGjSIkpISTp06ZXTiqYcTuAiYvxtUUUx0rQW5jwDhYvoxMTH079+fDh06kJiYSJUq4pWDHQ6H8E5pbyUmJnqVAJw9e5aWLVvqfoMDmDJlCrVry7tmISEhocw/w5w5c1i7dq20Z13hCNrA/w/MKbfqRFsqmIwB1d1at27NjBkzTFnDvnjxIiNGjBBajlm1apVlZwGulp+fT15enu72586dIzs7m88//5ylS5dy5MgRGWH9ADSS0ZGiWNXVo0IM0F2006FDh/Lggw+aPlgbwds9AKtWrRIa/OvXry918Lfb7WUO/p9//rkRg38h8ArwR+CS7M7LUYR27esiYBwwA209V4pt27axdOlShg4dKqvLMkVGRtKhQwf+97//6e7DnxKA4OBgoYu2oqOjqV27NmlpaTz88MO8/PLL/O1vfxNdYmgItEJbnlKUSunqtdMuiF0RzKRJk/j9739fKQb/oKAgr9/4li9fLvTMLl26CLW/WlkfrNnZ2cyZM0fqs4CvgBbAw5g7+F+pCG2poQlacRdpFi5cKFzW2VOiN1oaNKtjeS6Xi0ceeYQ33nhDd/2OKwi/DCmKlV39N+QGkc4GDx7MkCFDRLqwFG8H/3PnzvHll1/qfl5YWJj0t7ay1v5ff/11oWnXq7jRjo3+HrDKGcKjwEBgAtpShP4LHX5SUlLCvHnzePHFF2UMLuVq0aIF1atXJzs7W1f7H3/8kUOHDgnfM+CvevfuzZQpU5gxY4ZIN2OQswxQhLan4CTwI7Dnp39as2qTEjCu/hRrrLejqKgoHnzwQcFwrMXb6f/PPvtM6GrX9u3bS9/UeK3+Nm7cKPNWvzxgOPAfWR1K5EabDdgCrECr+y4kIyODFStWSLmcqTw2m41evXrx1ltv6e5j7dq13H///RKj8i+jR49mwYIF7N+/X28XDX/6MsJJ4DO0ewjeAyy3E1Kp/K5eAtB932zv3r2Fi5hYjbcJwLp164SeZ0SltKsTgPz8fP7xj3/I6v4SMABrDv5X+gKtzkCGjM4WLlzIiRMnZHRVru7duwvdoheoywClnE4nd911l6/DKEs8MBh4A8gG3kY7fqgoprn600X3bTppaWmCoViPNx++brdbaNNWTEwM9evLvXPpWmWMly5dKmvwOoe2Z0Ss3rF5vkdb4jos2lF+fr7Qm7mnYmJiaNJE/4GGL7/80opH7Exl5B0hEoUBd6MdbV2OOn2gmOTqES5Cb0eJiYmCoViPNzMAu3fv5vjx47qfdd1110k/Ynb12//ly5dZtWqVjK5zgVuAb2V0ZqIMoAdabQIhGzZsICsrSzyiCojMChUWFlr2bgCzJCUl+ToEb9jQ9q1sB2aiFWVTFMNcnQDo/oWTVbXOSryZAdi0aZPQs1q2lD/7d3UCsHLlShmX/LiBO/HfIin70D5khXZAlpSU8O6778qJqByiy0K+uN7YSvx0WTIY7RjtRiDFx7EolZghJVQrC29mAEQSgODgYFJS5P89vzL+vLw8Vq5cKaPbZ4H3ZXTkQ5uAx0Q7+d///mf4XoBatWpRvXp13e23bdsmMRrFZNehbWDt5utAlMpJJQDlMGsGoEmTJoYcK7syAfjoo49krAdvBKaKdmIRr6DdeaFbUVER779vfC6Umpqqu+327dutXHNfqVg08AHahkFFkUolAOXwdE3++PHjQuvBjRvrPn1ZrisTgI8/Ft6rl49Wz1//OUfreQDtwiHdPvvsM6HKj55o3bq17raXLl0SOQanWEMwWoVLY8+eKgFHJQDl8DQB2LVrl9BzjJj+h19mMA4cOMChQ4dEu3sa2CvaicWcBf4g0sHFixfZsmWLpHCurVEjsU3h337rb3s1lWtwoJW67uDrQJTKQyUA5fA0ARApDxscHGzITmWbzfZzAiBanwA4hJYAVEZvAvrLNwKffvqpnEjKEB0dTUJCgu72KgGoNMKApYA5d1MrlZ5KAMrhaQLw/fff635GnTp1hIq9lKW0z5KSEqH6BD95GsFd8xbmBqaLdLB582YuXrwoJ5oyNGigu0YXO3bskBiJ4mM1AeOLUCgBQSUAEogkADVr1pQYyS9Kk5d9+/Zx7tw5ka6OUfk/cNYAumsjFxUVsX27sZfGNWyovyJtRoaUAoiKdfQFhvk6CMX/qQSgDN68lYusrxudAHz33XeiXb1A5X37v9KzIo2NTgBEZgBOnTol8+InxRqeA/yyyIFiHSoBEHT69GlycnJ0tzeqUpmkBKAEWCAjHj+wAjitt7HR0+zJycm627rdbjIzMyVGo1hADaBy3b6mmM7YO039mKfr/6LTq9WqVRNqXxabzUZRUZHQ8gSwFgiUkaMAbYPVA3oaZ2VlcerUKeLijNmfFR0djcvloqBA323LR44cMey0SWXWp08fIiJ0V0gHtJMip0+f5vvvv5dRifNKj6Fdw63/DUQJaCoBKIOnCYDIm1VERAQhISG625fHZrNx8OBB0anfpbLi8RO6EwCAPXv20LlzZ4nh/MJmsxEfH6+73sSRI0ckRxQY0tPThSoxXql0r8iSJUtEE/NSCcAQtJMsiuI1tQRQBrfb7dH3HTt2TPczYmN1X77oEQnTvsLnB/3MRgTepoyeZhc5CqiWAHzP6XTStm1bnn32WSZOnCgr+f+djE6UwKQSAEEiO+yrVq0qMZLfEvzQP4B2/j+QFKAlAboYPciKLBcdPXpUYiSKqK5du/LMM88QFRUl3BVQ+a5iVUyhEoAyeDoDcPq07n1jht5UVlJSInpdre6B0M99obeh0QlAfHy87raS154VCerVq8cf//hH0XtA7MBNkkJSAoxKAMrgaQJw5swZ3c8Q3VxUEcEEYI+sOPyM7j93VlaWx783eoSHh+tum5ubKzESRZamTZty++23i3ajbgtUdFEJQBk8/SAXqQAn8oFekZKSEs6ePSvSRaAmALrvO8jLy9O9S98TImvGIkdVFWOlp6cTHR0t0kUrWbEogUUlAILy8/N1tzXqBABoCYDgCYCDsmLxMwdEGhs50AYHB+tuqxIA6woNDaVLly4iXegvE6kENJUAlMOTWQCRq2AF1/7KVVxcLPo2KlQ/2I9dQCuApIuRFfdEEgC1BGBtaWlpIs2jAWN3FCuVkkoAylFSUvE4IDLIGpkA5OXlia5HX5IVi59xA7p3zBk50KolgMqrdu3aol0IHydQAo9KAMrhSQIgMgPgcDh0t62IyNLETwJ527ju5MfIBEAtAVReUVFRoi8EKgFQvKYSgHJ48gYtMogXFxfrbluRoKAg0S70jzb+T/ertsvlkhnHr4j8vhg526SIs9lsQgkeYNwvnlJpqQSgHJ584Ip84BuZAAh+mEBg3zSm+88eGhoqM45fEZltMjIxURTFP6kEoByeLAGIfLAWFRXpblsRp9MpOgsQqFOKoQjckWHkyQ6R3xcJCaGiKJWMSgDKYXQCYOSZcRD+0K8pKw4/U0ukcVhYmKw4fkNkX4eEJSFFUSoZlQCUw5MEQKSa36VLxm60Fyw01FhWHH6mkd6GTqfT0CWA8+fP625rZNlpRREQCVRDS7xjAJWpmkjtDCqHJ1OuMTExuvs3uj57fHw8x48f19s8UIuL6E4AEhMTPb5GWg+RqpMiv6eKIoEDSAVuADqgfb6kcO0Nt1nAj8B2YP1PX6fMCTOwqASgHJ5s0hO50c/oGYDExER27typt3k7mbH4Ed1/7po1jV01EUkAjL55UlHK0BbtyuKhaG/6nkj66etG4GGgGO1q8oXAUgSu7FZ+TS0BlMOTBEDkzUrkKmFPiFwfC7RGm5ILJDa0Dx1djE4ATp48qbutSgAUk/UBPgW2ABPwfPC/FgfQE/gn2hXl0wi8zyZDqASgHJ4kAHFxcbr7P3XK2FmtxESha8IdaHeNB5KWgO47d5OSkiSG8lsnTpzQ3TY2NlZiJIpSphRgFbAagWS6HPHAn4F9aLMDxlVTCwAqAahARfsAkpOTdfd97tw5Q48CJicnY7cL/S++RVYsfuJWkcYpKSmy4rgmgf0c1KoldLhBUSpiAx4BdgJ9TXheVeAFtFkG/R/CAU4lABWoaBZA5IPV7XYbOgsQGhoq+sE/GNB/zMH/3Km3YXR0tIx67mW6fPmy0CkAkURVUSoQDawAZmN+BdEbgG1AP5OfWymoBKACFb2hV6tWTeiMdWZmpu62nmjUSPemdoBwYJCkUKyuIwInH1q0aGHoCYDDhw8LtVczAJVeRwRKWAtIBD4D+vvg2aWqAu8D9/kwBr+kEoAKVFR+1eFwCG3+ysrK0t3WE4IJAMCjaNN7ld3DIo1btWolK45rEkkAwsLChPaqKH7hReA48BZwM+acp68FbEDbMOxrTuB14Pe+DsSfqASgAp6s0TdurL9mjtEJQEpKimgVuDZAL0nhWFVj4HaRDlq3NvYz8NChQ7rbNmzY0NDZCcUyotCO3H0AZAOvAGkGPasW2vp7fYP618MGPItKAjymEoAKeHIBS9OmTXX3f/DgQd1tPREcHCxjcJoqIxYL+yMCfxcaNWokeuKiQnv37tXdtlmzZhIjUfxELDAW+BL4HngCSJDUdzLaufx6kvqT7Vlgiq+D8AcqAahAcXFxhSWBmzRporv/CxcuCJ3v9kRamvBLQGdgmIRQrKgdApv/ALp16yYplGvLy8sTmgEQ+f1UKoXGwNPAEbRCOj3Qv6xXC23N30pv/tfyJGomoEIqAfBARcsAIjMAAPv37xdqX5GmTZsSHR0t2s1stN2+lYkDeA2BvwdOp5POnTvLi+ga9uzZI3R1tEoAlJ+40E72rAX2oO178ebCEKu/+V9NzQRUQCUAHqhoGaBu3bpUqVJFd/8i07uesNvtXH/99aLdJKL9hapMfo+2x0G39u3bExVl7M3JO3bs0N3W4XDQsmVLidEoRnE6Ta3M3hDtHH0G2uxARcdEkrHemr8nngQm+joIq1IJgAcqurbXZrORmpqqu/9du3bhdrt1t/dEt27dZHzAjAaGSwjHCq4HZoh2csstxtdK+uabb3S3bdq0qboJ0E/46KRGVbT9AfvQThBca7rIXwf/Un9DJQHXpBIAD1SUAID2JqjX+fPnDT8NEBMTIxTjFV7G/28KjAfeRfCoVIsWLYSXfypy9uxZDhw4oLu9pP/nigmaN2/uy8cHoZ0g2An8G7jup3/v74N/KZUEXMPVr4RF1/h3HvFkt7y/KiwspKSkpNyyuqIftDt27DD8Mpm+ffvy1VdfVbipsQJRwIdAJ7SjRv4mDFiOhPKhQ4YMEY+mAlu3bhWaHWrXLlAvddR4kryXx+Ewr9R87969WbFiheGzgRWwA7f99PUh0ADJg7/NZuO6666jffv2NG3alJiYGEJDQzlz5gyZmZls2bKFL774wojL0v4GuIHnZHfsr64e0XTfT2v0xTa+VtEHyXXXXUd4uDf7aX5NZJrXU/Hx8UJLFVeoi3bZh79tCgwC/oN2H7mQRo0aGX72H+Dzzz/X3dZms9GpUyeJ0fifY8eOCbUPDQ2VFEnFkpOTGThwoGnP80AfJA/+LVu25IUXXmD69On07duXOnXqEB0djcvlIjExkdTUVMaOHcvrr7/O3Xffjcvlkvl4gFnA47I79VdXJwC6i41v27ZNMBRrqygBcLlcdOzYUXf/R44cITvb+BfqQYMGERwspVx3K+BzoIaMzkwQjlYutLdoRzabjREjRggHVJFLly6xfft23e1btGhBfLzuyw0rha+//lp3W5vNRlhYmMRoKjZixIhKO2tz++23M3PmTOrVq/gQQUhICEOGDOHZZ581Ym+ESgJ+cnUCoHux8aOPPhKdWrY0T6YSu3fvLvSMrVu3CrX3RNWqVenbV9plXS3QSoE2kNWhQaoCa5B0S1mPHj1MWa/98ssvhW6LNLo+gT/497//rbttfHy8qUsAoJ0EmDp1KnfccYcRb78+YbPZGDNmDPfcc4/XFSnr16/PrFmzqFFD+nvGLOAx2Z36m6sTgB/0dnT48GGWLVsmGI51eZIAiH7gbty40ZT1vx49esi8u74uWrUxq97GlQpsRrssRVhkZCT33HOPjK4qtHbtWqH2gZ4ArFu3jvXr1+tub/SenLLY7XbuvPNO3njjDUaNGkWzZs1Er/X2GZvNxv3330///vrvCoqNjeWpp54yIgl4jgBPAq5Ob+MRuAN+8+bNdOjQoVJOO7rdbkJCQsp9I4iOjuaDDz7QXdkvJyeHBg0aGH4cyG63k5SUxJdffimryzDgjp/+uR7QX7VGHjva/eSLAGk/0NGjR5tSWjcrK4u33npLd/v4+HhmzJjhtwOHqCNHjjB8+HByc3N199G1a1ef1lAICQmhcePG9OjRg759+5KUlPTzFeIihaHMUjr4DxgwQLivsLAwOnbsyKZNm7h48aKE6H7WG7iI9hITcK4ezc6ifWjqUlxczJo1a6hfv76hd6P7SlBQUIXTcufOnWPDhg26n1FUVETbtm11t/dU1apVAfjhB92TPlezoZ0MGIY2k2RsecPytQbeA0bx299x3dq1a8e9995rysU67777Lnv27NHdfsiQIfTqVdnvcLq2LVu2MGzYMOES28OHDychQVb5fDEhISHUr1+frl27csstt1CvXj2cTicnT5605AksmYN/KYOTgAvAVzI79QdXfzieB9KBano7LCws5KOPPuL7778nOjqaxMRE09fRjFTRpqDq1avz97//XXf/x48fp0OHDqbsPm7SpAl79+7l9OnTMruNBe4CmgG7AWMvOvi12sAzwKtUXNnMK9WqVWPGjBmmrMvm5eXxwgsvCB1hmz59us+msH2huLiYTZs28cwzzzBt2jQuXdJ9oAmAqKgo7r//fkvOoDidTmrVqkXHjh0ZOHAgNWvW5PLly5w4ccLXoQHa4D9q1ChDTjSoJECua73KTEQ7LymFy+UiNjZWqFTulYKDg6lTpw5dunShc+fOpv4Ftdls1KhRo8I3wJ49ewqVb+3Vqxe33Xab7vbeKC4uZtKkScIfmGUoQTtzPwvYaMQDftIcbS3vLgy4B93pdPLMM8/QsKE59Y9WrlzJ/PnzdbdPTExk69atlhy8Su3Zs4dly5axfft2zpw5I9TXxYsXyc7OJi8vT1J0Ws2MBx54QFp/Zjhx4gSffPIJn3zyCcePH/dJDDabjfvuu8/wCpmnT59m8uTJRpycegzt3pOAcK2RLAE4BJh3AFanlJQUpk+fTuPGjU17Znx8fIXH6F5//XX+7//+T/czQkJCePrpp02ZBXA4HGRkZPDkk08ava74A/AvtAp8Mi4/qIU2W3U3v1QtM8S4cePo06ePkY/4WUlJCWPGjBE6vz5+/HimTrXmDc7nz59nypQpvPfee74OpUw2m40XX3yRunXr+joUXdxuNzt27GDt2rVs2LBB6CSJt0aNGmVKeWwwNAl4FO2ehErvWnPzl9GWAIRvjzHamTNn+OCDD2jevLnMXe3lcjgchISElPs99evX5/XXX9c9oBYVFREaGkpKSoqu9t5wu93UrFmTpKQkoTPTHogFugHjgfvR1umrAZFAAdpGnLLEoQ3yPdHuOJ8N/AWtUEl140KGYcOGkZ6ebuQjfuXTTz/l448/1t3eZrPxwgsvEBMTIzEqOc6ePcstt9wiVNzIDO3atePWW2/1dRi62Ww2qlWrRseOHenVqxcul4uMjAzhqogVMXPwB205oEOHDmzatEn2DGYftOXwSr8cUNZcdg206yL94haRyMhIlixZYsqGnaCgIKpVq3iLxLhx44TecsLCwnjyySdNKURit9tJSEjgP//5j9DOc0G5aJUoL6JtRo0GItB+B/WXWBTQp08fxo0bZ9rzioqKePDBB4XeaDp16mTZt+thw4bx2Wef+TqMctntdmbPnu1RsRp/kp+fz7p161i+fLkh947cd999PkuaTp06xZQpU2TPBLjRlgMq9UxAWbvzLqK9lfnFNuKCggIuXrxI165dDX9WSUkJYWFhFa6vxsbGsnjxYt3PKSwsxOVymbLu7Ha7KSwsJDU1lby8PKHd5wKC0Ab6GLQEtCpaAuCTaiidOnXikUceMWXHf6mPP/6YTz75RKiPyZMn06TJtS508601a9Ywe7b1l1b79+9Pjx49fB2GdE6nkwYNGtCvXz8aNGjA2bNnpe0T8OXgD4bNBNjQNgaeAwydGvWl8rbnbwZ6IOHSFDMcOnSIoUOHmrJL2+FwVLgPoGbNmnz44YdCO3MzMjLo1KmTrNK95SouLiYoKIh27drhcrn47rvvDH+mVXXv3p1HH33U1NMreXl5PP300+Tk5OjuIzExkVmzZlny1M306dOFbjU0Q/Xq1Zk0aRJBQdL3kVqGzWYjKSmJ7t2707p1a44fPy70GXXvvfcyaNAgiRHqo5IAfcr7pCgBPka7ItLcgtg6FBcXU69ePRo0ML4qrdvt9ujin7CwMD744APdzykqKiInJ4dWrVrp7sMbBQUFhIWF0axZMxISEti8ebOvbyYz3e23386YMWNM30G/ZMkSNm3aJNTHo48+SlpamqSI5Dl//jyTJk2ydKlwl8vFn//8Z4+W9yqL+Ph4unfvTrNmzTh69KjXF7pZZfAvpZIA71X0qnAe7fjWHRhwvEq24uJievcWvuvFo+eEh4dXOEg0aNCApUuXCp1XzczMpEWLFtKOUZbH7Xb/vAGxXr161K5dm82bN5u6i9hXHA4HY8eOZfDgwaZO+4O2hjlr1iyhUxgRERHMmzevwg2qvrB8+XJWrVrl6zDKZLPZmDhxoim3O1pRYmIivXr1omHDhmRlZVV4LNPhcPDggw9KLfIji0oCvOPJXGEG8B3akSunseGIyc7ONm0ZwOl0Vvgch8NBSUkJ//vf/4SelZWVRadOnUwZmIqKinA4HAQFBZGcnEynTp3YuXOnEXdzW0ZcXBzTpk0Tus1RxPPPP8/hw4eF+rj33ntNO6rorb/+9a8cPHjQ12Fck81mY+w0Or/rAAAgAElEQVTYscIXeVUGNWrUoHfv3tSrV4+TJ0/+ZkbAZrPRtm1bnnjiCUvfWGhwEnCWSpQEeDOidAOWAVEGxSLFjBkzZN52VyaXy+XRqYOcnByuv/564bKkQ4cONe1yF5vNRnx8PE6nlu8VFBTw5ptvsnLlSlOeb6bWrVvz+OOPmzLDci1ffPEFTz/9tFAfYWFhfP3115a8g+P8+fM0b97ckuVqnU4njzzyiCmbh/3RqVOn2L9/Pzk5OURERNCwYUOio6N9HZbHDDwd8AgwR2anvuLNbqGDwArgRrRiQZZUUlJi2jKAJ6cBgoKCCAoK4tNPPxV63r59+2jfvr1p95Pn5+cTGhqKzWbD4XDQtm1bkpOT2b17t9SKa74SFhbGyJEjGTNmjCkFl67l0qVL/OUvfxG6sAa0C4puvvlmSVHJtWLFCktO/5fO+qSmpvo6FMsKCwujZs2a1K1bl6SkJEsuL5XHwJmAPlSSmQBvtwufBN5EmwVI5bfXCfucmcsAdrvdox36zZs3Z8mSJUK/hMXFxWRkZJCWlmbKUkBJScnP+wFK1a5dm169epGfn8++ffv8doNgu3btmD59Om3atDF9vf9Kc+bMET5yGR4ezvz5801LDL3117/+1XK7/7t06cLUqVMD6q6EQGVwEnAGENu562N6zgsVAquB/wIpgKUqZhQXF5OYmEjTpk0Nf1ZRURGRkRXXSnI6nURERLBmzRqh5505c4agoCBTTjqA9uez2Wy/SqZcLhdt27alffv2ZGRkCC9tmKlOnTpMnDiRoUOH+nzAXLdunVCdiFKPPPKIZdevjx8/zpQpUyyz+z8lJYXHH3+c9PR0U47WKtagkoCyiRwYzgbeBtagFXCpj0VOCpw+fdqU8q1ut5vg4OCf18rL06xZM9asWSN8Y9ePP/5Is2bNTFuzzs/Px+l0/uZsdNWqVenZsyetW7fm/PnzHD161JR49Khbty4jR47kgQceoHp1QysHeyQ7O5uZM2cKn65ISkrilVdesey59TfeeEN4A6woh8NBamoqo0ePZuTIkQF1zE/5RWkS8PXXX6sk4Aoy5z+jgX5Ad6ALUBeJd7F7a8GCBTRq1Mjw54SHh3tcd33Tpk3ccsstwlPnMTEx/PGPf/Ro9kEGm81GbGxsucsqe/fu5b333rPMsUGbzUbLli0ZNGgQbdu29XU4PysoKGDSpEns379fuK/XXnvN1Nrr3nC73XTo0IFDhw6Z/uz4+HiaNGlC69atad++vV9tXFOMdfLkSaZMmSJ02dY1uIEJwFyZnZrByAXQYLQlgji0eu7e7rT6HdBf78OHDBnCpEmT9Db3mN1up3r16h6vJY8aNYr//ve/ws9t3LgxDz/8sGkFa+x2O3FxcRXOdly6dIkNGzawbt069uzZY/o+gZo1a3LDDTfQrVs3EhMTTX22J5577jkp9fCvv/563n//fZ/uYSjP559/zuDBg3W3j4yM5MEHH/Toe4OCgggNDSUqKorExES/26ymmEslAb+w5qeH5gZgvd7GERERfPjhh6Z8GFSpUoWIiAiPvvfo0aN07dpVqDhQqR49egh9yHrL4XAQFxfncanZrKwstmzZwnfffceuXbu4fPmy9JiCg4Np0qQJrVq1ok2bNtSvX1/6M2R5//33+cc//iHcT1BQEGvWrLFkzf9SY8aMYfny5brb9+3blwceeEBiRIryCwOPCD4MvCSzUyNZOQGwod1IqPs2nOnTp9O/v+5JBI85nU6v3jb/+c9/MnnyZCnPHjZsGDfddJOUvjzhdDqJi4vzeuahpKSEH3/8kb1795KZmUlWVhaZmZkVVh27UlRUFDVr1vz5+uKGDRvSqFEjy66BX2nz5s3MnDlTyoa4xx57zJTZLb3OnDlD69atha6fnTVrlilLeErgMnAm4CFgnsxOjWLlBADgD8Bf9TZu0KABCxcuNGWaND4+3uOdxSUlJdx6663Ctd9Bm5p/4IEHaNmypXBfnnI6ncTGxkq5dCY3N5fz58+Tk5NDXl4eubm55ObmEhIS8vNXREQE4eHhpu15kG3v3r1MmTJFyn3sKSkprFu3zpRjrnq98MILQsWNkpKSePXVVyVGpCjXZmAScD8gPt1nMKsnADWAwwiUIJ43bx7XX3+9vIjKEBoaSmxsrMffv2/fPnr27ClcBAa0o3kTJkww7XggeL8cEKgOHz7M5MmTpSz5OBwOli1bRvv27SVEZoz8/HxSU1OFjofefffdDBkyRGJUilK2kydPMnnyZGnXI/+kCLgd0L8OZgLLFfK5ylHgI5EO3nnnHUmhlC8vL8+ry1xSUlL405/+JOXZBQUFvPTSS1J2lnuquLiYkydPWmLHv1VlZ2czbdo0KYM/aGf+rTz4AyxevFho8Hc4HPTo0UNiRIpSvvj4eJ5++mnZR4SdwALA+II0Avzh9S0f0P06kJmZyY033ujV27kIbzYdtmrVih07dkgZuIuLi9m2bRuNGzc2rUaA2+0mJycHl8vlUS2EQJKdnc0f//hHTp8+LaW/tm3b8uKLL5p+TbE3SkpKGDduHGfPntXdR6dOnejZs6fEqBSlYgYVC3Khlc5/E62AnuVY99PkFyvRShDrJqPimidycnK8OvZms9mYPXu2tOIkly9f5vnnn+fHH3+U0p8n3G43Z86cIScnx7RnWl1GRgZ/+MMfpFVJjIyMZN68eZZPsj744APhsr9WvdFQqfzi4uJ46qmnZM8ENAPkTPUawB8SgAIEN1OsXr3alEp1JSUlXk/3xsbG8tprr0nbyZ6Xl8ecOXPYtWuXlP484Xa7OXfuHBcuXPDb+wFk+fHHH5k8ebJXpxvKY7PZePHFF6lTp46U/oz08ssvC7VPSkoydTOrolwtLi6OmTNnyq4Y+QhgyTO7/rAEALAbGI/OzYAlJSVcvnzZlGs/CwsLCQ8P9+rkQc2aNYmKimLdunVSYiguLmbz5s1ERkaaOnAUFBRQWFhIcHCwpaeqjfLNN98wY8YMqfUOJkyYwL333iutP6OsW7eOuXPFaqDceeed6uif4nPh4eGkpaXx9ddfy/q77ACSAXOmor3gLwnAJbTSwm30dvDjjz/Sq1cvw9fH3W63x7cEXum6667j4MGDfP/999Li2LFjB8XFxTRq1Mi0inHFxcXk5eURFBRk+SlrmVauXMns2bOl3nvfpUsXZs+ebflkyu12M2bMGKF7LiIiInjssccC6ndGsa7w8HDZdwc0BP4DiF0GI5m/JAAA+4AH0Xl00e12c/HiRbp16yY3qmsoKioiIiLC60G3R48efPHFF1KXK/bt28ehQ4do0aKFaQVz3G43ubm5uN1uXC6XZcvVylBYWMjLL7/M0qVLpS5/pKSksGjRIp/fWuiJFStWCFc4HDhwIKmpqZIiUhRxpTMBX331lYyZABtaOXxLHQv0t0/m/6JdOKSL3W5nwYIFppyX96Y88JVOnz5Nv379pF+ikpCQwNixY0lKSpLab0VcLhdVqlSplG92J06c4KmnnpJ+/DIuLo5Vq1ZRu3Ztqf0aobi4mK5du7Jv3z7dfTidTl5//XXi4uIkRqYockgsFnQRSAQss2Pan2YAALKAEXobu91uLly4YMo544KCAq/3AoB2HKVHjx4sW7ZMSpGgUpcvX2bjxo0EBwdTt25dU5cESk8IVKbZgI0bNzJjxgzZFcQICQlh4cKFNG1q6ePDP1u4cKHwKZvu3bubWs5aUbwhcSYgGNgBmLdDuwL+lgAcRpsB0P0ae+jQIQYOHKjr7dwbbrcbm83m9V4A0GYP0tLSWLFihZTysaVKSkrYtWsXGRkZNGnSRFdsehUUFJCfn09QUJBfVw/Mzc1l3rx5vP3221L/34B2yc8bb7xB586dpfZrlPz8fO677z6hNVK73c4TTzzht2WelcAQHh5OmzZt+Oyzz0T3+VzEQssA/vhJbAMG6G3sdrupW7euKTeplc4C6NnEVaNGDdLS0li+fLnUjWUAx48fZ8OGDYSHh1OrVi3T3spLSkrIycmhoKDAL08KbNmyhRkzZrBz507pfTscDubOnUvfvn2l922UBQsWsGzZMqE+unbtSq9evSRFpCjGiY6Opnr16nzxxRdC3QBzJIUkzL8+gbWdlMJFFTIyMiSEUrHSjYd6tW/fnr///e+GbN7LycnhnXfe4aWXXuLUqVPS+y9Pfn4+J06c8Ju6AWfPnuVvf/sbf/7zn4V2upfFZrPx3HPPceutt0rv20jvvfeeUHubzaZq/it+pXPnzjRu3Fiki3pAvKRwhPlTAtAQ+BTtgiAh3tTsF3Xp0iWhevndunXjrbfe8qrEsDd27drFtGnTWLJkCXl5eYY841rcbjeXLl3i2LFjXLx4Uco1ubIVFRWxYsUKxo4dy/r16w15hsPh4LnnnmPYsGGG9G8Ut9vNtm3bhPoICgqSWXZVUUyRnp4u2oXuK+5l85cEoAGSBn+AxMREGd38P3tnHh5lee7/z0wm+75CgIRA2AJhB2VVNje0ijstqIBtQWu1Vm2rVmut1tae057qcanLqa3o8ShaLYIgSiXsRFYFgbCEJCRkmeyTZNb398fb5IcQIPM+z8w7y/u5rlxehjz3ezNM5vk+93MvPaapqUlo/axZs1i+fDnx8fGSPPo2breb9evX8/jjj7Nx40a/CqTOKElnRCAQhICiKBQVFXH33Xfz6quv+qzNcWRkJC+++CLf+973fGLfl9hsNuEcCIfDwa9+9StpvS8MDPzB2LFjRcdxD5LliyjBkAPQuflLq1+79957/TYcCNSTpOjAnNzcXKZMmcLq1aux2+0Svfv/2O129u3bx/bt24mLi6Nv375+yw9QFAWHw4HNZsPj8WCxWPyeI6AoCtu3b+fZZ59l9erVPj2dxsTE8PrrrwfVnf/pWCwWnnvuOWHB5nK52Lx5M4WFhWRmBkxk1MDgnFgsFoqLi0UGfRUB2yS6pJlAFwDSN/8xY8awePFiWeZ6jMPhEK486Nu3L1dccQWfffYZzc3Nkjw7m7a2Nvbs2cO2bdtwuVz07dvXb02EQG2uY7PZuq4kIiMjfSpEXC4XX3zxBX/84x9ZuXIljY2NPnsWQGpqKsuXL/dLa2pfYTKZWLdunZQySKfT6XcR0BnBaGxspL29HY/Hg8PhQFGUkOxZYSCX4uJiKioqtC7fAmyQ6I5mArkoexDwBRI3/6ioKP7617/q1m88OTlZSrlTTU0Nt99+u/AdbE+Jj49n2rRpTJs2jaysLL8883TMZjMxMTHExMQQHR0tTQxYrVY+++wzVq9eLW14z4XIz89n+fLlDBgwwC/P8yWvvPIKjz/+uDR7cXFxPPHEE5oqdOx2O+Xl5dTW1lJXV0djYyNWq5X6+nqsViuNjY1dM0F6kngaHx9PQkICiYmJJCQkkJqaSlZWFhkZGWRmZpKVlUV2drYhFsKUP/zhDyJ5Qb8B5P3iCBCoAmAQ6sm/nyyDZrOZp556SteSI5PJRO/evaXUwbe1tXHvvffy8ccfS/CsZ5hMJgYPHsy0adMYPXq0zxITz0fnnIXY2FiioqK8viZwOBzs3LmTdevWsXPnTr/mHEyZMoXXX3+d1NRUvz3Tl7S3tzN9+nSRk9BZXEgEeDweTpw4QVlZWdd/y8rKOHXqlN8rSiwWC9nZ2eTm5pKTk8PAgQMZMmSIX68XDfTh0UcfZd++fVqX/xx4VqI7mglEAeCTzf+JJ54IiPvW2NhYaR8QiqLwwgsv8Mwzz/g1cQ/UsHxhYSETJkxg+PDhuvWsj4qKIjo6msjIyHMKArvdzp49e9i8eTPbt2/3WVLfuTCZTCxbtoxHH3005E6Mu3fv5vrrr5daQXK6CHA4HBw+fJgDBw50fcnskOkL0tPTGTJkCMOGDWPUqFHk5+eHTAdMA/Vzd9GiRSJRw7uAlyW6pJlAe1fmARsJ0c2/k/T0dGJjY6XZKyoqYtmyZX4LY5+J2WwmPz+fESNGMGzYMHJzc3Xr9mexWIiIiODUqVMcPHiQPXv2cODAAeld+3pKfHw8f/rTn7j22mt1eb4/2LBhA3fccYd0EdC/f3+OHDkivRGWv0lMTGTkyJGMHj2aiRMnGsmOQc6RI0e4//77RUzMBT6R5I4QgSQAMoFNSKyRNJvN/OpXv+LqqzXPD/IJERER9O7dW+qpoKqqinvuuUe0S5UUoqKiyMvLY+DAgeTk5NCnTx969+7tk6x+RVGora2loqKCkydPcvz4cY4ePerXngbnYuTIkbz88svk5+fr7YrP8YUICFXy8/OZNGkSkyZNIi8vT293DLzk5ZdfZtWqVSImBgFyJ4hpJFAEgAU17C+tCbrZbObxxx/nmmuukWVSKnFxcaSlpUm16fF4ePHFF/n9738fcKcmi8VCRkZG11daWhqJiYldyVYWi4W4uLizRFFbWxsul4vW1lZsNhutra3U19dTV1fX9aXX6f5cmM1mli1bxsMPP+zX6gm9MUSA9/Tr14+ZM2cyc+ZMIzIQBFRVVXH33XeLNHdrBtIA/97ZnoNAEQC/BR6WZSzQN/9OZF8FdLJv3z7uu+8+o8GKDuTm5vKf//mfTJ8+XW9XdMEQAdowmUwUFhYye/Zspk+fLtpoxsAHOJ1OHnnkEQ4ePChiZjUCI+1lEwh9AMYDbyCpK6HZbOaxxx7jO9/RPC/Ib3T2BpCdINSrVy8WLlxIXFwc27dv93uCYDhiNptZuHAhb7zxBoMGBUyjL7+Tl5fH2LFj+fjjj4VaYIcjNTU1bNu2jU8++YTm5mays7N9PrXUoGcoisKf//xnvvzyS1FTfwG2SnBJCnpHAEyoL8bFMowF0+bfiS+uAk7nyJEjPPTQQ2zdGjDvuZBj5MiR/OEPf2DMmDF6uxIwGJEAcUwmExMnTuSmm27yy/RSg+7prLZau3atsClgAOpY+4BAbwEwDxCbJ/pvTCYTDz/8sIxBDX4nLS3N52V0n376Kb/85S/9NgkxHEhNTeWnP/0pS5Ys0a3qIZAxRIA8CgoKuOmmm5g4caJRUuhHFEXh5ZdfZvXq1TLMbQQukWFIFnp/av0VCSV/nSf/YBun2klHRwexsbE+3UTy8/O57bbbiI6OZu/evQGXOBdMREdHs3TpUl5//XWmTJni95kFwUJeXh5jxowxrgMkUFdXR1FRETt27CAzM5M+faTMRTM4D4qi8OKLL/LJJ9Iq9n4BfC3LmAz0lJJjgN2iRkwmE7/4xS+48cYbJbikH5GRkfTq1csvz2poaOD111/nL3/5Cy0tLX55ZigQGRnJvHnzeOihh8jNzdXbnaDBiATIp6CggNtvv53CwkK9XQlJJJ/8AY4BQ4GAUsJ6RgAeBKaIGOg8+V9//fWSXNIPj8eDoih+aa8bGxvLlClT+O53v4vH4+HgwYMBVzYYSERFRXHrrbfy2muvMX/+fJKTk/V2KagwIgHyqaur4/PPP+fEiRMMGTLESBaUiKIovPTSSzJP/gD3Av4Z3uIFekYADqNO+9NEqJz8zyQjI8PvPfZbWlp45513ePHFF6mqqvLrswOZxMREbr31Vn70ox+RnZ2ttztBjxEJ8A0Wi4WrrrqK22+/XZf5HKGEoij85S9/EW30cyabUO/+/TusogfoJQD6ACdFDNx///0sWLBAkjuBg8lkolevXrr0jHc4HHz44Ye89dZbbN++3e/PDxQKCwtZuHAhN998M/Hx8Xq7E1KsXr2aO++80++De8KBrKwsfvjDH3LxxVKKqsIOH4T9AdqBicB+mUZloZcAEMr+nzlzJn/4wx8kuhNYWCwWsrKydE0uKykpYfny5axYsQKr1aqbH/4iMTGRefPmsWDBAqOcz8c89thjvPrqqz6xbbFYSEtLIz09nZSUFBISEoiPj+/66my81XlSjoqKwuPxdF1NOJ1O7HY77e3tXV9NTU1dX42NjTQ0NPh1iqS3TJs2jWXLlhlXVV7go80fYCnwimyjstBLAPwM+L2WhWazmRUrVoR8Epav+wP0FLfbzZdffsnKlSv58MMPqaur09slacTExDB9+nS+853vcM011+g20TDcqK+vZ8KECcJTGZOTk+nTpw99+/YlOzub9PR0kpOTfV4m53K5sFqt1NbWUl1dTUVFBZWVldjtdp8+1xuSkpJYunQpl1wSUFVnAYkPN/83gMWyjcpELwHwErBMy8LCwkLeeOMNud4EKElJSSQlJentRhdOp5PNmzezfv16Pv/8c44eDYh5Fl7Rr18/Zs+ezcyZM7n00kt90orZ4MIsWbJE8wduv379mD9/fkAlvimKQl1dHSdOnOD48eMcP37c72Onu2Pq1Kncc889AfVaBRI+uvMHddrfdUBAZ1frJQDeAr6nZeGCBQtERzEGFXokBfaUsrKyrtrkHTt2UFpaqrdLZ5Gdnc3FF1/MxIkTueSSSxg8WHPeqYFEXnzxRZ588klNa/v378/ixQF9sEJRFE6dOsWhQ4c4dOiQrsm1mZmZPPjggwwfPlw3HwIRH27+G4GrAJtsw7Lxf6aZimY5mp6eLtOPgKe+vp7MzMyAnCqXm5vLwoULWbhwIaD2Mt+5cyf79+/n4MGD7N+/nxMnTvjtvjQnJ4eCggIKCgoYPnw448ePp18/4T5TBj4gKytL89pACrWfC5PJRHZ2NtnZ2cyYMYPGxkYOHDjAvn37OHXqlF99qa2t5ZFHHuHWW2/l1ltvNRpX/ZtXX33VV5v/XIJg8wf9BIDmNnTt7e0y/Qh4PB4PdXV1ZGVlBXy72aysLK666iquuuqqru91dHRQVlbW9VVeXk5NTQ0NDQ3U19djtVppbm5GURSam5vPshkfH4/FYiEhIaEruSs1NZWMjAxyc3PJyckhNzeX3NxcI8wZRNhs2j8fA/33oDtSUlKYMmUKU6ZMobq6mr1797J3716h18Eb3G43b7/9NocOHeLBBx8M+9+Vjz76iJUrV8o2uwl182+VbdhX6CUANL9A4djL3u12U1tbq3tlgBZiYmIYMmQIQ4YM6fEah8NhjEMNcY4dO6Z5bXR0tERP/E+vXr24/PLLmTVrFvv376e4uJiKigq/PHvnzp389Kc/5dFHH6V///5+eWagUVtby9///nfZZjehhv2DZvMHSSN4NaA5BrZt27aw7Cbmcrmoq6sLi/ppY/MPfdavX695baj0ZrBYLIwePZrvf//7/OAHP6CgoMAvg36qqqp48MEH2bJli8+fFYisWbNG9iyUzQTZyb8TvWJp/VEzJL3GbreTmZkZlgktbrcbl8tFbGysMRHMIGhZt24dr732mub1I0aMIC8vT55DAUBSUhKFhYWMGDECp9NJTU2NT8W+y+Vi8+bNxMbGMmzYMJ89JxB54403qK+vl2VuM+rJPyiHquglACKBH2hd/PXXXzNnzhwSExMluhQcuFwu3G63Ub5mEJQ0NTWxZMkSGhsbNdu4+OKLyczMlOhV4BAfH8+wYcMYMWIEra2t1NbW+vR5u3fvprW1lXHjxoXNoeJvf/ubrAjAFoJ48wf9BEA18FNAU6y3o6ODHTt2cNlllwVsiZwvcTqdhggwCDo6OjpYvHgx+/bt02zDZDJx1VVXhfw1UVxcHCNGjGDw4MFYrVaampp89qzDhw9z4sQJJk+eHHQ5RlpYsWKFjOFnW4ArCeLNH/QTAB5gKtDzzLAzaGhoYOvWrcyZMydsRYC/pgcaGIjS0dHBokWLKCoqErLTp08fJk+eLMmrwCcpKYkxY8aQkZHByZMnfVYCWV5ezqlTp5g8eXLIRwI2bdpEQ0ODiAkncBEgZCQQ0LOexgzcIGKgvr6ebdu2MXv27LDcCDvDWMGeFW0Q2nRu/l988YWwrYsuuijsstc7B4SNHz8et9vNyZMnfZIfcOLECXJyckL+9a2urubAgQMiJiKAo8BOOR7ph54C4BhwDyC0e1mt1rAWAZ0nAkMEGAQiMjf/iIgIrr/++pAP/5+LiIgI8vPzGTRoEBUVFT7pIVBeXs7VV18t3W4g0adPH1avXi3aoKwAeBE1mh206CkAHEAa6lWAEIYIsBvXAQYBh8zNH9Tsf2NSo3ot0Jm0V15eLjUa0NTUxKWXXhpQM0hkEx8fT21tregskzTgMPCVHK/0Qe+Mjz8BUiZmHD58mLvvvtunyTKBTEtLi1BmtYGBTGRv/mazmRkzZkixFQpEREQwc+ZMFi1aJH3sb3l5uVR7gcitt96KxSLcB+8X6DdPRwp699RsRRUhs2QY64wEhGtioMPhwOVyERMTE/KJPAaBi+zNH2DcuHGMHTtWmr1QITk5mTFjxlBfXy9tVPekSZNCPg8gPj6ehoYGSkpKRMxkAbuAQ3K88j96RwAA/gB8I8vY4cOHueuuu8I2EtDW1kZ9fX1YdAw0CDzsdrv0zT8pKYk5c+ZIsxdqxMbGcsstt3DZZZdJKeNLSUmR4FXgc8stt8jIJwnq0bSBIADswHxA2pSfcBcB7e3t1NbW+m0Kn4EBqJv/HXfcIXXzB5g3b57R8+ICmEwmpk6dyoIFC4iLi9Nsx2KxeDW3I5hJT0//1uAyjcwARot7ow+BIAAA9gF3AdKOreEuAhwOBzU1NWE5N8HA//hq8589ezYDBw6UajOUyc/P5wc/+AEZGRma1s+YMSOsrk9vuukmGX/fe2X4ogd65wCczl6gA5AW6wv3nACPx0NbWxvR0dFBOULVIDjwRdgfYOLEiUboXwOxsbGMHDmS8vJyrw5ACQkJ/OxnPwuZYUs9ISYmhra2Nr75RugWehjwFyQltPuTQNsVNqOOKL5ElsFwFwGKomCz2bBYLERGRurtjkGI0bn5/+tf/5Jqd9SoUXznO98xklk1EhkZyciRI7FarT2aJxAZGckDDzzA0KFD/eBdYJGbm8vHH38scmUaCTQBG+V55R8CTQAA/Av1BTVEgETa29UUC6NhkIEsfLn5z5s3Lyz60vsSs9nM8OHDiY6Opry8HLfb3e3PZWVlMfCgIXIAACAASURBVH/+fLKyskhLSwu7aGFsbCyVlZWUlpaKmBkMPIfEa2x/EKj/0uvxgQjYvn17WIsAu92Ow+EwxgkbCGNs/sGByWQiJyeHcePGkZiY2BUJTEtLY+DAgVx66aVceeWVJCcn43a7aWlpIT09Pew+H7KyslizZo2IiWRgK2qL4KAh0P+VnwIelWlw6NChvPTSSwHf6UpRFEpKSqiqqsLj8ZCdnc2gQYNkNK8gIiKCjIwM40rAQBPG5h/aJCcnM2jQIL3d8DsPP/wwX3/9tYiJ94BbJLnjFwJdAAA8DTwi02AgiwCXy8WKFSt48803qa6u/tafpaenc+211/Ld736XtLQ0oeeYTCZSU1OFSoYMxFAUheLiYrZs2cKpU6eIjo5m6NChzJo1i969e+vtXrcYm3940KtXL/r166e3G35l+/btPPXUUyImHEBfQE5HJj8QDAIAfCAChg0bxosvvhhQIqCxsZGHHnqI3bt3n/fn4uLimD9/PgsXLhT2PyEhgeTk5LAL+emJx+Phww8/5LnnnuPgwYNn/XlkZCS33HILjz32WEA1ZTE2//Bi4MCBpKam6u2G31AUhaVLl1JVVSVi5n7gvyS55HMCNQfgTNajTg2cLstgXV1dV05AICTG1dfXs3Tp0h6VozidTnbv3s0HH3yAy+Vi2LBhmsP5DoeD9vZ2oqKiwi75x994PB7+8Y9/sHTpUt58881ztm71eDx89dVXrFq1ijlz5gSECDA2//CjqamJ1NRUKdeOwYDJZMJkMrFzp9CU377AS5Jc8jnBduz7LfCwTIOBEAmor6/nrrvu0jydKiUlhQULFnDjjTcK/T2Sk5NJTEzUvN6ge9xuNx999BF//OMfOXLkiFdrs7Oz+eCDDxgwYICPvLswxuYfvkRHRzN8+PCw+Tey2WzcfvvtOBwOETOjUZvbBTzBduT7nBCLBDQ0NAht/qAOXykuLua9997DarWSl5enaSPvrBKIjo4Om194X2Kz2Xjrrbf48Y9/zPLly6mvr/faRmtrK6tXr+aKK67QJRxrt9tZvHhxyGz+Ho+Hjo4ObDYbLS0tNDU10dLSgtPpxO12oyhK2Jx4e4Lb7cbpdAZEFMofREVFUV5ezokTJ0TMNKLuVQFPsEUAOvkN8EuZBocMGcJLL70kfbTm+ejc/L09FV4Is9nM1KlTWbx4MaNGjfJ6vclkIiUlJaw6gsmkrKyMv//97yxfvlzaiGY9IgFOp5MlS5awbt06qXZHjBjBjTfe6LPN3+VyUV1dTV1dHXV1dVitVqxWK/X19Tidzh7ZSEhIID09vesrIyODrKyssLoTP50BAwYIJx4HC7t37+bxxx8XMXEMGEQQ9AQIVgEA8AzqPGZp+PM6wFeb/5kUFBRw3XXXceWVV5KQkODV2piYGFJTU43cgB7g8XjYsmULf/3rX1mzZs05m66I4E8R0HnyX79+vVS7I0eO5Prrr5e6+Xs8Hk6dOsWxY8coKyvjxIkT2O12afZPJyEhgf79+zNw4EDy8/PD5mQcERHB8OHDZUzPC3gURWHJkiWi45UvBnZIcslnBLMAAB+IgIKCAl544QWfigB/bf6nExMTw+zZs7nuuusYO3Zsj7P+zWYzSUlJXouHcOH48eO89957vPvuu1RUVPj8ef4QAcGw+Xs8Ho4fP87evXs5dOiQzzb8C5GRkcHIkSMZPXp0yIuBpKQkBg0aRGNjI8XFxZSWluJ0OsnIyGD48OEUFhaGTDXRm2++ybvvviti4k/ATyW54zNC4V/rd8DPZRr0pQjQY/M/k9zcXC6//HLmzJnT44Yf0dHRYZURfD6am5tZuXIl7777Ljt27EBR/Bvp86UICPTNv6amhr1797Jv3z5aWlokeSeHvLw8Ro8e3dV+N9To6Ohg27ZtbNq0qdspo3379mXZsmWMGTNGB+/kUllZybJly0R+t5uAYi/XtAA2oAo4DHwDfAn4TN2GggCAIBEBjY2N3HXXXZSUlEizKUpeXh6zZ89mzpw5DB48+Lw/azKZiI+PJykpKeySBGtqali7di2ffPIJmzZtEs0SFsYXIiCQN/+ysjI2bdrE4cOHJXrmG6KjoxkzZgzTpk0LmaqapqYm/va3v10wkdVkMnHnnXdy3XXX+ckz3/Hzn/+cAwcO6O1GO+qQvH8C/4vkJkOhIgAgwEVAIG7+Z9K/f3+uvfZabr755vN2CIyIiCA5OTnkuwiWlpayatUqPvnkE3bt2iUyLcwnyBQBgbr5l5WV8cUXX3Ds2DGpfvmDqKgoxo4dy9SpUwOq4Zi3uFwuXnnlFWpqanq85pFHHmHy5Mk+9Mr3rFmzhhdeeEFvN07HCXyEutcJNSvoJJQEAMDvgZ/JNChDBDQ2NnL33XcHxekF1Dagv//97yksLDzvz0VFRZGSkhJyiUG7d+/mySefZOvWrXq7ckFkiIBA3PxPnTrFqlWrKC8vl+qTHlgsFiZPnswll1wSlPM3Nm7cyOefe1fVlpKSwquvvhrUg9caGhq44447/H7F10NWoeYYCG0qoZbe/RkQB0yVZbCuro7i4mJmz56t6V6vqakpqDZ/UOvX165dy6RJk8jMzDznz7ndbmw2G06nk6ioqJC4Fvjb3/7G97//fcrKyvR2pUd09gm48sorNSWhBdrm73A4+Ne//sWHH35IU1OTVJ/0wuPxUFZWxt69e4mLiwvYOQ/doSgK77//vtdJlh0dHcTFxTF8+HAfeeZ7YmNj2b17t2g1gK8YAvwQdWruZkBTeDLUBAD4QATU1tZqEgFNTU3cddddQbX5d+JyuSguLub666+/YOKfy+WitbU16IXAqlWruPfeewMu1H8hWltbWbVqldciINA2/6+//pq3336bI0eOBOqpSwi73c7BgweprKwkJycnKE7HdXV1bNq0SdPa48ePc/XVVwd14nBLSwt79uzR241zYQEuBeYA61ATD70iFAUAqCIgHh+IgEsvvZTY2Nge/fw999wTlJt/J83NzWRlZfVYxbtcLmw2G4qiEBUVFVQlQS0tLcyfP5+2tja9XdFEpwiYNWsW6enpPfr5O++8U3qHPy2bv9PpZNWqVXz++ee6J1f6A6vVyu7du0lNTSUrK0tvd85LRUWF5hG5drs96KMAycnJfPzxx3q7cSFygNuADcBJbxaGqgAAVRFJFwGffvopAwYMICcn55w/V1RUxAMPPBAS95c2m41rr73WqzUOh4PW1lY8Hg+RkZFBERF4++23Wblypd5uCNHa2sqKFSu6RNu5BFhxcTF33HGH6NCTs9Cy+dfW1vLmm2/qWharB263mwMHDtDQ0MCgQYMCttlWfX09X331leb1paWlzJ07N2ijAImJiWzevDkYrqPigO+hlg32uK988BzRtPMs8JBsoyNGjGDmzJkMGjSI1NRUGhoaOHz4MOvXr+92xKsE3kcVM369QIyNjWXjxo2a15tMJuLi4khISAjoBKgFCxZ4negUyOTn53PNNdcwfvx4MjIyaGxs5MiRI6xdu5bNmzdLf56WzX/Xrl188sknPW7PG6r06dOHm2++OSDbDFutVp5//nkhG4sXL+aGG26Q5JH/kdAUyJ+0AZej5gVckHAQAAB/AB7U2wkBfgM8jjoI6XbU7M9h/nr4li1bpGT6x8bGkpCQEJBNUqZOnSo0kEkLsbGxXHbZZaSnp/PGG28E7b23t5u/oihs2LCBL774wreOBRGxsbF873vfO29kUQ8UReH555/XNMiqk4yMDF577bWAjXJciJKSEn7604Bv6nc69cAU4NCFfjA4/0W8Zx2QgPqiBBtPoW7+AG5gF+q86d1APyDX1w4sXrxYSgjP5XLR1tbWdc8eGRkZMHkCzz//PK2trX55VlZWFvPnz+eBBx5g0qRJFBQUkJ6eTnGxt43D9Mfbzd/j8bBq1aqgKLH0Jy6Xi/3795OdnR1QQ3dMJhOKoghd0bS1tV3w2jSQSUtLo6ioKOA6T56HWNTkwDeAs1s2nka4CAAIThHwNPBYN99XUNXdX4FPgVRgKD6K6CxZskTqHd7pI1ndbjcWi0X3PIGXX37Z5wKgoKCA73//+9x9990UFBR860okPz8/6ESAt5u/0+nkvffeE7pTlowDaEZttap7Sr7b7Wb//v2kp6cHVHJgr1692L17t1CCZlNTE7Nnz5bolf8wmUxERUWxY0fAz/Y5nV5AGmq/gHMSnJkZ2nkIdZN8QG9HesDT9Gzk8VbgRtRM0MXAIsB/M2MF8Hg8tLa20traSnR0NHFxccTGxuouBmQSFRXF5MmTue666y7Yavnyyy8H4L//+78D/jrA283f5XLx1ltvUVpa6lvHzuYwsA04iCqaDwGVQCtqZ7XTSfj3Vz7qFdsQoBCYDvilp6/b7eb999/H5XIFTE/9yMhIpkyZwqeffqrZxldffcWJEyfo37+/RM/8x2WXXcaWLVukJ876mKXAm6h7RLcERvzV//wHgS0Cfgs8qnGtGZgBLAFuQA0HCbFp0ya/1SybTCZiYmKIj48nOjrab1cEY8aM4dSpU1JsmUwmCgoKmDVrFtOmTSM+Pt6r9f/85z959dVXpfjiC7SE/d99911fJceeSStqu9RPgfWAjBGNFmACMBOYB1wkweZ5MZvN3HrrrQwdOtTXj+oRDoeDP//5z9hsNs02rrrqKu6++26JXvmX9vZ2nnnmGXbv3q23K96wG/W9221zk3AVABC4IuAZ4BFJtlKA7wJ3AuO1GvGnADgds9ncFRXwdV8BGQIgMzOTyZMn853vfEeo29vKlSt55ZVXhHzxFYWFhdxwww1eJfytXLmSXbt2+dItBXWz/zvwAaoI8CXDUOuub0ONvPmEyMhIbrvtNnJzfZ7m0yM2b97MunXrNK+PiYnhzTffDIoGSOdCURTWrFnDihUrvJqNoDM3oVaRnUU4CwAIPBHwO+BhH9jtg5cNIk5HLwFwOmazmdjYWGJiYoiJiZEuBkQEwIQJE5g1axYDBw4kJiamR414zsf9998fkHXx3m7+AJ999pnmTnI9wAOsBp5A0nAULzGjXr/9GijwxQNiYmJYtGhRQLQPttvt/PGPf/S6LfDpPPjgg1x66aUSvdIHRVE4ceIEZWVlUpqHeTweGhsbqampYffu3UJVF92wGxjX3R+EWw7AmTyIKoICocbj9/hm8w8JPB4PNpsNm82GyWQiOjq6Swzo3WRkxowZ5OfnAwj3Ojhx4kTIbP779u3z5eb/f6gJsnqO1/QA76Germ5Bjd7lyXxAR0cH77zzDkuXLu1RB1Jf0jnmePv27ZptbNiwISQEgMlkIi8vj7y8POm2FUVh//79LF++nP3798swORaYhJoL8y1CJ9tKOw+g3rnrya+BX+jsQ9CgKAodHR00NjZy6tQpKisrsVqtXYOJ9EQ0gVF2X34ZjB071uvN32q1smrVeROQtXIEuBKYj76b/+l4gHeA4ai/y9qPyN3Q2NjIP/7xj4BIDJ04caLQ+t27dwdTOZ0umEwmCgsL+d3vfsd9990nq4Habd190xAAKo8CP+YCNZM+wImaqfmEn58bUng8Htrb22loaKC6upqqqiqsVistLS04HA6/fnCK/LIqikJRUZFEb8SZPn061157rde9/d99912hUHE3eFArYwqBtTINS6Qd9Xd5DJKvJA4fPhwQZWgZGRld0S4tuFwun3SiDFXmzJnD008/LeMK9ka6ufI3BMD/57+BWcjJGu4JJ1CbNQRmtlcQ43a7aW9vp6mpiZqaGiorK6murqa+vp7W1lY6Ojpwu90+ebZIt7MjR44EzOjR2NhY5s+fz+zZs73Ot1izZg3V1dUy3akF5qKWxUpVFT7iIDAZ9VpPmvr89NNPqajw18fTubnoIrEiiA0bNkjyJDwoKCjgJz/5iWjeUy9U8fwtDAHwbTYCo4GXUbvu+QIX8Ny/n2O0Q/MDiqLgdDppa2ujsbGRuro6qqqqqKyspKamhvr6emkjgEUEwLZtZ13R6UJhYSF33XUXw4Z532368OHDsmulNwOjCNxT/7lwol7r3YLan10Yt9vNhx9+iMvl70Dltxk8eLDXpa2ns3//fpqbmyV6FPpMnTpVRu7EjDO/YQiAs6kH7kKtnXyfc9RPasCNmrg0FrgPDbObDeTi8XhwOBy0tbVJuSYwmUxCKl3v9rj5+fksXryYm266iaSkJK/XO51OPvnkE5kufQxcBshp0KAPK1D7B0gJ7dTV1en+PjGbzYwYMULzekVRfF0WGpIsXLhQNOF55JnfMATAudmDWj85DPXu8bhGO0eAJ1Fb9c4HtA3XNgh4RBIAKysrhcZHa408xMTEMGjQIG655RZuu+02oU5tGzdupKGhQfP6M3gTtZFVuyyDOrIDuASQMh+8qKhI5uusicLCs6LJXmEIAO/p1auX6Ot+VlepcC8D7AklqHePv0RtDXop6il+MNAftXVoDNABtKDe7ZegDu3ZgCoADMIAEQGwZ88eoWePGDGC3NxcrFYrVquV5uZmHA4HDocDu91OREQEFouF2NhY4uPjSU5OJjMzs+ukn5mZKfR8q9XKli1bhGycxluoLa1lRd8CgW9QIwGbEBzp7XQ6Wb16NQsWLJDimBZycnJISUmhsbFR0/pdu3ahKErADAMLFi666CKRz4qz1L0hALzj8L+/DAzOQkQA7N27V+jZ2dnZREVFkZ2dTXZ2ttfrRT+I16xZI+tuejXqTItQ2vw7OQpcA/wLwdkCJSUllJSUXHC+hK8wmUyMGDFCc0Z/U1MTJSUlDBkyRLJnoU2/fv1Elp91r2dcARgYSEJrGN7j8bBv3z7Nz01KShJKygIxAXDy5ElKSqSU5G8HbubsIT2hxE7Uqw1htaR3Nr3o5m1cA3iP4Kjos0SnIQAMDCShVQAcPXpUaBSxjDaxIgJg48aNws8HGlBzZKRkzAc4n9GzSZ/npaKigmPHjklwRxs5OTlC9emSutyFFVFRUSLLLZzRC8AQAOGB9kHeIDQHPFgQaVrTufFrvQI4cOCA5meDHAGgtQqitraWQ4cOCT8eNexfKmooiHgW+KeoET0bR5nNZgYOHKh5fUlJSUB0NwxnDAEQHjQi0JCktrZWoiuBR3t7u1BdcucpSKsAOHxYe1pJVFSU8PAhEYqKimR8iP8ZdYRvOKGgTumsEjFSWlpKWVmZHI80IJKDYLPZhCpfDMQxBEB44EJgRGqo39UVFxcLre8c0qKHAMjKypKSSa1lE29paZERxi1DQjg8SKlDwiAyPRtIibQFBmREjwwEMARA+KD5pLFq1aqQDtX985/aI7GRkZGkpKQA2u7Rm5qaNI8hBuGkoC60/Pvu27dPRgfFnwA2USNBzDvA5yIGDh06JGUkrRaSkpJITk7WvP7gwYMSvTHwFkMAhA+aj/Fff/0169atk+lLwPDll1/yxRdfaF7fq1cvoRO46Ojf1NRUofWdaBUAgqwB/iFqJAT4EQKVD263WziPRASR0jSR6JeBOIYACB+E4txPP/00R48eleVLQFBZWckjjzwiZOP0JCgtQkDk/tZkMnVFH0TxdjhSVVWVjIE/j4saCBEOAW+LGJAgxjTTt29fzWsrKip8NpjL4MIYAiB82CSy2Gaz8YMf/EBmtzdd2bVrF4sWLaK+vl7IztChZ3XX9AoRAZCUlCQ0fOh0vP0QlrDhfIqgKA0xnkFgAFlZWZnwe1krIhEAl8sldAVmIIYhAMKHYkCoaLi5uZl7772X+++/n6KiItnz3n2O0+lk69at/PznP2fp0qXCH5iRkZEMHz686/+1JAGKCABZ4X/A67t8CXe3T4saCDEOoQ4f025Ap4S67OxsoS6YJ0+elOiNgTcYrYDDBwU1zCiccb1x48au5i9paWldWfCBjN1ux2q1Sk1mHD16NHFxcZrXK4oiVAYlKwEQvBMATU1NosNo9gP6FbAHLv+NOj5YE8ePH2fy5MkS3ekZnYmwWgV1RUUFF110kWSvDHqCIQDCizdQZ5RL+3fXK+wYCEyfPv1b/+9tDkBTUxPt7dqH3WkZ2XsunE5nj4ezSOg+94aogRBlE2qUTlN3nRMnTuB2u6VdC3lDRkaGkAAw0AfjCiC8OAr8XW8nQoH8/HyGDRsmZEO0wZJI9OFM7HZ7j4f5HD+udTI2oA75+V8RAyGMAizXuthut1NVJdRXSDMizaiMKwD9MARA+PEUoT1sxeeYTCbmzZt31ve9vQcVEQARERFCfdjPxOPx4HT27G1RWloq8qh/AcYn/rkRqgYQFGeaycjI0LzWarVK9MTAGwwBEH4cB36rtxPBzEUXXSRljKmIAPBF3kVPZj60tLQItU0GQrOhhDwOASe0LtbrNC0SARDMJzEQwBAA4cnTqGNJDbwkJSWFm2++uds/8zbBsK6uTrMfouN/u6MnVwAiPv+b9aIGwoAvtC7U6zSdmHjWpNke43A4dOtkGO4YAiA8cQK3AU16OxJMmM1mvv/975/zw85bAdDS0qLZF70iAIICoAmBjpRhxL+0Lqyvr5fRntlrEhIShNYbUQB9MARA+PINMA8IrmJ+nTCZTCxcuFBo+tmZtLZqns/kkwhATwSA4AlzJwLNbsKI7VoXut1uXTbT6OhoIiMjNa83BIA+GAIgvPkCNRJgJAWeB5PJxA033MDUqVPP+3P+jACIfNiei/b29gueHgUjAMbkl55xFIHfSb2uAUSiAE1NRjBSDwwBYPAeMBfjOqBbzGYzt912G5dffrl02yICwBe13i6Xi46OjvP+jOAHtTH5pWc4UZN1NdHY2CjRlZ4jEpW60PvOwDcYAsAA4DNgKmoGssG/SU5O5v7777/gyb8TbyMAIh96Fov8Hl6KolzQJ8H2z8b7q+dofq302kxFolI9uX4ykI/RCdCgk/3AWOBJ4H7A/+3EAogJEyYwf/58r7KbvRUAPW280x2+6vZ2oQ1eUADUiCwOMzTXiOq1mRoCIPgwBIDB6bQDDwGNqA2Dwo68vDzmzZtHQUGB12tDQQB0dHScsyWwoig9bhZ0DrTfeYQfml8rvTZTkaiU4PvKQCOGADDoDpveDvgTi8XCiBEjuPTSSxkxYoRmO96WX4kIAF9cAYA69tnpdBIVFXXWnzmdTtESM0MA9BzNr5VeUzpF3pNGBEAfDAFgEHZERESQkZFBfn4+Q4cOZeTIkVLK6rzdHN1u7RVxvooAeDwebDbbOQWAIEa3l54TdBEAkfekEQHQB0MAGEhl4MCBXHvttXq7cRYmk4nY2Fji4uJIS0vzyQbqrQAQmaEuc6zxmZwriUzCaya/djF00TzowVfRoQsh8p4U+V0w0I4hAAykkpCQoOn+PBTw9gNQ5IPal93e2traus0D6C4q4CWJgDH5pWdo7q0r4d9JEyJXWr7oa2FwYQzZZWAgCW835UAWAN31ZjebzaIf1Nobxocfml+r6OhomX70GJErLb2iFuGOIQAMDCQRKgJAUZRzDmcR3FxSRBaHGZpfK70iACICwIgA6IMhAAwMJOHtpizyoefrpCmbrftCEMHNJV9kcZih+bXSKwIgUn1gCAB9MASAgYEkvD0BiVQe+DrTu6Wlhfb29rO+Lzj1bajI4jBjiNaFopP5tHIu0dgT9PI53DEEgIGBJLyNACQnJ2t+lq8FgKIo3c4qSE9PFzFrCICekQ0kaV0s+G+kmXNdG/WEpCTNf10DAQwBYGAgCY/H45UI8KbN8Jn4o9bbZrOdVdmQkZEhYnKUkEPhg9DrpIcA6MkcifNhCAB9MASAgYFEvLkGEPnQ88fAl9bW1rPCuoKbSz7QX8RAmDBT68LExERdcgDa2tqEElONKwB9MASAgYFEvPkQFBEAIvetPUVRFJqbm7/1PQmnyxmiBsKAWVoXCkZoNNPQ0CC03ogA6IMhAAwMJOJNMxSRD2uR+1ZvaG5u/lbFQVpammjGtubNLUxIAcZpXZyVlSXRlZ7T2NioeW1SUhIxMZobHxoIYAgAAwOJeHMF0KtXL83P6ejo8GkvgE4cDse3ogARERHk5OSImLwG0KdOLTiYh8Ao7gEDBkh0peeIRABEfg8MxDAEgIGBRPwlABRF8cs1AEBTU9O3xIbgJpMGXC3qUwhzm9aFZrOZ/v31SbEwBEBwYggAAwOJeHMFkJ6eLtQNsKmpSfNab2htbf1WFEDCKVPzJhfi9AUu1bq4d+/exMbGSnSn51RXV2teawgA/TAEgIGBRLwRAGazWejO9swEPV9yek+APn36iGaazwX6iPoUgtxJEIb/FUWhtrZW8/revXtL9MbAGwwBYGAgEUVRvBIBubm5mp/lrwgAqElera2tgCpcBg4cKGIuCnhAhl8hRDzwYxEDgwYNkuSKd9TX1wv1pdDr2sLAEAAGBtLxRgDk5eVpfo5I5rW3KIryreeNHDlS1ORSIFPUSAixDNBcFpKYmKjbRnrq1CnNa00mk5AINhDDEAAGBpLxZlCPiABob2/vtl+/r2hoaOi6ChgyZIjofXM88BMZfoUAcQhGREaNGoXZrM/HeXl5uea1mZmZQjMxDMQwBICBgWT8FQEAsFqtQuu9oTMKoCgKFouFwsJCUZMPIDD0JoR4FLX/v2ZGjdKvy3JZWZnmtaLvfwMxDAFgYCAZbwRAnz59hE7S/hQAoF47dEYBJGw60cBzokaCnMEInv6zs7N1y6R3OBxCVwCCuSQGghgCwMBAMi6X66whOufCZDIxdKj2IXl1dXWa12pBURSsVisej4ecnBwZG88VwA0SXAtGTMBLCDZGGj9+vBxvNFBeXi7UkGrYsGESvTHwFkMAGBhIxttKgIKCAs3Pampq8mseAKglgZ0JgdOnT5dh8lUgHDPB7gdmixhISEhg9OjRktzxniNHjmheazKZDAGgM4YAMDDwAd6URQ0fPlzoWSJNWLRitVpxOp0MHz5cxoCgNGA5oL0rUvAxEXhG1MjUqVNFZzMIISIA8vLyjARAnTEEdGo26wAAIABJREFUgEF3aI7p+aM/fTDgTSXA0KFDhTK49RAA7e3tWK1WzGYz06ZNk2FyOvAbGYaCgHTgXdR+CJqJj4/XNfzf2Ngo1ABIJPIVrgh+vp51L2kIAIPu0Dxq7vSOceGMNxGA2NhYBg8erPlZNTU1uggvq9VKa2sro0aNIiUlRYbJXwA/lGEogIkDVgJ5ooYmTZpEVJSQhhDi8OHDQusl9JIIOwSbf7VxhggwBIBBd2jexUXngocKLpfLq0153DjNE2BxOp26RAHcbnfXCXDOnDmyzL4I3CTLWIARAbwFTBY1lJyczMUXXyzukQD79+/XvDYiIoKxY8dK9CY8EIm4AGf1DjcEgEF31Ghd2NzcTGVlpUxfghZvrgFEQ7kVFRVC67XS0tJCfX09hYWF5OfnyzAZAbwJXCnDWAARCfwdddyvMHPnztX19N/S0iJU/z906FDj/l8De/bsEVl+1ue6IQAMukMotrdz505ZfgQ13lwDDB48mKSkJM3Pqqqq8moUsUxqa2ux2WzMnTtXaLrhacSghsmXyDAWAMQDHwLfk2Fs0KBBQqWjMti/f3+PS127Q8/chWDF6XRSXFwsYuLQmd8wBIBBd1TSTbiop6xfv95vs+oDGW8EgNlsFgqJulwu3SIvLpeL6upqUlJSmDJliiyzFuA14KeyDOpEJvA56gREYSIjI7n66qtlmBJi3759QusnTJggyZPw4eOPPxbNATh45jcMAWDQHQqwRevitrY2/vGPf0h0JzhxOBxenZJEN8/S0lKh9SK0trZSW1vL9OnThUYcn4EJ+E/Ue/NEWUb9yDRgFyDtsn7WrFmkpqbKMqeJqqoqIbHZu3dv3UYXByu1tbW89957omY2n/kNQwAYnIv1Ios3btxIUVGRLF+CEkVRvIoCTJgwQagtcG1tbdfIXj3ovAq49dZbiY4Wam53Jt8DvgTGyDTqQ0zAfai/Q/1kGR0yZAiTJk2SZU4zu3btElo/ffp0TCaTJG9Cn46ODp566inRCis7sOnMbxoCwOBcfCxq4O2332bt2rUyfAlavBEAUVFRwpndekYBFEWhurqauLg4rrrqKtnmhwA7gD8DCbKNS2QUsBH4L9TEPykkJyczb9483TdOp9PJV199JWRDUt+IsKCuro6HH36YY8eOiZr6F92UdxsCwOBcfIN66tKMoih88MEHPP/882FbGdDR0eHVz4u21i0tLfWqDbFs7HY7p06dYsSIEYwZI/3AHgncC+wDviPbuCBJqNcVO4GpMg1HRERw0003ERcXJ9OsJvbs2eP1e/p0+vbtawwA6gFut5s1a9bwk5/8RKjb4mm82d03w6n1poH3/BUQztb5+uuvOXDgAAUFBYwZM4b+/fuTkpIivYVpRESE7NCzME6nE4/H0+NOf2PHjiUpKYnmZm05mA6Hg7KyMl0/ZFtaWqitrWXu3LnU1NT4QvwNAP4JbAWeBlbTTZczP5EK/Bg15J/miwdcccUV5OTk+MK0V3g8HrZu3SpkY8aMGXKcCTEcDgdWq5Wamhp27drF5s2bZfb2aECtQjkL4yLG4HzEAscBfWaNaiAyMpKcnBzGjh3LJZdcQkxMjN4ukZaW5pUfr732Gh999JHm58XHx3P55ZfrHi7Ozs4mLi6O//mf//H12OLdqFcD7wP+SoIoABYDS1FP/z5h+vTpzJ4tNC9IGt988w3/93//p3m92Wzm9ddfJyMjQ6JX/sXhcPD5559TVFTEkSNHhKIhfuTXwBPd/UGEf/0wCDJcqNdEl+ntSE/xeDw0NDTwzTffsG3bNnJycnT/wDGZTF4JgMzMTFatWqX5eU6nk+TkZKG+AjKw2WzExcUxevRoDhw44FU+hJdkozbYuQ91Y24HTqK+f2WSA9wB/DfwW9RQv89CTuPGjePKK6/UXch18tFHH2mOTIFa+z93rpRqSF04duwYjz76KOvXr6empkbXqzYvaEJNou12ZKiRA2BwIZ4DpFxC+ZvGxkaee+45vv76a139sNvtXv18Tk6O8ITAb775RqhRiwwURaGqqgqLxcLChQv9EY2JBxYCn6CGPf8FPAbMQd28vSEaNaHvu8BfgBKgDPX3YaIkf8/J0KFDueaaawJm8y8pKRHuNnn55ZdL8sb/HDlyhJ///OfBmMv0BFB/rj8MjHeXQaBzJeqHalASFxfHk08+SWKifqXkGRkZXrVuXb9+PX/605+Enjlx4sSAuDuOjo6mX79+NDY28tZbb9HWpnnWlCg21G5op1CvChpR515Eo1YWJKLe4/dHHdajywFp2LBh3HTTTbK6KgqjKAqvvvqq0OaXlpbG66+/HjB/J2+w2+3cfffd1NRo7pCuF3tRc7jOGaowrgAMesIR1I5mF+ntiBY6E/FGjBihmw9ms9mrBMV+/fqxbt062tu7jdz1iObmZgYOHKj7KdLtdtPe3k6vXr0YNWoUJSUlQn8vAaJQrwsGAyOA8cAU1Pf1GGA4aoJhKjodjsaMGcMNN9xARETgfDQfPHiQbdu2Cdm46aabgnb636pVq9i4caPebnhLG2r3yVPn+yHjCsCgpzyAWuIUlGzbtk23XvngfTmgjJavra2tuvYFOJ2Ojg5OnjxJbGwsixcvpnfv3nq7FHBMmzaN6667rscVI/7A7Xazfr1QTzBiYmJ80RfCb6xbt05vF7RwD3DBu8/AeacZBDp2VEVZorcjWmhtbeXQobNmYfgNl8vlddLQ3Llzhe/N9+/f78vkO69ob2+nsrISi8XCHXfcYdSD/5uIiAiuueYa5syZo3u05kyKi4tFR9By2WWX6Xr9JkJFRQUnTpzQ2w1v+S1qCfcFMQSAgTfUANcAVXo7ogXRFqaieBv2TkhI4LLLxAowHA6HrsLnTGw2GxUVFSiKwm233cacOXMC6sTrb5KTk1m0aFFADsdpa2tjw4YNQjbMZjPXXnutJI/8TxCG/l8FftnTHw7f3zwDrRxGLX8KukjA7t278Xg8uj1fS83w9ddfL9ww6ejRo6J9xKXS3t5ORUUF7e3tTJs2jdtvvz1oT4giDBs2jGXLlgVEomZ3rF+/XjhX49JLLw3q655Nm85qnx/IPIval6LH5T+GADDQwnFUEfC53o54Q2trK4cPH9bt+U6n0+s8hMzMTOHyKY/Hw65du3QvCzydjo4OysvLaWlpIS8vj6VLlzJkyBC93fIL0dHRzJ07l/nz5wsNf/IlZWVl7NwplvITERHBd7/7XUke+Z/y8nLKysr0dqMndADLgJ/jZUfMwEk1NQg22oDlgAd17GlQvJeioqIYNWqUbs83mUxetyseOHAgq1evFkpibG9vJyYmRvdRsqfjdrtpbW3FYrGQnJzMyJEjyc7OpqKiIlg6rHnNkCFDWLBgAfn5+Xq7ck5cLhdvv/02NptNyM6cOXOYM2eOJK/8z+rVq4UHH/mBQ6i5WZqGtwXFh7ZBwKIAG4APUMuq8nT1pgc0NDTommzldrtJSPBumF1sbCytra0cPHhQ6Nl1dXXk5uZKn8EggsfjoaWlBZPJRFxcHBkZGYwfP56IiAgqKip0vbKRSVpaGjfccAMzZswIiPbU56OoqIgDBw4I2bBYLDz88MPEx8dL8sr/vPzyyzQ1NentxrloQ23xezuguUOTIQAMZFAL/A11XOtAvO+65jfsdjuDBw8mMzNTl+crikJ0dLTXdd75+fmsXbsWp9Op+dkej4fm5mZycnICLtu8tbUVj8dDXFwcFouFvLw8hg8fjt1up7a2NqCuL7whKSmJWbNmcd111+n2nvOGkydP8tFHHwm/3ldffTWXXHKJJK/8T1lZGf/7v/+rtxvd0Qa8AMxHHYIlVNtsCAADmZQArwNrASeQjzpQKKBwuVyMHz9eVx+8PQXGxMQQERHB7t27hZ5rs9mIjIwkPT1dyI4vaGtro6Ojg5iYGCIjI4mLi6OgoIDRo0ejKArV1dVBExFISUlhxowZXH/99eTm5gZFpYPD4WD58uXCof/ExEQefvjhgJvM6Q3vv/++cMRNMjuA3wNLgH+gdrAUJrCOAQahRgRqK8pZwDhgKDAEHw5Q6QkWi4Vnn31Wt/CkyWSid+/eXp/CXS4X99xzDydPnhR6vtlsZubMmSQnJwvZ8RXR0dH07t2bpKSkb71Gzc3N7Nixg3379gkNpfEVJpOJ/v37M27cOAoLC4Ni0z+djz76SFhgAixdupRrrrlGgkf64HQ6WbRokZ7vsRrgIPANsBFYj49Krw0BYKAH0ah910XG1b0GzNS6+JZbbtF1zGpqaqqmDPDi4mKefPJJ4ecnJiYyY8aMgMoHOB2TyURmZiaZmZlnXZcoikJ5eTl79+7l66+/9nrYkmwyMjIoLCxk9OjRAZVk6Q379u3jgw8+ELaTk5PD888/H1CtjL1l48aNPPvssyImDgLetvF0os6naBB5sLcE32QGg1DA/u+vOgEbbyAgADZt2qSrAGhra9MkACZOnMiECRP48ssvhZ7f0tLCzp07mTRpkpAdX6EoCjU1NV0zBOLi4rr+zGQykZubS25uLldccQVHjx7l+PHjHD9+XLhrXU+IjIwkNzeXAQMGMHDgQPr06ePzZ/qS6upqVq5cKWzHZDKxdOnSoN78AdauXStq4k3gmARXfI4RATAIVuJRB114l1J/Gr/4xS8YMGCAPI+8JDMzU9MJvLa2lh/96EdSBuqMGDGCoUOHCtvxJRaLhaysLNLS0i4YVm9paeH48eNUVFRgtVqpq6sTyuS2WCxkZGSQnp5OZmYmeXl59OvXLyin2nVHR0cHr7zyCvX155wY22PmzJnDfffdJ8Er/Th16hQ//OEPRZIgFdRE6FJpTvmQ0HgXG4QjNuCfwPe0Gti8ebOuAsBms5GSkuL1uszMTG677TZeeeUVYR8OHDhAcnJyQHdrc7lcVFZW0traSmZm5nlzNxITExk1atS3ej04nU6sVisNDQ10dHTgcDhwOBzY7XY6OjqwWCxERUURFRVFTEwMUVFRxMfHk56eTnJycsBVTMjC4/Hw/vvvS9n8U1JSWLJkiQSv9GXt2rWiFRAbCJLNH4wIgEFwcxVqKYwmoqOjeeaZZ3RNBuzVq5emZDFFUXjooYek9Pm3WCxccsklmsSIv4mIiOg6kYfKKVwvPv74Y+GrpE4eeuihoC77A1VoLlmyhIYGoWv4O4H/keSSzwmuNFUDg2+zDtCcEm+32ykqKpLojncoiqI5jG8ymbj33nuJiooS9sPlcrFlyxYpVwq+xu12U11dzfHjx7FarUHbH0BvNm/eLG3znzRpUtBv/qAm/wlu/jZghSR3/IIhAAyCGRdq3wHNfPHFF16P6ZVJa2ur5rW5ubksXrxYih8dHR1s3rw5YEYHX4j29nZOnjxJWVlZQA06Cgb27dvHZ599JsVWWloaP/7xj6XY0hNFUWRUQfwfEHj1qechuNM1DQzgKHAvGsVsR0cHmZmZuk1kUxSFqKgozeHswYMHc+TIESorK4V9sdvtVFdXk5OTEzSZ3Ha7naamJpxOJ2azmcjIyJC9s5fBwYMHef/996VETkwmEz/72c90zaORxa5du/jwww9FzSwFxH8R/YgRATAIdspROw9qZt26dbqGkkU6r5lMJu677z5p9edNTU1s3rxZ16iItyiKQn19PaWlpVRWVmKz2YyrgW44duwYK1askNZNcd68eUyYMEGKLb2RcPrfCxRLcMWvBIfMNzA4P62A5rmjLS0t5Ofn69ar3eVydbX61UJMTAx5eXls2LBBysbX3t5OfX09ffv2Dapudp05FZ0RAVCnPxoRAThy5AjvvPOONGE3ZMgQHnjggaCJFJ2PkpIS/v73v4ua+RUgNj9ZB4L/X8/AAI4AtwGaj8HNzc26NsVRFEVoNnx2djYRERHs27dPij9tbW3U1tbSt2/foPuQP10ItLe3d12zBJOYkck333zDe++9J23zT05O5umnnyYxMVGKPb157bXXKCsrEzHRDCwGgiOB5jSC6zfbwKB7FNTrrCu0Gqirq2P48OGkpaXJ88oLXC4XsbGxQpvU8OHDOXbsmPCsgE7a29uprq6mb9++QVtyZ7fbaW5upqWlBafTiclkCqs8gc4Wv2630NC4LsxmM4899lhI3PsDVFVV8dJLL4lGzl4ExFsp6oAhAAxChQPAjxAYNFRXV8fkyZPleeQliqIIzYo3mUyMHz+erVu3SsuMt9vtVFZW0rt3byklh3rhcrmw2Ww0NjbS0dGBy+XCbDYTERERsmJg06ZNrFq1Smo+xB133MHMmZo7cAccr7/+OseOCXXtdQELAO3tJnXEEAAGoYId6AVojuNbrVaGDBlCRkaGPK+8wOl0EhcXJxQFiIqKYsKECRQVFUkbkuN0OikvLyctLe1bPfmDFbvdTktLS1dnQLfb3RUZCAU8Hg8rV65k8+bNUu1ecskl3HnnnSEjmE6ePMmLL74oKpDeRbAUWU8MAWAQSpQA9yBQ3VJTU8PUqVPleaQBkSgAQEJCAsOGDaOoqEha6NftdlNeXk5cXFzAjhH2FkVRviUG2tracDgceDweIiIigipnwO1209raSnV1Ne+99x6HDx+Wan/06NE8/PDDQZcPcj5eeOEF0bt/gCUEWenf6YTOv6aBgTpKcxgwUrOBhgYGDBhAVlaWPK+8wOVyCUcBQJ0XkJ2dzdatWyV5pm6YlZWVOBwOsrKyQuYk2InD4ei6JmhsbKStra3rukBRFCwWS0D8nTuFS2trK42NjdTV1XV1R1y7di1Wq1Xq83Jzc3nyySeFhWkgUVJSwuuvCx/ci4CnJbijG4YAMAg1DgF3ITDnorq6mmnTpun2YS+aC9BJ//79iY6OZs+ePRK8+v80NDRQW1tL7969gzY58EJ4PB7sdjs2m42mpiYaGhpobm7GZrN1RQpcLhcejwez2eyTaEGnD21tbV1+1NfXU1tbS01NDU1NTdhsNux2O6WlpWzbtk3atU8nGRkZPPXUU9L6TAQK//Vf/8WpU6dEzdyFWoEUtOgvZw0M5PMhcJ2IgR//+McUFhZKcsd7srKypG2ub731Fu+8844UW6cTHR3NuHHjyM7Olm47WOjMHYiMjMRisWCxWLoEQWeC4eniICIiAo/Hg6IoXXfPbrcbRVFwu924XK6u/7pcLpxO53nvqF0uF3v37uXEiRPS/27Jycn87ne/o1+/ftJt68m+fft49NFHRc0UAxdJcEdXQlO+G4Q7TyMoAIqKinQVAM3NzdJKEhcsWEB7ezsfffSRFHud2O12tm7dyoABAxg1alRI3Q/3FEVRusYL+5uGhgaKi4uF5kmci4SEBH7zm9+E3OYPyGj6A/AbGUb0xhAABqHIEaAO0JzOL2PMrggdHR3Y7XaiozVXNX6LO++8E7vdzpo1a6TYO53jx49TV1fHuHHjSE9Pl27f4Nt4PB4OHjzI4cOHpbX1PZ3Y2FieeOKJkKn1P529e/fK+N3eDXwswR3dCT/JbhDqpKKOCR4kYsTlcnHZZZfpesftdrulld2ZTCYmTpxIc3MzJSUlUmyejsPhoKysDLvdTnp6elhGA/yB1Wply5YtVFZW+mTeQUJCAk8++SRDhw6VbjsQWLFiBUePHhU18yPgGwnu6I4RATAIJTo3//EyjOmd4OZwOOjo6JCWfW0ymVi2bBmxsbGsWCF/bLmiKBw7doyqqipGjhwZkuFjvXA4HOzfv5/S0lKfDTpKTk7mN7/5TUie/DuRsPkDDJZhJBAwZLpBqCB188/MzGTOnDkyTAnhdDqJj4+XanPMmDFS5wacicvl4uTJk9TW1pKcnBxS5WP+xuPxcPToUbZt2ya9vO90MjIyeOaZZ8jNzfXZMwKBDz74QEbOxGWADdgi7pG+GALAIBSQuvkDTJ48mREjRsgypxmPx4PJZJLehrewsJC0tDR27drlsxNlW1sbpaWltLW1kZKSEjKd9vzFyZMn2bFjB+Xl5T656++kf//+PP300/Tu3dtnzwgUNmzYIEtIXY46hVReow0dMASAQbAjffOPjIxk8eLFAdP21uFwSGkOdCaDBg1i8ODBbN++XdqkuO5oamri2LFjdHR0kJycbAiBC1BVVcWOHTs4evSoz6sLxowZw69//WtSUlJ8+pxAobS0VGaXxMuBFoJYBBgCwCCYkb75A9xyyy0Bcfo/HY/HIzQu+Fz06dOH8ePHU1xcTHt7u3T7nSiKQkNDA8ePH6e9vZ3ExMSgHi4kG0VROHnyJDt37qSkpER6Q5/umDNnDg899FBYXdEkJSWxdu1amSavIIhFgCEADIIVn2z+V1xxBXPnzpVpUgoul4uoqCifJCampqYyffp0Dh48SF1dnXT7p6MoCo2NjRw7doympiZiY2MDJtKiBy6Xi+PHj1NcXExpaSkdHR0+f2ZERASLFy9m0aJFQTXvQAbp6emUl5fLmAFwOlcAzcA2mUb9gSEADIIRn23+N9xwg0yTUumcFuiLFsVxcXHMmjWLlpYWn5QJdkdLSwsnTpzg5MmTKIpCQkJC2JQPNjQ08M0337Bz506qqqpwOp1+eW5ycjK//OUvmTFjhl+eF4iMHTuW7du309zcLNPsFagjgYNKBITHb5tBKBGWmz/Q1XfeV6Fzs9nMxIkT6dWrF7t27ZI2SfBC2O12qqurOXr0KC0tLZjNZuLj4wNi8I5MOpMi9+zZw8GDB2lsbPRpct+ZDB06lKeeeiqky/x6QlRUFJMnT6a4uJiWlhaZpq8AGoHtMo36ktD6DTMIdXyy+V9++eXceOONMk36DJPJRGZmps97FJSWlvIf//EfPukx3xMiIyPJzs6mb9++fvn7+orW1lZOnTpFRUUF9fX1uvhgMpmYN28et99+e9C+jr6gvr6eRx55hJMnT8o0qwD3A3+WadRXGALAIFiIBz4HLpZpNJg2/04iIyPJzMz0+XMcDgd//etfWbVqlc9KBXuC2WwmIyODXr16kZWVRVJSUsBGB5zO/9fe3UdHVZ8JHP9OMm9JyMskMVbUBAxgUQEXDKeiKCpYX7Da47rLwd3t1t3D6Wltu133HA9ut2fdNfQPt9ut726Pb9QuXV2QRhGIoCIIESEEmoIoQhSBvE5IJpNkXu/+cRkaQWBm7m/m3jvzfM6ZwwFyf/c5mUye5/5eI/T19dHZ2UlXVxfBYNDUeCorK/nJT37ClVdeaWocVuX3+1m6dClHjx5V2awGfA/4b5WNZoI1P0VCfJkLaAJuUdmoHZN/QllZGePGjcvKvXbs2MFjjz1Gf39/Vu53Lk6nk6qqKqqqqvD5fKZtNhSPxxkaGuL48eP4/X56e3sJBAKmFktjzZkzh/vvv5/S0lKzQ7G0vr4+HnroIdVFQAz4C2CVykZVkwJA2MFjwA9VNmjn5A/ZGwpIGBoa4rnnnmPjxo2WSXBjeTweysvLKS0tpbi4mJKSEoqLiykqKjJ0oFI8Hmd0dJTh4WGCwSDDw8MMDQ0xODhIIBDI6hh+snw+H0uWLOHaa681OxTbyFARMIJ+ZHC7ykZVkgJAWN23gNUo/Fm1e/JPcLvdVFenfeBhWnbv3s2TTz7JsWPHsnpfIxI7KSZehYWFOByOLxVPmqad3AwpEokQCoUIh8MZ3SBJNYfDwfz587nvvvuy1juUS/r6+li6dKnqn+296EWAuWNBZyAFgLAyH/ARUKOqwVxJ/gnZHApICIVCvPLKK6xevTrjO9WJ5EyYMIElS5Ywbdo0s0Oxtd7eXh566CHVRcB/Ag+obFAVKQCElSnt+p8/fz733HOPquYsIdtDAWP19vayfPly3n33XUsOC+SD0tJSFi1axO233543eyhkWgaKgCj6yqXMnL5lgBQAwqomo3efKclsufbkP5bT6eS8884zbWZ8e3s7zz33HAcOHDDl/vnI5XJx2223sWjRIunuz4AMFAFvAHeoakwVKQCEVT0LLFHRUC4++Z+quLjY9ANd2traePHFF1WduS6+gtPpZO7cuSxevDgvTu8zk+IiQEPvBdilojFVpAAQVlQNHAYMr+3K5Sf/U/l8vowcGJQKTdPYsmULK1as4PDhw6bGkksKCwuZN28eixYtksSfRYqLgOXAd1Q0pIoUAMKKfgA8YbSRfHjyH8vhcFBTU2OJsWBN09i9ezdNTU18+OGHZodjW16vlwULFnDXXXdRU6NsLqxIgcIiIAh8DRgyHpUaUgAIK9oMGFrEnE9P/mO53W6qqqostVPexx9/zGuvvUZLS4utltWZqaqqioULF3LrrbdSUlJidjh5r6enh6VLl9LV1WW0qcXACgUhKWGd3xJC6MqBPgwcVDVz5kyWLFliqSSYTePGjaOsrMzsME7T39/Pxo0baW5uttU+AtnicDiYMWMG3/zmN7n66qst0ZMj/uTIkSM88MADRrd3fhH4rpqIjMvP35DCym5HnzGblvPPP5+f/vSnGTsxzy4qKiooLi42O4yvpGkaf/jDH9iwYQMffPABw8PDZodkqrq6Oq6//npuuukmKisrzQ5HnMXWrVv5+c9/bqSJDsAyxzHK0VDCar5h5OI777wz75M/wMDAAC6XC5fLZXYop3E4HEyfPp3p06cTDodpbW1l8+bNbN++ndHRUbPDy4oLL7yQuXPnct1113HxxRebHY5I0pw5c5g6dSr79u1Lt4kJ6BubdSsLygDpARBW87/oh2ikrLq6mkceeSRvu/5PVVhYyHnnnUdBQYHZoSQlFAqxZ88edu7cSWtra04NEzidTi6//HJmzZrFrFmzqK2tNTskkaaWlhYaGxuNNDEX2KIoHEOkB0BYzaR0L5w+fbok/zFisRh+vz/r5wWky+Px0NDQQENDAwBHjx6ltbWVvXv3sm/fPnp7e02OMHmFhYXU19czdepUpk2bxowZM0w5sVCod+WVV+J2u41sg12PFABCfKW0B0Hr6+tVxpETwuEwAwMDlJeXmx1KysaPH8/48eNZuHAhAN3d3ezdu5f3TPrJAAATA0lEQVRPPvmEjo4ODh06RCAQMDlKKCgo4IILLmDixIlMnDiRqVOnMmXKFEOnEArr8nq9TJw4kf3796fbhGUmekgBIKwm7TVPdkxy2RAMBnE6nbZfTlZTU0NNTQ3z5s07+W9+v5+Ojg6OHDlCV1cXnZ2ddHd309XVpXRyocPhoKqqivPPP/9Lr9raWurq6mTeSZ4xOFmzVFUcRkkBIKwm7Z9JK054s4qBgQEKCwtzrhu6srKSyspKZs6cedr/hcNhBgcHT74CgcDJJVzhcPi0LtzEnvoul4tx48ZRWlpKWVnZyT9leEkkGPxdY5m8a5lAhDhhGP0Y4JQNDAwoDiW39Pf3U1VVlTdPq263m+rqatvMgRD24ff7jVxu/rjVCfaYHizyyWC6F+bSrPFM0DQNv98vu/EJYYCmaRw9etRIE2n/jlNNCgBhNZ+le2F7e7vKOHJSPB7H7/cTj8fNDkUIWzpw4IDRHoC0f8epJgWAsJqP073w008/lV6AJESjUfx+P5qmmR2KELazYcMGo018oiIOFaQAEFbTlu6F8XicpqYmlbHkrHA4LEWAECk6duwYzc3NRpoYRN8O2BKkABBW856Ri1tbW9myxRJ7bFheKBSiv7/f7DCEsIVwOMwvfvELo3NotgAxRSEZJgWAsJpPMThGtmLFCj75xDK9bJY2OjoqPQFCnIOmaTz++ONGNv9JeFtFPKrIeZPCii4Arkn34ng8zs6dO6mvr6eqqkphWLkpGo0Si8UoKioyOxQhLEfTNJ5++mkVY/8a8D3guPGo1JACQFhRD/oHJW2xWIzW1lYmT54sR6wmIVEE5NpGQUIYkXjyX79+vYrmtgC/VNGQKlIACCvqAm4C6ow0EovFpCcgBZFIRIoAIU5IPPkrSv4ADwJ/VNWYClIACKvqARYbbSTREyBFQHIikQjRaBSv1ytb34q8lUj+a9euVdXkp8D30YcBLEMKAGFVnwALgIuNNhSLxdi1a5cMByQpGo1KESDyluJu/4QfAntUNqiCFADCynYBf4+C1SrRaFSGA1IQjUYJh8MUFRVJESDyhqZpPPPMM6qT/xbgAZUNqiIFgLCyTqAcuFpFY9ITkJpYLEYoFJIiQOSFDD35jwDfQh/StBwpAITVvQPcDFykojHpCUhNPB4nFArh9XopKJBtQ0RuytCTP+jj/sobVUUKAGF1cfQiYBFQoqJB6QlITTweZ2RkBI/HQ2Gh/MoQuUXTNJ544gnWrVunuunngX9V3ahK8mkWdtAPNKOvClCyRk16AlKjaRojIyO4XC6cTqfZ4QihROLJPwPJfw3wV+gPMJYlBYCwiy5gO3AP4FLRYKInYMqUKdITkKSRkREKCwtxuZS8BUKYJoNP/u8C3wZCqhtWTQoAYSeHgM3oRYBbRYPRaJQdO3ZIT0AKRkdHicfjsmGQsK0MPvlvAW4HgqobzgQpAITdfI7+IVNWBMhmQamLRCJEIhHZK0DYTiL5v/nmm6qb3gLcCgypbjhTpAAQdiRFgAVEo1FGR0fxeDyyQkDYgiT/L5MCQNjV58D7SBFgqng8zvDwsEwOFJYnyf90UgAIO/sMKQIsYWRkBACPx2NyJEKcLsPJ/zZsmPxBCgBhf58hqwPOqKOjg127dtHW1sbBgwcZGRnB5/Nl5Gk9HA4TiUTweDwyL0BYhqZpPPXUUyoP9kl4D5s++SfIp1TkipuA14EiVQ16vV5+9KMfUV9fr6rJrNm3bx+vvvoqR44cOe3/ioqKmDdvHgsWLKCkRMneSl9SWFiIz+fD7VbSKSOyKHGEdnt7O319fbjdburq6mhoaODCCy80O7yUJZJ/Bmb7v4c+29+2yR+kABC5RYoAoLm5mVWrVqFpZz951Ov1Mn/+fObPn09RkbJv2UklJSWUlZVJb4ANRCIRmpubWblyJT09p29b73A4uOaaa1iyZAk+n8+ECFMnyf/c5JMpcs18oIk8LQLeeOMNXn/99ZSuKSkpYcGCBdx4443Kx/Ddbjc+n0+2ELaocDjM+vXrWblyJX19fef8+urqah5++GFqa2uzEF36Mpj8N2PjMf9TSQEgclFeFgFr1qyhqakp7etLS0u55ZZbmDt3rtJCoKCggPLy8oz0Moj0hMNh1q1bx8qVK/H7/SldW15ezrJlyyxbBEjyT54UACJX5VURYDT5j1VcXMz111/PDTfcQHl5uZI2QZ97UF5eLnsGmCgYDNLc3Mzq1atTTvxjWbUIkOSfGikARC67DngTRacIgr7M7f7772fKlCmqmjRs/fr1rFq1Snm7TqeTq666iptvvlnZBLCCggLKysooLi5W0p5IzrFjx2hubmbt2rUEg2p2qS0vL6exsZG6ujol7RmlaRrPPvssa9asUd30++iz/QOqGzabFAAi1+V0T4DKJ/8zcTgcXHbZZdx0001cdtllSib1eTweKioqZG5ABmmaRltbG01NTezcufOck0LTUVFRwbJly7j44ouVt50KTdN4+umnM7HULyef/BOkABD5ICeLgGwk/1NVVVUxZ84crrnmGsOzwQsKCigtLc3IUsR8FggE2LRpE2+++SaHDx/O+P3MLgIymPxtu8NfsqQAEPkip4YDMtXtnyyHw8HXv/515s6dy4wZMwxtLOTxeCgvL5ethA2Ix+Ps2bOHt99+m/fff59wOJzV+5s1HCDd/sZIASDySU70BJjx5H82paWlzJ49m1mzZnHJJZekNUTgcDgoLi6mtLRUJgmm4ODBg2zcuJFNmzYxMDBgaiw+n4/Gxsas9QTI3v7GSQEg8o2tiwCrJf9T+Xw+Zs6cmXYxIEsGz07TNA4cOEBLSwvbtm3LShd/KrJVBGRhb/+cfvJPkAJA5KMFwO+xWRFg9eR/qkQxMHv2bCZMmJDStS6Xi/LyctlOGH173vb2dlpaWmhpaaG3t9fskM7K5/OxbNkyLrroooy0n8Hknxfd/mNJASDyla2KALsl/1NNnjyZe++9lwsuuCCl6xLDAvm4WqC9vZ0NGzawfft2AgF75aTKykoaGxuVFwGS/NXKv0+VELqD6KcI/jmKThGMRqPs3LlT+SmCdk/+AH6/n5aWFi655BKqq6uTvi4SiTA8PEw8HsftdufFuQKBQIBHH32Ul156iUOHDmV9Qp8KIyMjbNu2jYaGBsrKypS0KclfPSkARD6zfBGQC8k/IRqN0tbWRkNDQ8obAUUikZMb2LhcrpwtBAKBAA8++CB79+41OxTDEkXA7NmzDRcBkvwzQwoAke8sWwTkUvJPiEaj9Pf3c9VVV6V1fTgcZnh4GIfDkZOFwKOPPpoTyT9hZGSErVu3GioCJPlnjhQAQmSwCKitraWmpialazVN47XXXsvEL7x9wDPANBTOfUhVV1cX1157LV6vN63rNU0jFArlXCHQ3t7OSy+9ZHYYyiWKgGnTpqVcEEejUZ544gnWr1+vOqy8T/4gBYAQCRkpAj788EMKCwuZOHFiUuvbjx8/zvPPP8/WrVtVhDDWPuAG4A3gaeA4MB0Yp/pG56JpGnV1dYbPFxhbCMRiMVwul633EFixYgUHDx40O4x+4JfA/6AnSCXf0JGREd555x0qKyuTXh567NgxGhsb2b59u4oQxtqKJH9ACgAhxlJeBGiaxkcffcT27dtxuVxUVFSc9uSraRpffPEFGzZs4IUXXuDo0aMqbj3WPuBGoOvE38PoT0BPAp3ApYC6WYtJmDBhApMmTVLSlqZpJycLapqG0+m0ZSGwfPlyBgcHzbr9YeDfgL8G1gI7gE+BO1FUBMRiMT744AO2bdtGSUkJ1dXVpy3z1DSNjz/+mFdeeYXHH3+c7u5uFbceaytwC5L8AVkGKMRXUb5EMMHhcFBTU4PP56OoqIjBwUF6enoy+Ys/kfw7z/I1BcC3gH8Ars9UIGMtXLiQO+64IyNtOxwOPB4P48aNs9U+AosXLzZjud8O4HFgBRD5iv+/F3iJDDwsFhYWUltbS1VVFW63m/7+fo4ePZrJHQ0TT/6mVVlWI5tvC3G6t9CffJQXAZqm0dXVRVdX17m/2Lhkkj9AHFh94vVnwI+BvwTSG6Q3maZpjI6OMjo6itPppKioiJKSEsv3CsTj8WzdKgz8H3ribznH1/4W/UHxRRQXAbFYjEOHDnHo0CGVzZ7JNiT5n8banwghzPMWcBcwYnYgaUo2+Z9qF/C3wHj0HgFbT0mPRqMEAgG6u7sZGBggGo2aHZKZOoCfAXXoT/bnSv4JL6P/TMQyElXmbUPv9pfkfwopAIQ4s2bsWQSkm/zH6gd+BVwOzAWWY+PDUeLxOMFgkO7ubnp7ewkGg9l84jbTKPqEvvlAPfDvpPdzYdciQJL/WUgBIMTZ2a0IUJH8T7UF+A7wNfRJYuuxXyI4KRwOMzAwQGdnJ36/n9HRUTRNMzssleLo79n3gQvQn/Y3nvh3I14Gvot93ntJ/ucgcwCEOLdEEbAaE9fPJyETyX+sIHoSeBk9sfwOuC5D98qKxFwBh8NBUVERRUVFeDwes8NK1w709+QV9Fn9mfAb9DkBz2PtVWSS/JMgBYAQybF6EZDp5H+qY8BnWbpXxmmaxvDwMMPDwxQUFOD1evF4PHi9XrtsMnQ7oHznqDNYfuLPF7BmL7Ik/yRJASBE8prJ0OoAg/ajj/FmK/nntHg8frIYcDgcuN1uioqK8Hq9Vl5J0JPl+y1HX03wMtbqCZDknwIpAIRIzVvoy4l+D5SbHAvo3b63A8p3TBF/2m0wFAoB4HQ68Xg8uN1uO/UOZMrvgBD6JEMrLBl9G/g2kvyTZtlyVggL2wTMA46YHMda9O19JflnSTQaJRgM0t/fT2dnJ729vQwODhIKhXJtImGyXgMWAhnbvSdJv0HW+adMCgAh0tMGXAmsMeHeMeBh4A5svDTP7jRNIxwOMzQ0RF9fH52dnXR3d9Pf308wGCQcDpsdYrZsRD9X4n0T7j2Kvl/F36APSYgUyBCAEOnrRU/C3wMaAV8W7rkLfXlXspu4iCzRNI1oNEo0GmVkRF81mjit0O1243Q6cblcFBYWWnkuQbo+R++NehBYChRn4Z7vAj/A5ptVmSnnfgqFyDIN/XS9S9EP1xnN0H0Ooyf+BiT528bYXoLjx4/T09NDZ2cnXV1d9PX1MTg4SDAYzJUhhAjwCDAVfXJgprZd/Ah9q+obkORviBQAQqjRA9wPTASWAV8oarcF+DtgEnqhYZdNWMRZxGIxQqEQQ0NDDAwM0NfXlwsFQMLn6BtGTUbfTVLFCoUY+lDDt9F3p3xFQZt5T4YAhFCrE/hn4F/QN8m5Hf2EvZkkt1wqgL6L2zvoE6wOZCZMITKuA318/p/QT9i8FX3y7OUk9/DZC2xGn92/En3vCaGQFABCZEYcfYzy3RN/96A/xU8CzgdK0T9/w+g77B0GPkF/esqLTepF3oiir1hZe+Lvpeifg8lABX+aOzOCXgB3oH8WVPWiiTOQAkCI7AgBfzzxEiKfBdAns+4yO5B8J3MAhBBCiDwkBYAQQgiRh6QAEEIIIfKQFABCiHSlPVkxHpd5jqcy+D2Rb6hImRQAQoh0Dad74eCgbNk+1ujo6MkDh9IUUBWLyB9SAAgh0pV2Fu/r61MZh+35/X6jTUgBIFImBYAQIl2d6V544MABo0+8OaW9vd3I5RH0TXOESIkUAEKIdO1P98JIJMLu3btVxmJrO3fuNHL5IfQiQIiUSAEghEjXPiMXv/HGGzIZEGhra6Ojo8NIE4beB5G/pAAQQqSrA30L47R0dXWxbt06ddHYUDAY5NVXXzXazHsqYhH5RwoAIYQRbxu5uKmpiV278nNH2Gg0yq9//Wt6ew0P3xt6D0T+SuZ0MiGEOJMC9LPZ09ba2orL5WLSpEmKQrK+YDDIU089xUcffWS0qc+ApQpCEnnIYXYAQghbc6Mf01pptKErrriCu+++m/HjxxuPyqLi8Thbtmzh9ddfV7UXwiPoR08LkTIpAIQQRv0X8GMVDTkcDurr65kxYwbjx4+noqICr9eromlTxONxAoEA/f397N+/nz179nD8+HFVzceAS4FPVTUohBBCpOJi9OOONXll9fXbZN4cIc5E5gAIIYwaBGqBWWYHkkdiwL1Aj9mBCCGEyG9V6LvRmf1UnC+vx5J7W4Q4M+kBEEKoMILeE7DQ7EDywDHgbvRhFyGEEMJ0DmAV5j8d5/IrBixI9g0RQgghssUHHMT8RJmrr58l/1YIIYQQ2VWPflKg2cky116/QZZuCyGEsLirgD7MT5q58loFOFN6B4QQQgiTXAZ8jvnJ0+6vF5DkL4QQwmYuAjZjfhK14ysM/GPq33IhhBDCGpxAI3pCMzup2uX1MfCNdL7ZQgghhNVcAWzC/ORq5dcw+uE+njS/x0IIIYRlXQu8hfnJ1kqvIeBXQO4ehSiEEEKcMB34D+Aw5idgM14R4B3gPqDM4PdSiJTJmlIhhBVcCtwAzACmAHVAJTAOcJkYlwpDJ1496GP7+4Ft6MMhARPjEnnu/wGujwMedUHhHAAAAABJRU5ErkJggg==;fontSize=12;strokeWidth=2;fontStyle=1;align=center;" parent="1" vertex="1">
          <mxGeometry x="485" y="227.5" width="85" height="85" as="geometry" />
        </mxCell>
        <mxCell id="Oy2jvIcbdFQ_JYFm3saa-3" value="" style="whiteSpace=wrap;html=1;" vertex="1" parent="1">
          <mxGeometry x="50" y="470" width="1000" height="230" as="geometry" />
        </mxCell>
        <mxCell id="Oy2jvIcbdFQ_JYFm3saa-4" value="&lt;h1&gt;ETL&lt;/h1&gt;" style="text;html=1;align=center;verticalAlign=middle;resizable=0;points=[];autosize=1;strokeColor=none;fillColor=none;" vertex="1" parent="1">
          <mxGeometry x="60" y="50" width="70" height="70" as="geometry" />
        </mxCell>
        <mxCell id="Oy2jvIcbdFQ_JYFm3saa-5" value="&lt;h1&gt;Analytics - report&lt;/h1&gt;" style="text;html=1;align=center;verticalAlign=middle;resizable=0;points=[];autosize=1;strokeColor=none;fillColor=none;" vertex="1" parent="1">
          <mxGeometry x="75" y="490" width="220" height="70" as="geometry" />
        </mxCell>
        <mxCell id="Oy2jvIcbdFQ_JYFm3saa-6" style="edgeStyle=orthogonalEdgeStyle;rounded=0;orthogonalLoop=1;jettySize=auto;html=1;entryX=0.32;entryY=0.265;entryDx=0;entryDy=0;entryPerimeter=0;strokeColor=#9E9E9E;strokeWidth=2;" edge="1" parent="1" source="2Kfv_4t5I5vCwGOsFX-G-2" target="Oy2jvIcbdFQ_JYFm3saa-3">
          <mxGeometry relative="1" as="geometry" />
        </mxCell>
        <mxCell id="Oy2jvIcbdFQ_JYFm3saa-8" value="" style="shape=image;verticalLabelPosition=bottom;labelBackgroundColor=default;verticalAlign=top;aspect=fixed;imageAspect=0;image=data:image/png,iVBORw0KGgoAAAANSUhEUgAAAgIAAAIACAMAAADHU/T1AAAABGdBTUEAALGPC/xhBQAAAAFzUkdCAK7OHOkAAAMAUExURUdwTDd0qTd4rv3NPDdsmf/TP//MOzNypv+/QP/aS7LJXDZunf3RQDZtnDdypDVtmzl1p//PPvzZSTZzpv/UQv/QQTd3rP7MO//LOjZ1qTd2qEFrqDZ1qjd4rzd3rTVrmDVunf/QPzd4rjd3qv/UPDVwoDZ1qv/RQDZunjZ4sDdvoP/QPzZ3rDZ3rjd3rf/QQf7LOf/QP//QP//PPvzURPzIODZ3rPzMPDZwpP/KOf/QPv/PQP/URjZ1qvzKOP/TQvzURjZvoP3LOv/RPfzKOPzLOvzTQzZ1qTd4r//MOjd4rzd4sP3NO/zJODZxozZvn//QPzd4rv/NPDZ2rDZ2rPzMOzVwoDZxofzSQjZ2qjZ3rf/NOzVxovzTQ/zKODd5rzd5sP7LOTZ1qzZwof3TQ/7RQf3UQv/KN//MOjZ1qjd5sDV4rvzJOPzMOzZxpDVqlv/aSv/VRf/cTf3VRP3KOf/XSP/LO/zVRDZunv/RQPzeTjd6sf/VRf3SQv3JOP3WRjVqlP/OPDZ0qf7JNzVwoTZvnzVplf/WRf7ZSv3LOf/NOzVwnzVqmDZunf3YSP3KODZxpDZsmjZwofzeTzd4sTNpk/3eT/3eUDVnlf3URf3VRf3eT/zeUDVwofzeTP/SQv/RQTdzpTdyo//TQzdxojd0p//QQDd2qv/URDdwoDd1qTdypP/PPzd1qDd3rP/XSP/YSTdvnv/VRf/WR//ZSv/LOjd4rjdxof/VRv/MO//OPv/NPDd2q//KOf/URTdzpjd0pv/OPTdvn//aS//WRv/PPjZtmzd4rTZunP/NPTh5sP/TRP/bTDZsmTdwoTh6sf/XR//JOP/QPzdwnzd3qzh5rzdunTZunf/MPDd3rf/cTTZrlzdzpDZrmDd0qDd5rzZtmv/dT//cTjZsmjZqlv/bTf/eUP/SQ//dTv/RQP/YSP/aTP/LOzZtnDh6sP/eTzdxozh6sjd2qf/fUDZqlTZsmP/ZSzdvnf/KODd4r//JNzh7sv/ZSf/KOjZql//IN0hhmJUAAACfdFJOUwBgYLRYDMAUAzABYLQ3YJAOLtgswcAzgnMnCQRKgiKQkBq1HQaQGDl/71haq3ZrEYgmNMD9/UP93HnACTCJ3yrZc5AU7dLsmJ9tkjqY+fmlRd19xbza8lL4pFoh1eLGzeag1b3OqrQ/U+ZU9/Pm7ZBSY26irh5gyGlK+NZA87+Q3E72qOU6t3WIumj7QcWZzM2bssz76Oyt97C7udrd4iZtHFwAACAASURBVHja7N1vaFvXGQZw26x4eE0Qc+diWzJUbp1okbS1C2pZJ5JQFht7JFUsEttzZs9pxmSD264f0uGWtiHboG1CGB60hWJFVhQrdpLGG3Y+GCcEM5eERSG2V4KzZDBBSaAmDhkhpIzJdhLff+fec6V7jnSk5/kQ8uka9P507rnnvOeqqKgQYqut8Nm7S7weh7++1e10BoPNzc0dXV1dgUBXV0fq/8Gg0+lurfc7PN42u6+isq66CBE+1bVN3R5/gzvYFeoZk2T6Ya4uZWL2pDSzqUysxBVodtc7vG2+yip8lqJ94yu6PY3OjtD03I2l3B+TRybg5EmVgEcEJo4fe5TQYbffawcFAb725d2ehubQhbmHyUzAMXnuHD9+PBR8rrjJhg86J1Pq8zT09V9YDjMBDxMK+ovLy/CZ59C473M4OxcurIaxgOMnlrJzj39XHT787KemrbGjP7GwwFPACoFjd1L/hNzechQhi2N/d0NnYinZELCc60evXz8aai3GaJCNiV+TI/XtT2RDgJRASsBy2p/zYRmBa/3tDa7E4+SAgKX01tuhgE+qZPXPGQHLCrbvwsoB81Q0yuqfUwKOnjh3rre+AkVi+fTn7VhczFTANDMB51ZyeEspSsUm5Q09ixwETGQo4OzZs9u2YyhgEHtwcVEQAakc2WPH6qGlKWvrWxRKQCrtazE1tC7dDwGIJCCVz9fiKdGa+DoeCCngyLlz7btwO8g8Nc4HggpI5eyRwz6UMMN1IEePtQKu8hSwlGtubCBkdA8IPBBdwLVrO7dgSpD2ENC4IJyAsyoBw8PDh7FMkOZacN+D/BAwPLxtPaaFacTbn4aAG4wFnEhLQCp7alFRszeBhgfpCLifowKGh3t3oaimUteRZwKGIxE/bgZmFgMC+ScgEvmzDZWlngh25qOASKS9BrWlFODKUQHXMxMQiRxAuzFVyvNWQCTSixUCmnlAZ/4KiER2/gEVNootkM8CIrd3YhwwSLUzvwVEo72VqLJu/PkuIBr9HFuHevEt5L2AaPQwOsp0JgKdBSAgGt2OShPTUBACotG3UWpCmhYKQ0B0Gx4LtFPWUSACotF2TAc0021GQE+Hu9HhcTQ6AwIKiI77UW6tQaCPWkDI71v5Gi3tv9Z1u3tEEzD+0RoUXHMQoBMQVB3WsnlCYgkYHz+I7gF1gnQC+jQ786s8+4USMD7+Q1RcmUoqAfcdpI7s2mahBIwfwIxQGQeNAJfO4Zxqv0gCxsexOKAMxdnhsU79lgvvrEACLmEYUKSGYgzoNNpk8wok4NIlDAOK6hkL2G+8puYQSMCldlRdvj1g/CxQQrG2EBRHwKU4OohUUwF9AW6ay9S5xBEQx46hbDrfbyTARddp4RVHQHwnJoTy2aDBmqCD0lKXMALicRwyk6TJSIDLRnmlYnEE4E4gncbZjXaGGqlvKSFhBMQPYKNAskdktDtM32TRKIyAeByniwgE1AIWAvSX8okjII7VIUndDDpEGugvVdUjjABMBqTTQYMusRIT12oWRkAcC4RaBLT7BJtMXKteGAHxj/AyMjUBQqeomRM4HmEExGdwukxFgNQrbGYdrVgcATMfo/QKAsRucTPXahNHwMz3UHo5AaKAaTNrKMXiCJjZgtLLCOicGLGZuJZXHAEz61F6KQG9M0NmXtTkEEfAeRB4nAqDU2N2E9dyiyMABKQE9M8Nekxcq0scASAgIaApYPXV0k76S9UJJOA8NgmkBPQEjPXQLwy0CSTgPM4USQjoChgba6O+lFMgASAgIWAgYCxIe6VakQSAgCaBOe2fmKDtGWkUSQAIaBEgCKCdENbtF0kACGgQmCP+zAzd0oBbKAGnQUBFgCxgLECzSGwXSwAIrKbcUMDYNMVxotpesQSAgJKAroDpacPTJLbDggkAAQUBAwHT0179i1QFRRMAAnIChgIMxoHSZuEEgICMAIWA6elW8pywIiCeABCQEqAScPVqF+FtQ9We/QIKAAEJAUoBqbRqdN2W2bsmRBQAAmoCNO8VnnDb5e33Nm/XhJgCQEBFgPbN0qHWkoqVWUGdzxPcPyGqABBYTaUpAStxhQKh/QL1CWoIAAEFAZNvl58V6LwAQQAIyAkI/PsC6Qo4/R2UXkKgEAXcAwEJgYIU8E8QWCVgpYBjwggAAQWBwhMAAqupsVDAHcYCItYJAAEZAWEE3LZOAAhICRSkABCQEChMASAgIVCYAr4CAQIBPQEn80kACBAIFI4AEFhNbWEKAAFNAtkVcISrABDQIlBQAkBAg0BhCfgSBFQECkwACJAJ5KmA0woBIKAiYCRglrGAa4wF3FMIAAElgYITAAKrqeMi4GiuCQABOYECFAACMgKFKAAEpATyQEDctAAQkBAoTAEgoCZQYAJAQEWg0AR8AwKPU5q5gOMCCgABBYHCEwACqykrzWJeypqAv4NAbuQlrjtDUgEgkGME+K0IPRIAArlFIAsCQCCnCGRDAAjkEoGsCACBHCKQHQEgkDsEuD8NgkCOEciWABDIFQJZEwACOUmApwAQyEUCXAWAQA4S4CsABHKPAGcBIJBzBAivk2Mm4N9KAi9/3zCbHyX1v32/ObRjw6ZnUULLCHAXoCLwxN/k+UKeW7dunVrNrVOXl/LXln3vvfEjlNEKAiYFzGQuwIiAroBTDwUsZ+O+Pz2f/U/SVu5r83ocqXhK0kyxJVlrMr3GLxWNmz48/JWSgEqAMQF6Act57XevZK/4Pk9Dh0v14+M3CvPV0iYE6BMwKWBqamrj3heyUP66toa+uYWFhQsQYF6ALgHzAqamLk/t+4Bv/SscHXOJRAIC0hSgRyAdAVNTZ86c2fd7bvUv9wcSy4GAdAXoEPhCRYBSQCpP/YxH/atKmhMJCKAT8CVJwH+IBDIRcObMxkPMHxLrHK4EBGQugEggMwFnRke3bmAKoKa+JwEBVgggEfg2UwGp7GU3EJQ29icgwBoBBAJWCBgd3f0qozmA5BYAAXQCviEK0CZAI+CyoYDRoY07yhgIsAcSEGCdAE0CBgJOUQoYnZyc/PQJy2eB7sQDCLBQgBYBCwVMTm7+pbUCSmT3AAjIXMA/1AQsFTA5udvKJQJb6yIEWCxATeBbc4uCRgKGht59xzIBTQEIsFyAmkBaAqbIAoaGWqzaNPD2Q4D1AowIWCAgZcCSPYPqxkUIYCDAgMAtcwsC2gJSBixYILA5IYCJAH0CFgkYmmzJeD5Q2wcBbAToErBKwNDQxa0ZNpXVBiCAkQA9AhYKuDi0OaOWshoIYCZAh0C6AkY1BKTyVAad5pWdEMBMAJmAxQIGB99KfwyAAIYCiARupbc5SBYwOPhhujvDmAmyFKBDwGoBgy3pLRVXNUMASwEkAgwEDA5uTmfbsBrrAWwFEAhYJmBIIiC96QDWBBkL+K8mAUYCBgd/a1pAGwQwFqBJIM0mIWMBg1vNthOWuyCA8kdH0xWgRSAzAZM6AkzfCmx9EMBawL/UBDJsEdEV8PXX5jaM3BDAXICaAFsBA7vNPBWUQAB7AYYELBYwMPC0ib0h9AlyEKBBgK2AgZZnqAk4IYCDADWBzJuEdAUMDFDPCEsoBMxBQKYC9Alksj2sJPBIwEDshbRuAxDASIAuASYCBgZ+QPk0AAFcBOgRYCRgYICqm7QJAvgI0CHATMDgTykElHVAAB8BZAIZt4iQBKTyjsm5IAQwFEAkYK0ABYHPjJsEOiGAk4B5AgFrGgQIg8BAeJ0RAQcE8BJAIMBYQPhJo16xHgjgJUCbAGsB4fAm6kEAAhgL0CTAXkD4Pf09YhcEcBOgRcC6JiGigPC7L+sR8EAAPwEaBNgKeEgg/CbV4wAEsBegJnDZ+s1BDQHh1/TeIwABHAUQCDAXEA6TN4vKAhDAUYA2AQ4Cwr8mv1QOAngKmN+lQYCHgBh5QuiEAJ4C5u1qAjwEpEI6U1DbDwE8Bcx/rCLASUB4r/6yEARwEjC/Rkkg7Taxi+YEhFu0e4mrOyGAq4D/lRsSYCTg5k3tt9V3QwBfAclKIgHWAmJPkieDzAUcg4BHApKlJALMBcRatA4Y2noggK+AT4oIBNgLiMU2ELqFZA8DTATcYSwgIo6A5PsEAla2iZEExN7Svg/kgYDb4ghIHtQmYGmbGElAbOt31feBfgjgKyD5R00CDBoENATEYus07gMQwFdA8nVlDV7hKCCmPmLqhADOApJvK2vwDEcBsX3q+4AVAk5CAL2ApHJ9uGgTRwGxF5Vvpe2GAN4CkjYlgXUs2sQIAtSPhY0QwFvAX1Q34w+YtIkRBMR+ofjrAREEHMknAeoHgqI3WW4OKgXc/LniZcMQwFtAcr2KwA6OAq5ceVG+RlwCAbwFqGeDRYd4CrhyRX7O3E0jYCzPBZzmKuCTKhWBz7gKGPmxrG/UBQGcBdw9qF6j38xVwMhPpH+7wgoBs4wFXGMs4B5jAfNJWdRTgWc3MhKgJLAiYKRF+lsl3lwQcDTPBcgGgeTdNSoCz7PdHlYKGBmRbhO0QgBvAe+rf1r+Dc4CRj5UrgpAAEcBd19XTwWe5ixgRLI4VAoBvAVo3AeKPuUsYORXklNEypeK5qGA+P/Zux+fKq8zDuDPwihIgyO5zYQL0qGoTKZoA1qDQEAEq/Jj/oCo4KrQoRkqYlFLtFIVpFG0SkRbdctsu4VpYqe9McBwpYWtpBvxzmR1zZZMU02nJl2Cc6bZst33Xri/3vPe+9573/Oc9748zz/AzTkf3l/ne56jLwEtjNBONZIAJ4H9rtjIVBKALOCx/H0AUjjGxJgXgcuXXceYTiMByALORgH7afAqx+VhmYDLrn1l3+cv4FcGF/DHgAQ8Psm4DxzgHBCQCxhyJoemkwBkAayHQahFFzAU4XwaJAHIAtoYAjIy0QUMVTsbDIW/gPfCSgDzItDAOSTEEDC0cLzPwDISgCuAdRGAXbgC7ASGxlsQrvYr4PecBXzEWcAtzgL+FZCAxyZWk58ivjExpoChN8ZfCEgAqgDW6wDMwlge9hbQ+9LY5+GQBfzG4AJ+p6mA03EsAgdECOgtGDuCggRgCnj8bWazt2oRAnrH3grnkgBMAcxnQed9AFdA79qxLQR6F3DJSAJOz2QSOK6pgH+oFNBb4lgomkYC8AQ8PsYUELmfe0yMJaC3t8n+539EAvAEpLGbve3ECQi4BIwTcJxU9LIfAX8xuIDPEQW0JbIJ1AoS0GvfWGgmAWgCWuLYAvaJEtAbb99LRgKQBHx5erpC08+3RQkYsG8nWUECkK4Bp00KAuZnYsTEWAIG7D3J14sV8FuDC/jSvwDYhRMTYwgYeNO+VMy9qej73BsKchTwd/4C8jLRAgLeAgbsO8yXkwAMAS0JisdAvCJOwNA2+6ZiQwv4WCcCOqIUBczKFCZgYGCh9HlwNQngL6DMrCggeo9AAQMDKbafsJkE8BZwdq+PI8F2osXEWAIGpJOqXiYBnAW0fNeHgCVFiCEhuYDhcttv+ElYHzAgVsDf1Ag4GefrcNBXkJeHvQQMbwEwkwCuAlqO+TwhuEGwgOHdADNJAEcBZ9PMPgUwbgO4AoZfAkiYUMfMIAsom+77nPjod0QLGF4FsIIE8BLQFgsxvglMESCg10PA8DyAJBLAR0BbK/ir8kzskJBMwPBKxyoRCdCynZwk4OxJk18AkFckYnnYU0DfIYC5JEBzAS35Uf4BQEq1DgT0RUgLhRNVwKd8BJze0QpqKrJWDwL6ngGYSgI0FNCy41giqBPwnC4E9C11I0ACQhRwti3fBDExggX8Sb0AO4G1ADkkQAMBLWX5sSr//fkJ+EUQAiQCy0lASAJa2nbsPRYHgVVKrcDlYffbQF9f7jiBsBJQUdVRc6qs7OQMRn3PR31HdT3vo3bY6/kdafnPVsbOjIEganG1bgT0bQMoDh8BFR0n8ytbk80Q5tWwXz8C+goBloWFgIqatKTpYIhKPZCpIwESgXW6F1Bak9+aCEap+bVCQ0LeAvrqAX6gbwGlpybHgXEqZud+vF5SagT0ldgI6FlAx2wjzb/tOXDPVbExMZmA2wsBpulWQEWxyVDzD5EHMq/eEB4Q8BRw+3aMnYAeBWzPjzMYgCNFV3Uo4HaqRECHAgwHIFsCoEcBt7NtzwL6E1CaZjAATe1FVwUJ6PUjoMdGQH8CahIMNf8x5W9nCuokpEJAT7QXAR0IODzbUPM/60A11lFDKpeHPQVkAazTmYBTUQZ6Aix3zr9eBfSUACzTlYDSvUaZ/ozX2vdkYh43FpyAnnqAYj0JuGCELwHZi9Pbf1ydiXzgXJACegoBlutIQE2wN4GYjKa8SUi1mFWz9r3WkL6zsX3XO7VFmcrnj+tkachNQM82NwLiBZQFvBiUmtdw5Pi5zq6Hd5z1laPujtUXzrpnrz+41UNbfeJRTz70qg+86sGDK+51U6prrhocHLw5GCYCXARydCMgLbDL7b7GXeeb738t1R1eAv4TsIBBdQLELg25CejJdRIIKwHZ5e2dzfel+tqLgIEE/AxFQM9agKk6EZCv+ktb4znH9OtCwE3VAm7oUkDPUoA5YXUNaDrSed9VQgVcMYSAvhMAc3UhoFjVw1/6ubv3uQl4MhEF9PQ8A7BeDwJOqXgXaGrvGh0NQMBdEqBCQE8EQJIOBFT5XxicdKZ5VJWAr3gJeCBSgMZLQ261CWCFeAEVyf4BjI6GgYBBlQI+E7w46FaPCgBM4leGKv2Fbh0A9Cvgmg4EDAUn4NEUgGThAmb4WW5rb8YW8OHEEfAoHiBKtIAq37uDGrpGQxZwjwQoCbDsBkgULOBorM/9l2P3AE8B9ye2gIB3D/sQYJFOLT4oNiWWo+oSEJyAL0QKEHXIRGACLHW2Yd4qVMAFs6/dd6PcBXwiVoCI5WEPAZbFUidyoWlxH28DTZ3hJyAMAgIuApIAywbbSK8RKaBGWcALXToQ8IHRBViybUO9TqCAW8pBsYZmHgIekgBPAYXSWOcI3DVWprwD944qAcJDQuIiIsGFhLwEWOzHU80RJ2BEcc9IoxABEyAk5CXAEiGN9npxe4cVLwKNoz4EUEhIOwGWldJwLxDXP0DpSWCnbgUYYXnYXYBllTTeJmEClF4H9jXrUMAVQwqQvg8DRAnrIZKk0KC7C0PAExIgVbl9yA8KElClsBPrPPs2QCEhjQR4EMizj/kPBXWSUsgMnwlIAIWEAl8cdK9I+5ivEdRLLCqQl4FwDgm9q6OQkJeAQsegF4vpJ3iKHRFrNpwAnQUEPGqjY9TniOkoyVwgiu7Uv4BrxhFg2eQY9kohAirMvm8DFBNDENAf7xh2k5C+wswvg03NFBJCFPDf/jcc424W0lm60ufbAIWE+MTEvAT0zx8b+K0CBBxl7R6ZdIdCQpxDQp4CSqLHRn71L/G7yzM/Dp+jkBCqgP6l4yO/TMAJE6zvQvsoJMQ9IuIhoP/Q+NDncxZwkXHGSKzyRYBCQlgC+qeMD/0CfAEVjK3EecYJCX2m15CQp4DxFwKAKL4C/sk4Z4j1afA4xcS0WBoKQEB/inPwt2ILuM5oKhLZTCEhjOVhNwG5rtGfhi3g+gKFD4MUEkIQYBkT0P+qa/RzsAVcZ3wV6KSQELKA8c/D9gQptoALjG/DFBLCFtBf5xp+E7KAEcbT4BEKCSGEhDwEZEW6hj/xIK6AkTTmfUCkgAdhI6BXKwGub4P2T8RBC/h5MAJGnpU3EpiwMTHMkJCHgP6V7hOQgytgRP5tMJ1CQigBAfdKd5+AJFwBI/LY4HEKCWELyFriPgFxH6EKqJA/CpynkBCygP4TnjOwGVNAt3wHQQr1ksIICXnUPM8pKA5OwF+DEtAtDws0hFtI6EZYhoQ8qtxzCr6FKaBbnhtsp5gYj15SPgQ8LUn1nIJkpoD3+QjoljebPEMxMYSQkAeBN73n4EVEAd1pyk+DFBPjGRFxE/A03nsOihEFdMtSY9n3KCaGLMA633sSkhAFdMvOo5xEMTFUAf1PrSdkV2JzKZ6A7skKLwQUE+MaE3MXYF0k/zazBk9At2yJoJF6SSGEhNwFWDfICczFEyC/CrRTTAxZwAlGeDMBT4D8KrCLYmIYERGXANZ9wPZaiCZATuAcxcRwBbDuAwA5aALkBDopJoYrYCOzv4dJWwHvKQuQEzhPMTHuMTF3Adbd7D5Pm7EEyAn8lGJi/ENCbgIKs9kE0hhLQ1wE3JIR6KJeUjgCxggUKDT9TMYSICfQTDEx/hERlwBrnlLz57eQBDAJUEwMT8DriqdA5CMJkBGIppgYpgBruiKBqFIcAQwCFBPjHRNzE7AtVfk4oHVqBVwKScDHMgIUE+MeE3MJsMb7OBawFUeADwIUE+MVEnIJUHojdFQVigBlAuEbE3tX5zExlwD28oCz9qIIUCRAMTF+ISHXRSDSJ4G4CgwBSgQoJoYgwDrF90HxMANDgAIBionxi4m5qj7DD4HppQgCfBOgIwc5xMSsql4HxpLEIbaUVCOATYBiYhxDQs7KTfVLIPkifwG/ZhGgmBjXgMB4bQH/tS5UAdf9CmARoJgYioDXVQgA00XuAhgEKCaGIiBrsRoCUMZXAJMAxcRQBFhXqhJgeyngLUCJAMXEOMXEnM+CkeoIQA5vAf4I0JGDfARYy1UKgLjtnAUoEKCYGLeAQEC3AftKAWcBbAIUE+MsQPVtQOpEWcVXAJMAxcQ4C8iqgwAq9hJXASwCFBPjLOCbVRBQzQhSwIgqAQwCFBPjFhMbExARExgB8wWeAuQEKCbGLybmEJCbAQHWAp4CFAmEUy+pcImJOQSUvAABVzFHAUoEKCbGS0BWeuACwFzFT4ACAYqJ8QgJSQK+iYdgKqGCm4B/MwlQTIybgAIIriZzE/BnFgHqJcUjJmYXcCgmSAJQxksAiwDFxLjExCQBEanBCgBzBycBDAIUE+MSE5MEvBq8AICoF/kIkBPQVUjIQDEx6S4QDaFUwnYuAnwQoJiYxgI2hSYA4FgpDwHKBCgmprGAeTEQaiWVchDwuRIBCglpKsBakg4aVOVR7QUoEZhwvaT4xsSshbNAk5p9VHMBCgQoJqatgI0bQKOqLNVaAJsAxcQ0DQhkTYkGzap1u8YCmAQoJqalgP9tqwMty3RYWwEsAhQS0lJA1qYM0Lamd2gqgEGAQkJaClhaB5pXYrGWAj6VESABGgYE6helAo+afFQ7AUoEDNRLSlxMrKRgCXCqhLc0E6BAgI4cDF1A1qYNwK8S00o1EsAmQCGhkAXUFzQB3zLVaCOASYBCQqGGhHIXZQD/mn1YCwEsAtRLKjQB9YfqYgCl4tK2hy6AQYBiYqGEhOoPbfl/e3fXmsgVxgE8sJjakIWVblHKUhCEWfDC6GaQ1DDZ+hIQlBXBVpAI0li90EIaYxrYuIRQUrOwtpct7DfY21z0Yi/7Abzrl+h9CV3S3YuNY+bMzBnf5jye//MNDs8vOp7553kSK4urB4+/mVaAkcASx8TezFmAOthohFYWXA++fj2dAEsCmCXFLUDVOsWCZ8WVWnv07OUUAqwILDwktP/Qqj63q68Y9cRQqzOq3qCkaVpp0DtPBpoxl7p/myv86buXkwqwILD4kND2CmryL4Rvf3s9kYB/TAm4EBICgWk/DB49fvbrDw4FmBJwIyYGAjOpL7787P7P9/nrEzYBV0JCICBEeV2MiYGAOARcCgmBgDAE3JolBQKiEHAtIgICghBwLyQEAmIQcDEmBgLCEHArJgYCohBwLSYGAoIQcC8mBgJiEHAxJgYCIhJYaEgIBAQksNiYGAiIR2DBMTEQEI7AomNiD7/X1fokdW/iOkHrGQSkmiV1idYbCcg1SwoEjAQkmyUFAgYCsk0TA4G7BJZqmhjPBAEQuENAbAHzmCWVRevHCEg4SwoExgjIuHIQBPQEpJwkBAI6AnLOkgKBEQFJVw6CgI7AMq4ctJ8mBgIjApJOEwMBUwKyTBMDATMC0sySCqD1bALyTBMDATYBiaaJgQCTgEwrB0GARUCqaWIgwCAg18pBEDASkGzhHAgYCMi2chAE7hKQSAAIMAkse0zMuGIABMYJSLhycAut1xOQceUgCOgJ/CfjujEQ0BOQcuEcCOgIyLlyEARGBKSIiRnXjYGAGQFaMbF2vRguKEohXKy3HS6cAwETAvMUMOvXw5rfpz+Iz685WTkIAmwChGJimabXcJRmhn/pZBGtNyFAQ8CbdJe5GdB7kOZdPw4CTAJkPgP6QbPjBPuci2dBgEVA5JDQmIANr8V5knyrh0GAQYBMTMzmDU+Aa/k0CBgJkImJ2TavyLN+HAQMBMjExGr2Z6pxrB0FgbsEyEREMhxLghMZ+8WzfrR+nAAZAXGuiaXbcdvVwyAwToBOTCzJd6qk7fJpEBgj4HJMzEFIqJXiO1WqZbd+HAT0BAjFxJK8x0raLaAHAR0BSjGxKO+xoiwBV29BgEWAUkRkwH+uqrUAEBiVh1JIyMGP+S1rASCg+8SkFBNT+M+lGF8OggC7PiUUE4sn+M+VUC0FgMCoYoSmiZWcHKxkKeDtBlp/e5FGJCb2ISq66uRgPUsB/4LA6FmA0ByZjpODdSwFgIDuHo3QJKG6k4OdWwoYgsBtrW3SmSXVmZDAO6MAENDVnugxsdG/jDh6FuhbCgABXf1BZ5rYZL8ImAJAQFcv6EwTi4f4jxXKWwoAAV0dEJomFnNw32EtAATuXAxQmSTkYDpMwFrAMIfO35b3lM4sKQfPgz2mgLcfBQxr6PyofqczTSx+xHuooGotAAT09aOwMTHjBAHulzt+GwHDJBo/qgqhaWJpD9+ZPGkbAUP8c7m+jglNE/M7+BCwEjAMo++6uiA0SahV4Xr3lbcTMIyh7/o3RZt0Zkn9terl+JHTsxWQD6Hv+qpTmibGcaezYStgOEDXx+o5qWliXbvjdO0F4HLQ8EAo7tJJ40jBuM2TXFhlBgTG6rqBpo/XNJKkCAAAAspJREFUiYgxMdNlU3HLHYMBDgE3aS+afqf2aa0bq5leD3hqVxyfAde4GGI8DdBaOagVTD7ONC4B1z603PiigNrSyT7jh73St3w5OBJQRcMZt8Rl4WJidksnq93I2O3GZfWKU8B1Ew1nXRESXDoZrya7jWgwGG10k1X16sru1dBHAYM19Jt1o3ZMdemk9X8NMQTcnKHd7Hv1MtmFcw4F9NFskzqQREA+il6b1atlF/CBwM0N/qfYvELHJJdOOhQwwMWgRQX3xIqJzUNAC18D1o+EuwSXTlr876hRwA2uBGxKOSW5boxfAB4EbKtQXmoB57gU4nhhdLrEAvqIi/FUbJeggHdcAqoJtJerfHu0lk5yC+h50Fze34bHrsXE5ibgPYEOvgUc3BEdChgQmFZADldCjupiU1QBf04mQM2iqU4fCp8ulYA0EsPOy3NIUwDz5WAviIZOUs1dEQT8Pb2AfAAXQhNW5NWmSDGxSQUMEBee5pXBvtgBAQ4BrQB+CUxV3otd2iGhczwFTP9t8EuZroABfgjM5rIwV6YZE8sgGzCzqhyW6cXEtC4eAmb6SeDfnbmAucbEqk0AmHUlsiWxY2K6/qsdBQ2by6+Dk3qZQlBQ81fQrLlVKrAveEgo3znBN8CcK5ZrCytArWZT6NAivhCUF3sCClB7WVwDLbC2/U+FCgq2Opf4+194HR0ctoUICqpVv4Lvf7fKF1g/dTUomK8mmxH0weUnA99BLhN3IyiY7mw1kAoXpTzPt+ql+MJCQqrWKZ7hx7+A94ex7sb6XnyuAlStn8s28P8AYn8gxMLFXL+Un7GAvNbLBc528MFP6BEhqLynUH9SSk8jQE1n+jX/5VkshfQf4QoFtwvhgD+Zq99bHZTarbi5gHy6XRqs9ju1nD8bPolVImj8UtZawhNJBY8q0R1fTFGU2LZvJ1qpBIOpCH7co+Sr/wHFUOkOcIFVEwAAAABJRU5ErkJggg==;" vertex="1" parent="1">
          <mxGeometry x="370" y="579" width="55" height="54.79" as="geometry" />
        </mxCell>
        <mxCell id="Oy2jvIcbdFQ_JYFm3saa-7" value="" style="shape=image;verticalLabelPosition=bottom;labelBackgroundColor=default;verticalAlign=top;aspect=fixed;imageAspect=0;image=data:image/png,iVBORw0KGgoAAAANSUhEUgAAAgAAAAIACAYAAAD0eNT6AAAABHNCSVQICAgIfAhkiAAAAAlwSFlzAAALEwAACxMBAJqcGAAAABl0RVh0U29mdHdhcmUAd3d3Lmlua3NjYXBlLm9yZ5vuPBoAACAASURBVHic7J1ntGVF0YaflyAZRECyKJJzBkGUIEiOIkFRggqKiAFBkiThwyyIIipREEGQjCSJknMSJCg5SNBBMjO834/ugWGccO/p3umcftY6C2bm7uq6956zu3Z11VuyTaFQKBQKhcFikqYdKBQKhUKhUD8lACgUCoVCYQApAUChUCgUCgNICQAKhUKhUBhASgBQKBQKhcIAUgKAQqFQKBQGkBIAFAqFQqEwgJQAoFAoFAqFAaQEAIVCoVAoDCAlACgUCoVCYQApAUChUCgUCgNICQAKhUKhUBhAJmvagUKhUCgUmkTSXMCmwDrA3MDswEyAMi81CngGeAp4ADgbON/2fzOvMyRUpgEWCoVCYRCRtCLwPWBN8m/2Q+V14CTgANuP17lwCQAKhUKhMFBIeh/wa2Dzpn0Zg9eAHxECgVF1LFgCgEKhUCgMDJIWBM4D5mval/FwIbCV7RFVL1QCgEKhUCgMBJIWAa4B3tu0LxPhLmCVqmsDShdAoVAoFPoeSTMB59L+zR9gceAkSZXWJZQAoFAoFAqDwEnAvE07MQw2AvaocoFyBFAoFAqFvkbSOsCfm/ajB/4LfNj2s1UYLxmAQqFQKPQtMY3+/ab96JHpgO9WZbxkAAqFQqHQt0j6CHBt034k8F9gFtuv5zZcMgCFQqFQ6Gc2adqBRKYD1qjCcAkACoVCodDPrN+0Axmo5HsoAUChUCgU+pkuVf6Pj0pEi0oAUCgUCoW+RNIMwFRN+5GBuaowWgKAQqFQKPQrszTtQCZmq8JoGQdcKBQKhX4lZY97FFgwlyPArMDDPV5byV5dAoBCoVAoFP4X234tlzFJ2dv4UikBQKFQKHQISXMDywHzM7xj3JeA24DbbL9SgV9zAMsDCwCT5rbfI/1yBFAJJQAoFAqFDiBpU+AI0gvCRkk6H9jZ9lMZ/FoX+AXwoVRbLaPvVfJKEWChUCi0GElTSToR+BN5qsEnJQyauUfSpxL8mkLSb4AL6L/NH6DSSXxtoAQAhUKh0G5+AGxbgd0Zgd9LWqLH6w8EvpDRn0LNlACgUCgUWoqkNYFdKlxicuAESZMP5yJJKwK7V+NSoS5KAFAoFArtZX+qT0UvBWw4zGv2oT2FfoUeKQFAoVAotBBJkwDL1LTc8hV/faGFlACgUCgU2slCwDQ1rbXsUL8wtvtVokxXqJcSABQKhUI7eU9L16rTr0KFlACgUCgU2sk9QDYluolw81C/0PbDwPPVuVKoixIAFAqFQgux/SZwR03LDTkA6PHru0gRAioUCoVCY/yohjUeBM4Z5jU/qcKRllGEgAqFQqHQDLZPB/5Q5RLAjsOdDWD7YuCYalwq1EUJAAqFQqHd7AJcUYHd14Fv2L6qx+u/BVyc0Z9CzZQAoFAoFFqM7ReANYBdgZczmb0RWNb24Ql+jbD9SYIc8IhMfrWJvq8BkN3332OhUCj0BZKmAJYgbRzwzbYfyezX5MDitG8c8IzA53q89hHbH8zliKTZgF6nL46w/d5cvoymBACFQqFQ6EskLQTc2+PlfR8AlCOAQqFQKBQGkMmadqBQKBQKhYoYlXDtByT9J5snaW2FKd/HeCkBQKFQKBT6lecSrhUwQy5HEvlXFUbLEUChUCgU+hLb/ya0O3adx6swWgKAQqFQKPQzWTseGuIfVRgtAUChUCgU+pkLm3YgA5V8DyUAKBQKhUI/c3bTDiTyGhUpLpYiwELfI2lmYLH4x2eAZ6K6WiuQNB+wIjB7fI0g9C7/DXjA9hsNulcodJ2rgH8CH2rakR75o+1cCpDvoggBFfoGSe8BFiYopS0e/7sEYVMdm8uA3W3fVp+H70bSTMABwM6MPxgfBTzEOwHBvfF1n+2XanCzUOg8krak2qFKVfE6sGBu5cbRlACg0Ekkzc27N/nFgYUYXlbLwLHAl2y/ld3JCSBpCeBKoFd1LwOP8U5AMPp1T5uyG4VCG5Ak4K/Ayk37MkwOs71XVcZLAFBoPTGF/wlgFd7Z7GfMuMS+tg/JaG+CSJoauIUQsFTB3YQMx2XAlbZzipkUCp1E0lzATcBsTfsyRK4CPmH7zaoWKAFAoXXEVP4qwFrA2sAypKloTYyRwMdtX1vhGm8j6TeECWp18BZwK/AXQkDw1+HOfi8U+gVJKwGXA1M27ctEeARY3vazVS5SAoBCK5C0MGGzXxv4ODBNzS5caHvdqheJU9NepLkb0BvADYRg4C/ADaXIsDBISFoROIv2ZgJuAjax/WTVC5UAoNAIsQDuE7yz6c/VrEe8YHumqheRtBzhA94WXiGcjY4OCG5xuSkU+pxYQ3QKIdPYFkbXJH3V9mt1LFgCgEJtSFoB2Jh30vpt06GY3/aDVS4gaRfgyCrXSOQx4GTgJNv3NO1MoVAlkjYD/g9YoGFXLgH2rLsrqQQAhUqJM7C3BbYDFmnWm4myju2LqlxA0gHA/lWukZHbgd8Bp9judY55odBqYofAirzzcDI3MDPV1R2NJOiRPAicB5xV9YPH+CgBQCE7sYhvQ2B7YB1g0mY9GjLr2q5UNrRjAcBoRhGOCH4HnFn0Bwr9jqTJgPeRP0s5knDcWGvb8fgoSoCFbEhamvCk/xmg8vP0Qm1MSujIWAt4RdJZhGDgEtuVzCkvFJrE9kgqGsHbJkoAUEgi9uh/hvC0v2TD7hSqZ2pgm/h6RtIfCPUCNzfrVqFQGC5tK8IqdABJk0naUNKfgCeBn1E2/0FkVmA34CZJ90raWVLb+6sLhUKkBACFISNpOkl7EirFzwE2BSZv1qtCS1gIOAp4WNKekqZv2qFCoTBhSgBQmCiSZpS0P0Gd6jDaK6BRaJ5ZCe+RRyUdKmnWph0qFArjpgQAhfEi6f2SDiNs/AeQV3+/0N/MAOxFyAj8QlJXR7EWCn1LCQAK/4OkuSQdDjwM7AlM16xHw6IV7TUVcStwKdCl4T5TAl8BHpB0kqTFm3aoUCgESgBQeBtJ80o6mjB//mvAVA27NDHeIojVHAlsTRDwuLpRj6rlEttrEfqTFyQILB0BXAfUIh2awKSEbpE7JJ0rqU0SrIXCQFLaAAtIWgjYm7CJtvk98TJhkM01BP3662z/d8wvCKJe/U3U6r8/vk6Ct4cMLQasACwf/7sI7RNhErABsIGkqwnzzi9o2KdCYSBp882+UDGSlgT2BTajndmgp3lns/8rcHsU6CiMRZwZflt8HQ0gaVpgTcKGuz4we2MOjptVgVUlXQRsbfvfTTtUKAwSJQAYQCS9DzgU+CLt2/hvB04HzrB9X9POdJko2Xs2cHbUO1+a+PQNLEd1WufD5ZPAjZI2tv23pp0pFAaFEgAMEHET2IHQpjVzw+6MyU28s+k/1LQz/Ug8Nrg1vg6K7XnrEYKBtWi+0HM+4ExJi5YsT6FQDyUAGBCiTv8vgZWa9oUw9/o63tn0H23Yn4HD9jPAccBxcXjTx4CNCBK/Tc1xWIAQoP66ofULfUx8AFoKWJdQIzNbfA1VvdKEDpwngMcJBcfn2u7szIASAPQ5kt4LfA/4Ms2m+98ifGBOB/5k+8kGfSmMge03CO2Fl0ranTAWdQfCaNS63zP7UgKAQmYkrQ38nBBkpjAbQfUS4PPAW5KuAr5ru3MdSG07/y1kQoHPA38HdqG53/V9wK7A7LZXs31k2fzbi+03bP/R9rrAPMB+wD9qdGHuWLxYKCQjaU5JpwEXkb75j4tJgNWAqySdI2muCtaojBIA9CGSliA8bR8PvL8BF94CziM8QS4SN/3OpskGFduP2/4e4Xx+DeBk4NUalu7UTbTQTiTtRngA2aKmJTcEbpb0kZrWS6YEAH2EpOkl/YxQ6NWE0MoIwmTABWxvaPuSWHxW6DAOXG77s4RWwq8AVY7/fU+FtgsDgKQvEu5FdWeTZgUul7Rezev2RAkA+gRJ2xDS/btRv/jLfYRjhrlsf6NU8vcvtkfYPsr28sDKhExPziDvaeCujPYKA4akFQjn/U0xBXCKpEUa9GFIlACg40iaQdKphPRsnVP6DJxP6OFexPYvY995YUCwfZ3tDQmV1acAozKY/XPJGhV6RdL7gTMIm3CTTA+cI2nqhv2YICUA6DCSViII53y6xmVfBg4npPk3sH1xuWEPNrbvtL0NoTr6N8AbPZp6jTDXoVDolT/QnhqSDwPfaNqJCVECgA4iaRJJexEK/T5Y07IjgV8B89n+uu0Ha1q30BFsP2j7S8C8wE8JweJw2NH2rfk9KwwCUetk9ab9GIs9JLVJdO1dlACgY0iaHbiEIOVbl47DHwlp/i/bfrqmNQsdxfYTtr9JaCM8GJiYxv+rwLds/75y5wr9TF3V/sNheuBzTTsxPkoA0CFiZekdhJasOrgcWMH2p20/UNOahT7B9vO2v0sIBL4CXMC7xxa/QMgqfdj2TxpwsdBffKppB8bDxk07MD6KEmAHiFKt3ydU+NcxwOV24Du2L6phrUKfE0c2HwUcJWkqYE7gCdt1aAoUBoCofTJ/036Mh1UkzdjGaZclAGg5khYgVFgvU8Ny/yQov/2+FPYVqiBu+pXWj0hakFCQ+Hx83W87R4dC3xCHQS0DzDCRL30FuMP2IwlrTRfXqnIc9QYV2k5lUkJwcmPTjoxNCQBaTJTyPZLqxSyeJcwL+FXUhS8UOoWkyYDvEIYZLTzWP/9d0oHAqbbfqt25liBpCuBA4DMMs1Je0nPAucDutl8Y4jXbAXsAC1KOm+ds2oFxMei/lFYiaVpJJxGkfKvc/E2YEDif7SPK5l/oInHg1Z8JBYdjb/4QNqDfA7dI+lCdvrUFScsCtwF70lub3MzA9sA9ktafyFqzS7qAMG1yYco+AzBH0w6Mi5IBaBmxyv98YOmKl3qQ0HZ1VcXrFAqVEYVWrmXcG//YLAXcKGmzLk5u65UojnMhYRNPZTbgTEnL275jHGtNQugaakKKvFd2Ai4ewtcdQsgw9cLkPV5XKSUAaBGSFiVUSn+gwmVGEXq0v1uKsAp9wC4MbfMfzcyEscc72z6uIp/axq/Is/mPZnLghBgEvDnWv32Nbm3+AP+y/fDEvkjSf2vwpVZKaqYlSFoN+CvVbv73ACvb/nbZ/AtdJ44N3qOHS98DHCvph/GJtW+Jk+k2rcD0koRagjHXmpxQS9Q1Brbgua/f/F0hDvK5CHhvRUu8CRwELGO7dZWohUKPrEHak+3uwFkxkOhXVqrQ9vJj/XkxYJoK16uKOlqrW0kJABomSvqeRHUjUG8BlrO9fynyK/QZOdLaGwLXSpong602slyFtsduTa5yrUIFlACgISRNKulXBEnfKiLQ14C9gBVt31mB/UKhaXKday9OKA5cMZO9NjGxPv8Upq9xrUIFlACgASRNA5xNqD6tgpuBpWwfVgRQCn1Mz+I04+D9wF8kfSKjzTZQ5XClsbsAyiCnjlECgJqJClxXAhPspU3gt8BHbf+9IvuFQlu4AHg9o71pgPMkVVE01xQ3V2j7trH+fAsDXFDXRUoAUCOSFgKuB5atwPzrwBdtf9F2zptiodBK4oyBCzObnQL4Y1Sx6wf+AjxUgd0XgVPH/AvbIwgaAIWOUAKAmpC0KkGw5IMVmH+U8NT/2wpsFwpt5svA45ltTkpoE9wts93asf0ysB2QWwL567YfHcff7wL8K/NahYooQkA1IOmjBKnSKlpkLgW2tv1cBbY7Q9Q5/ygt1dzOxK6SliKMab4MuHXQazxsPyVpA4KGRs52PgE/i1PcDshot3Zs/1XStwkTRXPc848an4iS7eckbUvIDlTV1pyb70v6zhC+LkVGupUzKEoAUDGSlidI++be/E34QO87qJuApMWBtYG1gI8BUzXrUeVMDXwyvgBelHQVIRi4nDC1beDOYG3fIWkt4EyCVG1O9o+zBr7R5Z+t7Z9I+itwImE2Qi88QzhmPHcia10cVU1/C6zb41p1skANa7TyAa0EABUSZ1RfxP+2y6TyIrCd7TMz2201UdN8bd7Z9HPf7LvG9IQxqKNHob4g6QpCVuhM20835Vjd2L5e0grAOQTN/5zsBkwtaaeOBwE3SlqS0K+/HMMYB0woJrzB9ktDXOtJYL14D1w+rlflOOCF6D2wqYMnmnZgXKjD7+dWEwv+riS0F+Xkb8Bmg1LlL2lGYDNga2A1wvlsVaxrO3dR2buQdACwf5VrRN4CriCkYs+w/XwNazZObLH9HdXI3x5u++sV2C0kEicUnte0HxNgXtv/bNqJsSlFgBUg6cOE6tvcm/8fCcI+fb35x3HI20g6B3iakEpck2o3/35jEoJU7tHA05IukPQ5SbmzUa0iFr1tThDYys1ukrqodT8IXAKMaNqJ8fBQGzd/KAFAdiTNTdj8c89/PgLYcqgpuK4haTJJm0g6lXDWeDJBprUqieRBYjLCWewJwL8knSlpyzhKt+9wYB/gswRFzJzsI2nPzDYLiUSZ8wnWJjTI2U07MD5KAJARSbMTCrJy64ofYHu3Lp8/jg9Js0raj6DqdibwaUKxWxPUUUz5Yg1rTIgpgE2APwBPxIl4VU6gbAzbJwOrEwLKnBwmaZfMNgvptFWD4PdNOzA+Sg1AJiTNTDjzXySjWQO72f55RputQNJKwK7Ap2jPU/58tqsQTXkbSWsSivTaxChC8PUz29c07UxuJM1H+JnnDMwN7GD7+Iw2CwnEVuDHgFma9mUMTre9RdNOjI8SAGQgtgldBiyd0exIYHvbJ2W02SiSpgS2Ar5KNWqIKbwKTGu70n5dSTPR0pagyM3Az4DTbL/ZtDO5kDQX4Zx4oYxmRxE0ONr65DlwSFqd8HtuQ73QG8Bith9o2pHxUY4AEpE0HUGONOfm/xqh0r8vNv9Y1Lc3ITo/jvZt/gAXVr35A8Rq/D9UvU4CyxHGUz8iaZ+Y2eo8th8HViXvwJpJgZMlrZ3RZiEB25cDezTtR+Qrbd78oWQAkpA0FWHz/1hGs/8FNrR9ZUabjRB/PrsQPpBtSsuNzevAIrb/Ucdi8Wn07zRX6zAcXiUUoB5m+z9NO5NK7II4jxAM5OJFYGXb92S0WUhA0u8JrcNN8WPbuze4/pAoGYA0fkPezf85YPWub/6SppC0K/AP4Ie0e/MH2LOuzR/efhrdBni5rjUTmArYE3hI0jfjOWtnsf0iQUnxzxnNTk+YIpi77bfQO18gqGM2wSHAtxtae1iUDECPSPom8OOMJh8D1rZ9X0abtSJpcmAHYF9grobdGQqvEwq5GqnSjapsp1GPFGkuHgH2A06u48ikKuJ79SRC10kuricE8LlbDws9IunzwA/Ir8kyLl4Cdo7dJ52gBAA9ECu5LyJfocn9wFrjma7VCSRtDPyUtIEZdfEk4eZ/jO37m3ZG0kcIxZGrE7pI2lDANDHuAL5TtXJilUialFCP8amMZk8DturHlt2uEou0DwV2opqs90jg18CBtjs1CbEEAMNE0gcJldIzZTL5KLBKTAt3jthidQTtHfph4D7ghvi6HrirrQOUojjPUoRivNEa6gvQ3uO6ywhHKDc37UgvxEzAWcB6Gc0eGoWICi0iDg/7FOFetSxpn6nXCBMozwbO6uz9uwQAQyfenK8Flsxk8nngo11M+8cCv70JZ11tOhceQfhgXk/Y8G+03VaJ0CERO02WIQQDKwGfoF2jVg0cRcgI/LdpZ4ZLbE+9gJCBycV2tk/IaK+QkZj9mYUwUGzKIV5mQsHnU/1QEAslABgWkv4AbJnJ3MvAmrZvyGSvNmK6/2fABxt2ZTQPECq7zwOu7qf+9XEhaTJCFfsGBLnk+Zv16G0eI5yBXtC0I8NF0rSE/vGVMpl8g3Csd1Ume4VCdkoAMEQk7QF8P5O5kcBGtnNWIleOpA8Bv6D5dP9IwlP+ecC5bTjHbxJJCxACgQ2Aj9L8mO+TgK93bQJhPCu+nHzjhJ8Blrb9VCZ7hUJWSgAwBKLQxwXkKc4y8LmuifxI2h44HJiuQTeuA44lyGv2RQouN3ETWxf4TPxvU7UDzwK72j61ofV7QtIswFXkUwy8kpDpa2XNSWGwKQHARJA0L6Hob8ZMJne3nbN9sFKidO2vgc0acuFp4ETguC7WSjRJHPKzY3zN2ZAb5wBftv1kQ+sPG0lzEoLNuTOZPMz2XplsFQrZKAHABJA0DeFGsHgmkz+03RaZyoki6ZME6d7Za176TUJ6/1iCRO/ImtfvK2LB0/rAl2gmKzCCcCRwfM3r9oykJQjHTDkyXiaoe56fwVahkI0SAEwASX8kX4/wCYThPq3/gccK/x8QhvbUyX8I1eRH2H665rUHgoazAscR9NE7IZQjaT1CBiPH0d8LhHqAzmp9FPqPEgCMB0l7AodlMnc+sEkXnmSjOt0pwMI1LvsEoavg6C62kXWRmBXYmqDqV6cS4e3Ap6oeu5yLKGl9RCZzNwCr9nuXSqE7lABgHEhaCrgRmDyDuesJRUCvZLBVKZK2Bo4h6L/Xwb2EWQEn236jpjULYxADgc8QAoH5alp2BPB522fXtF4Skn5OvmzYEbZ3y2SrUEiiBABjEZXBbiKP2E8n2oDiJvB/1DfA4i7ChnNOF45EBoH4HtiWMMfhwzUsacIx0z5tr5CPP5tzyKcWuJntMzPZKhR6pgQAYyHpQOC7GUyNIgiBNDWRakhImpGgh17HTPOnCBv/cV0eJNPPRJGhbQm/pzrmOlxB0M5/poa1eiaqMf4VWCKDuX8Bi9p+LoOtQqFnSgAwBpKWJqT+cwip7Gv7kAx2KkPSogQt66qf+F4GfkTogujCCNyBJwYC2xFGm1Y9Se0p4NO2/1rxOknEOSC3AzNkMPdH2zknERY6Tmy5npMwZ+ZfwBNV652UACAi6T2Efv8cLX9/BtZvc3pb0maEzoRpK1zmLULl935tPwYpjJuYIToM+CKgCpd6gyCQ1WrhoFgnk2t89Ja2T8tkq9ARJE1CkJzeGPgIYdOfk3HPVHmFUCT9OEFU6hzbt2XzpcV7VK1IOphw/pnKo8AybZZBjbLGh1HtDf1agi78XRWuUagJSSsBvyLfIKxx8Rawm+0jK1wjGUknEo5JUnmOcBTQqRGyheET60jWI2z6G5KWVXuMUJNyFvCXlAfNEgAAkpYlVOunpv7fJLT5tHbAj6TDgD0rXOJlwpTAI8s5f38RjwW+BhxItZmjQ2znCMYrIdYD3A7Mm8HcmbabUtks1ICk9QlzZBatwPyNwLd7HTo18AFATP3fAiyWwdxutnP1DGclpp2OIqjBVcWlwJds/7PCNRonboSzAnMQgr4ngWfbfOSTE0lzEXrjN61wmWOAndraIRAzIleTp17oM7ZzHSsUWoKk5QhtzqvVsNy5wJ627x3ORSUAkA4hPLGmcrrtLTLYyU5sbfwd+UYZj81/gG/ZPrYi+7UTf2arA6sQNvo5CJLIcxDmiI8tpzuSMLfgyTFejxGColv6MTiQtAHhWKAqRcFzCB0Cr1ZkPwlJ+wIHZzD1ArBYqZPpD+JD5c+pvm5mbEYRAo59hpp9HegAIEZo15Mu9fkAsGwbVewkTQ2cAaxT0RLnEp7UOn/ziqnddYFNCOd1Oaq9IRTxjD6zu6KfRI8kzUwILqt6f/2VoKPfuumPMat2BbBqBnNn2a4yo1KoAUmzAn8CVm7QjT8DW9seMbEvHNgAQNIUhNR/6rnMq8BKtu9M9yovkmYgyBCvUoH5Nwkpp59WYLs24vjcLQmb/hrAeype8kXCaOmzgT/1QzAgScAewPfIkxIfm7uBT7ZxomCcrXAH8N4M5taz/ecMdgoNEGvJzgLmatoX4O/ARrbvn9AXDXIA8H/AdzKY2sn2rzPYyYqk6YHLgGUrMP84oYXp2gps10IMAHclHP/kGvU8XP5J6Dw5pR+OCCStTBCVyjVGd0zuAz5m+9kKbCch6dNAjvbFBwhHAZ0PCgeNeBx2GvXJqA+F/wAb2L5mfF8wkAFAHHhzC+mp/8ttr5HBpazEtP+F5ElNjs0lhKKl1t2Ih0JM236WcHb7gYbdGc2thGzKpU07koqk9xH0JTaowPytwOq2X6zAdhKSjgW2z2BqL9u5hpAVaiDuJ9cA0zTtyzh4FljB9sPj+sdBDQAuIl369lVgCdsPZnApG7EA5Rzgk5lNv0XYNA/qanufpHUI7Tg55Fyr4GJCIHB7046kEI8EvkmYL5FjoNaYXE04DmhVYaCkaYHbSB+o9DKwoO0n0r0qVI2kWQizY+Zp2pcJcBewsu2Xxv6HsSuZ+x5Ja5FH9/7AFm7+kxJG+ebe/P8NrGv7gC5u/pJmiUHfn2nv5g/hfXmrpKPjEUUnceDHhAzU05nNrwqcHrs0WkO8uW5DqI1JYRqCbHah5cSHrT/R7s0fgrrtSTEwfxcDFQDEH8APMpi6HfhxBjvZiN/bsUBuUZFHgFVsX5zZbi3E0c43U8+woxyIoNVwhaTZmnYmhSiI9RFCQVJO1gNOjMc5rcH2TeQZJLaVpI9nsFOolh8CH23aiSGyMeOoeRuoIwBJ2wInJpoZBaxo+5YMLmVD0pHALpnN3kqYaZD7Ka4WJH2KcB49ddO+9MjjwMa2b23akRTikJPzCPrnOTna9s6ZbSYRg5K/kC7+cjdhlPjIZKcK2ZG0MCG1nlpHVicvAfONOXmzVRF0lUiaktCmlMrPWrj5H0j+zf9C4ONd3PwVOJBQldvVzR9CO9HVscq8s8S5GGsSNCNyslOUtm4N8YhsW8LNNoXFgK+ke1SoiMPo1uYPQb77XRmqgckASPo26en/fwCL234lg0tZyNiCNCbHEAb5dO7pQ9I0BGGafhNVORjYv8vtgrFG5SiCQlpOvmX7J5ltJpFJJfA5YN42CowNMpI+RpjMVwX/IewzC1JNV8FIYBHbD8CABACxNekh0sU61mpTq1Y8376GvE+5+9s+KKO92oga/RcRBH36kR/a3qNpJ1KRtD9wQEaTo4C1bV+W0WYSsRX3ftJlkjv7eexXJN0Ad1FOUAAAIABJREFUrJDJ3FOE8dI3x9dDth2PkhYi6LgsR8gq5dIreUe23nbfvwgFe058Hd/09zHW9zQLoUAv9fsa8/XNpr+vxJ/JkZl/Hm18fa7pn3Om39UXCE8juX4uzwJzN/19jfU9fj7D9zUCeF/T30t5vf07XS7je/bkof5uCTNIzs+07ihgVtv9XwMg6YOkn4//i9DX3ApiC9Tp5BWy2dMtS6MOB0lfIn8dRBv5dZxE12ls/5YgyJSrrXRm4IyWtU/+jqANkML0VDu+uzA8Nspg41lgc9ufsf3CUC6w/aTt9YEdCXLiKUxC/D76PgAgFP6l3hS+PtRfVE38HPhYRnv72M7RHtkIklYlPP3XxVuEaX83E3TgnyVE1nUwBXBmHMnbaWz/AchZxb889b4PJohDQeDuGUx9VdLsGewU0kkNAF4Elrf9p14udpi4+jEgVS56E+jzGgBJyxBu0ikjGW+yneu8JxlJOxMKqXJxgO0DM9qrFUnzEJS4ZqloibeA6whDPq4mtOY97bHm1EdRkDkIWZm1CB+wxSryCUKL5qpuUUFqr0j6FnnFb74YMwytQNK5pEsj/8L2V3P4U+iNeK95ONFMlvdmhiLT14GZ+z0AuJTQfpTC2rYvyeFPKpKWJxT95VJB+57t/TLZqp3Y2nk9sGQF5q8BjgfOsf2vXgxI+jAhEPgioao3N6fa3qoCu7UT2zZziOhAuLmt6iDM0zixZ/xO0iYlvkGQCH44i1OFYSNpV+CIBBMX2c4yNjsWPF9P2rC3Lfr2CEDSJ0nf/K9o0eY/DaFoJNfm/4Mub/6Rr5N/87+bMH/+o7Z/2+vmD2D7IQdJ3MWAnQgVvznZMs436Dy29wcOz2RuCkI9wMyZ7CVh+17gN4lm3gPsn8GdQu8snXDtfwmFr1lwaNHejlBI2yvL9G0AAOyVwcbeGWzk4nBg/ky2TiXPKOTGiOpyOb+HpwjT3Ja0fV5Gu9ge6TAyej5gH8LAl1x8v22SuAl8gyBnnYO5gT9E7YE2sD/pxVvbxqxSoRlS6jCusv14Nk8A23cTapB6ZfZ+uXG8i9gf//FEM+fZvi6HP6lI2oxQ/ZmD64Ht3P2zn32AGTLZuh5YxvbxrnDYke1XbB8KrEJo4czBEoRq+s4T35NfBP6YyeSatOSp2WF8dqpq4aSEIKnQDHMkXHtzNi/y2Z2jLwMAQmo4BQP75nAkFUlzkp4+HM3DBG351zLZa4TY2plLJvUEYDXXKHls+w5CxfrVmUwe3LL2t56JAdhngKsymdwrPhC0gZ8Cjyba2D4KmxXqJyUD0MYAoP8yAJJmBbZONHNqvEk3SpzwdwKQ4wM/gjDYp+cz7RaRo7UTgvbBdrZfz2BrWMQnwjUJv99UPgDsmsFOK7D9JvBpQqtlKpMBx8SiqUaJgXfqseLUwJczuFMYBlF7JaWmpI0BQF9mAL5MKJjplZHkq0ZO5VukFzJC+J62sP23DLYaJT7NbZPB1E+b1j6IG92OQI5C070lpUpdtwaHiWWfIr3fGWAZ8vTj52C07GsKu/ZLxqdDTEPv7eQjCXMdqiClsHjavgoA4ociNTo+3nFQQpNIWgQ4JJO5XdvSzZCBfUnTdYAwL+DbGXxJJuoJbAmkvudmBPqqTzzW4OQ6895f0gKZbPVMrHP4VqKZWemTuo+uYPs/9B6MTgYsmtGdMUk53nq6rwIAQur//QnXvw60ZfDGL0nLZIzmZNu/ymCncSRNBaybaOZ+YKuxhXyaxPa/CQpjqVXim2Vwp1XY/iVwYgZTUxKOAlKDx2RsXwWcnWjmm234XgaMZxKuXS6bF/nsPtVvAUBq8d9Rth/L4kkCkj5HehcDhKfKnFKrTbMWaZMPDWwdo/lWYfs+0t+/S0e1sn5jZ9I19QE+Sr7i0VR+mHj9IqQHw4XhkVIoXAKAKpG0OmmiMC8Dh2Zyp2fiOW7qzQFCNmNL2y9lsNUWNkm8/g+2b83iSTWcQBAiSmHjHI60CduvApsDOeZxHCYp5xCtnrB9DWk93NCeuoZBISUAWDGbF5Go/7F8gokn+yYAIP3p6aRYmd00h5J2jDGa3W3neGpqBVHQZcMEE2/SktbO8RFb4FIFrFKDpFZi+5+E9sBUnYZpgaPTPcrCLxKvXz3KDBfqIaVOZ2lJqd1pY7MbMGfC9Y/1RQAQ1bFSh238MocvKUSt/50ymDrTdmumomViZdLacH5l+x+5nKmKqEKYog+war/2idu+kDxDg9aJx2xNczKhPTeFHXI4UhgSFyVef6Sk2XI4ImlB0ovEL+6LAAD4Gmmjja+2fWcuZ3ohpnOOIn1E8yPkUw1sE6lPtjmnzVVNyhHQZMD6uRxpIfsTCjlTOUxSSj1JMnGS4/GJZrZtg8bBgHAlkDJ9831kEHWL2dATgKkSzDxi+7bOBwCSpidouKeQmorLwZdJm+wEocjt87GqvN9YL+HaW2ynKrDVySWkzQtI+Vm1miim8wXCez2F2Qkp1Kb5JWnfy6z0d8DXGqJg2GWJZjaQdECv8zvi2PEjSK8pOAvSnzbbwI7AdAnXPwX8KZMvPSFpWvJolh9r+8oMdtrIhxKuPSubFzUQN7kLE0yk/Kxaj+2ryXNkt4ekGTPY6Rnb9wOXJpopxwD18ecMNvYHrpY033AukrQkcBN5Oln6JgBIPcv7TVRka5LdgFkSbfwL2CODL60jjnVNUT7rVAAQSfE5ZWhJV/gO6br676UdUzFTg5n1cp0tFybKKaTrdUCoabpd0lcmdoQjaQpJewM3EoZ/pfI0sc5IXR4KJ2l+0s4DRwLz2M6hOd4Tse3vn4SbUQqftX1yBpdaR4x8b+/x8kdtd643PhbyPd/j5W8CU/TBxMcJIumTpGVKAF4F5mv4HjAp8A/CTIde2cN2jvbhwkSQdBCwX0aTrxFaQm+Or4eAhQk9/ssCiwOTZ1zvq7Z/Ad3PAGyReP2ZTX7wI98mffO/uF83/0hKq8tD2byoEdsv0HuF+OSkZ5Raj+2LSB+mNBUNjwyOqpSprYnlGKA+fkJ698aYTEk4098FOI4wCfNowmjsZci7+T8E/Hr0HwY9AGi0+E/SLIQOhhRepf+ng6WktJ/I5kX9pAz6SBld2iW+QZpAC8AOMZvYJL8lbfDRQpI+ksuZwviJSqI/a9qPHtlnzCPvzgYAsYAiZRDCPS0omNuLIEySwkFd6G9PJCUD0OUAICU7NQh1AKPnKKSKgE1GGDHdGHFM9+mJZnJMySwMjZ8ADzftxDC5BThtzL/obABA95/+5yT9yf0fwI8zuNN2BjUASMkADEQAAGD7VNJH7G4haZkc/iSQek/atAwIqgfbLwKfJs+46jp4Bfji2HVBgxoAvAj8LpcjPbI34ewnhe+2oIOhDqZPuDZHxW5T/Dfh2hmyedEN9k68XsD/5XCkV2xfS+/FrhAC5RUyuVOYCLZvohvzGEbrw/yPNHwnA4CY/l86wcQfmxySEyu8U8WL7gR+n8GdLjCoZ+GzJlybs0ip9di+hHSRlrUlLZ7DnwRSswCbZ/GiMCRs/xw4o2k/JsIBtsd5vNTJAID09H/Tv7AvkSbjCLBXv7d5jcHjCdd2ORWeEry0buRxDaRmASBUYjfJ70n73W2ay5HCkEnJ2lTNqbYPGt8/DmIAMAL4Sy5HhksUfUi9yVxt+4Ic/nSElHP8lPqBpkkJAPpRDnqC2L6BdNGnz0pq7Pgkzgc4O8HEfJJyiMUUhoCkmWjvMcDxTEQor3MBQJz8l5L+P992k4UbmwNzJdpog3pZnaRkALocAKSouw1cABDZh7SRwdMA2+VxpWdSg/vNsnhRGAp70b56m7cI4+C3n9he17kAgO6n/1MHkJwTi4UGiZQMwKKSUmSEG0HSoqTJHz+by5cuYftvpBf4fqXhavqLCSqlvVICgBqQNBfNHxmNzQhgA9tD6g4btADgFdKlQ3tG0vJAqljHARlc6RpP0vvEtGmBNTP6UhcbJ1z7vO2UrEnX2Z+09qwFgLUy+TJsotBMSpC/+HAHzRR64gDSO7lycgGwgu0hDyzqVAAQ0/8pvboXxTO2pkh9+r9yXK0c/U4cw/lcgolNcvlSIyk+p/bEdxrbj5AuEfzVHL4kkHoMsEEWLwrjRNJCNH9UNJpbgTVtrx+nSw6ZTgUApFe4Njb2V9LsBOGIFLoqP5mDFE3/jXqdv90EUSRquQQTN+XypcP8PPH69SV9MIMfvZIaAHQx69UlDgEmbdiHe4DPAsvZ7qkFtjM3xchqCde+CZybyY9e2Ia0oQ7/AM7J5EsXSfneZyXtvVM3WxKEaXpl4AMA23cBKVLfk9DgjI3o/2MJJj42sTGzhd6QtALpdRajerzmKuBbwPy2F7N9cko7eGfGAceinOeBGXs0caHtdTO6NCwk3ULa8cXXbR+ey5+uEc80H0gwca3tVXL5UxWSpiVkO97fowkDs9t+Jp9X3UTS5qTp6z8PzGX7tUwuDQtJvwJ2SjDxEdvX5/KnEJB0GbB6opkNgKuBecfxmo1QxPvEGK/HgWts9zoifJx0KUJclN43f2g2/b8gaZv/i8CxmdzpJLYflHQHsGSPJlaWtInt1D7xqtmd3jd/gKvK5v82ZxGeoufu8fqZgI0Ya4BKjVxAWgCwJlACgIxIWpv0zf9q2+fH/7+dBoWEunQE8NGEa98iTVwjldQpXcfYTtGF7xdSp6UdKqnpc7vxIun9hPReCqfk8KUfsD0KOCrRTJPSun8BXk+4fo1cjhTezkLnmBfRGh2XQQkAro7jNpsiJQAw6QVN/cIfE69fmPb17Y7JYaSNh36T9J9Rv/Eb0jbR9SQ10upl+2XS6hhWbsr3PuXTpGVyAc5tk47LoAQATff+p/TkXmn7n7n86TK2/w7cnWjmR5JWy+BOViR9hfQBURfZfiGHP/2C7eeAPySYmJYGNQFI6waYElg5lyODTCyoPDjRzFvkmVeRjU4EAFFxaZ4EE01GXJ9JvP6kLF70D6nHAJMDp0uaN4czOZC0JpCjwPO3GWz0I6kZtCaPAUo7YDvYEZg/0cZJtlMfYLLSiS4ASVvR+9nmm8AMtl/N6NKQiL3nT9C7pvtrwGy2B2q064SQNAdwP0GzPYW/EaqkX0z3qnckzQ/cQFqBK8AdwNIDNCFyWEi6GVi2x8tfAGa1nSLP2zOS7qf3zec62yULkICkqYEHSRvO9QawQBSpag2dyACQlv6/vYnNP7IKaQNdzi2b/7ux/SRwaAZTiwBXSuq1QjyZ2E98JembP8BBZfOfICmZo/fRrI5EShZg6aIHkMzXSNv8AY5q2+YPgxEANJn+Xyfx+pL+Hzc/JggjpbIUcJOk1PkMw0bSNoTNP/XGAnAncGYGO/1MahtwV48BpiQEu4UekDQjsGeimf8SlANbR+sDgDibe/EEE9fl8qUH1k649nlgyEMdBok4GyDXDO5ZgcslfT6TvQkiaVJJhwAnk2+QyFHl6X/CRI30exJMbNKgnPSVwMsJ16fISg863wHem2jjx7ZbOZ2z9QEAYXpeip+NZAAkzUzvZ44Ap9p+M5c//YbtMwl90jmYAjhe0hWSVsxk83+QtAlwF/krgX8s6RtdmnfQEClZgNlIn+TZEzHgTZF3TrkPDSxxJseuiWaeBX6SwZ1K6MINIyX9/7jtFD3tFNYiTc/91FyO9DG7kTY3fWw+Dlwv6XRJC+QyKumjkq4hpOkXzmV3DKYm3GSukVSF/X4h9RggVf89hVsSri0BQG98F5gq0cYhbRZx6/cAoMnz/08mXPsizfreCWzfQ7rS27jYHLhX0l8l7d7LbHVJy0o6WNJdBM3vOiqxVwJuk7RPKfz6X2zfTlrtSJMtdSkjnpcs74fhER8Adkg08zDV3J+y0eo2wPimfZHeo7DGBuhIepLeC7zOtN3k00ZniEpnFwOrVrzUPYSN/Cngyfjfpwi6ArOP8ZqbsFE01l0QuR3YPm56hYikH9J7/cgoYMYmnuhiu+iwZr2PxVK278jlT78j6TRgi0Qzn7d9Yg5/qqLtAUDqm34F27WPRpW0BKEvu1d2tn10Ln/6nVipew3VpNe7zEjg+8DB8Rx54IkdHynZtbVsX5rLn6ESdej/DczQo4kdbQ/0QLGhImk54EbSjnDvBpa0/VYer6qh7UcAKRK6r9LclKWU6n+Ai7J4MSDY/jeh5fLJpn1pGZMB+xCOBVZq2pmWcD0hc9MrjYyUjl0eKXUApRNg6PwfaZs/wN5t3/yh/QFAivTiTQ1W0X8o4dr7bT+cy5FBwfajwHqEI6PCu1mYUCD4k6hqNrDEjfSKBBNNquqlBACLZfOij4my3J9INHON7XNz+FM1bQ8AUjIAN2TzYvik9HeXp/8eiWecmxHknwvvZhLgG8CdbRyGVDMpRwArNdhumVIImHIvHSQOy2CjNeN+J0Y/BwAPZPNi+EyRcG0JABKw/Rdgj6b9aDEfBi6T9CtJ0zXtTEOkBADT09zT9K0J184uKXV+Rl8j6VOkH5Wcb/uvOfypg7YHAClHADmkYnvl+h6vGwFcntORQUPS9ITJXYXxI2An4B5J6zbtTAPcQZqyXlPHAP8kLbtVsgDjQdKkwPcSzbRu3O/EaG0AEFsAP5hgoskA4BTC9KfhcpTtV3I7MyjED/GplPPOoTI3cIGkEyS9r2ln6sL2KEKVd680EgBEv/+ZYCJ1nG0/sz2wYKKN39u+M4czddHaAACYh1DF3AsjgUcz+jIsbD/P8McXvw4cUYE7g8TPSR/A1AZeB/YFNgLqULL8HPA3SYOkPZFyDNBIJ0DkwYRrSwZgHEQtkQMSzbxBUA7sFG0OAFKi1UditNwkOxOGeAyFN4EdbKe0Jw00kr4OfLlpPzJwFaF/+JBYSbwYcDRQtWDHrMAZkv4o6f0Vr9UGUgKAeSXNms2T4VECgPzsCsyZaONo2ynZmUZocwCQ8mZtMv0PgO3XCE9wEzvTfxnY0Pbvq/eqP5G0IWFEcJcZQQgaV7P999F/aftF2zsT1AUfqsGPTxGyAZ+tYa0muY60oKop0amU4uZyBDAWkt5LetX+S6TXDzRCmwOAlDdrHTfKiRJv3msQ5hmcQ3ijjB5ecy/wbeDDtkvlf49IWopw3NLm9/KEeAk4EljE9tHjG+tr+3JgCeCnhGKjKpkJ+J2k8yTNVfFajRDFo+5LMDFvLl+GSckA5GUPILX+5ae2/5XDmbpp802z0xmAMbF9je2NbU9ne3JgMtuL2P6R7Wea9q+rSJoDOA/oYnvTw8C3gLls72p7oiqGtl+x/U3CGfS9FfsHsD6hU+BLUYq230gpBPxwNi+GR0oAMMegC0GNiaTZCRNFU3gO+FEGdxqhBAAN0IL6hM4Te5rPI/3sbjQPEtLCVf5uRhKOhDYH5rP9E9sjhmvE9vXA0sCh5B2HPC6mJ9QgXCqpqafeqkhJpzf1s3iYtN95U7ULbeS7hFHaKRxqu7Pqo60MAGI7V4qcbiuOAArVEJXYfk/YBHPwL8KQl5UJ6cBNCGn5lBQxhGDiJuAHBJniGW2vYftPqUGg7ddt7wOsQD0zL9YA7pK0W4NKeLlJeVBoJACwPZK0zpBBKPCcKHHE9xcSzTwK/DKDO43R1hnR8xDGrPZKqzMAhWR+RCiwzMFrwMaj5y/EaP7s+ELSnAR1sFkJN8+x/zsKeJYQRDw7xuthgiZ4pU8Htm+TtDywJ7AfaSqUE2Nq4GfApyXtaDs1QGqalPtEU0cAAM/Q+wPSLDkd6TAHk77/7d/1KZttDQA+kHDt811OyRQmjKSdCZr2OTCwXUypj/sL7CeAJzKtVwnxqfAQSWcCxwBVT/5bGbhd0oHAD+P6XSQlAJhJ0vQN3WueTbh24AMASUsDWyaa+RtwYgZ3GqWtqbwUjfKS/u9TJH2SIPaTi/1sn5rRXqPY/huhQPCbQNWKklMQahBukLRkxWtVgu1nCV0YvdJUHUBKxfnABwAM0LjfidHWAGDahGsfz+ZFoTVIWhQ4jXxZqxNsH5LJVmuw/ZbtnxJaBq+oYcllgJskHSzpPTWsl5suHgOkZAAGugYgTsL8ZKKZ62yfncGdxmlrAJDS1pUS0RdaSFRdO59QkZ6DK4EvZbLVSmw/RCjc+zLw34qXm5wgXXyrpBUrXis3nSsEpGQAUsgx7nevDDZaQVsDgJQMQAkA+ghJUxEK8ubJZPIBYDPbvQxr6hQO/ApYFPhzDUsuClwr6Ufx99YFuhgAlBqAHpC0KZAaoP7Z9lAl3ltPWwOAkgEoEMVnTiD9QzuaF4D1bb+QyV4nsP2Y7fWAzxN+BlUyCUHg6E5JH694rRykBABNpdNTMgADeQQQW8tTj/xMHz39Q3sDgJIBKED4wG6RydYbwKa2U8RfOo3tEwlP6X+qYbn5gMsl/VJSSlFv1aT01Kfcp1JIyQDMlM2LbvF50uc3nGL7jhzOtIW2BgAlAzDgSNqevNH2F21fldFeJ7H9tO3NCYFV1frlItQg3B07ONpISn1EUxLUKVmcKbN50REkTUH6uN83CTobfUUJAAqtQ9LqBPnZXHwvPv0WIrZPBxYBTqphuQ8AF0o6TtKMNaw3HFLuF00FAK8lXFulUFRb2QWYO9HGb2z3ncBcWwOAcgQwoEhaEDiDNCXIMTmVoPldGAvbz9veFtiAetpntyOMGt60hrWGShcDgBT1uYHKAEiaHtg70czLwEEZ3GkdbQ0ASgZgAJE0E6HdL9dT4vUEpb+Uue99j+3zCbUBv6lhudmAP0k6VVIbCtJS7hdN1QCkBACDlgH4Nul1Dz/r16mtauO9UdIVQK8VxGvE2emNIml+4BME2dSFgPuBO4GLbd/WpG9tJJ7TXQp8NJPJh4EVuzqnuykkrQH8lrRhXEPleeBrtn9fw1rjJB5J9Hqm/qLtGXL6MxTiMKaUYVKTd1i+echE/ZCHSHugfB74cC9TO7tAyQBkRtKkkvYjaEX/EvgsYZjMNgQRipsl/TSOsy28w2/Jt/mPILT7lc1/mNi+DFgcOByoWup0JuBkSefGoUtN0LkjgChBm7KBD8oxwH6k/47+r183f2hvBuBewlNzLyxi+96c/gyVKH5yKeGpf2L8HVjedtUqba1H0neBAzOZGwmsZ/uSTPYGFkkrE4YL9fpZHA4jgN1t/7aGtd6FpDfoveZkKtspRXk9Ieklet/cZrb9fE5/2oakeQnjvFNqiR4DFmji91sXJQOQl4MY2uYPsCBwRIW+dAJJ25Bv8wfYpWz+ebB9LbAUYXhK1SnjGYDfSLpUUh3HD2PSuSwApQ5gYhxEeiHxAf28+UN7A4CU4pqXs3kxDCQtx/DH1G4nad0q/OkCklYBjs1o8se2f53R3sBj+3XbexPUGOsQQVkTuEvS1+JZdx10MQAorYDjQdIShCPXFO4lqJD2NW0NAFLeoCmRcQpbAZP2cF2bWqJqI6boziLfzegsYI9MtgpjYftWYHlCS2XVcxSmIdQgXBXbQqumi5tpShFgromabSXHuN99bKf8jDtBWwOAlFnmTQ0h6XUm+lCPDPoGSe8ltPvNnMnkrcBn+mE+d5ux/abtgwkjgG+sYclVgNsl7Rm13Ksi5Z7RVIq4iz5XjqRVgfUSzdxg+8wc/rSdfgwAmkrJLd7jdYtIaqqfuHYkTU4Q+slVWPY4sKHtlPdMYRjYvocQuO4OvFrxclMSumduiKndKpg64dqmNtMUn6v+nTVJGfc7DNoaAKSc4zcVALynx+tEEEcZFI4izKnPwUvABrafzGSvMERsj7L9Y2AJoI4ZC8sSWmgPlNTrZ218dHEzTckA9GUAIGkj0jOqF7VBR6Yu+jEASPkwp/BiwrUDMaNb0p7AjpnMvQVs3W/TubqG7QeB1Qh661W3tE5OqEG4RdLyOQzGQsOUvvjaN1NJU5J2xt13AUD8PR6aaKbvxv1OjLYGAF08Aki5+fV9ACBpc0JxTi6+afu8jPYKPeLAL4HFgItqWHIx4DpJP4jaGymkXD+yoUKxlIec1/u0VmZbgpx1CqcNmkprWwOALh4BlAzAeIhPa78jvTJ3NL+wfXgmW4VM2H7U9jrA9sC/K15uUoLO+x2x8KtXupj+76LPlRGPhFK1REYC+2Zwp1OUACAfJQAYB5I+AJxDvu6MC4HdMtkqVIDt4wlPY2fVsNz8wJWSjuyxmLaLm2kXfa6SLwPzJNr4bTzOGijaGgCkHAGUGoCWIGk64DzyFTneBXx6EPpzu47tp2xvCmwJPFvxciLUINwtae1hXjt9wrolAGiYeI/ZJ9HMK/TpuN+J0dYAoGQAOk7s2z6N3tsjx+ZpQsX/wM9O6BK2TwMWAeqY+DcPcJGkY6PWxFCYI2G9plpPU7Jp/dYu+y3S75+H234qhzNdo60BQCkC7D5HAOtksvUqsJHtRzPZK9SI7edsfwbYCHiihiW3B/4maeMhfG3KFMKmNo2SAQAkzUIIAFL4N/CDDO50krYGAF3MAPwn4dq+CgAk7QZ8JZM5A9vavimTvUJD2D6XUBtwTA3LzQ6cJemUuFGMj7kS1qgjmBkXJQAI7Eva3BgI435T7t2dph8DgKZqAB5PuLZvAgBJGwA/yWhyL9tnZLRXaBDbI2x/AVgLeLiGJbciZAO2Gs+/p2QAmgoAUja9vggAJH0Q2DnRzBPAkcnOdJi2BgApRwDvz+bF8Hgk4dq+CAAkLQWcQr731bG2v5/JVqFF2L6U0M//c4KoU5XMDJwi6WxJY5/5pwQAKUF/Cil1C/1SQ3MgvauvjuYA230REPVKWwOAlPGcH8jmxfBIOZ+eSlJTRxdZiDfW80hPyY3mMtIj/EKLsf2y7a8BHwP+XsOSGwH3SNphjL/r4hHA3AnXNuVzNiQtBnw20czfgeMyuNNp2hoApLxJU/tBe+VRwnl1r3Q2CxCDl3NJe5oak/uAzW2/mcleocXYvgZYCvg+aWNuh8J7gWMkXSxpHrp5BJASADSVtcjJoaTvXfuqxutJAAAgAElEQVSWduL2BgAp6fS5JOVSnBsytl8HnkkwMWsuX+okanCfTBgRm4PnCO1+A1uYM4jYfs32d4AVCXoPVbMWcDdpI6mb2kxTspyPZfOiASStAmyYaOYm26fn8KfrtDkA6PVp+j2ECuAmSDkGWCqbF/XyQ2Ao7VZD4XVgE9sPZbJX6Bi2byFM/jsAeKPi5VKOq0aSFvCnkJIB6HQAQJ55IgM18GdCtDIAyPA03VQdQErmYoVsXtSEpJ2Ab2Y0uWNMBxcGGNtv2j6QEAi0tf3zqSaG6kiagrRC584eAUhaH0iZ+wBwqe2/5PCnH2hlABB5OOHaLhYCZhlvWhdRcjVnC80Btk/OaK/QcWzfDXwE2AN4rWF3xuaehtadk96Har0FPJnRl9rIOO73Oxnc6RvaHACkPE03VQh4f8K1i3SlE0DSosAfgckymTw5PvEVCu/C9ijbPwSWAK5u2p8xuKOhdVMebp62PTKbJ/WyDeE9kMLp8YipEGlzAPBwwrVNZQBSZklPSkh5thpJ7ye0+6UMURmTa4AdM9kq9Cm2HwA+DnyVtDbhXNzZ0LoDd/4fx/2mDusZyHG/E6PNAUAXMwB3Ed5ovdLqOgBJUxJG+34wk8mHCEV/r2eyV+hjHPgFQUDokobdaSoDMIgtgF8CPpRo41jbKRnavqRfA4BGMgC2XyP0sPdKawOA2Fp5IqFNKwf/IbT7PZfJXmFAsP2I7bUJmaMm2kVfpx7honExUBmAeCy6X6KZVwnKgYWxaHMA8HDCtU1lAABuTbi2tQEA8D1gi0y23iQI/aQES4UBx/axhOFC59S89N8aPEtPubd1LgAgdBmlyrsfYbuTxY9V0+YAICUD8F5J78vmyfBIqQOYJ56xtwpJ2wF7ZzS5s+3LMtorDCi2n7S9MbA1QUSqDppK/0NaIVynjgAkzQzsnmjmPwSFycI4aG0AYPtl0j7QuZTphktKAAAtywJIWg34dUaT349PboVCNmz/AVgY+EMNyzVSABgfDlKki/+Ry5ea2Jv0YuPDbP87hzP9SGsDgEhKFmC5bF4Mj9tJmwnQmgBA0gLAn4DJM5k8g6LCVagI28/Z3pqgTFllyvf2Cm1PiKUTrh1JkD7uBJI+AHwl0cyTwBEZ3Olb2h4A/DPh2kZa6myPIFS390orAgBJMwHnAzNmMnkTsK3tlOCoUJgots8h1AZUkWl6A7i+ArtDISWreV8sUu4KBwBTJNo4aNDH/U6MtgcAKen0JnvqL0+4tnFFwNh3eyYwXyaTjwIblQ9joS5s/8f2jsDapGUSx+a6Bt/HKRmA1KPJ2pC0CPC5RDMPAMdkcKevaXsAkKID/qEGCwFTtKbfF+ddN8kxpGtuj+a/hHa/pzPZKxSGjO1LCLoBvyDtaG40KcF9KikBQFPHFr1wCEEYLYV9O6x6WBttDwBuJu1D21Qh4GWk+f3pXI4MF0nfBT6bydwo4NO26xjvWiiME9sv2f4qQUnwgURzjXSvSJoe+HCCiU5kACStBGySaOYWglR5YSK0OgCI1ZsPJphopBDQ9rOkVQpvlcuX4SBpa/IKZuxm+8KM9gqFnrF9NUHGuldeAW7I5M5wWYrehwBBdzIAWcb9llqjodHqACCScgzQZB1AyjHA/JJS0n3DRtLKwHEZTR4eZVsLhVYQ1SxTxKyusf1GLn+GSUo28+EutMJJWgdYLdHMZfHYpzAEuhAA3JhwbVcDAKgxCyBpXuAs0qtuR3MeQcGrUGgTqwBzJVzfpHhVXxcAxuAsx9N/Gfc7DLoQAHS1EPAqguRtr2yZy5EJIem9hHa/WTKZvAPY2vZbmewVCrlI/Uw1WQCYkgHoQvp/K8IxRwpn2E7ZLwaOLgQAt5E2Ya+RQkDbL5F2XjhPLIipDEmTA6cDC2Uy+SSh4r8N41oLhbeRNAnwqQQTLxCKkmtH0rSkfUZbnQGI96GDE82MAvbJ4M5A0foAIPbcpihYVbqJToSzE6+v+hjgl8CamWy9Amxou1N644WB4ePAbAnXn2V7VC5nhslqwGQJ17c6AAC+QFqHA8Bxtpua0NhZWh8ARFLSOutk82L4pLaibBGfXLIjaQ/CBy8HbwHb2E6ZhFgoVElqMN1kW9naCdc+1+agXNLUwHcTzbxGGffbE10JAFIKAVeSlEvOdljYfoS0Y4A5yCfI8zaSNgMOy2hyD9up2Y5CoRIkTQZslmDi36QX9aaQEgD8NZsX1fB10jIzAEe2OchpM10JAFIyAJOS9gFK5bTE67MWA0paHjiJtJ7iMfm17R9nslUoVMGawMwJ159lO6Wgt2fiUJwFE0xcmsuX3MQC7T0SzYwgT/fAQNKVAOBuwhlzr6yby5EeOJ00VcBPSUqVxQTevpmcA0yVwx5wCbBLJluFQlXslHh9V9P/0OIAgDAZdIZEGz+w/UIOZwaRTgQAsfgmJZW+TuwzrR3bj5I2PWwWYI1UPyRNR+jPT023jeZvwBZFb7vQZiR9iDAeuFf+TbObaEoA8HhbC+MkzQV8NdHM08DPMrgzsHQiAIicn3DtrKQJaaSSegyQNBkrZhBOBRZP9GM0/wLWj6OPC4U28zXS7nNnN5j+nwT4RIKJNj/97w9MmWjjINspmeGBZ1ACAID1snjRG6nHAFtFtb5eOZx8xyCvARvbfjiTvUKhEuIAnR0TzTSZ/l8eSClgbmUAIGlBYPtEMw8Cv83gzkDTmQDA9n3AQwkmGqsDiBWqKR/GyYC9e7lQ0tfId05vYDvbKUcahUJd7ABMl3D9E8DFmXzphdTz/yY7FyZEjnG/+zWVmeknOhMARFImea3YVDtg5JeJ139O0jzDuUDSBsBPE9cdk/1sn5rRXqFQCTF9/rVEM0c3XOOSEgDcbfvpbJ5kInYhbZ5o5jbCkWYhka4FACnHAE23A54LPJZw/eSEqtkhIWlJ4BTy/Y5PtH1IJluFQtVsAnwo4fo3gd9k8mXYxOOLFBXTVqb/yaM/Usb9ZqJrAcCVQIrOfGN1ALGT4deJZraP1bMTRNIchGzJtInrjeYq4IuZbBUKdfD1xOvPaPgJekPS5H9bFwBIWov0jqYrbF+Uw59CxwKAOIs75UxuA0nvyeVPD/yGtAmB72Ei4y4lTUPINqSMPR2TB4BNG5yDXigMC0krkq6g+YscviSwbcK1bxIellpDGffbTjoVAERSjgHeR4isG8H2M8AZiWa+EJ/w/4d47nky+SYgvkBo9ytCG4UukbrR3Gm7MQldSbOR1v53Qwsncm4BLJto40zbKXowhbHoYgBwAWktdUk99RlILQacgvHLZ/6ANNGTMXkD2Mz2A5nsFQqVI2ldYPVEM00//W9NWpX8TJIWzuVMKnEWw/cSzZRxvxXQuQAgnsulzOVeT9IsufwZLravBu5KNPMlSbOO+ReSdgK+lWj3XWvYblUasVCYEDEDllpkNoKQRWuSzyZevzBwm6S94+bbNDsA8yfaONH2vTmcKbxD5wKASMoxwGTANrkc6ZEfJF4/FfDt0X+IxTVHJtock0Nsn5DRXqFQB58Flki08WvbL+dwphckLUKeI7wpCP32N0paKtWYpCklrSnpEEmnSPqLpDslPSXpRUmPxT9fKel4STtLWlLStATVvxRez2CjMA7UxW4KScuSlgW4zXauc/JhE6V57wPmSzDzCvBBwqyAa0kfqjGaU4GtS5tNoUtImgK4H/hAgpmXgQ/ZfjaPV8NH0qEMo913iIwkZEYOHk4xr6SZCIp96wIr05t075uEFuYUfmI7Z3azEOlqACDgUdIq3ZewnZqK7xlJ2wHHJZo5hjDq9IOp/kSuB1a3/Vome4VCLUj6FvCjRDPft91YlXm8rz1MWhAzIe4BdrB940T8mJ/QRrkdMHVFvgyVF4F5bT/fsB99SSePAOLT6YmJZpouBjwJ+EeijR3Jt/k/TND4L5t/4f/bu+9wuYvqj+PvQ29SlC5IBwWkE1SqdCkSigJSFZUiqKCIYKEoCEQsgCJIk47IjyihSlcEJAECoRkp0juEUBOS8/tj5iY34ZbdnfmW3f28nmefBL07c9LunJ3vzDltxczmpcVS2b28BQzLEE6KDShu8QdYCfiXmQ0zsw+1BDezhc3sUsLu5AFUv/gDDNPiX5y2TACi1E/Pu8Wt+ErEEqPHVTX/dMYRrvu9VHUgIi04nHDFN8XJNVhoUg//NWJG4PvAaDObUivBzPYgtPj+MvVZF14kbylzmU5bPgLoYWa3ErLmVm3l7tfkiqdZZjYz4bnlklXFQHg+uJW7/73CGERaYmarEM4DpTxnfpPw7L+yehdmNhuhv32uszyNcOA0YAlg6xLnbdSB7l71lcyOVpdMr1VnJb5/ryxRtCh2s8pRHSvFgVr8pR3FK27nkH7I7Lc1KHa1E+Uu/gBG2Oqv4+L/OOml02UQ7b4DMAfwPDB3i0O8Byzu7q/ki6o5sTTxo1SzC3CSu3+/gnlFkpnZEYSrbinGAUu6+xsZQmqZmd0DrF5lDDWzm7tfVHUQna6tdwDc/R3S2kLOBhyYKZyWxGs5VSzCf6X/ioIitRbvy/80w1DDarD4b4wW/95GEzqZSsHaOgGIzk58/7fiTkJl3P1y4KYSp7yHkGFPLnFOkSzi4d2zCcVuUjxG+tXBHHTHfVojVYekHG2fALj7nYTTq62an1DsomrfIdS7LtozwLZVVjsTSXQwsE6Gcb7t7u9nGKdlsWb/F6qMoYa+ZmZbVh1EN2j7BCBK3QU4pMorgQDuPob0RkGDeYuw+D9X8DwihTCz5YFjMgz1N3e/OsM4qQ4hHMaTqQw418wWrDqQTtfWhwB7xL8oz5B2Gnhnd/9zppBaYmbzEa4Fzl/A8JMJhX5GFDC2SCnM7B/AeonDvAes6O5PZAipZfH71lOkPcp4j9ZK9LaDq929jjcUOkZH7ADEAjYpDYKgBgfi3P114McFDX+IFn9pZ7HVb+riD3B81Yt/dCBpi/+bhH4ivyetRXpdbWVmO1QdRCfriB0AADPbBrgycZhN3L3Mw3gfEluajgKSO3j18nt3/1bG8URKl6HwF8AThE//lZa8jqV4nyJtt2/KNV4z2wA4k/S2u3VTaeO2TtdJCcCMhFO9SyQMc527V3r4xMyWBO4Ccj3/uhHYwt3LOGAoUggzW4hQKS/VF9099YNCMjPbj1CFr1UfEJrkPN1rzNmAowm3Coo60zSJcE1vZHzdTajFsgYwBFg7/rhAxjm31e5lMTomAQAwswOA1NKRq7r7/TniaZaZzUNo7btixmGfBtZ29xczjilSKjNbnXB9NcVEYH13vytDSC2LXf8eAZZPGOYid9+tn/HXJByMXiVh/L7cB+zt7qMH+qL4YexQ4CjSr2oC/Nvdc9z6kOl0xBmAXs4m/VPCoTkCaVYsa3oZeRd/gMWBK2K/dJF2leMT5czAdWZW9WKyC2mLPwxQv8DdRwFrEQolTUychzjGkcCQwRb/OP8kdz8eWJOwS5BqiJmtnWEcmU5HJQDxud5JicPsEvthl+1UYLOCxv4scHpBY4uU4eFM48xDhUlALP2dWr74Jne/d6AviH1GjgPeTZxrErCuux8Tx2yYuz8IfIY815tVK6EAHZUARH8AUhp7zASckCmWhpjZIcC+BU+zl5mp4pi0pfise2ym4apMAr4FLJU4RqPVC9em9T4pPf7o7ne3+uZ49uhg4IHEOFQYqAAdlwC4+1vAyYnDbN+7V3aRzGw7YFgZcwEnxqtUIu0oteBXb6UnAWY2L+nXfB8Crm3wazdJnOtW4LuJY/T0O9mTtMcRQ2KdFMmo4xKA6GRgfOIYJ8XDOoUxszWACynvz2EG4OLYSEWk3Qwj3JDJpewk4HDgo4ljnNREnfyUBGAcMDRXqWR3vw/4ecIQM5Ke0Mh0OjIBiAV1Uq7YQNg+2zVDOH0ys48T6hbMWdQc/ZgHuN7Mli55XpEkcTt5D+DljMOWkgSY2eLAtxOHeYHwgaFRKR0GLy2gS+KJpO0CdFqNg8p1ZAIQ/YpQJjPFcfFubVZmNicwAlg099gN+jhwo5ktVtH8Ii1x97GET4LtlgT8nPSSvb9t9BN5PGw4b8Jc5ya8t0/xkPaYhCEWyhWLBB2bAMR772clDrMEoUtfNrHS38XkrfTXiiWBG2KBFZG24e4P0EZJgJmtCuyeOMwLwClNfH3KtcnJ5Lm+15dRCe9dOFsUAnRwAhClbjkBHGFmOZvznARsm3G8FCsAfzez1OeSIqVqsyTgRNK/1x7dZAvvlEqizzZ75a8JKYmFPqxk1tEJgLs/BVyQOMzchIpWycxsfzKcqs3s08C1ZpZ6XUikVO2QBJjZZsDmicP8h1Dnvxkp2/85Si7356GE9+qDSmYdnQBEvyDUzU6xr5mtkDKAmW1Bc1t4g7kz41hrE5IA/QOTtlLnJCCWxM1xxfcId2/2e9irCfMVedhumYT3pvyapA8dnwDEQ0Op/QFmovHiGx9iZisDfyZfg44Lgc+RftOht88Ct5tZSjMlkdLVOAk4GFg1MY673P3yFt73bMKc85pZykI9kDUT3pvya5I+dHwCEB0FvJI4xjZm9uVm3xQP2Y0gvSJXj9uBfeJd4AOBv2QaF+CTwB1mVvUBRZGm1C0JiOXEj8kQw2GtvMndXwVS7vCvlfDeosZVApBZVyQA8T5ragUugFObORAYe37/lbQWxb09Rq/iHO4+mXC6+KZM4wMsAtxmZptmHFOkcHVJAmIBsTOB2RPnvsrdb014f8qCmfJJvU+x4VnKjogSgMy6IgGI/khoZ5liARp8jh+/CfwJyHWi+A1gG3efZicjJgNDSW+V2ttHgKvNrM92oyJ1VZMkYD9gg8Q5JxMqB6ZIWTB3je3Jc9qLtKRICUBmXZMAxE/LOe7072JmQxv4up8DX8owH4SrjDu6+yN9/Z/uPp7QLeu/meaD0Dr1fDP7QcYxRQpXZRJgZp8gTzOx8+OvI8UdCe9dDPht4vxTxN+XXyUM4eQ9+Cx0UQIA4O63EQ7jpTptoMYUZrY3cESGeXrs7+4DbvO7+0uE60Y5r/AYcIKZnRwLGIm0hQqTgNMJO2gp3gN+kjgGwN8S37+XmSXXLIm7oWeTdg5qlLs/lxqLTKsbv6kfSnqP7IXpJzs2s42AMxLH7+0Ed2+ooqG7P0Fomzku4/wABwGXmdlcmccVKUzZSYCZ7UmetrUnxPbHqe4g/dd+RuxbkuJg0hv5/DXx/dKHrksAYnGgEzMMtYeZbd37fzCz5YHLCdvnOVxOk88B3X00sB3pfRCmtwNwT+xgKNIWykoC4m2fX2cY+2HguAzj9Dz2HJE4zMLAA2bWdCljM/uYmV1MqH6aKnU3Q/rQdQlAdALwVIZxTu85KGNmHwOuIl+1qruBPZpo/TlFPDm8KzApUyw9liNcE8zaH0GkSCUlAb8j/d++A99w9wmJ4/SW45PzfITzQMPNrKF6/PGc1IPALhnmf9Ld788wjkzHWlhfOoKZ7QxckmGos4ADgL+TfvK3x1PAOu6e9DzfzL5B3scRvY0A9o73jUWmiNdfJ+fqJZ+LmX0auJG0RjnTG0e4GZTjmvFp7n5AhnGmiFfvxhD6fuTwBuH3cGR8jYr/2/KEO/5rEW4+fTbTfAAHufupGceTqGsTAAAzuw1YP8NQ/wTWyzAOwHhg3QwngAEws68DfyBfFcLengV2S7yrLG0uLjK7Em7ZrADMRShCcztwNXBK5k+1LSsoCcjhWWBFd38z98Dx0/gVucft5R1gjoLGHgusVGBzoq7W7QnAyoQsdtaqY4kmAdu6+zU5BzWzbYBLKeYf6WTgZ8DP3D33IwepOTPbjnAgdqBiV/cREsWURjDZ1DQJ2N7dhxc1uJn9g3wfUsq0U4ulkKUB3XoGAAB3H0Oe6za5fCf34g/g7iOAjUkvh9yXGYAjgZvMbLECxpcaMrOFzewyYDiDV7pcDbjbzDYuPrLBFXQmIMXlRS7+0aEFj1+EO7T4F6urdwAA4v32W8jzKCDFye5e6OG6WJ/8OmCpgqYYB/wU+H0L3cukTZjZPoQud/3WwujHO4Qdrpylq1tWk52AccCn3P35oicys7OBrxY9TyYTgPXc/e6qA+lkXZ8AAJjZUsBo0gt4tOoqYLsyttDjdaWrgSKv840hHNy5pcA5pGRmtizhUOnnE4Z5l1DSWklAsK+7F3VQdxpmNhvhw06u8uRF+nqj9U+kdV39CKBHLKBzcEXTjwZ2Kev5ubu/CGwIXF/gNCsDN5vZpWa2eIHzSAnMbCYzOwy4n7TFH0It+BF6HADAbYQeJaVw9/eA7al/Tf2TtfiXQzsAvZjZ34Dk0pdNeB4Y4u7PlDgnAGY2M+EK4x4FT/UOobDJL+t2LUwGZ2Y7Ef78lss8dLfvBIwH1nD3nP07GmJmawL/IL1bYRFuBLbUI8RyaAdgWt+gmINyfel5Hlr64g8Qr9XsRZ7GJQOZg9AY6cF4G0HagJltaGZ3ApeRf/GHqTsBqSVis6hgJ2D/KhZ/AHcfBexM+B5UJ3cCX9biXx4lAL3E7fFvljDVZMK1qFElzNUvD35ISHxS+yMMZhngSjO7ysxWL3guaZGZrWxmIyjnWfHshL8T3ZYEnOvuFxY8x4Dc/UrCtcAcPQdyOA/YyN1fqzqQbqJHAH0ws3MJn46Lcqi7/7LA8ZtmZisRagWsVNKU1wPHu/vNJc0nA4hnNY4B9qT8DwbvEnbDbix53j4V/DjgUWBNd3+7gLGbFkv7Dqe6g4GTgR+6+7CK5u9qSgD6YGZzAw8Anyhg+DPcfd8Cxk0WS7j+Gigzvn8DxwPDW+l7IGnMbBXgEEIlv1kqDKUbkoD3CSW+R2ccM1m8HfBb4OuUm/w9C3zT3a8ucU7pRQlAP8zs84RvAJZx2BuAL9T9GZeZ7QicCcxb4rSPEO6WX1CXsrGdKvZn35Kw8G9acTi9dXoScKC7/y7TWNnFyqjHA1sP9rWJ3ojznOzuRT96lAEoAeiHmc1J6GY1WJWzRk0Aliyj4EcOZrYEcBHwuZKnfhb4FWGn5K2S5+5oZjYr4dbHwcCKFYfTn3eBL7r7DVUHAlmTgOHuvn2GkApnZusTDgfnbOgDoUX5qcBx7v565rGlBUoA+hCrA/4fsF3moa8nfHNri+twscnLUcDhlP9c+A3gL8CFwG2xt7m0wMw+BexO2OJdsOJwGtFpScDTwKrttuiZ2RqEugFDCbU9WvEu4fvecOBKdQ+tFyUAfTCzkwjbo0W4EtixnbpbxcchFwCLVhTCs8DFwEXufm9FMbQVM1uU8Fx/N6Adb110ShIwiXC6/Z/5oypPrAI5lFBBdBHC94JFmFo9dTLwEqG2yXOEpOd64Dp3r9t1Q4mUAEzHzPYltM8t0uXAzu3UPc/M5gdOB3aoOJSHCY8mLnL3xyuOpVbMbB5gR8KivxHtf823E5KAH7v7sQWFVDkzm4vQ/vnldvp+JoESgF7MbHNCXf6ZSpjuImCPdtvaNrMtCCeGV6g6FuAOwu/jtVUVVamamS0DbBFfmwOzVRtRdnVMAv7K4A21JgM/cvfji49KpDVKAKJ4D/52YJ4Spz0H2Kfdrr/FMsIHE1opz1VxOD2eA24lFLC51d0frTacYsQrqhszdcFfutqIpnEpYZfoPCBna+i6JQFzEQ7J7U/ft4TeICT3I0oNTKRJSgAAM1sQuAtYsoLpT3P3AyqYN1l8zjwM+ErVsfThBUKzlVsICcFD1YbTGjNbjPAMf03Clb11KGeHqhn3At9x93/AlOfFN5M/CdjO3f+eccwk8drc+sDahB2Buwjttm/XVVZpB12fAMQiGDcDn6kwjN+4e1XdCJPFa0OnAKtWHcsAXibUGn8UGNvr9WwddmDizZPlCYv9avHH1YH5q4xrEC8DPwLOmv5RVkFJwHuEnYDaJAEi7ayyBCAuvEsRTpP2vBbp9fMFgbeA14BX44+vAf8jfCMfk/r8PBZEuQT4cso4mRzv7odXHUSrzGxGYD/gZ8B8FYfTjHeB/zJtUjCWcPNgPPBWjlPM8e/7YoTqkov38Vqa0DipHUwkJHzHuPu4/r5ISYBIvZWaAMST5NsQ7tdvTto3vDcJW27/Av4J3NzsKVQz+znhE0xdHOXuR1cdRIr4Z3wc8DVgxorDyWUyIRl9i5gUTPfzDwh/l2ePr94/nx2Yk3KrKhbFCfe5D2/0jIWSAJH6KjwBMLOlCQv+UGBdilsUniccPjrb3f/TQFx7AecWFEuKH7p70S16Cxf/3A8F9qbzTqZ3m8mEq6s/d/f7m32zkgCReiosAYgtPo8DhhQywcBuJ9Syv6CvuvtmtiGhSEWVzU8G8l13/23VQeRgZgsB3yWcmC7zhoWkm0Q42f9zd384ZaACk4Dt3P36jGOKdI3sCUDsLnYi4ZpS1f4DHObuw3v+BzNbjnCG4KOZ5rgYGEd4/p1T7VoGp4jX1/YnJAMLVxyODOwDQgnmY919bK5BlQSI1Eu2BCD2E/8ZodlI3SqQ/ZOwHf0fwuK/XKZx/0W4kz2BUD3wm5nG7XEWsH87lQ0eTGxIszfhz2OZaqOR6YwDzgd+XVSVRSUBIvWRnACY2RzAkcC3qf+z3ufIV8/+CUJv75dhyo2CMwgNV3K6ldA7oKOaaMRbAzsBPyRce5Pq3E1IYC8po267kgCRekhKAGKRkr8SGkR0k3HAZ6d/LhqTgD8C+2Se7zFCn/Sk57B1ZWbrEOrXfxlYqOJwusVbhDLKf6iiwZKSAJHqtZwAmNlngCvovue5HwBf6K8saUwCzgK+mnnecYQGQtdlHrc24q7AJoTKgjswtdOY5DOS8PfzQncfX2UgSgJEqtVSAmBmexK2u2fNHlH9fdPd/zjQF8SqbmcDe2WeexJwiLufnHnc2omFc7YlJANfoDv/ruXgwL+BvwCXu/sTFcczjQKTgKGdnCyL5NBUAhAXtuMJB7i60S/dvaFfe/y9OgfYs4A4/gAc1BVD1jwAABnDSURBVNcVx05kZvMS2tx+hc5oc1u0yYQDqn8B/s/dn644ngEpCRCpRsMJQNyevZxQ1KcbDSccxmu4/HBMAv4E7F5APDcBO7n76wWMXVuxrsBGwIbxtWKlAdXHa4TmR38HrnD35yuOpylKAkTK10wC8BvgO8WGU1ujgA1aOSEdE6fzKKZj3lhgm0YqH3YqM1sA2ICQDGwErEzfLVo7zSuEBb+nBfIDdWhqlEJJgEi5GkoAzGwfQmW9bvQM4brfc60OEJOA84Fds0U11RvAl+rSK71qZvZRpiYEGxI6FLb7I4NJhBoWowlVLm8BHmz3Bb8vSgJEyjNoAmBm6wE3Ut+yuUV6C1jP3UenDhSTgAuBnZOj+rAPCP3Yf1/A2G3NzOYkFH5aPv7Y++d1bLX7InA/8ED88X7gIXd/v9KoSlRgErBOK70MRDrVgAmAmS1BKBKyQIExTCRsY44hFOp5Pr5eJrSV7WkRvAjhG/emlNM2dTLhOtGIXAPGJOAiims/fAWwn7u/VND4HSUeLpw+MViG8PduLsI1xDnJ90hhPOHveM/r2en+e6z+7IKCkoCRwGea7Roq0qn6TQDiJ6d/AasUMO944BrCwbqrB+op3kdcswObEboLbktxn+KOdPdjcg9qZjMRHgfsknvs6BXgW+7+54LG7yqxrsMchISg5/WR6f57JuDdAV7vAa+7+1tlx9/OCkoCOqrHhkiKgRKA3xOat+T0FjAMOMnd304dzMxmJjTh+Sn5E4Gr3X3rzGMCUxaVIwlxF3Vg7TLgAHd/paDxRQpXQBJwr7t3W+VSkT71mQCY2QqELfmZMs3zAaFE7tHu/mKmMaeIneYOAw4GZs849LY5HwFMz8x2JFwTnLOgKV4iPBK4oqDxRQpnZp8m3MSZOcNwb7v7XBnGEWl7/SUAlxNKsebwOOEE7gOZxuuXmX2CUKtgrUxD/hdYucgDWGa2KqGfwhJFzUE4d3CQu79W4Bwi2ZnZxsDpwLIZh13M3Z/NOJ5IW/rQ9Sgz+yz5Fv9bgCFlLP4A7v4UsD5hwcthWeCQTGP1Kd4wWBv4R4HTfAV40My2LXAOkWzMbD4zO4twAynn4j8JKLzjoUg76Ot+9ImZxj4d2LzsNrbu/p677wYcTjjJn+pHZrZIhnH6FVsKb0Lor1CUhYG/mdm58fS7SC2Z2ZeBh4GvFTD8nd1WPVOkP9MkAGb2RWC9DOP+zt33c/eJGcZqibsfT57KhXMC+2YYZ0DuPtHd9wUOJJyZKMpewBgz27LAOUSaZmaLm9mVwKUU1xb6moLGFWk7U84AxJPpY0ivrX4TsEVdGtWY2enANxOHeQ5Yoqxfk5l9nnCK/2MFT3UWobvgmwXPI9Kv2DPjAOA4im0B/T/CI0nVWhBh2h2AtUlf/B8jlKWtxeIfHUiomZ5iUeCLGWJpiLvfDAwhJGRF2gd4xMz2i/UJREplZisB/wROodjFfzzhVo8Wf5GodwIwNHGs9wmV82p10jw+htiJUF0wxX4ZwmmYuz8OfJZwQ6BIiwCnAQ+b2S5xJ0ikUGa2oJmdDNxL+HtepDcInTNLOYws0i56JwCpbX5PdfcHE8coRDxk99PEYTaNRUlKEyvHbQ8cW8J0ywIXA6N0PkCKYmYfMbOjCLuFB5Hnbv9AbgNWdffrC55HpO2Yu2NmyxG6jbXqdWCZOp+ujXX47yftMcdh7p7rlkRTzGxn4GzK6YMAoT/DD939zpLmkw5mZrMQKov+iGJ7i/SYSKi2eYK757gNJNJxenYAUrf/j6vz4g8QG4AcljhMjhsSLXH3SwmtbVPPMzRqQ+AOMxsen9OKNM3MZjCzPYBHgd9QzuI/Fvicu/9Ci79I/3p2AG4HPtfiGM8DS7VLu1Iz+xetP3N8DZi/yj7s8Rn9t4DjKa6E8PQmExoYHenu/ytpTmlzZrY18Avg0yVOeybw3Ry9RkQ63QxmthDwmYQxrmiXxT+6OOG9HwU+lSuQVnhwKuGb6k0lTTsDoX7Af8zsN2ZWxqc4aVNmtpGZ3QaMoLzF/1VgB3f/hhZ/kcbMQNhW7qsiYKOGZ4qlLKnxVvYYoDd3fwLYlPBcdXxJ085CKK70uJkdpYqC0sPMZjGzPczsHkL3vvVLnP4GYBU1vRJpzgyEO+6teoNQ779tuPvTwD0JQ6ybK5ZUcTfgD8DKwN9LnHouwgGr58zsHDNL2UGSNmZm85vZj4EngfOA1UucfgLwPULJ8edKnFekI8xAuAfeqqurLPebIGUX4BPZosjE3Z9y982BbwDjSpx6dmBvwmHB0WZ2QGzNLB3OzFY0szOAp4GfkfZ9pBVjCFX9flXlmRyRdpa6AzAqVyAlS4l7/mxRZObuZxJ2A6qod74K8DvCrsCZZrZ2BTFIgSzY0syuAx4kJJyzlRzGeOD7wBqxk6aItCg1AUitrleVlLhrmwAAuPsz7r4V4ZP5GxWEMCehxPC/zeweM9vXzIos8SoFM7OFzey7hEX/GmDzikK5AFjB3U9q051HkVpJfQTQjQlA0Q16snD3PxGKHl1ZYRirA38g7AqcYWZrVhiLNCFW7Nszftp/Bvg11d2AGQ1s4O57uHu7fs8RqR0jHN5ZosX3r+DuKRUEKxG7j00AZmxxiHndvcxn7UnMbDfgJIprsdqMUcDpwMWx1LHUhJnNDGwJ7EZofjV7tRHxBvAT4LRYyEtEMjLgPWDWFt/fVgthb2b2PLBwi29fOl7DaxtmNgfwbeAHwHwVhwPwDuG62LXAte7+34rj6UqxsNS6hEX/S9Rjh8uBcwilqF+uOhiRTmXAy7T+XHsxd382YzylMbPxhOtsrZjf3V/NGU9ZzGwewiGq79L6r78IjxGTAeBmFXMpTkwGNwQ2IzSbWrLSgKY1EjjQ3e+qOhCRTmeEBjmtVusa4u53Z4ynFPFQ2pstvn2Cu7e6Y1IbsZrf4YRCQmWf5B7MBOAfTN0dGFNxPG0tPvJak7Dgb0Yo+z1LpUF92KvAEcCZqt8vUg4jfJPdosX3b+fuf8sYTynMbHlCc5JW/M/dl8wYTqXMbDHCc9avATNVHE5/ngGuI/xdvcHdq7jd0FbMbCmmLvgbE8pY19GrhCZBp7Tr40SRdjUTkFJBK+UKYZVS4u6oimPu/gywr5kNA44CdiWtNHQRFiNcLdwHmGRmdxKSgVGEq2lPd3MxmLil/2lgNcIn/Y2BZSoNanAvEg6mnqbDoCLVSE0Als4VSMlS4u6oBKBHPIS3u5kdT6jsltoiuigzEg6t9S7JPN7MHiYkAw/FHzsyMYiPblYjXLFcLb6Wp/UbLWV7FjgR+KO7v1t1MCLdLDUB2IpwqrzdbJXw3o5MAHrE5+3bm9kQ4FhCw6G6+wgwJL56a8vEwMxmAT5OKDu9OPBJpi767brr9iShhfU57j6h4lhEhJAApBTWWMnMlnH3x3IFVDQzm5XWzzxA+xY/aoq7/xvYzMw2IiQCn6s2opYMlhg8DLxC6J/wZq/X9P/9Zo5t6njlbnbCNczFmbrAT/9aiHA+pxOMBY4DLnD3D6oORkSmmgl4PHGM7YBfZYilLJuQdv0t9ferrbj7LcC6sbb/NwhnBOp0fbAV/SUG/TKzSYQ69H0lCROBOQiL++wD/Lxuty2K9CAhcfyziviI1JPF19OELcdW/MPdN8gXUrFiB7NvtPj2D4CF3P21jCG1FTObC9iF8HvY8AIqXeEDYARwJqFTaG0fs4gImLtjZr8n3Adv1Wfd/c5cQRXFzBYlbEnO0eIQN7v7xhlDamtmtgohEdgdmLficKQ6jwJnAee5+4tVByMijem57vXXxHGGpQZSkqNpffGH9N+njuLu97v7QYSDaXsSivdId3gbOBdYz90/6e7DtPiLtJeeHYBZCCWB504Ya6i713aBNLMVCVUPU65LLeXuT+aJqDOZ2QqEXYE9gQUqDkfyu4vwaf8Sdx9fdTAi0jrreUxnZpcAOyeM9Qjw6bqe9DWzEcDWCUOMdvfVcsXT6WJSuR0hGdiUzjnV3o1eAS4AzlJZZpHO0bvi2/DEsT5JKOlZO2Z2IGmLP6T//nQVd5/g7pe5++aEqnTHECr36WBYe3iB8El/KPBxdz9Yi79IZ+m9AzAP4R996lWl/d39D6mB5WJmmwLXkF7nfjV3H50hpK4WK9ltTqjFsDnhzrtUz4F7CKf4RwCjdIpfpLNZ73/jZnYicGjimB8Am7v7zYnjJItNf+4kFF5JcaW7fzFDSNJLLIyzKrAlISFYF5i50qC6y9vADYQF/yp374oiVyISTJ8AzEfoy566YL4GbF3l1UAzW4bQMGbZxKEmAau4+0PpUclAYo2BzxOSgS2pf0ObdvQ/pn7Kv8Xd36s4HhGpiE2/y2dm3wN+mWHs94Gvu/sFGcZqipltDFxGnhaoZ7p7q4WDJEFM4raIr41p/wqEZZtEqMh3d3zdruf4ItKjrwRgVkJhjyUyzXECcIS7T8403oDigb9fk6e3/TvAcu7e0Q2A2oGZzUzoR7ABUzvhLVVpUPXihCJXd/d63efu71QalYjU1ocSAAAz2x04P+M8NwOHuPt9GcecRvy0eAKwY8Zhj3X3H2ccTzIys3mZ2hJ39fj6FHmSv7p7iqkL/UhgpLuPqzYkEWkn/SUARriytXrGuZxwl/jH7v5UrkHNbH7gJ4RSxjkPkL0MLOvub2YcUwoWd7BWAJYmnCHo/VqC9kkO3iQ8r+95Pdnr54+7+yvVhSYinaDPBADAzNYBbgVmzTzn+4T7xX8hNBJqunBQTFDWBnYgLPwpFQz78xV3v7iAcaUiZjYjoQXvMsCSwIKEaoUL9Pr5gsD8wCwFhDCBcPL+nfjjm4RP8h9a5N399QLmFxGZot8EAMDM9gbOKXD+14CrCDX2xwDP9VVe1MzmABYBlge2JVSYW7TAuI5398MLHF9qLtbFWIDQxnfWXq9Z+vhvmLqov93Pz9+pa5VMEelOAyYAAGb2S+B75YQDhG+WzxO24OcjLPzzlDj/lYS+BqUcWhQREalCIwnADIQ7w18oJaJqPUhobawmJyIi0tEGTQBgynbonYR6/53qVWCIuz9edSAiIiJFm2HwL4F4vWhboFMPJk0EdtLiLyIi3aKhBADA3f9LKMLyRHHhVOJ1YCt3v6XqQERERMrScAIAEMuIDiFcD+wEjwDruPsNVQciIiJSpqYSAIBYgGQz4Iz84ZTqWuAz7j626kBERETK1nQCAODuE919X+AgQvvfdvMrYBuVThURkW7V0C2AAQcw24TQN2CRLBEV603gO+5+btWBiIiIVKmlHYDe3P1GYFngp0Bd789PBE4GltHiLyIikmEHYJrBzBYkJALfJG9jnlY5cCnwI13xExERmSprAjBlULPlgOOAnbIP3ribgMPcfWSFMYiIiNRSIQnAlMHN1gB2ITTvWb6wiaZ6htBY6DJ375SriiIiItkVmgBMM5HZpwiJwFBCLQHLNPQYwqI/XJ/2RUREGlNaAjDNpGaLEEoLr0Ro69vzWoTQYnV6E4EXCF0Cn4uvscCV7v5YGTGLiIh0kkoSgIGY2UcJycACwGvE1sBet0BFRETaWO0SgHYXE5jFgPlo/DHH+8CLwAvu/k5RsYmIiPRQApDIzBYinGvYDtgQmCNxyEeAa4C/uPu/EscSERHpkxKAFsVP+kcAB9L3uYUcLgG+5+7PFTS+iIh0KSUALTCz7YGzgXlLmG48objSKe4+qYT5RESkCygBaJKZ/QQ4mnzXGBt1H7CJu79W8rwiItKBknsBdBMzOxo4hvIXf4DVgIvMTH9mIiKSTItJg8zsy4St+CptAfys4hhERKQD6BFAA8xsUeA/wJxVx0JocLSDuw+vOhAREWlf2gFozNHUY/GH8PjhT2ZWxgFEERHpUEoABhE7G3616jimMzfwxaqDEBGR9qUEYHC7ADNWHUQfvlR1ACIi0r50BmAQZjYSWLPqOPrwPrCgu79ZdSAiItJ+tAMwgFjtr46LP4Tqg9tWHYSIiLQn7QAMwMxWJRTgqavHgQcKHP8lYGR83ZurI6OZzQ4MAdYCVgfmShjOgScIMf7b3f+bHqGISOdTAjAAM9saGFF1HDVxG/A1d38sZRAz25hQRnmJLFF92FnAIXo0IiIyMCUAAzCzvYBzW3z7q0Ajn0bnBj7V4hxle4eQBFzaypvN7BfAYRRfSfFp4Avu/mDB84iItC0lAAMws72Bc1p8+6XuvksDc2wE3NziHFUYD6zs7k818yYz2xb4WzEh9ek+YIi7TyxxThGRtqFDgNKsjwBnNvOGeJjyjGLC6ddqwI9LnlNEpG0oAZBWbGZmzTzD3xZYuKhgBvD1CuYUEWkLSgCkVWsV9LU5LWpmC1U0t4hIrSkBkFatUdDX5rZqhXOLiNSWEgBp1esFfW1ub1Q4t4hIbSkBkFaNLOhrc5pEsYWSRETalhIAacVE4J4mvv6uogIZxBh3f7eiuUVEak0JgLTi2CYr7V0L3FBUMP1w4NCS5xQRaRszVR1AB5vTzJZs4OuquB6X4l7g2Gbe4O5uZl8jbMfPU0hUH3aau/+9pLlERNqOEoCBTUh47zbx1UluAL7q7h80+0Z3f9rMtgDOB5bLHlmvqYBTgR8UOIeISNvTI4CBPV91ADXgwFjgAGBzd3+m5YHc7yJU6Pst8EKe8KaYSDhsuJm7f9vd38s8vohIR1EvgAGY2fLAo1XHMYArgD8XOP5LwCh3H1fE4Gb2cfK1Ax7t7u9nCUxEpAsoARiAmc1KuMM+e9Wx9GNDd7+t6iBERKT96BHAAOInyroeJHsB+GfVQYiISHtSAjC4v1YdQD+ucPfJVQchIiLtSQnA4C4jPAuvm8uqDkBERNqXEoBBuPt44Jiq45jOSEDP/kVEpGU6BNgAM5uZsOiuUnUswCvAmu7+VNWBiIhI+9IOQAPcfSLwRap/FDAJ2EWLv4iIpFIC0CB3/x8wFBhfYRiHu/uNFc4vIiIdQglAE9z9DuBzwJMlT/0e8GN3H1byvCIi0qGUADTJ3ccA6xAq8JVxgOIqYEV3b6oBj4iIyECUALTA3V9y950JicB1hGfzuT0JDHX3bdz9iQLGFxGRLqZbABmY2ceArYENgUUJLX7nBazBId4HXiRU97uHUH3wHtcfjoiIFEQJgIiISBfSIwAREZEupARARESkCykBEBER6UIzVR2Amc0ALATMTeOH5t4FXnT39woLTEREpIOVfgjQzOYGtiRU1VuXcGq+1UTkDeAu4BpCe1yVyBUREWlAaQmAmc0DHAp8F5izgCneB34BHO/u7xcwvoiISMcoJQEws52A04GPFj4Z/Bf4lrtfX8JcIiIibanQQ4AWHEkom1vG4g+wLHCdmZ1vZjOWNKeIiEhbKfoWwInAUTR+uC+n3YETKphXRESk9gp7BGBmuwPnFzJ4c3Zz94uqDkJERKROCkkAzGwp4CFgtuyDN+9dYF13v7fqQEREROqiqEcAx1KPxR9gduBynQcQERGZKnsCYGarAbvkHjfRUsD6VQchIiJSF0XsAOxJNYf+BrNT1QGIiIjURfYzAGb2GLB01kHzeB74uKv/sYiISN4dADNblnou/gCLEEoPi4iIdL3czYCWyjxebr80s/sKGtuBZ4GRwCh3fzl1wHhw8VPAWsCqhAONncKBx4C7gXvcfXzF8YiIdJXcCcDHM4+X2zrxVTgz+yPwvVYXNjNbHzibUNmw000ws2OAE9z9g6qDERHpBlnPAJjZD2i9+t544LUGvm4u4GMtzlG2/wE7uPs9zbzJzIYB36OehymLdA+wnbs/U3UgIiKdLvctgJTxznb3JQd7Ad/PFGsZlgAuMbM5Gn2Dme1K+DV22+IPsAZwVtVBiIh0g6J7AQgsR2hTPCgzWxA4pdhwam9zM9un6iBERDqdEoBy7G9mszbwdbvTPo83ivSdqgMQEel0SgDKMTPhFP9g1io6kDaxYjOPTUREpHlKAMrTyOKuBCCYEVit6iBERDqZEoDyvJvpa7qFfi9ERAqkBKA8IzN9TTd4HxhTdRAiIp1MCUA53gYeauDr7i46kDZxn7tPrDoIEZFOpgSgHEe7+6QGvu48Qnncbndk1QGIiHS63KWAU8xqZvM28HXtdjr8n8BJjXyhu79jZl8FbqF7k7Mz3f26qoMQEel0uUsBfx8Ylm3A9ncLsJu7P9fMm8xsT0JBoLmLCKrGLgT2c/e3qg5ERKTT5f6U+Xzm8drVq8DBwMbNLv4A7n4e8GngaqAbmuM8QeiZsLsWfxGRcuTeAdgIuDnbgPkNB24taOwp7YDd/clcg5rZbIQ78R3bDtjdX6w6GBGRbpM7AVgMeDrbgPmt6u73Vx2EiIhI1bI+AohtXOu6wI7V4i8iIhIUcdJ8eAFj5nBZ1QGIiIjURREJwLnAhALGTfWXqgMQERGpi+wJgLs/AZyae9xE/3L3e6sOQkREpC6yHgKcMqjZRwmlbxfKPnjzngfWauU6noiISKcqpNqcu78G7Ej1jwImADtq8RcREZlWYeVm3f12YH/Cfe+qHOjud1Q4v4iISC0VWm/e3c8m7AS8XeQ8fXgX+L67/7HkeUVERNpCIWcAPjSJ2arAWcCahU8GI4CDclbjExER6TSldJxz99HA2sBXgLEFTfMUMNTdt9XiLyIiMrBSdgA+NKnZKsBQ4HPAosDCwEcAa3CId4EXCSf87wKuIVz1m5g/WhERkc5TSQIgIiIi1SrlEYCIiIjUixIAERGRLqQEQEREpAspARAREelCSgBERES6kBIAERGRLqQEQEREpAspARAREelCSgBERES6kBIAERGRLqQEQEREpAv9PwmmeJVSbwuWAAAAAElFTkSuQmCC;" vertex="1" parent="1">
          <mxGeometry x="330" y="549" width="75" height="75" as="geometry" />
        </mxCell>
        <mxCell id="Oy2jvIcbdFQ_JYFm3saa-9" value="" style="shape=image;verticalLabelPosition=bottom;labelBackgroundColor=default;verticalAlign=top;aspect=fixed;imageAspect=0;image=data:image/png,iVBORw0KGgoAAAANSUhEUgAAAgAAAAIACAYAAAD0eNT6AAAABHNCSVQICAgIfAhkiAAAAAlwSFlzAAAN1wAADdcBQiibeAAAABl0RVh0U29mdHdhcmUAd3d3Lmlua3NjYXBlLm9yZ5vuPBoAAB90SURBVHja7d0JlCR1fcDxX8997Mmy7MXCuotcEqIIymGEsF4RIooIiiheSDwSkyiYYBTxERUx8cCHCkESDCAqBpCIF4gHeCwgcoPcuyyLBPaeq69U9Y7GwAI72z0z1V2fz0ul8flsZn7dU/9vV3dXFarVatC6lq9c1Z/cHJxsS5Jt/ma2qaYEk+O+B1b8+MX77X2QSTAZCgKgJRf92cnNq5Lt1cn2kmTrMRXInhtuui1mTp8mAhAA1LXodyU3b0+2o5Nt/2RrMxXIfgCkRACTwSLR/At/IdnekPzj7cl2ZrK9yOMKzWX12nUH/uTn111tEggAtnTxT9/bX5ZsFyTbYhMBEQACoLUX/rnJ9p3kH69MtuebCIgAEACtv/jvNfqq/y9MA0QACIB8LP6vS25+mmzbmwaIABAArb/wpx/0+2jyjxclW5+JgAgAAZCDxT+5+Y9kOznZCiYCIgAEQD58JNneZAwgAkAA5OfV/xGjr/wBESACEAA5WfzTT/unh/4d9gdEAAIgJ4v/3OTm0vCBP0AEIABy5ezwVT9ABCAAcvXq/6Dk5lCTAEQAAiA/i3/6fv+nTAIQAQiAfDky2fYxBkAEIADy8+q/K7n5uEkAIgABkC9vD5f0BUQAAiB3jjYCQAQgAHJk+cpVs5Ob/U0CEAEIgHx5lccCEAEIgPx5tREAIgABkCPLV67qT25eYhKACEAA5MvBydZjDIAIQADkyxIjAEQAAiB/5hsBIAIQAAIAQAQgAAQAgAhAAAgAABGAABAAACIAAdCcphoBIAIQAACIAAQAACIAAQCACEAAACACEAAAiAAEAAAiAAEAgAhAAAAgAgQAAIgAAQAAIkAAACACEAAAiAAEAAAiAAEAgAhAAAAgAhAAAIgABAAAIgABAIAIQAAAIAIQAACIAAQAACIAAQCACEAAACACEAAAiAAEAAAiQAAAgAgQAAAgAgQAAIgAAQAAIkAAAIAIEAAAIAIEAACIAAEAACJAAAAgAkSAAABABCAAABABCAAARAACAAARgAAAQAQgAAAQAQgAAEQAAgAAESAAAEAECAAAEAECAABEgAAAABEgAABABAgAABABAgAARIAAAAARIAAAQAQIAAAQAQIAAESAAAAAESAAAEAECAAAEAECAABEgAAAQAQgAAAQAQgAAESAAAAAESAAAEAECAAAEAECAIB6tLfZBYsAAQCQO52dHYYgAgQAQP4CoNMQRIAAAMhdAHQ4AiACBABADo8ACAARIAAAchgA3gIQAQIAIHe6uwSACBAAALkzdUp/tBUKBiECBABAnrS1tcXUqVMMQgQIAIC8mTFtqiGIAAEAkDfTBYAIEAAA+dPR0R5T+vsMQgQIAIC8mTljuiGIAAEAkDfbbjMjuru6DEIECACAPCkUCjF/7nYGIQIEAEDezJwxLfr7eg1CBAgAgLxZMG+OIYgAAQCQN+m3AZwXQAQIAIAc2mH7+dHlGgEiQAAA5Et6XoAlixbWThOMCBAAADnS29MTixbONwgRIAAA8mbG9Gkxb85sgxABAgAgb9IA2GamswSKAAEAkDuLFi5wJEAECACAvB4JWLzj9j4YKAIEAEDepJ8J2HnJoujs9BVBESAAAHKlr7cndn32s2K6kwWJgAYoVKtVj9AkWr5ylQcAGLP1GzbGQ6t+FwMDg4bRBGZOn/bjF++390ECAAEANOYV5pp1sTIJgeGREcMQAQJAAAB5ku7H/+fxNUkMrI0NGwcMRAQIAAEA5E2pVI6169bHmmRbv35DVOzjRYAAEABAvlQqldpnBYZHilEsplspiqXSH/65nPz35DcCOjwMAK0pPW/A031jYMPAULING9TkOHDSnx8eA4B8mtLXk2zdBpHXQDQCABGAAABABCAAABABCAAARAACAAARgAAAQAQgAAAQAQgAAEQAAgAAEYAAAEAEIAAAEAEIAABEAAIAABGAAABABCAAABABCAAARAACAAARgAAAQAQIAAAQAQIAAESAAAAAESAAAEAECAAAEAECAAARIAIEAAAiAAEAgAhAAAAgAhAAAIgABAAAIgABAIAIQAAAIAIQAACIAAQAACIAAQCACEAAACACBAAAiAABAAAiQAAAgAgQAAAgAgQAAIgAAQAAIkAAAIAIEAAAIAIEAACIAAEAACJAAACACBAAACACBAAAIgABAIAIQAAAIAIQAACIAAQAACJAAACACBAAACACBAAAiAABAAAiQAAAgAgQAAAgAgQAAIgAAQAAIkAAAIAIEAAAIAIEAACIAAEAACJAAACACBAAACACBAAAiAABAAAiQAAAQL4jQAAAQA4jQAAAQA4jQAAAQA4jQAAAQA4jQAAAQA4jQAAAQA4jQAAAQA4jQAAAQA4jQAAAQA4jQAAAQA4jQAAAQA4jQAAAQA4jQAAAQA4jQAAAQA4jQAAAQA4jQAAAQA4jQAAAQA4jQAAAQA4jQAAAQA4jQAAAQA4jQAAAQA4jQAAAQA4jQAAAQA4jQAAAQA4joMPDAQATGwGOAACACBAAAIAAAAAEAAAgAAAAAQAACAAAQAAAAAIAAAQAACAAAAABAAAIAABAAAAAAgAAEAAAQDZ1NMsPuu6opd3JzcHJdliy7ZZs80a3Kc38AEz3HASaVLW7J6rTZkQl3eYsiOIez4/Ss3dPVpZOw2kChWq1mvWFf05yc3KyHZNsUz1kANmOguLeL4qhlx8e1ale4jydhfPnFgTA5hf+ruTmg8l2YrO/ygfIYwgMH3xoDC/9y4j2DgMRAGN61X9xsh3gKQLQvMrP2jk2vvVvHQ3IYABk7kOAyeL/J8nNMos/QPNrv++umPKvH472h5cbRsZkKgBGX/n/dxpGHhqAFllo1jwWfWedHoX1aw1DAGx28U/f87/Y4g/QmhHQf+5nI8olwxAAT5J+4M9hf4AWlb4d0H3ltw1CAPy/V//pof8TPRwAra37qsu9FSAA/p/0e/6+6gfQ4grDQ9HzvW8ZhAD4wxn+jvFQAORD53U/iygVDcIRgNrpfZ3hDyBHRwE6fnubQQiA2rn9AcjTUYBbrjcEAVC7sA8AeVp8HnnIEARA7Yp+AORp8Vm3xhAEgAAAyJuCABAA4et/APkLgOEhQxAAAIAAAAAEAAAgAAAAAQAACAAAQAAAAAIAABAAACAAAAABAAAIAABAAAAAAgAAEAAAgAAAAAQAACAAAAABAAAIAABAAAAAAgAAEAAAgAAAAAQAACAAAEAAAAACAAAQAACAAAAABAAAIAAAAAEAAAgAAEAAAAACAAAQAADAeOkwguZR6OuP9p12Tbbdom3HxVHomOCHr5r83/BQVNeujuq6NVFZs+k2/c+VVQ9FdeMGDxKAAKCRC3/PO/8+Ovc9MPkPhWz+kNVqlO+5M0o3XR+lm6+P8l23RpRKTTPjttlzo23RkmjfYXFEd8+Ezy6dVXV4MGJoMKq/39atjcrDK2qBlavn+zbbRvv8HaJtwcLkn2dn9zn/VAY2RPmhB6OycnkSxisjyqUAAcCYtS/eOXr/9sPRNmd+xvfahdGjE7tG9+FvrB0pKN9+UxSvuiKKv/rppkUugzpftDS6jz4u2mbNzuxoqwMbayGQLijlB+6J8q03Rvm+32Z2plv3RG+PrpccGt1HvDkK02a0zu+VLP4jP/puDH/tK1Fdv9YOjWzttquTvBNZd9TSqofhKV6Vbr9jTPnkl5NVqrOpf49K8mpo+NILo/izK5MdYjkbs12wQ/Qe//5o32WPppxpdeP6JAR+E6Vbfx3FX/40qqsfa961f+fdk8fiA7Xne6tK3x4bvvDfYuQH37Zj+yNrP3N+rn//hfPnTurhLQGQYX0n/2t07P6nLfP7VB59JEa+fVGMXHVFRHFk8p7002dG/ye+mOlX/WMbbCVKN/4qiskrzeINP2+qt14KM2fFlNPPjsLU6bn4mx74xD8kj9UyOzcBkIkA8C2AjEoPTbfS4l97ss2eEz1v+5uYctqXk1d7iybnh+joiL73f7R1Fv/aYNuiY699ozf5vaZ+6evR/Zqjm+OoUaEQve/+YG4W/1TvX50QhSlT7eDIxq7DCLKpa+khrfukW7BD9H/8zOh88Usnfq4vfVXTHvbfojU1WUy7X//2mPIv50bH3gdk+mfteO4LomPP5+fq7zo94tF1yBF2cAgAnuaB2XFJa+8Iu7uj9z3/UPt2Q3R2Tdyik5MFp23OvOg74WPR96HTasGVRekHRvOofckudnAIAJ7iQZk9Nwr9U3Lxu6ZHOvpPPSMKM7aZgMG2Rftue+bqudSx596199h73vSuKPT2ZWshfNaz8xkAOf29EQBsyavj2XPytUNctFP0ffDU2lGBcX2yz1+YuUVwYgbcEV2HHhFTPndedB5wcHZ2Phk9MjHuf9/TZiTP9Z4AAcCTdxB5fFW0eJfofe9J43rSl0JHZ76fV9NnRu/ffGjThwQzEiZ5VPndqtp5MkAAwKiOF7woeo453iDGWfohwfQtgaY7w16LKN97pyEgAOCJug59XXS99C8NYtznfET0vuvE2ucimOAAuPkGQ0AAwOb0vPWvJ+88ATnSeeDLou/9p0zotzByv/jff3eMXPUdg0AAwGa1t0fPG48zhwnQsff+0X/SJ/P54ciJVq3G0NmfqZ25EQQAPNXCtNe+0d5iZ0LMbG8lc07PF5DXD+VNiGIxhr7y+SjffYdZkJ39rBG0pvTSvLWL7zRYoa8v2mZtV7tMa/uiJeP6/f2eN74zNn7oPR7MiYiAZ+8e3UceG8MXnmMYDZZeDGvw8/9cO/wPAoDx3+mseCBGvnPx+P5L0ksA7/Kc6HzBn0XnQS+PQn9jz3Genimuc98Do/iLH2dmrqVbb6ztzBs+yt6+2mli25Kgqt0mW+12wQ4TduKY7sPeEKVf/yrKd9zsD6iu+i5Hefl9tQhPX/GXrrkyqsPD5oIAoIVUq8licUttG/6vC6L7qLfWruneyK+Xdb/h7VH85U9q/65sFEAxqmseb/wo0/t8eEVs7mLJ6Wl9O/c7KDqSLT1p0ngGXe97/zE2nnhcVAc2Zj9yH3s0Np707uz9WWzcMKlXuwQBwMTu9NavjaF/+2wUf3RF9J14asPeGmibuyDad35OlO+8JbezrTzycAxfcmFta5u3fe1sfunXJcfjg3u1Kza+/X0xeMbHm2AwlXGJMcgLHwKkodLDnhv/6a9r73s2rFL3eqHB/n7Ne3hFDH/zvNjwd2+J4rU/Gpd/R3op6iydMhgQADTLIvXoqth48vtqpzxtyIK0136G+gTV1Y/F4OdOjYFTT6hFQaOlRwHaZs02aBAAMMYFav26GPyXkxvyXmjbDs+Ktm23M9TNKN18Q2w44R0x8t1LGnq/6dUou1//NgMGAQBjl37taeg/zmzIfaXnBeAppN8xP/eMGLnsoobebfo2QGGbbc0XBACM3cgPL4/KivvrD4Dn+RzAMxk6/6wYvuSCxt1he0d0/8XhBgsCALZCtRrD3ziv/rVotz3NcgukJ/IZvvirjTsKsPSQKPT0GiwIABi79Hv8lYcfqus+aifK6e4xzC2JgK//exSvvboh95V+FqDz4FcaKggA2LqjAKXrr61/MZo+wyy3UHre+eq6NQ25r65XvtZlg0EAwNZJTzFbdwBMm2mQW9pc6YmZzvl8Y3YSs+dE574vNlQQALAVAXDHTcn/K9UXADMEwFik11ConUa5EUcBXvEaAwUBAFtTAKWorH6sziMA3gIYq9pRgAaciyG9WuB4nHoYEADkQHVtfedtb/MZgK2Y+eoo/vzqBuwp2nwTAwQAbOViVOeFW3wGYOuMfO+yhtxPx3OeZ5ggAGArdNX3Nb7qiGuqb43y3bdH+b7f1n0/7Xs81zBBAMBWPNnqPK1sejibrTwK8P1L6w+AHZdEoX+qYYIAgLEp1Hl1Odd+33qla6+OKJfrfAAL0b67zwGAAICxvHpcvHPdnyJ3BKCO2Q0NRvmBe+q+n47neBsABACMZeHY54C676PiCEBdynfdWn/I7fIcg4RW2S8bAeOuUIjOF9Z/JjlHAOoMgDtviajzhD5tM2Zl52k1ZWr0HPueSf0ZqsWRqNx9R5TuuLlhp14GAUDL6NzvoGhbsEOdq1cpqhvWG2ZdAVD/EYDC1OnZCYDevuh6ZXYuV1x56MEY+to5UfrVzzzZaAreAmB8pdeUf/3b6l+87rnLLOtdoB57NKpr63yV2tnpjIBPtTNNIrfv/adE77tOMCMEAHQffky0zZlf9/2UrrvGMBsgvUhQ/UcBphnk0zXSQa+I/tPOMicEAPnVsff+0f3aYxpyX8XrrjXQRgTAwIb6A8A1GZ55xzpnXvQe/wGDQACQP+2Ldore9/5j7QOA9ao8vKL2/ioNCICNDQiADH0OINMBvM8B0bX0EINAAJCjHd9z94m+Uz7bsPdBS8sc/hcAzan7TX+V1HC7QSAAaPWX/e3Rdejrou/Ef45CT2/D7tbh/wYGQCPeAvDe9pbPKong9sW7GATZfLFmBDTmVf8LoufN76r/635PkB76b8QJbBhdkBoRZi7KNLa/jd33jPJvbzMIBACto237HWvf8e/c98DaP4+Hof/8cvKytWrYjQqAGdvUfxRhrRPejOnvZNFOhoAAYOK07/G86DvhY42/497+aJs1e9OV/bq6x/V3KN1yQ5Ru+IUHM2MBUHHGuzEp3+scFggAJvJVR7pI13n1vUmVvOofPu9LHshGPy+mN+AIQAPOJZCrAPjNdYZANvcHRkAWFa/+bkOuXscf/7W3RWFa/Z/gd02GLVdZcX+UH7zXIBAAsEULzMYNMXTRuQbR6D/2edvXf16GcrkhXyXMxfN4/boY+NSHDQIBAFukVIrBT38kqqsfM4sG69j9T+tf1Das86HMLVEsxkDyPK48stIsyO4+wQjIzkumagyeeVqUbvuNWYyD9t2fW/9D5BsAz9ywy66JofPPqp3BEgQAbIGhC86O4jVXGcR4/bHv9id130d5xQMG+aShlGuLffnB+2LkB5dFWcAiAGDLjXzv0hi57CKDGCfp+/+FmbPqX+tuuzEzv1P6NtHAJ0+a3J+hVNx0mL9Y9CRDAMDY9qDVGL7kwhi+6CtmMZ5/6M/ftyH3k6W3Z6qlUpTvv9uDCwKAplv7162JwS98Mkq/WWYY4/ryvy26Xv6a+h+vNY+7KiMIAKhP+fabYuBzp/q0/wTo3PuAaNtubgNe/d9kmCAAYCtfRQ4Px8i3L4rhi78aUakYyAToOuSIxkRbht7/BwQAzbLwD2zc9EG/71xcO/TPxEgvRdu+6x4NuS9fzwQBAFu+8K9dU1v0R753SVQHBwxkIhUK0f3G4xrzOHr/HwQAPJP0a1Glm2+IcrIV06v5uX78pOh62auiY4/nNeS+nJ8BBAD8n1IpKmtX1w7pV1Yur12+N130K48+YjaTrG3O/OTV/zsbVHSVGLniW4YKAoCmWJuThXjk8q839k6r6Yf4BmuH9dNF30VhMqpQiN53fzAK3T2NefX/y5+IOhAANIvq4/8TpRt9vz6Puo94c8M++JcaufwbhgotyNUAoZUW/9ccXQuARinfeUuU777DYMERACCzi//hx0T3UW9t6H0Oe/UPAgDI8OJ/xJui+3Vvaeh91r7NsewawwUBAGRNYfqM6Hnzu6PzRUsbft/Dl1xQu1gTIACAzKz8hehaekh0H/2OKPRPbfjdpx8gLV51hTmDAACyon2HxdFz3N9F+867j8v9V9evi8EvnW7QIACASX/BP3NWdO57YHTu/+fR/uzdakcAxsvQ2Z9xlUYQAMDEr/aFKEydHm3bbFtb7GuL/m57juui/3vFn3y/duIfQAAAf6Rt+0W1w+8NX/P7+pMFf3YUkkU/XfijY+L/NNOz/Q195QwPMggA4EkBMGt2dL3k0Nb7xarVGDzzNFdshDztz4wAci5Z/IfOPSPKt/3GLMARACAvi//glz4dxau/axYgAIBcKJdi8AufiOK1V5sFCAAgF4rFGPjMKVG6/udmAQIAyIPq8FAMnv7hKN18g2GAACBTO+iNG+q/j4ENBslmnlvrY+C0f6pd5hcQAGRMecX9EcWRiM6urb6PyooHDPKJM1nzeI5X/moUf/KDGDr/rKiuXZ2NHyn9OWbP2fr//fo1ntQgAFqtAMpRfuDeaN9p1zoiQgA8acFIAqDyu1XRtt3cfD2d7r87hs75fJTvujVbP9e9d9X1HK8kfyOAAGi9nXa9O8f0KAJPnmuyCOYlANLD/cNfOzdGfnBZJi/rW77vrvr+9w8KAKiHEwFl1Mh/fzOqQ4Nb9b8t/uzKqG5Yb4ibUbr11zlY+au1S/lueN+xMfL9SzO5+Nceixt+Wbvy4NY9yUeidP0vPKFBALSeyqqHamdnG/O+P1n4h8470wCfat340Xdb9qtv6Wl8R354eWz84PEx+OVPJ4vr2mz/vGser52EaGsMf+v8qDyy0hMaBECLLlZXf29sZ2hLT+n671+I6lofjnq6GQ2e8fHWeYsk+X3Kd9wSg188PTYc/7rapXzLD9zTND9+6bprake7xiJ9e2z40q95LkOdCtVJPjy47qilVQ/D0+t84Yuj+9h31y5E85RHDJIFbfCLn47y3bcb2JY88afPjO7D3xhdSw+p69sWkyE9OpR+h7980/VRuvXG2nv9za5jj72i563vqV1t8eliZ+Tyb8TQRedu+pYMTW/tZ87P9e+/cP7cwmT++wVAsyxY3T3RefAro33xztG+aKcobDc3Kg+viEryaq989x0x8qMrkpdTJYMa61xnzoqulx2WzHRJtM2ZH23bzUuCoHNyfphyqfa5j+rgYER6OzRQO5pTWbk8yisfTCIv2ZLblv18R3t7dO53UO353bZgh2ibvzAKPb21Ixrl+34bpWXXClwBIAAEAAACQADUw2cAACCHBAAACAAAQAAAAAIAABAAAIAAAAAEAAAgAAAAAQAACAAAQAAAAAIAABAAAIAAAAAEAAAgAAAAAQAACAAAEAAAgAAAAAQAACAAAAABAAAIAABAAAAAAgAAEAAAgAAAAAQAACAAAIDWCIANHgaAfClPmW4IAiAe9jAA5Etp7gJDEAACACBvRradZwgCIG73MADkLAC2X2wIAiAu9TAA5MuGZ+1qCAIgrkq29R4KgHwoT50ew129BpH3AJh20ZXDyc1/eigA8mH1K46KqjEIgFGnhK8DArT+q/8p02P1Ls81CAHwh6MAjyQ3n/JwALS2R488Pipe/guAJzgt2a7xkAC0po0vOCjWzVtkEALgSUcBRpKb1ybbcg8LQGtJv/a38mVHeu9fADxlBKRvBRwiAgBaa/Ff8ea/d+hfADxjBNyc3OwT3g4AaHrpYf8H3vKBKBZce04AbPmRgIOT7SPh2wEATSf9tP+qt50YD730SK/8M6pQrWb7kVl31NI5yc3JyXZMsk31kAFkeOGfOr32Pf/0q37PtPDP3TbfVwRcOH9uQQBsWQh0jx4VOCzZdku2eaPbFH9yAJPzKj+9ql96YZ/0ff709L7pGf62dFURAAIg15bddKcHAMidQqEQc2ZNEwCTyKcyAJj4xaetYAiT/RgYAQATrb3N8iMAAMidjnbLjwAAIHe6uzoNQQAAkCfpBwC7OjsMQgAAkCe93Z1JBJiDAAAgV6/+p/T1GIQAACBP+nu7fQVQAACQJ12d7dHf120QAgCAvEi/9z9jan947S8AAMjR4j9zWp9D/xnjexgAjJv0sH/6yt/iLwAAyIH00/7pB/7S9/wt/QIAgBws/On3/NOv+nnVLwAAaNHFPl3k0/f403P7p6f3Tc/w5yQ/AoAtMHfb6YYAwITzLQAAEAAAgAAAAAQAACAAAAABAAAIAABAAAAAAgAAEAAAgAAAAAQAACAAAAABAAAIAABAAAAAAgAAEAAAIAAAAAEAAAgAAEAAAAACAAAQAACAAAAABAAAIAAAAAEAAAgAAEAAAAACAAAQAE1pvREA2PcLgPxZaQQA9v0CwJMAAPt+AeBJAIB9vwDwJADAvl8AeBIAYN8vAJrTPUYAYN8vAPLnqmQbMgaA3Bga3fcLgDxbOH/uxuTmhyYBkBs/HN33CwDiEiMAsM8XAPlzWbJVjAGg5VVG9/kCgNrbAI8mN9eaBEDLu3Z0ny8A+IMLjADAvl4A5M85yXavMQC0rHtH9/UCgP+zcP7ckeTmJJMAaFknje7rBQBP8vVkW2YMAC1n2eg+PjMEQLaOAlSTmxNNAqDlnDi6jxcAPGUEXJ3cXG4SAC3j8tF9e6YIgGw6LtlWGANA01sxuk/PHAGQzaMAq5Kbw5JtwDQAmla6Dz9sdJ8uANjiCLghuTk22aqmAdB00n33saP78kwSANmOgG8mN6eYBEDTOWV0H55ZAiD7PpZsXzUGgKbx1dF9d6YJgOwfBagdRkq2k8PbAQBZlu6jPxqbDv1nfn9dqFatKc1i+cpVhyc35yVbv2kAZMrA6ML/zWb5gQVA80XAnrHpUpI7mgZAJqRf9Tssyx/42xxvATSZ5Al2U3KzT7JdYhoAky49cds+zbb4OwLQ/EcD/iy5OT3ZXmgaABMqPbf/iVk8w58AyFcIHJncfDzZlpgGwLhKL+mbXrn1683wQT8BkI8I6Exu3pFsRyfb/uHtHYBGqSTbNcl2YbKdk6VL+goAnhgDs5ObVyXbq5PtJcnWYyoAYzKUbD+MTZ+3uixZ9B9ttV9QALR+DKRfGTw4Nr09MH8z21RTAnJqfbKt3Mx2T7JdlSz6G1v5l/9fPBK8Yy/ooD0AAAAASUVORK5CYII=;" vertex="1" parent="1">
          <mxGeometry x="756" y="558.5" width="62" height="62" as="geometry" />
        </mxCell>
        <mxCell id="Oy2jvIcbdFQ_JYFm3saa-11" style="edgeStyle=orthogonalEdgeStyle;rounded=0;orthogonalLoop=1;jettySize=auto;html=1;strokeWidth=2;strokeColor=#757575;entryX=0;entryY=0.5;entryDx=0;entryDy=0;" edge="1" parent="1" target="Oy2jvIcbdFQ_JYFm3saa-9">
          <mxGeometry relative="1" as="geometry">
            <mxPoint x="433.5" y="589" as="sourcePoint" />
            <mxPoint x="621.5" y="589" as="targetPoint" />
          </mxGeometry>
        </mxCell>
        <mxCell id="Oy2jvIcbdFQ_JYFm3saa-12" value="&lt;font style=&quot;font-size: 14px;&quot; color=&quot;#525252&quot;&gt;&lt;b&gt;Analytics&lt;/b&gt;&lt;/font&gt;" style="text;html=1;align=center;verticalAlign=middle;resizable=0;points=[];autosize=1;strokeColor=none;fillColor=none;" vertex="1" parent="1">
          <mxGeometry x="339" y="639.79" width="90" height="30" as="geometry" />
        </mxCell>
        <mxCell id="Oy2jvIcbdFQ_JYFm3saa-13" value="&lt;font style=&quot;font-size: 14px;&quot; color=&quot;#525252&quot;&gt;&lt;b&gt;Report&lt;/b&gt;&lt;/font&gt;" style="text;html=1;align=center;verticalAlign=middle;resizable=0;points=[];autosize=1;strokeColor=none;fillColor=none;" vertex="1" parent="1">
          <mxGeometry x="752" y="639.79" width="70" height="30" as="geometry" />
        </mxCell>
      </root>
    </mxGraphModel>
  </diagram>
</mxfile>
